M48
;DRILL file {KiCad 5.0.2-bee76a0~70~ubuntu18.04.1} date Fri 08 Feb 2019 11:17:58 AM MST
;FORMAT={-:-/ absolute / inch / decimal}
FMAT,2
INCH,TZ
T1C0.0236
T2C0.0256
T3C0.0315
T4C0.0394
T5C0.0433
T6C0.0512
%
G90
G05
T1
X3.79Y-4.21
X3.83Y-5.26
X3.84Y-4.56
X3.85Y-4.92
X4.06Y-3.755
X4.09Y-3.6619
X4.1291Y-3.7441
X4.24Y-4.17
X4.25Y-3.94
X4.25Y-5.26
X4.26Y-4.9
X4.28Y-4.56
X4.3275Y-3.3625
X4.41Y-3.55
X4.4347Y-3.7166
X4.5Y-3.765
X4.51Y-3.65
X4.5166Y-3.95
X4.57Y-5.41
X4.62Y-3.94
X4.66Y-3.76
X4.69Y-4.1
X4.69Y-4.81
X4.69Y-5.15
X4.7Y-3.94
X4.72Y-4.46
X4.7375Y-3.1925
X4.79Y-3.86
X4.85Y-4.4
X4.85Y-4.73
X4.85Y-5.07
T2
X3.53Y-2.95
X3.58Y-2.95
X3.63Y-2.95
X3.68Y-2.95
T3
X3.1116Y-3.13
X3.21Y-3.13
X4.86Y-3.0316
X4.86Y-3.13
X3.07Y-3.99
X3.07Y-4.09
X3.07Y-4.19
X3.07Y-4.29
X3.07Y-4.39
X3.07Y-4.49
X3.07Y-4.59
X3.07Y-4.69
X3.07Y-4.89
X3.07Y-4.99
X3.07Y-5.09
X3.07Y-5.19
X3.07Y-5.29
X3.07Y-5.39
X4.97Y-3.6302
X4.97Y-3.7302
X4.97Y-3.8302
X4.97Y-3.9302
X4.97Y-4.0302
X4.97Y-4.1302
X4.97Y-4.2302
X4.97Y-4.3302
X4.97Y-4.4302
X4.97Y-4.5302
X4.97Y-4.69
X4.97Y-4.79
X4.97Y-4.89
X4.97Y-4.99
X4.97Y-5.09
X4.97Y-5.19
X4.97Y-5.29
X4.97Y-5.39
T4
X3.4Y-4.2
X3.4Y-4.3
X3.4Y-4.4
X3.4Y-4.5
X3.4Y-4.6
X3.4Y-4.7
X3.4Y-4.8
X3.4Y-4.9
X3.4Y-5.
X3.4Y-5.1
X3.4Y-5.2
X3.4Y-5.3
X3.5Y-4.2
X3.5Y-4.3
X3.5Y-4.4
X3.5Y-4.5
X3.5Y-4.6
X3.5Y-4.7
X3.5Y-4.8
X3.5Y-4.9
X3.5Y-5.
X3.5Y-5.1
X3.5Y-5.2
X3.5Y-5.3
T5
X3.5Y-3.575
X3.5Y-3.675
X3.5Y-3.775
T6
X3.13Y-3.55
X3.13Y-3.7469
T0
M30
