G04 #@! TF.GenerationSoftware,KiCad,Pcbnew,5.0.2-bee76a0~70~ubuntu18.04.1*
G04 #@! TF.CreationDate,2019-02-08T11:17:56-07:00*
G04 #@! TF.ProjectId,driver,64726976-6572-42e6-9b69-6361645f7063,rev?*
G04 #@! TF.SameCoordinates,Original*
G04 #@! TF.FileFunction,Legend,Top*
G04 #@! TF.FilePolarity,Positive*
%FSLAX46Y46*%
G04 Gerber Fmt 4.6, Leading zero omitted, Abs format (unit mm)*
G04 Created by KiCad (PCBNEW 5.0.2-bee76a0~70~ubuntu18.04.1) date Fri 08 Feb 2019 11:17:56 AM MST*
%MOMM*%
%LPD*%
G01*
G04 APERTURE LIST*
%ADD10C,0.300000*%
%ADD11C,0.120000*%
%ADD12C,0.150000*%
G04 APERTURE END LIST*
D10*
X84630380Y-95431428D02*
X86565619Y-95431428D01*
X85598000Y-96399047D02*
X85598000Y-94463809D01*
X84630380Y-90277142D02*
X86565619Y-90277142D01*
D11*
G04 #@! TO.C,Q1*
X92170000Y-88225000D02*
X92170000Y-98465000D01*
X87529000Y-88225000D02*
X87529000Y-98465000D01*
X92170000Y-88225000D02*
X87529000Y-88225000D01*
X92170000Y-98465000D02*
X87529000Y-98465000D01*
X90660000Y-88225000D02*
X90660000Y-98465000D01*
X92170000Y-91495000D02*
X90660000Y-91495000D01*
X92170000Y-95196000D02*
X90660000Y-95196000D01*
D12*
G04 #@! TO.C,U1*
X110832000Y-86719000D02*
X110832000Y-86944000D01*
X115482000Y-86719000D02*
X115482000Y-87044000D01*
X115482000Y-96669000D02*
X115482000Y-96344000D01*
X110832000Y-96669000D02*
X110832000Y-96344000D01*
X110832000Y-86719000D02*
X115482000Y-86719000D01*
X110832000Y-96669000D02*
X115482000Y-96669000D01*
X110832000Y-86944000D02*
X109757000Y-86944000D01*
D11*
G04 #@! TO.C,J1*
X78018648Y-90958712D02*
G75*
G02X77822000Y-90170000I1483352J788712D01*
G01*
X80291088Y-91653953D02*
G75*
G02X78713000Y-91654000I-789088J1483953D01*
G01*
X80985953Y-89380912D02*
G75*
G02X80986000Y-90959000I-1483953J-789088D01*
G01*
X78712912Y-88686047D02*
G75*
G02X80291000Y-88686000I789088J-1483953D01*
G01*
X77821550Y-90199383D02*
G75*
G02X78018000Y-89381000I1680450J29383D01*
G01*
X81182000Y-95170000D02*
G75*
G03X81182000Y-95170000I-1680000J0D01*
G01*
X77502000Y-87610000D02*
X77502000Y-97730000D01*
X81502000Y-87610000D02*
X81502000Y-97730000D01*
X83562000Y-87610000D02*
X83562000Y-97730000D01*
X75442000Y-87610000D02*
X75442000Y-97730000D01*
X83562000Y-87610000D02*
X75442000Y-87610000D01*
X83562000Y-97730000D02*
X75442000Y-97730000D01*
X80571000Y-96445000D02*
X80478000Y-96351000D01*
X78286000Y-94160000D02*
X78228000Y-94101000D01*
X80777000Y-96240000D02*
X80718000Y-96181000D01*
X78526000Y-93990000D02*
X78433000Y-93896000D01*
X77442000Y-87370000D02*
X75202000Y-87370000D01*
X75202000Y-87370000D02*
X75202000Y-89370000D01*
G04 #@! TO.C,R22*
X103834000Y-77849252D02*
X103834000Y-77326748D01*
X102414000Y-77849252D02*
X102414000Y-77326748D01*
G04 #@! TO.C,R23*
X107263000Y-77849252D02*
X107263000Y-77326748D01*
X105843000Y-77849252D02*
X105843000Y-77326748D01*
G04 #@! TO.C,R24*
X109272000Y-77849252D02*
X109272000Y-77326748D01*
X110692000Y-77849252D02*
X110692000Y-77326748D01*
G04 #@! TO.C,R25*
X112701000Y-77849252D02*
X112701000Y-77326748D01*
X114121000Y-77849252D02*
X114121000Y-77326748D01*
G04 #@! TO.C,R26*
X117550000Y-77849252D02*
X117550000Y-77326748D01*
X116130000Y-77849252D02*
X116130000Y-77326748D01*
G04 #@! TO.C,J2*
X90230000Y-105350000D02*
X85030000Y-105350000D01*
X90230000Y-133350000D02*
X90230000Y-105350000D01*
X85030000Y-135950000D02*
X85030000Y-105350000D01*
X90230000Y-133350000D02*
X87630000Y-133350000D01*
X87630000Y-133350000D02*
X87630000Y-135950000D01*
X87630000Y-135950000D02*
X85030000Y-135950000D01*
X90230000Y-134620000D02*
X90230000Y-135950000D01*
X90230000Y-135950000D02*
X88900000Y-135950000D01*
G04 #@! TO.C,Q5*
X115915000Y-103905000D02*
X121925000Y-103905000D01*
X118165000Y-110725000D02*
X121925000Y-110725000D01*
X121925000Y-103905000D02*
X121925000Y-105165000D01*
X121925000Y-110725000D02*
X121925000Y-109465000D01*
G04 #@! TO.C,Q6*
X110495000Y-112630000D02*
X110495000Y-111370000D01*
X110495000Y-105810000D02*
X110495000Y-107070000D01*
X106735000Y-112630000D02*
X110495000Y-112630000D01*
X104485000Y-105810000D02*
X110495000Y-105810000D01*
G04 #@! TO.C,Q7*
X92420000Y-105810000D02*
X98430000Y-105810000D01*
X94670000Y-112630000D02*
X98430000Y-112630000D01*
X98430000Y-105810000D02*
X98430000Y-107070000D01*
X98430000Y-112630000D02*
X98430000Y-111370000D01*
G04 #@! TO.C,Q8*
X121950000Y-118980000D02*
X121950000Y-117720000D01*
X121950000Y-112160000D02*
X121950000Y-113420000D01*
X118190000Y-118980000D02*
X121950000Y-118980000D01*
X115940000Y-112160000D02*
X121950000Y-112160000D01*
G04 #@! TO.C,Q9*
X104510000Y-114700000D02*
X110520000Y-114700000D01*
X106760000Y-121520000D02*
X110520000Y-121520000D01*
X110520000Y-114700000D02*
X110520000Y-115960000D01*
X110520000Y-121520000D02*
X110520000Y-120260000D01*
G04 #@! TO.C,Q10*
X99090000Y-121520000D02*
X99090000Y-120260000D01*
X99090000Y-114700000D02*
X99090000Y-115960000D01*
X95330000Y-121520000D02*
X99090000Y-121520000D01*
X93080000Y-114700000D02*
X99090000Y-114700000D01*
G04 #@! TO.C,Q11*
X115940000Y-121050000D02*
X121950000Y-121050000D01*
X118190000Y-127870000D02*
X121950000Y-127870000D01*
X121950000Y-121050000D02*
X121950000Y-122310000D01*
X121950000Y-127870000D02*
X121950000Y-126610000D01*
G04 #@! TO.C,Q12*
X110520000Y-130410000D02*
X110520000Y-129150000D01*
X110520000Y-123590000D02*
X110520000Y-124850000D01*
X106760000Y-130410000D02*
X110520000Y-130410000D01*
X104510000Y-123590000D02*
X110520000Y-123590000D01*
G04 #@! TO.C,Q13*
X99090000Y-139300000D02*
X99090000Y-138040000D01*
X99090000Y-132480000D02*
X99090000Y-133740000D01*
X95330000Y-139300000D02*
X99090000Y-139300000D01*
X93080000Y-132480000D02*
X99090000Y-132480000D01*
G04 #@! TO.C,Q14*
X104510000Y-132480000D02*
X110520000Y-132480000D01*
X106760000Y-139300000D02*
X110520000Y-139300000D01*
X110520000Y-132480000D02*
X110520000Y-133740000D01*
X110520000Y-139300000D02*
X110520000Y-138040000D01*
G04 #@! TO.C,Q15*
X121950000Y-136760000D02*
X121950000Y-135500000D01*
X121950000Y-129940000D02*
X121950000Y-131200000D01*
X118190000Y-136760000D02*
X121950000Y-136760000D01*
X115940000Y-129940000D02*
X121950000Y-129940000D01*
G04 #@! TO.C,Q16*
X93080000Y-123590000D02*
X99090000Y-123590000D01*
X95330000Y-130410000D02*
X99090000Y-130410000D01*
X99090000Y-123590000D02*
X99090000Y-124850000D01*
X99090000Y-130410000D02*
X99090000Y-129150000D01*
G04 #@! TO.C,C4*
X85438064Y-104034000D02*
X84233936Y-104034000D01*
X85438064Y-102214000D02*
X84233936Y-102214000D01*
G04 #@! TO.C,C5*
X81386000Y-108273436D02*
X81386000Y-109477564D01*
X83206000Y-108273436D02*
X83206000Y-109477564D01*
G04 #@! TO.C,C6*
X83206000Y-114677436D02*
X83206000Y-115881564D01*
X81386000Y-114677436D02*
X81386000Y-115881564D01*
G04 #@! TO.C,C1*
X114140064Y-84730000D02*
X112935936Y-84730000D01*
X114140064Y-82910000D02*
X112935936Y-82910000D01*
G04 #@! TO.C,C2*
X121290000Y-81437241D02*
X121920000Y-81437241D01*
X121605000Y-81752241D02*
X121605000Y-81122241D01*
X123042000Y-75011000D02*
X123846000Y-75011000D01*
X122811000Y-75051000D02*
X124077000Y-75051000D01*
X122642000Y-75091000D02*
X124246000Y-75091000D01*
X122504000Y-75131000D02*
X124384000Y-75131000D01*
X122385000Y-75171000D02*
X124503000Y-75171000D01*
X122279000Y-75211000D02*
X124609000Y-75211000D01*
X122182000Y-75251000D02*
X124706000Y-75251000D01*
X122094000Y-75291000D02*
X124794000Y-75291000D01*
X122012000Y-75331000D02*
X124876000Y-75331000D01*
X121935000Y-75371000D02*
X124953000Y-75371000D01*
X121863000Y-75411000D02*
X125025000Y-75411000D01*
X121794000Y-75451000D02*
X125094000Y-75451000D01*
X121730000Y-75491000D02*
X125158000Y-75491000D01*
X121668000Y-75531000D02*
X125220000Y-75531000D01*
X121610000Y-75571000D02*
X125278000Y-75571000D01*
X121554000Y-75611000D02*
X125334000Y-75611000D01*
X121500000Y-75651000D02*
X125388000Y-75651000D01*
X121449000Y-75691000D02*
X125439000Y-75691000D01*
X121400000Y-75731000D02*
X125488000Y-75731000D01*
X121352000Y-75771000D02*
X125536000Y-75771000D01*
X121307000Y-75811000D02*
X125581000Y-75811000D01*
X121262000Y-75851000D02*
X125626000Y-75851000D01*
X121220000Y-75891000D02*
X125668000Y-75891000D01*
X121179000Y-75931000D02*
X125709000Y-75931000D01*
X124484000Y-75971000D02*
X125749000Y-75971000D01*
X121139000Y-75971000D02*
X122404000Y-75971000D01*
X124484000Y-76011000D02*
X125787000Y-76011000D01*
X121101000Y-76011000D02*
X122404000Y-76011000D01*
X124484000Y-76051000D02*
X125824000Y-76051000D01*
X121064000Y-76051000D02*
X122404000Y-76051000D01*
X124484000Y-76091000D02*
X125860000Y-76091000D01*
X121028000Y-76091000D02*
X122404000Y-76091000D01*
X124484000Y-76131000D02*
X125894000Y-76131000D01*
X120994000Y-76131000D02*
X122404000Y-76131000D01*
X124484000Y-76171000D02*
X125928000Y-76171000D01*
X120960000Y-76171000D02*
X122404000Y-76171000D01*
X124484000Y-76211000D02*
X125960000Y-76211000D01*
X120928000Y-76211000D02*
X122404000Y-76211000D01*
X124484000Y-76251000D02*
X125992000Y-76251000D01*
X120896000Y-76251000D02*
X122404000Y-76251000D01*
X124484000Y-76291000D02*
X126022000Y-76291000D01*
X120866000Y-76291000D02*
X122404000Y-76291000D01*
X124484000Y-76331000D02*
X126051000Y-76331000D01*
X120837000Y-76331000D02*
X122404000Y-76331000D01*
X124484000Y-76371000D02*
X126080000Y-76371000D01*
X120808000Y-76371000D02*
X122404000Y-76371000D01*
X124484000Y-76411000D02*
X126108000Y-76411000D01*
X120780000Y-76411000D02*
X122404000Y-76411000D01*
X124484000Y-76451000D02*
X126134000Y-76451000D01*
X120754000Y-76451000D02*
X122404000Y-76451000D01*
X124484000Y-76491000D02*
X126160000Y-76491000D01*
X120728000Y-76491000D02*
X122404000Y-76491000D01*
X124484000Y-76531000D02*
X126186000Y-76531000D01*
X120702000Y-76531000D02*
X122404000Y-76531000D01*
X124484000Y-76571000D02*
X126210000Y-76571000D01*
X120678000Y-76571000D02*
X122404000Y-76571000D01*
X124484000Y-76611000D02*
X126234000Y-76611000D01*
X120654000Y-76611000D02*
X122404000Y-76611000D01*
X124484000Y-76651000D02*
X126256000Y-76651000D01*
X120632000Y-76651000D02*
X122404000Y-76651000D01*
X124484000Y-76691000D02*
X126278000Y-76691000D01*
X120610000Y-76691000D02*
X122404000Y-76691000D01*
X124484000Y-76731000D02*
X126300000Y-76731000D01*
X120588000Y-76731000D02*
X122404000Y-76731000D01*
X124484000Y-76771000D02*
X126320000Y-76771000D01*
X120568000Y-76771000D02*
X122404000Y-76771000D01*
X124484000Y-76811000D02*
X126340000Y-76811000D01*
X120548000Y-76811000D02*
X122404000Y-76811000D01*
X124484000Y-76851000D02*
X126360000Y-76851000D01*
X120528000Y-76851000D02*
X122404000Y-76851000D01*
X124484000Y-76891000D02*
X126378000Y-76891000D01*
X120510000Y-76891000D02*
X122404000Y-76891000D01*
X124484000Y-76931000D02*
X126396000Y-76931000D01*
X120492000Y-76931000D02*
X122404000Y-76931000D01*
X124484000Y-76971000D02*
X126414000Y-76971000D01*
X120474000Y-76971000D02*
X122404000Y-76971000D01*
X124484000Y-77011000D02*
X126430000Y-77011000D01*
X120458000Y-77011000D02*
X122404000Y-77011000D01*
X124484000Y-77051000D02*
X126446000Y-77051000D01*
X120442000Y-77051000D02*
X122404000Y-77051000D01*
X124484000Y-77091000D02*
X126462000Y-77091000D01*
X120426000Y-77091000D02*
X122404000Y-77091000D01*
X124484000Y-77131000D02*
X126477000Y-77131000D01*
X120411000Y-77131000D02*
X122404000Y-77131000D01*
X124484000Y-77171000D02*
X126491000Y-77171000D01*
X120397000Y-77171000D02*
X122404000Y-77171000D01*
X124484000Y-77211000D02*
X126505000Y-77211000D01*
X120383000Y-77211000D02*
X122404000Y-77211000D01*
X124484000Y-77251000D02*
X126518000Y-77251000D01*
X120370000Y-77251000D02*
X122404000Y-77251000D01*
X124484000Y-77291000D02*
X126530000Y-77291000D01*
X120358000Y-77291000D02*
X122404000Y-77291000D01*
X124484000Y-77331000D02*
X126542000Y-77331000D01*
X120346000Y-77331000D02*
X122404000Y-77331000D01*
X124484000Y-77371000D02*
X126554000Y-77371000D01*
X120334000Y-77371000D02*
X122404000Y-77371000D01*
X124484000Y-77411000D02*
X126565000Y-77411000D01*
X120323000Y-77411000D02*
X122404000Y-77411000D01*
X124484000Y-77451000D02*
X126575000Y-77451000D01*
X120313000Y-77451000D02*
X122404000Y-77451000D01*
X124484000Y-77491000D02*
X126585000Y-77491000D01*
X120303000Y-77491000D02*
X122404000Y-77491000D01*
X124484000Y-77531000D02*
X126594000Y-77531000D01*
X120294000Y-77531000D02*
X122404000Y-77531000D01*
X124484000Y-77572000D02*
X126603000Y-77572000D01*
X120285000Y-77572000D02*
X122404000Y-77572000D01*
X124484000Y-77612000D02*
X126611000Y-77612000D01*
X120277000Y-77612000D02*
X122404000Y-77612000D01*
X124484000Y-77652000D02*
X126619000Y-77652000D01*
X120269000Y-77652000D02*
X122404000Y-77652000D01*
X124484000Y-77692000D02*
X126626000Y-77692000D01*
X120262000Y-77692000D02*
X122404000Y-77692000D01*
X124484000Y-77732000D02*
X126633000Y-77732000D01*
X120255000Y-77732000D02*
X122404000Y-77732000D01*
X124484000Y-77772000D02*
X126639000Y-77772000D01*
X120249000Y-77772000D02*
X122404000Y-77772000D01*
X124484000Y-77812000D02*
X126645000Y-77812000D01*
X120243000Y-77812000D02*
X122404000Y-77812000D01*
X124484000Y-77852000D02*
X126650000Y-77852000D01*
X120238000Y-77852000D02*
X122404000Y-77852000D01*
X124484000Y-77892000D02*
X126655000Y-77892000D01*
X120233000Y-77892000D02*
X122404000Y-77892000D01*
X124484000Y-77932000D02*
X126659000Y-77932000D01*
X120229000Y-77932000D02*
X122404000Y-77932000D01*
X124484000Y-77972000D02*
X126662000Y-77972000D01*
X120226000Y-77972000D02*
X122404000Y-77972000D01*
X124484000Y-78012000D02*
X126666000Y-78012000D01*
X120222000Y-78012000D02*
X122404000Y-78012000D01*
X120220000Y-78052000D02*
X126668000Y-78052000D01*
X120217000Y-78092000D02*
X126671000Y-78092000D01*
X120216000Y-78132000D02*
X126672000Y-78132000D01*
X120214000Y-78172000D02*
X126674000Y-78172000D01*
X120214000Y-78212000D02*
X126674000Y-78212000D01*
X120214000Y-78252000D02*
X126674000Y-78252000D01*
X126714000Y-78252000D02*
G75*
G03X126714000Y-78252000I-3270000J0D01*
G01*
G04 #@! TO.C,C3*
X83554000Y-79502000D02*
G75*
G03X83554000Y-79502000I-3270000J0D01*
G01*
X80284000Y-82732000D02*
X80284000Y-76272000D01*
X80244000Y-82732000D02*
X80244000Y-76272000D01*
X80204000Y-82732000D02*
X80204000Y-76272000D01*
X80164000Y-82730000D02*
X80164000Y-76274000D01*
X80124000Y-82729000D02*
X80124000Y-76275000D01*
X80084000Y-82726000D02*
X80084000Y-76278000D01*
X80044000Y-82724000D02*
X80044000Y-80542000D01*
X80044000Y-78462000D02*
X80044000Y-76280000D01*
X80004000Y-82720000D02*
X80004000Y-80542000D01*
X80004000Y-78462000D02*
X80004000Y-76284000D01*
X79964000Y-82717000D02*
X79964000Y-80542000D01*
X79964000Y-78462000D02*
X79964000Y-76287000D01*
X79924000Y-82713000D02*
X79924000Y-80542000D01*
X79924000Y-78462000D02*
X79924000Y-76291000D01*
X79884000Y-82708000D02*
X79884000Y-80542000D01*
X79884000Y-78462000D02*
X79884000Y-76296000D01*
X79844000Y-82703000D02*
X79844000Y-80542000D01*
X79844000Y-78462000D02*
X79844000Y-76301000D01*
X79804000Y-82697000D02*
X79804000Y-80542000D01*
X79804000Y-78462000D02*
X79804000Y-76307000D01*
X79764000Y-82691000D02*
X79764000Y-80542000D01*
X79764000Y-78462000D02*
X79764000Y-76313000D01*
X79724000Y-82684000D02*
X79724000Y-80542000D01*
X79724000Y-78462000D02*
X79724000Y-76320000D01*
X79684000Y-82677000D02*
X79684000Y-80542000D01*
X79684000Y-78462000D02*
X79684000Y-76327000D01*
X79644000Y-82669000D02*
X79644000Y-80542000D01*
X79644000Y-78462000D02*
X79644000Y-76335000D01*
X79604000Y-82661000D02*
X79604000Y-80542000D01*
X79604000Y-78462000D02*
X79604000Y-76343000D01*
X79563000Y-82652000D02*
X79563000Y-80542000D01*
X79563000Y-78462000D02*
X79563000Y-76352000D01*
X79523000Y-82643000D02*
X79523000Y-80542000D01*
X79523000Y-78462000D02*
X79523000Y-76361000D01*
X79483000Y-82633000D02*
X79483000Y-80542000D01*
X79483000Y-78462000D02*
X79483000Y-76371000D01*
X79443000Y-82623000D02*
X79443000Y-80542000D01*
X79443000Y-78462000D02*
X79443000Y-76381000D01*
X79403000Y-82612000D02*
X79403000Y-80542000D01*
X79403000Y-78462000D02*
X79403000Y-76392000D01*
X79363000Y-82600000D02*
X79363000Y-80542000D01*
X79363000Y-78462000D02*
X79363000Y-76404000D01*
X79323000Y-82588000D02*
X79323000Y-80542000D01*
X79323000Y-78462000D02*
X79323000Y-76416000D01*
X79283000Y-82576000D02*
X79283000Y-80542000D01*
X79283000Y-78462000D02*
X79283000Y-76428000D01*
X79243000Y-82563000D02*
X79243000Y-80542000D01*
X79243000Y-78462000D02*
X79243000Y-76441000D01*
X79203000Y-82549000D02*
X79203000Y-80542000D01*
X79203000Y-78462000D02*
X79203000Y-76455000D01*
X79163000Y-82535000D02*
X79163000Y-80542000D01*
X79163000Y-78462000D02*
X79163000Y-76469000D01*
X79123000Y-82520000D02*
X79123000Y-80542000D01*
X79123000Y-78462000D02*
X79123000Y-76484000D01*
X79083000Y-82504000D02*
X79083000Y-80542000D01*
X79083000Y-78462000D02*
X79083000Y-76500000D01*
X79043000Y-82488000D02*
X79043000Y-80542000D01*
X79043000Y-78462000D02*
X79043000Y-76516000D01*
X79003000Y-82472000D02*
X79003000Y-80542000D01*
X79003000Y-78462000D02*
X79003000Y-76532000D01*
X78963000Y-82454000D02*
X78963000Y-80542000D01*
X78963000Y-78462000D02*
X78963000Y-76550000D01*
X78923000Y-82436000D02*
X78923000Y-80542000D01*
X78923000Y-78462000D02*
X78923000Y-76568000D01*
X78883000Y-82418000D02*
X78883000Y-80542000D01*
X78883000Y-78462000D02*
X78883000Y-76586000D01*
X78843000Y-82398000D02*
X78843000Y-80542000D01*
X78843000Y-78462000D02*
X78843000Y-76606000D01*
X78803000Y-82378000D02*
X78803000Y-80542000D01*
X78803000Y-78462000D02*
X78803000Y-76626000D01*
X78763000Y-82358000D02*
X78763000Y-80542000D01*
X78763000Y-78462000D02*
X78763000Y-76646000D01*
X78723000Y-82336000D02*
X78723000Y-80542000D01*
X78723000Y-78462000D02*
X78723000Y-76668000D01*
X78683000Y-82314000D02*
X78683000Y-80542000D01*
X78683000Y-78462000D02*
X78683000Y-76690000D01*
X78643000Y-82292000D02*
X78643000Y-80542000D01*
X78643000Y-78462000D02*
X78643000Y-76712000D01*
X78603000Y-82268000D02*
X78603000Y-80542000D01*
X78603000Y-78462000D02*
X78603000Y-76736000D01*
X78563000Y-82244000D02*
X78563000Y-80542000D01*
X78563000Y-78462000D02*
X78563000Y-76760000D01*
X78523000Y-82218000D02*
X78523000Y-80542000D01*
X78523000Y-78462000D02*
X78523000Y-76786000D01*
X78483000Y-82192000D02*
X78483000Y-80542000D01*
X78483000Y-78462000D02*
X78483000Y-76812000D01*
X78443000Y-82166000D02*
X78443000Y-80542000D01*
X78443000Y-78462000D02*
X78443000Y-76838000D01*
X78403000Y-82138000D02*
X78403000Y-80542000D01*
X78403000Y-78462000D02*
X78403000Y-76866000D01*
X78363000Y-82109000D02*
X78363000Y-80542000D01*
X78363000Y-78462000D02*
X78363000Y-76895000D01*
X78323000Y-82080000D02*
X78323000Y-80542000D01*
X78323000Y-78462000D02*
X78323000Y-76924000D01*
X78283000Y-82050000D02*
X78283000Y-80542000D01*
X78283000Y-78462000D02*
X78283000Y-76954000D01*
X78243000Y-82018000D02*
X78243000Y-80542000D01*
X78243000Y-78462000D02*
X78243000Y-76986000D01*
X78203000Y-81986000D02*
X78203000Y-80542000D01*
X78203000Y-78462000D02*
X78203000Y-77018000D01*
X78163000Y-81952000D02*
X78163000Y-80542000D01*
X78163000Y-78462000D02*
X78163000Y-77052000D01*
X78123000Y-81918000D02*
X78123000Y-80542000D01*
X78123000Y-78462000D02*
X78123000Y-77086000D01*
X78083000Y-81882000D02*
X78083000Y-80542000D01*
X78083000Y-78462000D02*
X78083000Y-77122000D01*
X78043000Y-81845000D02*
X78043000Y-80542000D01*
X78043000Y-78462000D02*
X78043000Y-77159000D01*
X78003000Y-81807000D02*
X78003000Y-80542000D01*
X78003000Y-78462000D02*
X78003000Y-77197000D01*
X77963000Y-81767000D02*
X77963000Y-77237000D01*
X77923000Y-81726000D02*
X77923000Y-77278000D01*
X77883000Y-81684000D02*
X77883000Y-77320000D01*
X77843000Y-81639000D02*
X77843000Y-77365000D01*
X77803000Y-81594000D02*
X77803000Y-77410000D01*
X77763000Y-81546000D02*
X77763000Y-77458000D01*
X77723000Y-81497000D02*
X77723000Y-77507000D01*
X77683000Y-81446000D02*
X77683000Y-77558000D01*
X77643000Y-81392000D02*
X77643000Y-77612000D01*
X77603000Y-81336000D02*
X77603000Y-77668000D01*
X77563000Y-81278000D02*
X77563000Y-77726000D01*
X77523000Y-81216000D02*
X77523000Y-77788000D01*
X77483000Y-81152000D02*
X77483000Y-77852000D01*
X77443000Y-81083000D02*
X77443000Y-77921000D01*
X77403000Y-81011000D02*
X77403000Y-77993000D01*
X77363000Y-80934000D02*
X77363000Y-78070000D01*
X77323000Y-80852000D02*
X77323000Y-78152000D01*
X77283000Y-80764000D02*
X77283000Y-78240000D01*
X77243000Y-80667000D02*
X77243000Y-78337000D01*
X77203000Y-80561000D02*
X77203000Y-78443000D01*
X77163000Y-80442000D02*
X77163000Y-78562000D01*
X77123000Y-80304000D02*
X77123000Y-78700000D01*
X77083000Y-80135000D02*
X77083000Y-78869000D01*
X77043000Y-79904000D02*
X77043000Y-79100000D01*
X83784241Y-81341000D02*
X83154241Y-81341000D01*
X83469241Y-81656000D02*
X83469241Y-81026000D01*
G04 #@! TO.C,R7*
X93324000Y-88776564D02*
X93324000Y-87572436D01*
X95144000Y-88776564D02*
X95144000Y-87572436D01*
G04 #@! TO.C,R14*
X93324000Y-95053564D02*
X93324000Y-93849436D01*
X95144000Y-95053564D02*
X95144000Y-93849436D01*
G04 #@! TO.C,R1*
X120598000Y-91931748D02*
X120598000Y-92454252D01*
X119178000Y-91931748D02*
X119178000Y-92454252D01*
G04 #@! TO.C,R2*
X122480000Y-86352748D02*
X122480000Y-86875252D01*
X123900000Y-86352748D02*
X123900000Y-86875252D01*
G04 #@! TO.C,R3*
X120661500Y-86352748D02*
X120661500Y-86875252D01*
X119241500Y-86352748D02*
X119241500Y-86875252D01*
G04 #@! TO.C,J3*
X88967000Y-73820000D02*
X88967000Y-74622470D01*
X88967000Y-75237530D02*
X88967000Y-76040000D01*
X92712000Y-73820000D02*
X88967000Y-73820000D01*
X92712000Y-76040000D02*
X88967000Y-76040000D01*
X92712000Y-73820000D02*
X92712000Y-74366529D01*
X92712000Y-75493471D02*
X92712000Y-76040000D01*
X93472000Y-73820000D02*
X94232000Y-73820000D01*
X94232000Y-73820000D02*
X94232000Y-74930000D01*
G04 #@! TO.C,Q1*
D12*
X93717619Y-93440238D02*
X93670000Y-93535476D01*
X93574761Y-93630714D01*
X93431904Y-93773571D01*
X93384285Y-93868809D01*
X93384285Y-93964047D01*
X93622380Y-93916428D02*
X93574761Y-94011666D01*
X93479523Y-94106904D01*
X93289047Y-94154523D01*
X92955714Y-94154523D01*
X92765238Y-94106904D01*
X92670000Y-94011666D01*
X92622380Y-93916428D01*
X92622380Y-93725952D01*
X92670000Y-93630714D01*
X92765238Y-93535476D01*
X92955714Y-93487857D01*
X93289047Y-93487857D01*
X93479523Y-93535476D01*
X93574761Y-93630714D01*
X93622380Y-93725952D01*
X93622380Y-93916428D01*
X93622380Y-92535476D02*
X93622380Y-93106904D01*
X93622380Y-92821190D02*
X92622380Y-92821190D01*
X92765238Y-92916428D01*
X92860476Y-93011666D01*
X92908095Y-93106904D01*
G04 #@! TO.C,U1*
X108864495Y-85304380D02*
X108864495Y-86113904D01*
X108912114Y-86209142D01*
X108959733Y-86256761D01*
X109054971Y-86304380D01*
X109245447Y-86304380D01*
X109340685Y-86256761D01*
X109388304Y-86209142D01*
X109435923Y-86113904D01*
X109435923Y-85304380D01*
X110435923Y-86304380D02*
X109864495Y-86304380D01*
X110150209Y-86304380D02*
X110150209Y-85304380D01*
X110054971Y-85447238D01*
X109959733Y-85542476D01*
X109864495Y-85590095D01*
G04 #@! TO.C,J1*
X79168666Y-85812380D02*
X79168666Y-86526666D01*
X79121047Y-86669523D01*
X79025809Y-86764761D01*
X78882952Y-86812380D01*
X78787714Y-86812380D01*
X80168666Y-86812380D02*
X79597238Y-86812380D01*
X79882952Y-86812380D02*
X79882952Y-85812380D01*
X79787714Y-85955238D01*
X79692476Y-86050476D01*
X79597238Y-86098095D01*
G04 #@! TO.C,R22*
X103576380Y-81795857D02*
X103100190Y-82129190D01*
X103576380Y-82367285D02*
X102576380Y-82367285D01*
X102576380Y-81986333D01*
X102624000Y-81891095D01*
X102671619Y-81843476D01*
X102766857Y-81795857D01*
X102909714Y-81795857D01*
X103004952Y-81843476D01*
X103052571Y-81891095D01*
X103100190Y-81986333D01*
X103100190Y-82367285D01*
X102671619Y-81414904D02*
X102624000Y-81367285D01*
X102576380Y-81272047D01*
X102576380Y-81033952D01*
X102624000Y-80938714D01*
X102671619Y-80891095D01*
X102766857Y-80843476D01*
X102862095Y-80843476D01*
X103004952Y-80891095D01*
X103576380Y-81462523D01*
X103576380Y-80843476D01*
X102671619Y-80462523D02*
X102624000Y-80414904D01*
X102576380Y-80319666D01*
X102576380Y-80081571D01*
X102624000Y-79986333D01*
X102671619Y-79938714D01*
X102766857Y-79891095D01*
X102862095Y-79891095D01*
X103004952Y-79938714D01*
X103576380Y-80510142D01*
X103576380Y-79891095D01*
G04 #@! TO.C,R23*
X107132380Y-81795857D02*
X106656190Y-82129190D01*
X107132380Y-82367285D02*
X106132380Y-82367285D01*
X106132380Y-81986333D01*
X106180000Y-81891095D01*
X106227619Y-81843476D01*
X106322857Y-81795857D01*
X106465714Y-81795857D01*
X106560952Y-81843476D01*
X106608571Y-81891095D01*
X106656190Y-81986333D01*
X106656190Y-82367285D01*
X106227619Y-81414904D02*
X106180000Y-81367285D01*
X106132380Y-81272047D01*
X106132380Y-81033952D01*
X106180000Y-80938714D01*
X106227619Y-80891095D01*
X106322857Y-80843476D01*
X106418095Y-80843476D01*
X106560952Y-80891095D01*
X107132380Y-81462523D01*
X107132380Y-80843476D01*
X106132380Y-80510142D02*
X106132380Y-79891095D01*
X106513333Y-80224428D01*
X106513333Y-80081571D01*
X106560952Y-79986333D01*
X106608571Y-79938714D01*
X106703809Y-79891095D01*
X106941904Y-79891095D01*
X107037142Y-79938714D01*
X107084761Y-79986333D01*
X107132380Y-80081571D01*
X107132380Y-80367285D01*
X107084761Y-80462523D01*
X107037142Y-80510142D01*
G04 #@! TO.C,R24*
X110434380Y-81795857D02*
X109958190Y-82129190D01*
X110434380Y-82367285D02*
X109434380Y-82367285D01*
X109434380Y-81986333D01*
X109482000Y-81891095D01*
X109529619Y-81843476D01*
X109624857Y-81795857D01*
X109767714Y-81795857D01*
X109862952Y-81843476D01*
X109910571Y-81891095D01*
X109958190Y-81986333D01*
X109958190Y-82367285D01*
X109529619Y-81414904D02*
X109482000Y-81367285D01*
X109434380Y-81272047D01*
X109434380Y-81033952D01*
X109482000Y-80938714D01*
X109529619Y-80891095D01*
X109624857Y-80843476D01*
X109720095Y-80843476D01*
X109862952Y-80891095D01*
X110434380Y-81462523D01*
X110434380Y-80843476D01*
X109767714Y-79986333D02*
X110434380Y-79986333D01*
X109386761Y-80224428D02*
X110101047Y-80462523D01*
X110101047Y-79843476D01*
G04 #@! TO.C,R25*
X113736380Y-81668857D02*
X113260190Y-82002190D01*
X113736380Y-82240285D02*
X112736380Y-82240285D01*
X112736380Y-81859333D01*
X112784000Y-81764095D01*
X112831619Y-81716476D01*
X112926857Y-81668857D01*
X113069714Y-81668857D01*
X113164952Y-81716476D01*
X113212571Y-81764095D01*
X113260190Y-81859333D01*
X113260190Y-82240285D01*
X112831619Y-81287904D02*
X112784000Y-81240285D01*
X112736380Y-81145047D01*
X112736380Y-80906952D01*
X112784000Y-80811714D01*
X112831619Y-80764095D01*
X112926857Y-80716476D01*
X113022095Y-80716476D01*
X113164952Y-80764095D01*
X113736380Y-81335523D01*
X113736380Y-80716476D01*
X112736380Y-79811714D02*
X112736380Y-80287904D01*
X113212571Y-80335523D01*
X113164952Y-80287904D01*
X113117333Y-80192666D01*
X113117333Y-79954571D01*
X113164952Y-79859333D01*
X113212571Y-79811714D01*
X113307809Y-79764095D01*
X113545904Y-79764095D01*
X113641142Y-79811714D01*
X113688761Y-79859333D01*
X113736380Y-79954571D01*
X113736380Y-80192666D01*
X113688761Y-80287904D01*
X113641142Y-80335523D01*
G04 #@! TO.C,R26*
X117292380Y-81668857D02*
X116816190Y-82002190D01*
X117292380Y-82240285D02*
X116292380Y-82240285D01*
X116292380Y-81859333D01*
X116340000Y-81764095D01*
X116387619Y-81716476D01*
X116482857Y-81668857D01*
X116625714Y-81668857D01*
X116720952Y-81716476D01*
X116768571Y-81764095D01*
X116816190Y-81859333D01*
X116816190Y-82240285D01*
X116387619Y-81287904D02*
X116340000Y-81240285D01*
X116292380Y-81145047D01*
X116292380Y-80906952D01*
X116340000Y-80811714D01*
X116387619Y-80764095D01*
X116482857Y-80716476D01*
X116578095Y-80716476D01*
X116720952Y-80764095D01*
X117292380Y-81335523D01*
X117292380Y-80716476D01*
X116292380Y-79859333D02*
X116292380Y-80049809D01*
X116340000Y-80145047D01*
X116387619Y-80192666D01*
X116530476Y-80287904D01*
X116720952Y-80335523D01*
X117101904Y-80335523D01*
X117197142Y-80287904D01*
X117244761Y-80240285D01*
X117292380Y-80145047D01*
X117292380Y-79954571D01*
X117244761Y-79859333D01*
X117197142Y-79811714D01*
X117101904Y-79764095D01*
X116863809Y-79764095D01*
X116768571Y-79811714D01*
X116720952Y-79859333D01*
X116673333Y-79954571D01*
X116673333Y-80145047D01*
X116720952Y-80240285D01*
X116768571Y-80287904D01*
X116863809Y-80335523D01*
G04 #@! TO.C,J2*
X87296666Y-136402380D02*
X87296666Y-137116666D01*
X87249047Y-137259523D01*
X87153809Y-137354761D01*
X87010952Y-137402380D01*
X86915714Y-137402380D01*
X87725238Y-136497619D02*
X87772857Y-136450000D01*
X87868095Y-136402380D01*
X88106190Y-136402380D01*
X88201428Y-136450000D01*
X88249047Y-136497619D01*
X88296666Y-136592857D01*
X88296666Y-136688095D01*
X88249047Y-136830952D01*
X87677619Y-137402380D01*
X88296666Y-137402380D01*
G04 #@! TO.C,Q5*
X119919761Y-103362619D02*
X119824523Y-103315000D01*
X119729285Y-103219761D01*
X119586428Y-103076904D01*
X119491190Y-103029285D01*
X119395952Y-103029285D01*
X119443571Y-103267380D02*
X119348333Y-103219761D01*
X119253095Y-103124523D01*
X119205476Y-102934047D01*
X119205476Y-102600714D01*
X119253095Y-102410238D01*
X119348333Y-102315000D01*
X119443571Y-102267380D01*
X119634047Y-102267380D01*
X119729285Y-102315000D01*
X119824523Y-102410238D01*
X119872142Y-102600714D01*
X119872142Y-102934047D01*
X119824523Y-103124523D01*
X119729285Y-103219761D01*
X119634047Y-103267380D01*
X119443571Y-103267380D01*
X120776904Y-102267380D02*
X120300714Y-102267380D01*
X120253095Y-102743571D01*
X120300714Y-102695952D01*
X120395952Y-102648333D01*
X120634047Y-102648333D01*
X120729285Y-102695952D01*
X120776904Y-102743571D01*
X120824523Y-102838809D01*
X120824523Y-103076904D01*
X120776904Y-103172142D01*
X120729285Y-103219761D01*
X120634047Y-103267380D01*
X120395952Y-103267380D01*
X120300714Y-103219761D01*
X120253095Y-103172142D01*
G04 #@! TO.C,Q6*
X108489761Y-105267619D02*
X108394523Y-105220000D01*
X108299285Y-105124761D01*
X108156428Y-104981904D01*
X108061190Y-104934285D01*
X107965952Y-104934285D01*
X108013571Y-105172380D02*
X107918333Y-105124761D01*
X107823095Y-105029523D01*
X107775476Y-104839047D01*
X107775476Y-104505714D01*
X107823095Y-104315238D01*
X107918333Y-104220000D01*
X108013571Y-104172380D01*
X108204047Y-104172380D01*
X108299285Y-104220000D01*
X108394523Y-104315238D01*
X108442142Y-104505714D01*
X108442142Y-104839047D01*
X108394523Y-105029523D01*
X108299285Y-105124761D01*
X108204047Y-105172380D01*
X108013571Y-105172380D01*
X109299285Y-104172380D02*
X109108809Y-104172380D01*
X109013571Y-104220000D01*
X108965952Y-104267619D01*
X108870714Y-104410476D01*
X108823095Y-104600952D01*
X108823095Y-104981904D01*
X108870714Y-105077142D01*
X108918333Y-105124761D01*
X109013571Y-105172380D01*
X109204047Y-105172380D01*
X109299285Y-105124761D01*
X109346904Y-105077142D01*
X109394523Y-104981904D01*
X109394523Y-104743809D01*
X109346904Y-104648571D01*
X109299285Y-104600952D01*
X109204047Y-104553333D01*
X109013571Y-104553333D01*
X108918333Y-104600952D01*
X108870714Y-104648571D01*
X108823095Y-104743809D01*
G04 #@! TO.C,Q7*
X96424761Y-105267619D02*
X96329523Y-105220000D01*
X96234285Y-105124761D01*
X96091428Y-104981904D01*
X95996190Y-104934285D01*
X95900952Y-104934285D01*
X95948571Y-105172380D02*
X95853333Y-105124761D01*
X95758095Y-105029523D01*
X95710476Y-104839047D01*
X95710476Y-104505714D01*
X95758095Y-104315238D01*
X95853333Y-104220000D01*
X95948571Y-104172380D01*
X96139047Y-104172380D01*
X96234285Y-104220000D01*
X96329523Y-104315238D01*
X96377142Y-104505714D01*
X96377142Y-104839047D01*
X96329523Y-105029523D01*
X96234285Y-105124761D01*
X96139047Y-105172380D01*
X95948571Y-105172380D01*
X96710476Y-104172380D02*
X97377142Y-104172380D01*
X96948571Y-105172380D01*
G04 #@! TO.C,Q8*
X123348761Y-112561619D02*
X123253523Y-112514000D01*
X123158285Y-112418761D01*
X123015428Y-112275904D01*
X122920190Y-112228285D01*
X122824952Y-112228285D01*
X122872571Y-112466380D02*
X122777333Y-112418761D01*
X122682095Y-112323523D01*
X122634476Y-112133047D01*
X122634476Y-111799714D01*
X122682095Y-111609238D01*
X122777333Y-111514000D01*
X122872571Y-111466380D01*
X123063047Y-111466380D01*
X123158285Y-111514000D01*
X123253523Y-111609238D01*
X123301142Y-111799714D01*
X123301142Y-112133047D01*
X123253523Y-112323523D01*
X123158285Y-112418761D01*
X123063047Y-112466380D01*
X122872571Y-112466380D01*
X123872571Y-111894952D02*
X123777333Y-111847333D01*
X123729714Y-111799714D01*
X123682095Y-111704476D01*
X123682095Y-111656857D01*
X123729714Y-111561619D01*
X123777333Y-111514000D01*
X123872571Y-111466380D01*
X124063047Y-111466380D01*
X124158285Y-111514000D01*
X124205904Y-111561619D01*
X124253523Y-111656857D01*
X124253523Y-111704476D01*
X124205904Y-111799714D01*
X124158285Y-111847333D01*
X124063047Y-111894952D01*
X123872571Y-111894952D01*
X123777333Y-111942571D01*
X123729714Y-111990190D01*
X123682095Y-112085428D01*
X123682095Y-112275904D01*
X123729714Y-112371142D01*
X123777333Y-112418761D01*
X123872571Y-112466380D01*
X124063047Y-112466380D01*
X124158285Y-112418761D01*
X124205904Y-112371142D01*
X124253523Y-112275904D01*
X124253523Y-112085428D01*
X124205904Y-111990190D01*
X124158285Y-111942571D01*
X124063047Y-111894952D01*
G04 #@! TO.C,Q9*
X108616761Y-114339619D02*
X108521523Y-114292000D01*
X108426285Y-114196761D01*
X108283428Y-114053904D01*
X108188190Y-114006285D01*
X108092952Y-114006285D01*
X108140571Y-114244380D02*
X108045333Y-114196761D01*
X107950095Y-114101523D01*
X107902476Y-113911047D01*
X107902476Y-113577714D01*
X107950095Y-113387238D01*
X108045333Y-113292000D01*
X108140571Y-113244380D01*
X108331047Y-113244380D01*
X108426285Y-113292000D01*
X108521523Y-113387238D01*
X108569142Y-113577714D01*
X108569142Y-113911047D01*
X108521523Y-114101523D01*
X108426285Y-114196761D01*
X108331047Y-114244380D01*
X108140571Y-114244380D01*
X109045333Y-114244380D02*
X109235809Y-114244380D01*
X109331047Y-114196761D01*
X109378666Y-114149142D01*
X109473904Y-114006285D01*
X109521523Y-113815809D01*
X109521523Y-113434857D01*
X109473904Y-113339619D01*
X109426285Y-113292000D01*
X109331047Y-113244380D01*
X109140571Y-113244380D01*
X109045333Y-113292000D01*
X108997714Y-113339619D01*
X108950095Y-113434857D01*
X108950095Y-113672952D01*
X108997714Y-113768190D01*
X109045333Y-113815809D01*
X109140571Y-113863428D01*
X109331047Y-113863428D01*
X109426285Y-113815809D01*
X109473904Y-113768190D01*
X109521523Y-113672952D01*
G04 #@! TO.C,Q10*
X96456571Y-114339619D02*
X96361333Y-114292000D01*
X96266095Y-114196761D01*
X96123238Y-114053904D01*
X96028000Y-114006285D01*
X95932761Y-114006285D01*
X95980380Y-114244380D02*
X95885142Y-114196761D01*
X95789904Y-114101523D01*
X95742285Y-113911047D01*
X95742285Y-113577714D01*
X95789904Y-113387238D01*
X95885142Y-113292000D01*
X95980380Y-113244380D01*
X96170857Y-113244380D01*
X96266095Y-113292000D01*
X96361333Y-113387238D01*
X96408952Y-113577714D01*
X96408952Y-113911047D01*
X96361333Y-114101523D01*
X96266095Y-114196761D01*
X96170857Y-114244380D01*
X95980380Y-114244380D01*
X97361333Y-114244380D02*
X96789904Y-114244380D01*
X97075619Y-114244380D02*
X97075619Y-113244380D01*
X96980380Y-113387238D01*
X96885142Y-113482476D01*
X96789904Y-113530095D01*
X97980380Y-113244380D02*
X98075619Y-113244380D01*
X98170857Y-113292000D01*
X98218476Y-113339619D01*
X98266095Y-113434857D01*
X98313714Y-113625333D01*
X98313714Y-113863428D01*
X98266095Y-114053904D01*
X98218476Y-114149142D01*
X98170857Y-114196761D01*
X98075619Y-114244380D01*
X97980380Y-114244380D01*
X97885142Y-114196761D01*
X97837523Y-114149142D01*
X97789904Y-114053904D01*
X97742285Y-113863428D01*
X97742285Y-113625333D01*
X97789904Y-113434857D01*
X97837523Y-113339619D01*
X97885142Y-113292000D01*
X97980380Y-113244380D01*
G04 #@! TO.C,Q11*
X119468571Y-120507619D02*
X119373333Y-120460000D01*
X119278095Y-120364761D01*
X119135238Y-120221904D01*
X119040000Y-120174285D01*
X118944761Y-120174285D01*
X118992380Y-120412380D02*
X118897142Y-120364761D01*
X118801904Y-120269523D01*
X118754285Y-120079047D01*
X118754285Y-119745714D01*
X118801904Y-119555238D01*
X118897142Y-119460000D01*
X118992380Y-119412380D01*
X119182857Y-119412380D01*
X119278095Y-119460000D01*
X119373333Y-119555238D01*
X119420952Y-119745714D01*
X119420952Y-120079047D01*
X119373333Y-120269523D01*
X119278095Y-120364761D01*
X119182857Y-120412380D01*
X118992380Y-120412380D01*
X120373333Y-120412380D02*
X119801904Y-120412380D01*
X120087619Y-120412380D02*
X120087619Y-119412380D01*
X119992380Y-119555238D01*
X119897142Y-119650476D01*
X119801904Y-119698095D01*
X121325714Y-120412380D02*
X120754285Y-120412380D01*
X121040000Y-120412380D02*
X121040000Y-119412380D01*
X120944761Y-119555238D01*
X120849523Y-119650476D01*
X120754285Y-119698095D01*
G04 #@! TO.C,Q12*
X108038571Y-123047619D02*
X107943333Y-123000000D01*
X107848095Y-122904761D01*
X107705238Y-122761904D01*
X107610000Y-122714285D01*
X107514761Y-122714285D01*
X107562380Y-122952380D02*
X107467142Y-122904761D01*
X107371904Y-122809523D01*
X107324285Y-122619047D01*
X107324285Y-122285714D01*
X107371904Y-122095238D01*
X107467142Y-122000000D01*
X107562380Y-121952380D01*
X107752857Y-121952380D01*
X107848095Y-122000000D01*
X107943333Y-122095238D01*
X107990952Y-122285714D01*
X107990952Y-122619047D01*
X107943333Y-122809523D01*
X107848095Y-122904761D01*
X107752857Y-122952380D01*
X107562380Y-122952380D01*
X108943333Y-122952380D02*
X108371904Y-122952380D01*
X108657619Y-122952380D02*
X108657619Y-121952380D01*
X108562380Y-122095238D01*
X108467142Y-122190476D01*
X108371904Y-122238095D01*
X109324285Y-122047619D02*
X109371904Y-122000000D01*
X109467142Y-121952380D01*
X109705238Y-121952380D01*
X109800476Y-122000000D01*
X109848095Y-122047619D01*
X109895714Y-122142857D01*
X109895714Y-122238095D01*
X109848095Y-122380952D01*
X109276666Y-122952380D01*
X109895714Y-122952380D01*
G04 #@! TO.C,Q13*
X96608571Y-131937619D02*
X96513333Y-131890000D01*
X96418095Y-131794761D01*
X96275238Y-131651904D01*
X96180000Y-131604285D01*
X96084761Y-131604285D01*
X96132380Y-131842380D02*
X96037142Y-131794761D01*
X95941904Y-131699523D01*
X95894285Y-131509047D01*
X95894285Y-131175714D01*
X95941904Y-130985238D01*
X96037142Y-130890000D01*
X96132380Y-130842380D01*
X96322857Y-130842380D01*
X96418095Y-130890000D01*
X96513333Y-130985238D01*
X96560952Y-131175714D01*
X96560952Y-131509047D01*
X96513333Y-131699523D01*
X96418095Y-131794761D01*
X96322857Y-131842380D01*
X96132380Y-131842380D01*
X97513333Y-131842380D02*
X96941904Y-131842380D01*
X97227619Y-131842380D02*
X97227619Y-130842380D01*
X97132380Y-130985238D01*
X97037142Y-131080476D01*
X96941904Y-131128095D01*
X97846666Y-130842380D02*
X98465714Y-130842380D01*
X98132380Y-131223333D01*
X98275238Y-131223333D01*
X98370476Y-131270952D01*
X98418095Y-131318571D01*
X98465714Y-131413809D01*
X98465714Y-131651904D01*
X98418095Y-131747142D01*
X98370476Y-131794761D01*
X98275238Y-131842380D01*
X97989523Y-131842380D01*
X97894285Y-131794761D01*
X97846666Y-131747142D01*
G04 #@! TO.C,Q14*
X108038571Y-131937619D02*
X107943333Y-131890000D01*
X107848095Y-131794761D01*
X107705238Y-131651904D01*
X107610000Y-131604285D01*
X107514761Y-131604285D01*
X107562380Y-131842380D02*
X107467142Y-131794761D01*
X107371904Y-131699523D01*
X107324285Y-131509047D01*
X107324285Y-131175714D01*
X107371904Y-130985238D01*
X107467142Y-130890000D01*
X107562380Y-130842380D01*
X107752857Y-130842380D01*
X107848095Y-130890000D01*
X107943333Y-130985238D01*
X107990952Y-131175714D01*
X107990952Y-131509047D01*
X107943333Y-131699523D01*
X107848095Y-131794761D01*
X107752857Y-131842380D01*
X107562380Y-131842380D01*
X108943333Y-131842380D02*
X108371904Y-131842380D01*
X108657619Y-131842380D02*
X108657619Y-130842380D01*
X108562380Y-130985238D01*
X108467142Y-131080476D01*
X108371904Y-131128095D01*
X109800476Y-131175714D02*
X109800476Y-131842380D01*
X109562380Y-130794761D02*
X109324285Y-131509047D01*
X109943333Y-131509047D01*
G04 #@! TO.C,Q15*
X119468571Y-129397619D02*
X119373333Y-129350000D01*
X119278095Y-129254761D01*
X119135238Y-129111904D01*
X119040000Y-129064285D01*
X118944761Y-129064285D01*
X118992380Y-129302380D02*
X118897142Y-129254761D01*
X118801904Y-129159523D01*
X118754285Y-128969047D01*
X118754285Y-128635714D01*
X118801904Y-128445238D01*
X118897142Y-128350000D01*
X118992380Y-128302380D01*
X119182857Y-128302380D01*
X119278095Y-128350000D01*
X119373333Y-128445238D01*
X119420952Y-128635714D01*
X119420952Y-128969047D01*
X119373333Y-129159523D01*
X119278095Y-129254761D01*
X119182857Y-129302380D01*
X118992380Y-129302380D01*
X120373333Y-129302380D02*
X119801904Y-129302380D01*
X120087619Y-129302380D02*
X120087619Y-128302380D01*
X119992380Y-128445238D01*
X119897142Y-128540476D01*
X119801904Y-128588095D01*
X121278095Y-128302380D02*
X120801904Y-128302380D01*
X120754285Y-128778571D01*
X120801904Y-128730952D01*
X120897142Y-128683333D01*
X121135238Y-128683333D01*
X121230476Y-128730952D01*
X121278095Y-128778571D01*
X121325714Y-128873809D01*
X121325714Y-129111904D01*
X121278095Y-129207142D01*
X121230476Y-129254761D01*
X121135238Y-129302380D01*
X120897142Y-129302380D01*
X120801904Y-129254761D01*
X120754285Y-129207142D01*
G04 #@! TO.C,Q16*
X96608571Y-123047619D02*
X96513333Y-123000000D01*
X96418095Y-122904761D01*
X96275238Y-122761904D01*
X96180000Y-122714285D01*
X96084761Y-122714285D01*
X96132380Y-122952380D02*
X96037142Y-122904761D01*
X95941904Y-122809523D01*
X95894285Y-122619047D01*
X95894285Y-122285714D01*
X95941904Y-122095238D01*
X96037142Y-122000000D01*
X96132380Y-121952380D01*
X96322857Y-121952380D01*
X96418095Y-122000000D01*
X96513333Y-122095238D01*
X96560952Y-122285714D01*
X96560952Y-122619047D01*
X96513333Y-122809523D01*
X96418095Y-122904761D01*
X96322857Y-122952380D01*
X96132380Y-122952380D01*
X97513333Y-122952380D02*
X96941904Y-122952380D01*
X97227619Y-122952380D02*
X97227619Y-121952380D01*
X97132380Y-122095238D01*
X97037142Y-122190476D01*
X96941904Y-122238095D01*
X98370476Y-121952380D02*
X98180000Y-121952380D01*
X98084761Y-122000000D01*
X98037142Y-122047619D01*
X97941904Y-122190476D01*
X97894285Y-122380952D01*
X97894285Y-122761904D01*
X97941904Y-122857142D01*
X97989523Y-122904761D01*
X98084761Y-122952380D01*
X98275238Y-122952380D01*
X98370476Y-122904761D01*
X98418095Y-122857142D01*
X98465714Y-122761904D01*
X98465714Y-122523809D01*
X98418095Y-122428571D01*
X98370476Y-122380952D01*
X98275238Y-122333333D01*
X98084761Y-122333333D01*
X97989523Y-122380952D01*
X97941904Y-122428571D01*
X97894285Y-122523809D01*
G04 #@! TO.C,C4*
X80895833Y-103481142D02*
X80848214Y-103528761D01*
X80705357Y-103576380D01*
X80610119Y-103576380D01*
X80467261Y-103528761D01*
X80372023Y-103433523D01*
X80324404Y-103338285D01*
X80276785Y-103147809D01*
X80276785Y-103004952D01*
X80324404Y-102814476D01*
X80372023Y-102719238D01*
X80467261Y-102624000D01*
X80610119Y-102576380D01*
X80705357Y-102576380D01*
X80848214Y-102624000D01*
X80895833Y-102671619D01*
X81752976Y-102909714D02*
X81752976Y-103576380D01*
X81514880Y-102528761D02*
X81276785Y-103243047D01*
X81895833Y-103243047D01*
G04 #@! TO.C,C5*
X84923333Y-108434142D02*
X84875714Y-108481761D01*
X84732857Y-108529380D01*
X84637619Y-108529380D01*
X84494761Y-108481761D01*
X84399523Y-108386523D01*
X84351904Y-108291285D01*
X84304285Y-108100809D01*
X84304285Y-107957952D01*
X84351904Y-107767476D01*
X84399523Y-107672238D01*
X84494761Y-107577000D01*
X84637619Y-107529380D01*
X84732857Y-107529380D01*
X84875714Y-107577000D01*
X84923333Y-107624619D01*
X85828095Y-107529380D02*
X85351904Y-107529380D01*
X85304285Y-108005571D01*
X85351904Y-107957952D01*
X85447142Y-107910333D01*
X85685238Y-107910333D01*
X85780476Y-107957952D01*
X85828095Y-108005571D01*
X85875714Y-108100809D01*
X85875714Y-108338904D01*
X85828095Y-108434142D01*
X85780476Y-108481761D01*
X85685238Y-108529380D01*
X85447142Y-108529380D01*
X85351904Y-108481761D01*
X85304285Y-108434142D01*
G04 #@! TO.C,C6*
X82129333Y-119918142D02*
X82081714Y-119965761D01*
X81938857Y-120013380D01*
X81843619Y-120013380D01*
X81700761Y-119965761D01*
X81605523Y-119870523D01*
X81557904Y-119775285D01*
X81510285Y-119584809D01*
X81510285Y-119441952D01*
X81557904Y-119251476D01*
X81605523Y-119156238D01*
X81700761Y-119061000D01*
X81843619Y-119013380D01*
X81938857Y-119013380D01*
X82081714Y-119061000D01*
X82129333Y-119108619D01*
X82986476Y-119013380D02*
X82796000Y-119013380D01*
X82700761Y-119061000D01*
X82653142Y-119108619D01*
X82557904Y-119251476D01*
X82510285Y-119441952D01*
X82510285Y-119822904D01*
X82557904Y-119918142D01*
X82605523Y-119965761D01*
X82700761Y-120013380D01*
X82891238Y-120013380D01*
X82986476Y-119965761D01*
X83034095Y-119918142D01*
X83081714Y-119822904D01*
X83081714Y-119584809D01*
X83034095Y-119489571D01*
X82986476Y-119441952D01*
X82891238Y-119394333D01*
X82700761Y-119394333D01*
X82605523Y-119441952D01*
X82557904Y-119489571D01*
X82510285Y-119584809D01*
G04 #@! TO.C,C1*
X117181333Y-84177142D02*
X117133714Y-84224761D01*
X116990857Y-84272380D01*
X116895619Y-84272380D01*
X116752761Y-84224761D01*
X116657523Y-84129523D01*
X116609904Y-84034285D01*
X116562285Y-83843809D01*
X116562285Y-83700952D01*
X116609904Y-83510476D01*
X116657523Y-83415238D01*
X116752761Y-83320000D01*
X116895619Y-83272380D01*
X116990857Y-83272380D01*
X117133714Y-83320000D01*
X117181333Y-83367619D01*
X118133714Y-84272380D02*
X117562285Y-84272380D01*
X117848000Y-84272380D02*
X117848000Y-83272380D01*
X117752761Y-83415238D01*
X117657523Y-83510476D01*
X117562285Y-83558095D01*
G04 #@! TO.C,C2*
X117943333Y-78609142D02*
X117895714Y-78656761D01*
X117752857Y-78704380D01*
X117657619Y-78704380D01*
X117514761Y-78656761D01*
X117419523Y-78561523D01*
X117371904Y-78466285D01*
X117324285Y-78275809D01*
X117324285Y-78132952D01*
X117371904Y-77942476D01*
X117419523Y-77847238D01*
X117514761Y-77752000D01*
X117657619Y-77704380D01*
X117752857Y-77704380D01*
X117895714Y-77752000D01*
X117943333Y-77799619D01*
X118324285Y-77799619D02*
X118371904Y-77752000D01*
X118467142Y-77704380D01*
X118705238Y-77704380D01*
X118800476Y-77752000D01*
X118848095Y-77799619D01*
X118895714Y-77894857D01*
X118895714Y-77990095D01*
X118848095Y-78132952D01*
X118276666Y-78704380D01*
X118895714Y-78704380D01*
G04 #@! TO.C,C3*
X80117333Y-84259142D02*
X80069714Y-84306761D01*
X79926857Y-84354380D01*
X79831619Y-84354380D01*
X79688761Y-84306761D01*
X79593523Y-84211523D01*
X79545904Y-84116285D01*
X79498285Y-83925809D01*
X79498285Y-83782952D01*
X79545904Y-83592476D01*
X79593523Y-83497238D01*
X79688761Y-83402000D01*
X79831619Y-83354380D01*
X79926857Y-83354380D01*
X80069714Y-83402000D01*
X80117333Y-83449619D01*
X80450666Y-83354380D02*
X81069714Y-83354380D01*
X80736380Y-83735333D01*
X80879238Y-83735333D01*
X80974476Y-83782952D01*
X81022095Y-83830571D01*
X81069714Y-83925809D01*
X81069714Y-84163904D01*
X81022095Y-84259142D01*
X80974476Y-84306761D01*
X80879238Y-84354380D01*
X80593523Y-84354380D01*
X80498285Y-84306761D01*
X80450666Y-84259142D01*
G04 #@! TO.C,R7*
X96861333Y-88880880D02*
X96528000Y-88404690D01*
X96289904Y-88880880D02*
X96289904Y-87880880D01*
X96670857Y-87880880D01*
X96766095Y-87928500D01*
X96813714Y-87976119D01*
X96861333Y-88071357D01*
X96861333Y-88214214D01*
X96813714Y-88309452D01*
X96766095Y-88357071D01*
X96670857Y-88404690D01*
X96289904Y-88404690D01*
X97194666Y-87880880D02*
X97861333Y-87880880D01*
X97432761Y-88880880D01*
G04 #@! TO.C,R14*
X96639142Y-94903880D02*
X96305809Y-94427690D01*
X96067714Y-94903880D02*
X96067714Y-93903880D01*
X96448666Y-93903880D01*
X96543904Y-93951500D01*
X96591523Y-93999119D01*
X96639142Y-94094357D01*
X96639142Y-94237214D01*
X96591523Y-94332452D01*
X96543904Y-94380071D01*
X96448666Y-94427690D01*
X96067714Y-94427690D01*
X97591523Y-94903880D02*
X97020095Y-94903880D01*
X97305809Y-94903880D02*
X97305809Y-93903880D01*
X97210571Y-94046738D01*
X97115333Y-94141976D01*
X97020095Y-94189595D01*
X98448666Y-94237214D02*
X98448666Y-94903880D01*
X98210571Y-93856261D02*
X97972476Y-94570547D01*
X98591523Y-94570547D01*
G04 #@! TO.C,R1*
X122007333Y-92645380D02*
X121674000Y-92169190D01*
X121435904Y-92645380D02*
X121435904Y-91645380D01*
X121816857Y-91645380D01*
X121912095Y-91693000D01*
X121959714Y-91740619D01*
X122007333Y-91835857D01*
X122007333Y-91978714D01*
X121959714Y-92073952D01*
X121912095Y-92121571D01*
X121816857Y-92169190D01*
X121435904Y-92169190D01*
X122959714Y-92645380D02*
X122388285Y-92645380D01*
X122674000Y-92645380D02*
X122674000Y-91645380D01*
X122578761Y-91788238D01*
X122483523Y-91883476D01*
X122388285Y-91931095D01*
G04 #@! TO.C,R2*
X123642380Y-90073666D02*
X123166190Y-90407000D01*
X123642380Y-90645095D02*
X122642380Y-90645095D01*
X122642380Y-90264142D01*
X122690000Y-90168904D01*
X122737619Y-90121285D01*
X122832857Y-90073666D01*
X122975714Y-90073666D01*
X123070952Y-90121285D01*
X123118571Y-90168904D01*
X123166190Y-90264142D01*
X123166190Y-90645095D01*
X122737619Y-89692714D02*
X122690000Y-89645095D01*
X122642380Y-89549857D01*
X122642380Y-89311761D01*
X122690000Y-89216523D01*
X122737619Y-89168904D01*
X122832857Y-89121285D01*
X122928095Y-89121285D01*
X123070952Y-89168904D01*
X123642380Y-89740333D01*
X123642380Y-89121285D01*
G04 #@! TO.C,R3*
X120403880Y-90073666D02*
X119927690Y-90407000D01*
X120403880Y-90645095D02*
X119403880Y-90645095D01*
X119403880Y-90264142D01*
X119451500Y-90168904D01*
X119499119Y-90121285D01*
X119594357Y-90073666D01*
X119737214Y-90073666D01*
X119832452Y-90121285D01*
X119880071Y-90168904D01*
X119927690Y-90264142D01*
X119927690Y-90645095D01*
X119403880Y-89740333D02*
X119403880Y-89121285D01*
X119784833Y-89454619D01*
X119784833Y-89311761D01*
X119832452Y-89216523D01*
X119880071Y-89168904D01*
X119975309Y-89121285D01*
X120213404Y-89121285D01*
X120308642Y-89168904D01*
X120356261Y-89216523D01*
X120403880Y-89311761D01*
X120403880Y-89597476D01*
X120356261Y-89692714D01*
X120308642Y-89740333D01*
G04 #@! TO.C,J3*
X94619380Y-75263333D02*
X95333666Y-75263333D01*
X95476523Y-75310952D01*
X95571761Y-75406190D01*
X95619380Y-75549047D01*
X95619380Y-75644285D01*
X94619380Y-74882380D02*
X94619380Y-74263333D01*
X95000333Y-74596666D01*
X95000333Y-74453809D01*
X95047952Y-74358571D01*
X95095571Y-74310952D01*
X95190809Y-74263333D01*
X95428904Y-74263333D01*
X95524142Y-74310952D01*
X95571761Y-74358571D01*
X95619380Y-74453809D01*
X95619380Y-74739523D01*
X95571761Y-74834761D01*
X95524142Y-74882380D01*
G04 #@! TD*
M02*
