G04 #@! TF.GenerationSoftware,KiCad,Pcbnew,5.0.2-bee76a0~70~ubuntu18.04.1*
G04 #@! TF.CreationDate,2019-02-08T11:17:56-07:00*
G04 #@! TF.ProjectId,driver,64726976-6572-42e6-9b69-6361645f7063,rev?*
G04 #@! TF.SameCoordinates,Original*
G04 #@! TF.FileFunction,Paste,Top*
G04 #@! TF.FilePolarity,Positive*
%FSLAX46Y46*%
G04 Gerber Fmt 4.6, Leading zero omitted, Abs format (unit mm)*
G04 Created by KiCad (PCBNEW 5.0.2-bee76a0~70~ubuntu18.04.1) date Fri 08 Feb 2019 11:17:56 AM MST*
%MOMM*%
%LPD*%
G01*
G04 APERTURE LIST*
%ADD10R,1.100000X0.400000*%
%ADD11C,0.100000*%
%ADD12C,1.150000*%
%ADD13R,2.000000X1.500000*%
%ADD14R,2.000000X3.800000*%
%ADD15C,1.425000*%
G04 APERTURE END LIST*
D10*
G04 #@! TO.C,U1*
X110307000Y-87469000D03*
X110307000Y-88119000D03*
X110307000Y-88769000D03*
X110307000Y-89419000D03*
X110307000Y-90069000D03*
X110307000Y-90719000D03*
X110307000Y-91369000D03*
X110307000Y-92019000D03*
X110307000Y-92669000D03*
X110307000Y-93319000D03*
X110307000Y-93969000D03*
X110307000Y-94619000D03*
X110307000Y-95269000D03*
X110307000Y-95919000D03*
X116007000Y-95919000D03*
X116007000Y-95269000D03*
X116007000Y-94619000D03*
X116007000Y-93969000D03*
X116007000Y-93319000D03*
X116007000Y-92669000D03*
X116007000Y-92019000D03*
X116007000Y-91369000D03*
X116007000Y-90719000D03*
X116007000Y-90069000D03*
X116007000Y-89419000D03*
X116007000Y-88769000D03*
X116007000Y-88119000D03*
X116007000Y-87469000D03*
G04 #@! TD*
D11*
G04 #@! TO.C,R22*
G36*
X103598505Y-75989204D02*
X103622773Y-75992804D01*
X103646572Y-75998765D01*
X103669671Y-76007030D01*
X103691850Y-76017520D01*
X103712893Y-76030132D01*
X103732599Y-76044747D01*
X103750777Y-76061223D01*
X103767253Y-76079401D01*
X103781868Y-76099107D01*
X103794480Y-76120150D01*
X103804970Y-76142329D01*
X103813235Y-76165428D01*
X103819196Y-76189227D01*
X103822796Y-76213495D01*
X103824000Y-76237999D01*
X103824000Y-76888001D01*
X103822796Y-76912505D01*
X103819196Y-76936773D01*
X103813235Y-76960572D01*
X103804970Y-76983671D01*
X103794480Y-77005850D01*
X103781868Y-77026893D01*
X103767253Y-77046599D01*
X103750777Y-77064777D01*
X103732599Y-77081253D01*
X103712893Y-77095868D01*
X103691850Y-77108480D01*
X103669671Y-77118970D01*
X103646572Y-77127235D01*
X103622773Y-77133196D01*
X103598505Y-77136796D01*
X103574001Y-77138000D01*
X102673999Y-77138000D01*
X102649495Y-77136796D01*
X102625227Y-77133196D01*
X102601428Y-77127235D01*
X102578329Y-77118970D01*
X102556150Y-77108480D01*
X102535107Y-77095868D01*
X102515401Y-77081253D01*
X102497223Y-77064777D01*
X102480747Y-77046599D01*
X102466132Y-77026893D01*
X102453520Y-77005850D01*
X102443030Y-76983671D01*
X102434765Y-76960572D01*
X102428804Y-76936773D01*
X102425204Y-76912505D01*
X102424000Y-76888001D01*
X102424000Y-76237999D01*
X102425204Y-76213495D01*
X102428804Y-76189227D01*
X102434765Y-76165428D01*
X102443030Y-76142329D01*
X102453520Y-76120150D01*
X102466132Y-76099107D01*
X102480747Y-76079401D01*
X102497223Y-76061223D01*
X102515401Y-76044747D01*
X102535107Y-76030132D01*
X102556150Y-76017520D01*
X102578329Y-76007030D01*
X102601428Y-75998765D01*
X102625227Y-75992804D01*
X102649495Y-75989204D01*
X102673999Y-75988000D01*
X103574001Y-75988000D01*
X103598505Y-75989204D01*
X103598505Y-75989204D01*
G37*
D12*
X103124000Y-76563000D03*
D11*
G36*
X103598505Y-78039204D02*
X103622773Y-78042804D01*
X103646572Y-78048765D01*
X103669671Y-78057030D01*
X103691850Y-78067520D01*
X103712893Y-78080132D01*
X103732599Y-78094747D01*
X103750777Y-78111223D01*
X103767253Y-78129401D01*
X103781868Y-78149107D01*
X103794480Y-78170150D01*
X103804970Y-78192329D01*
X103813235Y-78215428D01*
X103819196Y-78239227D01*
X103822796Y-78263495D01*
X103824000Y-78287999D01*
X103824000Y-78938001D01*
X103822796Y-78962505D01*
X103819196Y-78986773D01*
X103813235Y-79010572D01*
X103804970Y-79033671D01*
X103794480Y-79055850D01*
X103781868Y-79076893D01*
X103767253Y-79096599D01*
X103750777Y-79114777D01*
X103732599Y-79131253D01*
X103712893Y-79145868D01*
X103691850Y-79158480D01*
X103669671Y-79168970D01*
X103646572Y-79177235D01*
X103622773Y-79183196D01*
X103598505Y-79186796D01*
X103574001Y-79188000D01*
X102673999Y-79188000D01*
X102649495Y-79186796D01*
X102625227Y-79183196D01*
X102601428Y-79177235D01*
X102578329Y-79168970D01*
X102556150Y-79158480D01*
X102535107Y-79145868D01*
X102515401Y-79131253D01*
X102497223Y-79114777D01*
X102480747Y-79096599D01*
X102466132Y-79076893D01*
X102453520Y-79055850D01*
X102443030Y-79033671D01*
X102434765Y-79010572D01*
X102428804Y-78986773D01*
X102425204Y-78962505D01*
X102424000Y-78938001D01*
X102424000Y-78287999D01*
X102425204Y-78263495D01*
X102428804Y-78239227D01*
X102434765Y-78215428D01*
X102443030Y-78192329D01*
X102453520Y-78170150D01*
X102466132Y-78149107D01*
X102480747Y-78129401D01*
X102497223Y-78111223D01*
X102515401Y-78094747D01*
X102535107Y-78080132D01*
X102556150Y-78067520D01*
X102578329Y-78057030D01*
X102601428Y-78048765D01*
X102625227Y-78042804D01*
X102649495Y-78039204D01*
X102673999Y-78038000D01*
X103574001Y-78038000D01*
X103598505Y-78039204D01*
X103598505Y-78039204D01*
G37*
D12*
X103124000Y-78613000D03*
G04 #@! TD*
D11*
G04 #@! TO.C,R23*
G36*
X107027505Y-75989204D02*
X107051773Y-75992804D01*
X107075572Y-75998765D01*
X107098671Y-76007030D01*
X107120850Y-76017520D01*
X107141893Y-76030132D01*
X107161599Y-76044747D01*
X107179777Y-76061223D01*
X107196253Y-76079401D01*
X107210868Y-76099107D01*
X107223480Y-76120150D01*
X107233970Y-76142329D01*
X107242235Y-76165428D01*
X107248196Y-76189227D01*
X107251796Y-76213495D01*
X107253000Y-76237999D01*
X107253000Y-76888001D01*
X107251796Y-76912505D01*
X107248196Y-76936773D01*
X107242235Y-76960572D01*
X107233970Y-76983671D01*
X107223480Y-77005850D01*
X107210868Y-77026893D01*
X107196253Y-77046599D01*
X107179777Y-77064777D01*
X107161599Y-77081253D01*
X107141893Y-77095868D01*
X107120850Y-77108480D01*
X107098671Y-77118970D01*
X107075572Y-77127235D01*
X107051773Y-77133196D01*
X107027505Y-77136796D01*
X107003001Y-77138000D01*
X106102999Y-77138000D01*
X106078495Y-77136796D01*
X106054227Y-77133196D01*
X106030428Y-77127235D01*
X106007329Y-77118970D01*
X105985150Y-77108480D01*
X105964107Y-77095868D01*
X105944401Y-77081253D01*
X105926223Y-77064777D01*
X105909747Y-77046599D01*
X105895132Y-77026893D01*
X105882520Y-77005850D01*
X105872030Y-76983671D01*
X105863765Y-76960572D01*
X105857804Y-76936773D01*
X105854204Y-76912505D01*
X105853000Y-76888001D01*
X105853000Y-76237999D01*
X105854204Y-76213495D01*
X105857804Y-76189227D01*
X105863765Y-76165428D01*
X105872030Y-76142329D01*
X105882520Y-76120150D01*
X105895132Y-76099107D01*
X105909747Y-76079401D01*
X105926223Y-76061223D01*
X105944401Y-76044747D01*
X105964107Y-76030132D01*
X105985150Y-76017520D01*
X106007329Y-76007030D01*
X106030428Y-75998765D01*
X106054227Y-75992804D01*
X106078495Y-75989204D01*
X106102999Y-75988000D01*
X107003001Y-75988000D01*
X107027505Y-75989204D01*
X107027505Y-75989204D01*
G37*
D12*
X106553000Y-76563000D03*
D11*
G36*
X107027505Y-78039204D02*
X107051773Y-78042804D01*
X107075572Y-78048765D01*
X107098671Y-78057030D01*
X107120850Y-78067520D01*
X107141893Y-78080132D01*
X107161599Y-78094747D01*
X107179777Y-78111223D01*
X107196253Y-78129401D01*
X107210868Y-78149107D01*
X107223480Y-78170150D01*
X107233970Y-78192329D01*
X107242235Y-78215428D01*
X107248196Y-78239227D01*
X107251796Y-78263495D01*
X107253000Y-78287999D01*
X107253000Y-78938001D01*
X107251796Y-78962505D01*
X107248196Y-78986773D01*
X107242235Y-79010572D01*
X107233970Y-79033671D01*
X107223480Y-79055850D01*
X107210868Y-79076893D01*
X107196253Y-79096599D01*
X107179777Y-79114777D01*
X107161599Y-79131253D01*
X107141893Y-79145868D01*
X107120850Y-79158480D01*
X107098671Y-79168970D01*
X107075572Y-79177235D01*
X107051773Y-79183196D01*
X107027505Y-79186796D01*
X107003001Y-79188000D01*
X106102999Y-79188000D01*
X106078495Y-79186796D01*
X106054227Y-79183196D01*
X106030428Y-79177235D01*
X106007329Y-79168970D01*
X105985150Y-79158480D01*
X105964107Y-79145868D01*
X105944401Y-79131253D01*
X105926223Y-79114777D01*
X105909747Y-79096599D01*
X105895132Y-79076893D01*
X105882520Y-79055850D01*
X105872030Y-79033671D01*
X105863765Y-79010572D01*
X105857804Y-78986773D01*
X105854204Y-78962505D01*
X105853000Y-78938001D01*
X105853000Y-78287999D01*
X105854204Y-78263495D01*
X105857804Y-78239227D01*
X105863765Y-78215428D01*
X105872030Y-78192329D01*
X105882520Y-78170150D01*
X105895132Y-78149107D01*
X105909747Y-78129401D01*
X105926223Y-78111223D01*
X105944401Y-78094747D01*
X105964107Y-78080132D01*
X105985150Y-78067520D01*
X106007329Y-78057030D01*
X106030428Y-78048765D01*
X106054227Y-78042804D01*
X106078495Y-78039204D01*
X106102999Y-78038000D01*
X107003001Y-78038000D01*
X107027505Y-78039204D01*
X107027505Y-78039204D01*
G37*
D12*
X106553000Y-78613000D03*
G04 #@! TD*
D11*
G04 #@! TO.C,R24*
G36*
X110456505Y-78039204D02*
X110480773Y-78042804D01*
X110504572Y-78048765D01*
X110527671Y-78057030D01*
X110549850Y-78067520D01*
X110570893Y-78080132D01*
X110590599Y-78094747D01*
X110608777Y-78111223D01*
X110625253Y-78129401D01*
X110639868Y-78149107D01*
X110652480Y-78170150D01*
X110662970Y-78192329D01*
X110671235Y-78215428D01*
X110677196Y-78239227D01*
X110680796Y-78263495D01*
X110682000Y-78287999D01*
X110682000Y-78938001D01*
X110680796Y-78962505D01*
X110677196Y-78986773D01*
X110671235Y-79010572D01*
X110662970Y-79033671D01*
X110652480Y-79055850D01*
X110639868Y-79076893D01*
X110625253Y-79096599D01*
X110608777Y-79114777D01*
X110590599Y-79131253D01*
X110570893Y-79145868D01*
X110549850Y-79158480D01*
X110527671Y-79168970D01*
X110504572Y-79177235D01*
X110480773Y-79183196D01*
X110456505Y-79186796D01*
X110432001Y-79188000D01*
X109531999Y-79188000D01*
X109507495Y-79186796D01*
X109483227Y-79183196D01*
X109459428Y-79177235D01*
X109436329Y-79168970D01*
X109414150Y-79158480D01*
X109393107Y-79145868D01*
X109373401Y-79131253D01*
X109355223Y-79114777D01*
X109338747Y-79096599D01*
X109324132Y-79076893D01*
X109311520Y-79055850D01*
X109301030Y-79033671D01*
X109292765Y-79010572D01*
X109286804Y-78986773D01*
X109283204Y-78962505D01*
X109282000Y-78938001D01*
X109282000Y-78287999D01*
X109283204Y-78263495D01*
X109286804Y-78239227D01*
X109292765Y-78215428D01*
X109301030Y-78192329D01*
X109311520Y-78170150D01*
X109324132Y-78149107D01*
X109338747Y-78129401D01*
X109355223Y-78111223D01*
X109373401Y-78094747D01*
X109393107Y-78080132D01*
X109414150Y-78067520D01*
X109436329Y-78057030D01*
X109459428Y-78048765D01*
X109483227Y-78042804D01*
X109507495Y-78039204D01*
X109531999Y-78038000D01*
X110432001Y-78038000D01*
X110456505Y-78039204D01*
X110456505Y-78039204D01*
G37*
D12*
X109982000Y-78613000D03*
D11*
G36*
X110456505Y-75989204D02*
X110480773Y-75992804D01*
X110504572Y-75998765D01*
X110527671Y-76007030D01*
X110549850Y-76017520D01*
X110570893Y-76030132D01*
X110590599Y-76044747D01*
X110608777Y-76061223D01*
X110625253Y-76079401D01*
X110639868Y-76099107D01*
X110652480Y-76120150D01*
X110662970Y-76142329D01*
X110671235Y-76165428D01*
X110677196Y-76189227D01*
X110680796Y-76213495D01*
X110682000Y-76237999D01*
X110682000Y-76888001D01*
X110680796Y-76912505D01*
X110677196Y-76936773D01*
X110671235Y-76960572D01*
X110662970Y-76983671D01*
X110652480Y-77005850D01*
X110639868Y-77026893D01*
X110625253Y-77046599D01*
X110608777Y-77064777D01*
X110590599Y-77081253D01*
X110570893Y-77095868D01*
X110549850Y-77108480D01*
X110527671Y-77118970D01*
X110504572Y-77127235D01*
X110480773Y-77133196D01*
X110456505Y-77136796D01*
X110432001Y-77138000D01*
X109531999Y-77138000D01*
X109507495Y-77136796D01*
X109483227Y-77133196D01*
X109459428Y-77127235D01*
X109436329Y-77118970D01*
X109414150Y-77108480D01*
X109393107Y-77095868D01*
X109373401Y-77081253D01*
X109355223Y-77064777D01*
X109338747Y-77046599D01*
X109324132Y-77026893D01*
X109311520Y-77005850D01*
X109301030Y-76983671D01*
X109292765Y-76960572D01*
X109286804Y-76936773D01*
X109283204Y-76912505D01*
X109282000Y-76888001D01*
X109282000Y-76237999D01*
X109283204Y-76213495D01*
X109286804Y-76189227D01*
X109292765Y-76165428D01*
X109301030Y-76142329D01*
X109311520Y-76120150D01*
X109324132Y-76099107D01*
X109338747Y-76079401D01*
X109355223Y-76061223D01*
X109373401Y-76044747D01*
X109393107Y-76030132D01*
X109414150Y-76017520D01*
X109436329Y-76007030D01*
X109459428Y-75998765D01*
X109483227Y-75992804D01*
X109507495Y-75989204D01*
X109531999Y-75988000D01*
X110432001Y-75988000D01*
X110456505Y-75989204D01*
X110456505Y-75989204D01*
G37*
D12*
X109982000Y-76563000D03*
G04 #@! TD*
D11*
G04 #@! TO.C,R25*
G36*
X113885505Y-78039204D02*
X113909773Y-78042804D01*
X113933572Y-78048765D01*
X113956671Y-78057030D01*
X113978850Y-78067520D01*
X113999893Y-78080132D01*
X114019599Y-78094747D01*
X114037777Y-78111223D01*
X114054253Y-78129401D01*
X114068868Y-78149107D01*
X114081480Y-78170150D01*
X114091970Y-78192329D01*
X114100235Y-78215428D01*
X114106196Y-78239227D01*
X114109796Y-78263495D01*
X114111000Y-78287999D01*
X114111000Y-78938001D01*
X114109796Y-78962505D01*
X114106196Y-78986773D01*
X114100235Y-79010572D01*
X114091970Y-79033671D01*
X114081480Y-79055850D01*
X114068868Y-79076893D01*
X114054253Y-79096599D01*
X114037777Y-79114777D01*
X114019599Y-79131253D01*
X113999893Y-79145868D01*
X113978850Y-79158480D01*
X113956671Y-79168970D01*
X113933572Y-79177235D01*
X113909773Y-79183196D01*
X113885505Y-79186796D01*
X113861001Y-79188000D01*
X112960999Y-79188000D01*
X112936495Y-79186796D01*
X112912227Y-79183196D01*
X112888428Y-79177235D01*
X112865329Y-79168970D01*
X112843150Y-79158480D01*
X112822107Y-79145868D01*
X112802401Y-79131253D01*
X112784223Y-79114777D01*
X112767747Y-79096599D01*
X112753132Y-79076893D01*
X112740520Y-79055850D01*
X112730030Y-79033671D01*
X112721765Y-79010572D01*
X112715804Y-78986773D01*
X112712204Y-78962505D01*
X112711000Y-78938001D01*
X112711000Y-78287999D01*
X112712204Y-78263495D01*
X112715804Y-78239227D01*
X112721765Y-78215428D01*
X112730030Y-78192329D01*
X112740520Y-78170150D01*
X112753132Y-78149107D01*
X112767747Y-78129401D01*
X112784223Y-78111223D01*
X112802401Y-78094747D01*
X112822107Y-78080132D01*
X112843150Y-78067520D01*
X112865329Y-78057030D01*
X112888428Y-78048765D01*
X112912227Y-78042804D01*
X112936495Y-78039204D01*
X112960999Y-78038000D01*
X113861001Y-78038000D01*
X113885505Y-78039204D01*
X113885505Y-78039204D01*
G37*
D12*
X113411000Y-78613000D03*
D11*
G36*
X113885505Y-75989204D02*
X113909773Y-75992804D01*
X113933572Y-75998765D01*
X113956671Y-76007030D01*
X113978850Y-76017520D01*
X113999893Y-76030132D01*
X114019599Y-76044747D01*
X114037777Y-76061223D01*
X114054253Y-76079401D01*
X114068868Y-76099107D01*
X114081480Y-76120150D01*
X114091970Y-76142329D01*
X114100235Y-76165428D01*
X114106196Y-76189227D01*
X114109796Y-76213495D01*
X114111000Y-76237999D01*
X114111000Y-76888001D01*
X114109796Y-76912505D01*
X114106196Y-76936773D01*
X114100235Y-76960572D01*
X114091970Y-76983671D01*
X114081480Y-77005850D01*
X114068868Y-77026893D01*
X114054253Y-77046599D01*
X114037777Y-77064777D01*
X114019599Y-77081253D01*
X113999893Y-77095868D01*
X113978850Y-77108480D01*
X113956671Y-77118970D01*
X113933572Y-77127235D01*
X113909773Y-77133196D01*
X113885505Y-77136796D01*
X113861001Y-77138000D01*
X112960999Y-77138000D01*
X112936495Y-77136796D01*
X112912227Y-77133196D01*
X112888428Y-77127235D01*
X112865329Y-77118970D01*
X112843150Y-77108480D01*
X112822107Y-77095868D01*
X112802401Y-77081253D01*
X112784223Y-77064777D01*
X112767747Y-77046599D01*
X112753132Y-77026893D01*
X112740520Y-77005850D01*
X112730030Y-76983671D01*
X112721765Y-76960572D01*
X112715804Y-76936773D01*
X112712204Y-76912505D01*
X112711000Y-76888001D01*
X112711000Y-76237999D01*
X112712204Y-76213495D01*
X112715804Y-76189227D01*
X112721765Y-76165428D01*
X112730030Y-76142329D01*
X112740520Y-76120150D01*
X112753132Y-76099107D01*
X112767747Y-76079401D01*
X112784223Y-76061223D01*
X112802401Y-76044747D01*
X112822107Y-76030132D01*
X112843150Y-76017520D01*
X112865329Y-76007030D01*
X112888428Y-75998765D01*
X112912227Y-75992804D01*
X112936495Y-75989204D01*
X112960999Y-75988000D01*
X113861001Y-75988000D01*
X113885505Y-75989204D01*
X113885505Y-75989204D01*
G37*
D12*
X113411000Y-76563000D03*
G04 #@! TD*
D11*
G04 #@! TO.C,R26*
G36*
X117314505Y-75989204D02*
X117338773Y-75992804D01*
X117362572Y-75998765D01*
X117385671Y-76007030D01*
X117407850Y-76017520D01*
X117428893Y-76030132D01*
X117448599Y-76044747D01*
X117466777Y-76061223D01*
X117483253Y-76079401D01*
X117497868Y-76099107D01*
X117510480Y-76120150D01*
X117520970Y-76142329D01*
X117529235Y-76165428D01*
X117535196Y-76189227D01*
X117538796Y-76213495D01*
X117540000Y-76237999D01*
X117540000Y-76888001D01*
X117538796Y-76912505D01*
X117535196Y-76936773D01*
X117529235Y-76960572D01*
X117520970Y-76983671D01*
X117510480Y-77005850D01*
X117497868Y-77026893D01*
X117483253Y-77046599D01*
X117466777Y-77064777D01*
X117448599Y-77081253D01*
X117428893Y-77095868D01*
X117407850Y-77108480D01*
X117385671Y-77118970D01*
X117362572Y-77127235D01*
X117338773Y-77133196D01*
X117314505Y-77136796D01*
X117290001Y-77138000D01*
X116389999Y-77138000D01*
X116365495Y-77136796D01*
X116341227Y-77133196D01*
X116317428Y-77127235D01*
X116294329Y-77118970D01*
X116272150Y-77108480D01*
X116251107Y-77095868D01*
X116231401Y-77081253D01*
X116213223Y-77064777D01*
X116196747Y-77046599D01*
X116182132Y-77026893D01*
X116169520Y-77005850D01*
X116159030Y-76983671D01*
X116150765Y-76960572D01*
X116144804Y-76936773D01*
X116141204Y-76912505D01*
X116140000Y-76888001D01*
X116140000Y-76237999D01*
X116141204Y-76213495D01*
X116144804Y-76189227D01*
X116150765Y-76165428D01*
X116159030Y-76142329D01*
X116169520Y-76120150D01*
X116182132Y-76099107D01*
X116196747Y-76079401D01*
X116213223Y-76061223D01*
X116231401Y-76044747D01*
X116251107Y-76030132D01*
X116272150Y-76017520D01*
X116294329Y-76007030D01*
X116317428Y-75998765D01*
X116341227Y-75992804D01*
X116365495Y-75989204D01*
X116389999Y-75988000D01*
X117290001Y-75988000D01*
X117314505Y-75989204D01*
X117314505Y-75989204D01*
G37*
D12*
X116840000Y-76563000D03*
D11*
G36*
X117314505Y-78039204D02*
X117338773Y-78042804D01*
X117362572Y-78048765D01*
X117385671Y-78057030D01*
X117407850Y-78067520D01*
X117428893Y-78080132D01*
X117448599Y-78094747D01*
X117466777Y-78111223D01*
X117483253Y-78129401D01*
X117497868Y-78149107D01*
X117510480Y-78170150D01*
X117520970Y-78192329D01*
X117529235Y-78215428D01*
X117535196Y-78239227D01*
X117538796Y-78263495D01*
X117540000Y-78287999D01*
X117540000Y-78938001D01*
X117538796Y-78962505D01*
X117535196Y-78986773D01*
X117529235Y-79010572D01*
X117520970Y-79033671D01*
X117510480Y-79055850D01*
X117497868Y-79076893D01*
X117483253Y-79096599D01*
X117466777Y-79114777D01*
X117448599Y-79131253D01*
X117428893Y-79145868D01*
X117407850Y-79158480D01*
X117385671Y-79168970D01*
X117362572Y-79177235D01*
X117338773Y-79183196D01*
X117314505Y-79186796D01*
X117290001Y-79188000D01*
X116389999Y-79188000D01*
X116365495Y-79186796D01*
X116341227Y-79183196D01*
X116317428Y-79177235D01*
X116294329Y-79168970D01*
X116272150Y-79158480D01*
X116251107Y-79145868D01*
X116231401Y-79131253D01*
X116213223Y-79114777D01*
X116196747Y-79096599D01*
X116182132Y-79076893D01*
X116169520Y-79055850D01*
X116159030Y-79033671D01*
X116150765Y-79010572D01*
X116144804Y-78986773D01*
X116141204Y-78962505D01*
X116140000Y-78938001D01*
X116140000Y-78287999D01*
X116141204Y-78263495D01*
X116144804Y-78239227D01*
X116150765Y-78215428D01*
X116159030Y-78192329D01*
X116169520Y-78170150D01*
X116182132Y-78149107D01*
X116196747Y-78129401D01*
X116213223Y-78111223D01*
X116231401Y-78094747D01*
X116251107Y-78080132D01*
X116272150Y-78067520D01*
X116294329Y-78057030D01*
X116317428Y-78048765D01*
X116341227Y-78042804D01*
X116365495Y-78039204D01*
X116389999Y-78038000D01*
X117290001Y-78038000D01*
X117314505Y-78039204D01*
X117314505Y-78039204D01*
G37*
D12*
X116840000Y-78613000D03*
G04 #@! TD*
D13*
G04 #@! TO.C,Q5*
X116865000Y-105015000D03*
X116865000Y-109615000D03*
X116865000Y-107315000D03*
D14*
X123165000Y-107315000D03*
G04 #@! TD*
G04 #@! TO.C,Q6*
X111735000Y-109220000D03*
D13*
X105435000Y-109220000D03*
X105435000Y-111520000D03*
X105435000Y-106920000D03*
G04 #@! TD*
G04 #@! TO.C,Q7*
X93370000Y-106920000D03*
X93370000Y-111520000D03*
X93370000Y-109220000D03*
D14*
X99670000Y-109220000D03*
G04 #@! TD*
G04 #@! TO.C,Q8*
X123190000Y-115570000D03*
D13*
X116890000Y-115570000D03*
X116890000Y-117870000D03*
X116890000Y-113270000D03*
G04 #@! TD*
G04 #@! TO.C,Q9*
X105460000Y-115810000D03*
X105460000Y-120410000D03*
X105460000Y-118110000D03*
D14*
X111760000Y-118110000D03*
G04 #@! TD*
G04 #@! TO.C,Q10*
X100330000Y-118110000D03*
D13*
X94030000Y-118110000D03*
X94030000Y-120410000D03*
X94030000Y-115810000D03*
G04 #@! TD*
G04 #@! TO.C,Q11*
X116890000Y-122160000D03*
X116890000Y-126760000D03*
X116890000Y-124460000D03*
D14*
X123190000Y-124460000D03*
G04 #@! TD*
G04 #@! TO.C,Q12*
X111760000Y-127000000D03*
D13*
X105460000Y-127000000D03*
X105460000Y-129300000D03*
X105460000Y-124700000D03*
G04 #@! TD*
D14*
G04 #@! TO.C,Q13*
X100330000Y-135890000D03*
D13*
X94030000Y-135890000D03*
X94030000Y-138190000D03*
X94030000Y-133590000D03*
G04 #@! TD*
G04 #@! TO.C,Q14*
X105460000Y-133590000D03*
X105460000Y-138190000D03*
X105460000Y-135890000D03*
D14*
X111760000Y-135890000D03*
G04 #@! TD*
G04 #@! TO.C,Q15*
X123190000Y-133350000D03*
D13*
X116890000Y-133350000D03*
X116890000Y-135650000D03*
X116890000Y-131050000D03*
G04 #@! TD*
G04 #@! TO.C,Q16*
X94030000Y-124700000D03*
X94030000Y-129300000D03*
X94030000Y-127000000D03*
D14*
X100330000Y-127000000D03*
G04 #@! TD*
D11*
G04 #@! TO.C,C4*
G36*
X86810504Y-102250204D02*
X86834773Y-102253804D01*
X86858571Y-102259765D01*
X86881671Y-102268030D01*
X86903849Y-102278520D01*
X86924893Y-102291133D01*
X86944598Y-102305747D01*
X86962777Y-102322223D01*
X86979253Y-102340402D01*
X86993867Y-102360107D01*
X87006480Y-102381151D01*
X87016970Y-102403329D01*
X87025235Y-102426429D01*
X87031196Y-102450227D01*
X87034796Y-102474496D01*
X87036000Y-102499000D01*
X87036000Y-103749000D01*
X87034796Y-103773504D01*
X87031196Y-103797773D01*
X87025235Y-103821571D01*
X87016970Y-103844671D01*
X87006480Y-103866849D01*
X86993867Y-103887893D01*
X86979253Y-103907598D01*
X86962777Y-103925777D01*
X86944598Y-103942253D01*
X86924893Y-103956867D01*
X86903849Y-103969480D01*
X86881671Y-103979970D01*
X86858571Y-103988235D01*
X86834773Y-103994196D01*
X86810504Y-103997796D01*
X86786000Y-103999000D01*
X85861000Y-103999000D01*
X85836496Y-103997796D01*
X85812227Y-103994196D01*
X85788429Y-103988235D01*
X85765329Y-103979970D01*
X85743151Y-103969480D01*
X85722107Y-103956867D01*
X85702402Y-103942253D01*
X85684223Y-103925777D01*
X85667747Y-103907598D01*
X85653133Y-103887893D01*
X85640520Y-103866849D01*
X85630030Y-103844671D01*
X85621765Y-103821571D01*
X85615804Y-103797773D01*
X85612204Y-103773504D01*
X85611000Y-103749000D01*
X85611000Y-102499000D01*
X85612204Y-102474496D01*
X85615804Y-102450227D01*
X85621765Y-102426429D01*
X85630030Y-102403329D01*
X85640520Y-102381151D01*
X85653133Y-102360107D01*
X85667747Y-102340402D01*
X85684223Y-102322223D01*
X85702402Y-102305747D01*
X85722107Y-102291133D01*
X85743151Y-102278520D01*
X85765329Y-102268030D01*
X85788429Y-102259765D01*
X85812227Y-102253804D01*
X85836496Y-102250204D01*
X85861000Y-102249000D01*
X86786000Y-102249000D01*
X86810504Y-102250204D01*
X86810504Y-102250204D01*
G37*
D15*
X86323500Y-103124000D03*
D11*
G36*
X83835504Y-102250204D02*
X83859773Y-102253804D01*
X83883571Y-102259765D01*
X83906671Y-102268030D01*
X83928849Y-102278520D01*
X83949893Y-102291133D01*
X83969598Y-102305747D01*
X83987777Y-102322223D01*
X84004253Y-102340402D01*
X84018867Y-102360107D01*
X84031480Y-102381151D01*
X84041970Y-102403329D01*
X84050235Y-102426429D01*
X84056196Y-102450227D01*
X84059796Y-102474496D01*
X84061000Y-102499000D01*
X84061000Y-103749000D01*
X84059796Y-103773504D01*
X84056196Y-103797773D01*
X84050235Y-103821571D01*
X84041970Y-103844671D01*
X84031480Y-103866849D01*
X84018867Y-103887893D01*
X84004253Y-103907598D01*
X83987777Y-103925777D01*
X83969598Y-103942253D01*
X83949893Y-103956867D01*
X83928849Y-103969480D01*
X83906671Y-103979970D01*
X83883571Y-103988235D01*
X83859773Y-103994196D01*
X83835504Y-103997796D01*
X83811000Y-103999000D01*
X82886000Y-103999000D01*
X82861496Y-103997796D01*
X82837227Y-103994196D01*
X82813429Y-103988235D01*
X82790329Y-103979970D01*
X82768151Y-103969480D01*
X82747107Y-103956867D01*
X82727402Y-103942253D01*
X82709223Y-103925777D01*
X82692747Y-103907598D01*
X82678133Y-103887893D01*
X82665520Y-103866849D01*
X82655030Y-103844671D01*
X82646765Y-103821571D01*
X82640804Y-103797773D01*
X82637204Y-103773504D01*
X82636000Y-103749000D01*
X82636000Y-102499000D01*
X82637204Y-102474496D01*
X82640804Y-102450227D01*
X82646765Y-102426429D01*
X82655030Y-102403329D01*
X82665520Y-102381151D01*
X82678133Y-102360107D01*
X82692747Y-102340402D01*
X82709223Y-102322223D01*
X82727402Y-102305747D01*
X82747107Y-102291133D01*
X82768151Y-102278520D01*
X82790329Y-102268030D01*
X82813429Y-102259765D01*
X82837227Y-102253804D01*
X82861496Y-102250204D01*
X82886000Y-102249000D01*
X83811000Y-102249000D01*
X83835504Y-102250204D01*
X83835504Y-102250204D01*
G37*
D15*
X83348500Y-103124000D03*
G04 #@! TD*
D11*
G04 #@! TO.C,C5*
G36*
X82945504Y-109651704D02*
X82969773Y-109655304D01*
X82993571Y-109661265D01*
X83016671Y-109669530D01*
X83038849Y-109680020D01*
X83059893Y-109692633D01*
X83079598Y-109707247D01*
X83097777Y-109723723D01*
X83114253Y-109741902D01*
X83128867Y-109761607D01*
X83141480Y-109782651D01*
X83151970Y-109804829D01*
X83160235Y-109827929D01*
X83166196Y-109851727D01*
X83169796Y-109875996D01*
X83171000Y-109900500D01*
X83171000Y-110825500D01*
X83169796Y-110850004D01*
X83166196Y-110874273D01*
X83160235Y-110898071D01*
X83151970Y-110921171D01*
X83141480Y-110943349D01*
X83128867Y-110964393D01*
X83114253Y-110984098D01*
X83097777Y-111002277D01*
X83079598Y-111018753D01*
X83059893Y-111033367D01*
X83038849Y-111045980D01*
X83016671Y-111056470D01*
X82993571Y-111064735D01*
X82969773Y-111070696D01*
X82945504Y-111074296D01*
X82921000Y-111075500D01*
X81671000Y-111075500D01*
X81646496Y-111074296D01*
X81622227Y-111070696D01*
X81598429Y-111064735D01*
X81575329Y-111056470D01*
X81553151Y-111045980D01*
X81532107Y-111033367D01*
X81512402Y-111018753D01*
X81494223Y-111002277D01*
X81477747Y-110984098D01*
X81463133Y-110964393D01*
X81450520Y-110943349D01*
X81440030Y-110921171D01*
X81431765Y-110898071D01*
X81425804Y-110874273D01*
X81422204Y-110850004D01*
X81421000Y-110825500D01*
X81421000Y-109900500D01*
X81422204Y-109875996D01*
X81425804Y-109851727D01*
X81431765Y-109827929D01*
X81440030Y-109804829D01*
X81450520Y-109782651D01*
X81463133Y-109761607D01*
X81477747Y-109741902D01*
X81494223Y-109723723D01*
X81512402Y-109707247D01*
X81532107Y-109692633D01*
X81553151Y-109680020D01*
X81575329Y-109669530D01*
X81598429Y-109661265D01*
X81622227Y-109655304D01*
X81646496Y-109651704D01*
X81671000Y-109650500D01*
X82921000Y-109650500D01*
X82945504Y-109651704D01*
X82945504Y-109651704D01*
G37*
D15*
X82296000Y-110363000D03*
D11*
G36*
X82945504Y-106676704D02*
X82969773Y-106680304D01*
X82993571Y-106686265D01*
X83016671Y-106694530D01*
X83038849Y-106705020D01*
X83059893Y-106717633D01*
X83079598Y-106732247D01*
X83097777Y-106748723D01*
X83114253Y-106766902D01*
X83128867Y-106786607D01*
X83141480Y-106807651D01*
X83151970Y-106829829D01*
X83160235Y-106852929D01*
X83166196Y-106876727D01*
X83169796Y-106900996D01*
X83171000Y-106925500D01*
X83171000Y-107850500D01*
X83169796Y-107875004D01*
X83166196Y-107899273D01*
X83160235Y-107923071D01*
X83151970Y-107946171D01*
X83141480Y-107968349D01*
X83128867Y-107989393D01*
X83114253Y-108009098D01*
X83097777Y-108027277D01*
X83079598Y-108043753D01*
X83059893Y-108058367D01*
X83038849Y-108070980D01*
X83016671Y-108081470D01*
X82993571Y-108089735D01*
X82969773Y-108095696D01*
X82945504Y-108099296D01*
X82921000Y-108100500D01*
X81671000Y-108100500D01*
X81646496Y-108099296D01*
X81622227Y-108095696D01*
X81598429Y-108089735D01*
X81575329Y-108081470D01*
X81553151Y-108070980D01*
X81532107Y-108058367D01*
X81512402Y-108043753D01*
X81494223Y-108027277D01*
X81477747Y-108009098D01*
X81463133Y-107989393D01*
X81450520Y-107968349D01*
X81440030Y-107946171D01*
X81431765Y-107923071D01*
X81425804Y-107899273D01*
X81422204Y-107875004D01*
X81421000Y-107850500D01*
X81421000Y-106925500D01*
X81422204Y-106900996D01*
X81425804Y-106876727D01*
X81431765Y-106852929D01*
X81440030Y-106829829D01*
X81450520Y-106807651D01*
X81463133Y-106786607D01*
X81477747Y-106766902D01*
X81494223Y-106748723D01*
X81512402Y-106732247D01*
X81532107Y-106717633D01*
X81553151Y-106705020D01*
X81575329Y-106694530D01*
X81598429Y-106686265D01*
X81622227Y-106680304D01*
X81646496Y-106676704D01*
X81671000Y-106675500D01*
X82921000Y-106675500D01*
X82945504Y-106676704D01*
X82945504Y-106676704D01*
G37*
D15*
X82296000Y-107388000D03*
G04 #@! TD*
D11*
G04 #@! TO.C,C6*
G36*
X82945504Y-113080704D02*
X82969773Y-113084304D01*
X82993571Y-113090265D01*
X83016671Y-113098530D01*
X83038849Y-113109020D01*
X83059893Y-113121633D01*
X83079598Y-113136247D01*
X83097777Y-113152723D01*
X83114253Y-113170902D01*
X83128867Y-113190607D01*
X83141480Y-113211651D01*
X83151970Y-113233829D01*
X83160235Y-113256929D01*
X83166196Y-113280727D01*
X83169796Y-113304996D01*
X83171000Y-113329500D01*
X83171000Y-114254500D01*
X83169796Y-114279004D01*
X83166196Y-114303273D01*
X83160235Y-114327071D01*
X83151970Y-114350171D01*
X83141480Y-114372349D01*
X83128867Y-114393393D01*
X83114253Y-114413098D01*
X83097777Y-114431277D01*
X83079598Y-114447753D01*
X83059893Y-114462367D01*
X83038849Y-114474980D01*
X83016671Y-114485470D01*
X82993571Y-114493735D01*
X82969773Y-114499696D01*
X82945504Y-114503296D01*
X82921000Y-114504500D01*
X81671000Y-114504500D01*
X81646496Y-114503296D01*
X81622227Y-114499696D01*
X81598429Y-114493735D01*
X81575329Y-114485470D01*
X81553151Y-114474980D01*
X81532107Y-114462367D01*
X81512402Y-114447753D01*
X81494223Y-114431277D01*
X81477747Y-114413098D01*
X81463133Y-114393393D01*
X81450520Y-114372349D01*
X81440030Y-114350171D01*
X81431765Y-114327071D01*
X81425804Y-114303273D01*
X81422204Y-114279004D01*
X81421000Y-114254500D01*
X81421000Y-113329500D01*
X81422204Y-113304996D01*
X81425804Y-113280727D01*
X81431765Y-113256929D01*
X81440030Y-113233829D01*
X81450520Y-113211651D01*
X81463133Y-113190607D01*
X81477747Y-113170902D01*
X81494223Y-113152723D01*
X81512402Y-113136247D01*
X81532107Y-113121633D01*
X81553151Y-113109020D01*
X81575329Y-113098530D01*
X81598429Y-113090265D01*
X81622227Y-113084304D01*
X81646496Y-113080704D01*
X81671000Y-113079500D01*
X82921000Y-113079500D01*
X82945504Y-113080704D01*
X82945504Y-113080704D01*
G37*
D15*
X82296000Y-113792000D03*
D11*
G36*
X82945504Y-116055704D02*
X82969773Y-116059304D01*
X82993571Y-116065265D01*
X83016671Y-116073530D01*
X83038849Y-116084020D01*
X83059893Y-116096633D01*
X83079598Y-116111247D01*
X83097777Y-116127723D01*
X83114253Y-116145902D01*
X83128867Y-116165607D01*
X83141480Y-116186651D01*
X83151970Y-116208829D01*
X83160235Y-116231929D01*
X83166196Y-116255727D01*
X83169796Y-116279996D01*
X83171000Y-116304500D01*
X83171000Y-117229500D01*
X83169796Y-117254004D01*
X83166196Y-117278273D01*
X83160235Y-117302071D01*
X83151970Y-117325171D01*
X83141480Y-117347349D01*
X83128867Y-117368393D01*
X83114253Y-117388098D01*
X83097777Y-117406277D01*
X83079598Y-117422753D01*
X83059893Y-117437367D01*
X83038849Y-117449980D01*
X83016671Y-117460470D01*
X82993571Y-117468735D01*
X82969773Y-117474696D01*
X82945504Y-117478296D01*
X82921000Y-117479500D01*
X81671000Y-117479500D01*
X81646496Y-117478296D01*
X81622227Y-117474696D01*
X81598429Y-117468735D01*
X81575329Y-117460470D01*
X81553151Y-117449980D01*
X81532107Y-117437367D01*
X81512402Y-117422753D01*
X81494223Y-117406277D01*
X81477747Y-117388098D01*
X81463133Y-117368393D01*
X81450520Y-117347349D01*
X81440030Y-117325171D01*
X81431765Y-117302071D01*
X81425804Y-117278273D01*
X81422204Y-117254004D01*
X81421000Y-117229500D01*
X81421000Y-116304500D01*
X81422204Y-116279996D01*
X81425804Y-116255727D01*
X81431765Y-116231929D01*
X81440030Y-116208829D01*
X81450520Y-116186651D01*
X81463133Y-116165607D01*
X81477747Y-116145902D01*
X81494223Y-116127723D01*
X81512402Y-116111247D01*
X81532107Y-116096633D01*
X81553151Y-116084020D01*
X81575329Y-116073530D01*
X81598429Y-116065265D01*
X81622227Y-116059304D01*
X81646496Y-116055704D01*
X81671000Y-116054500D01*
X82921000Y-116054500D01*
X82945504Y-116055704D01*
X82945504Y-116055704D01*
G37*
D15*
X82296000Y-116767000D03*
G04 #@! TD*
D11*
G04 #@! TO.C,C1*
G36*
X115512504Y-82946204D02*
X115536773Y-82949804D01*
X115560571Y-82955765D01*
X115583671Y-82964030D01*
X115605849Y-82974520D01*
X115626893Y-82987133D01*
X115646598Y-83001747D01*
X115664777Y-83018223D01*
X115681253Y-83036402D01*
X115695867Y-83056107D01*
X115708480Y-83077151D01*
X115718970Y-83099329D01*
X115727235Y-83122429D01*
X115733196Y-83146227D01*
X115736796Y-83170496D01*
X115738000Y-83195000D01*
X115738000Y-84445000D01*
X115736796Y-84469504D01*
X115733196Y-84493773D01*
X115727235Y-84517571D01*
X115718970Y-84540671D01*
X115708480Y-84562849D01*
X115695867Y-84583893D01*
X115681253Y-84603598D01*
X115664777Y-84621777D01*
X115646598Y-84638253D01*
X115626893Y-84652867D01*
X115605849Y-84665480D01*
X115583671Y-84675970D01*
X115560571Y-84684235D01*
X115536773Y-84690196D01*
X115512504Y-84693796D01*
X115488000Y-84695000D01*
X114563000Y-84695000D01*
X114538496Y-84693796D01*
X114514227Y-84690196D01*
X114490429Y-84684235D01*
X114467329Y-84675970D01*
X114445151Y-84665480D01*
X114424107Y-84652867D01*
X114404402Y-84638253D01*
X114386223Y-84621777D01*
X114369747Y-84603598D01*
X114355133Y-84583893D01*
X114342520Y-84562849D01*
X114332030Y-84540671D01*
X114323765Y-84517571D01*
X114317804Y-84493773D01*
X114314204Y-84469504D01*
X114313000Y-84445000D01*
X114313000Y-83195000D01*
X114314204Y-83170496D01*
X114317804Y-83146227D01*
X114323765Y-83122429D01*
X114332030Y-83099329D01*
X114342520Y-83077151D01*
X114355133Y-83056107D01*
X114369747Y-83036402D01*
X114386223Y-83018223D01*
X114404402Y-83001747D01*
X114424107Y-82987133D01*
X114445151Y-82974520D01*
X114467329Y-82964030D01*
X114490429Y-82955765D01*
X114514227Y-82949804D01*
X114538496Y-82946204D01*
X114563000Y-82945000D01*
X115488000Y-82945000D01*
X115512504Y-82946204D01*
X115512504Y-82946204D01*
G37*
D15*
X115025500Y-83820000D03*
D11*
G36*
X112537504Y-82946204D02*
X112561773Y-82949804D01*
X112585571Y-82955765D01*
X112608671Y-82964030D01*
X112630849Y-82974520D01*
X112651893Y-82987133D01*
X112671598Y-83001747D01*
X112689777Y-83018223D01*
X112706253Y-83036402D01*
X112720867Y-83056107D01*
X112733480Y-83077151D01*
X112743970Y-83099329D01*
X112752235Y-83122429D01*
X112758196Y-83146227D01*
X112761796Y-83170496D01*
X112763000Y-83195000D01*
X112763000Y-84445000D01*
X112761796Y-84469504D01*
X112758196Y-84493773D01*
X112752235Y-84517571D01*
X112743970Y-84540671D01*
X112733480Y-84562849D01*
X112720867Y-84583893D01*
X112706253Y-84603598D01*
X112689777Y-84621777D01*
X112671598Y-84638253D01*
X112651893Y-84652867D01*
X112630849Y-84665480D01*
X112608671Y-84675970D01*
X112585571Y-84684235D01*
X112561773Y-84690196D01*
X112537504Y-84693796D01*
X112513000Y-84695000D01*
X111588000Y-84695000D01*
X111563496Y-84693796D01*
X111539227Y-84690196D01*
X111515429Y-84684235D01*
X111492329Y-84675970D01*
X111470151Y-84665480D01*
X111449107Y-84652867D01*
X111429402Y-84638253D01*
X111411223Y-84621777D01*
X111394747Y-84603598D01*
X111380133Y-84583893D01*
X111367520Y-84562849D01*
X111357030Y-84540671D01*
X111348765Y-84517571D01*
X111342804Y-84493773D01*
X111339204Y-84469504D01*
X111338000Y-84445000D01*
X111338000Y-83195000D01*
X111339204Y-83170496D01*
X111342804Y-83146227D01*
X111348765Y-83122429D01*
X111357030Y-83099329D01*
X111367520Y-83077151D01*
X111380133Y-83056107D01*
X111394747Y-83036402D01*
X111411223Y-83018223D01*
X111429402Y-83001747D01*
X111449107Y-82987133D01*
X111470151Y-82974520D01*
X111492329Y-82964030D01*
X111515429Y-82955765D01*
X111539227Y-82949804D01*
X111563496Y-82946204D01*
X111588000Y-82945000D01*
X112513000Y-82945000D01*
X112537504Y-82946204D01*
X112537504Y-82946204D01*
G37*
D15*
X112050500Y-83820000D03*
G04 #@! TD*
D11*
G04 #@! TO.C,R7*
G36*
X94883504Y-88950704D02*
X94907773Y-88954304D01*
X94931571Y-88960265D01*
X94954671Y-88968530D01*
X94976849Y-88979020D01*
X94997893Y-88991633D01*
X95017598Y-89006247D01*
X95035777Y-89022723D01*
X95052253Y-89040902D01*
X95066867Y-89060607D01*
X95079480Y-89081651D01*
X95089970Y-89103829D01*
X95098235Y-89126929D01*
X95104196Y-89150727D01*
X95107796Y-89174996D01*
X95109000Y-89199500D01*
X95109000Y-90124500D01*
X95107796Y-90149004D01*
X95104196Y-90173273D01*
X95098235Y-90197071D01*
X95089970Y-90220171D01*
X95079480Y-90242349D01*
X95066867Y-90263393D01*
X95052253Y-90283098D01*
X95035777Y-90301277D01*
X95017598Y-90317753D01*
X94997893Y-90332367D01*
X94976849Y-90344980D01*
X94954671Y-90355470D01*
X94931571Y-90363735D01*
X94907773Y-90369696D01*
X94883504Y-90373296D01*
X94859000Y-90374500D01*
X93609000Y-90374500D01*
X93584496Y-90373296D01*
X93560227Y-90369696D01*
X93536429Y-90363735D01*
X93513329Y-90355470D01*
X93491151Y-90344980D01*
X93470107Y-90332367D01*
X93450402Y-90317753D01*
X93432223Y-90301277D01*
X93415747Y-90283098D01*
X93401133Y-90263393D01*
X93388520Y-90242349D01*
X93378030Y-90220171D01*
X93369765Y-90197071D01*
X93363804Y-90173273D01*
X93360204Y-90149004D01*
X93359000Y-90124500D01*
X93359000Y-89199500D01*
X93360204Y-89174996D01*
X93363804Y-89150727D01*
X93369765Y-89126929D01*
X93378030Y-89103829D01*
X93388520Y-89081651D01*
X93401133Y-89060607D01*
X93415747Y-89040902D01*
X93432223Y-89022723D01*
X93450402Y-89006247D01*
X93470107Y-88991633D01*
X93491151Y-88979020D01*
X93513329Y-88968530D01*
X93536429Y-88960265D01*
X93560227Y-88954304D01*
X93584496Y-88950704D01*
X93609000Y-88949500D01*
X94859000Y-88949500D01*
X94883504Y-88950704D01*
X94883504Y-88950704D01*
G37*
D15*
X94234000Y-89662000D03*
D11*
G36*
X94883504Y-85975704D02*
X94907773Y-85979304D01*
X94931571Y-85985265D01*
X94954671Y-85993530D01*
X94976849Y-86004020D01*
X94997893Y-86016633D01*
X95017598Y-86031247D01*
X95035777Y-86047723D01*
X95052253Y-86065902D01*
X95066867Y-86085607D01*
X95079480Y-86106651D01*
X95089970Y-86128829D01*
X95098235Y-86151929D01*
X95104196Y-86175727D01*
X95107796Y-86199996D01*
X95109000Y-86224500D01*
X95109000Y-87149500D01*
X95107796Y-87174004D01*
X95104196Y-87198273D01*
X95098235Y-87222071D01*
X95089970Y-87245171D01*
X95079480Y-87267349D01*
X95066867Y-87288393D01*
X95052253Y-87308098D01*
X95035777Y-87326277D01*
X95017598Y-87342753D01*
X94997893Y-87357367D01*
X94976849Y-87369980D01*
X94954671Y-87380470D01*
X94931571Y-87388735D01*
X94907773Y-87394696D01*
X94883504Y-87398296D01*
X94859000Y-87399500D01*
X93609000Y-87399500D01*
X93584496Y-87398296D01*
X93560227Y-87394696D01*
X93536429Y-87388735D01*
X93513329Y-87380470D01*
X93491151Y-87369980D01*
X93470107Y-87357367D01*
X93450402Y-87342753D01*
X93432223Y-87326277D01*
X93415747Y-87308098D01*
X93401133Y-87288393D01*
X93388520Y-87267349D01*
X93378030Y-87245171D01*
X93369765Y-87222071D01*
X93363804Y-87198273D01*
X93360204Y-87174004D01*
X93359000Y-87149500D01*
X93359000Y-86224500D01*
X93360204Y-86199996D01*
X93363804Y-86175727D01*
X93369765Y-86151929D01*
X93378030Y-86128829D01*
X93388520Y-86106651D01*
X93401133Y-86085607D01*
X93415747Y-86065902D01*
X93432223Y-86047723D01*
X93450402Y-86031247D01*
X93470107Y-86016633D01*
X93491151Y-86004020D01*
X93513329Y-85993530D01*
X93536429Y-85985265D01*
X93560227Y-85979304D01*
X93584496Y-85975704D01*
X93609000Y-85974500D01*
X94859000Y-85974500D01*
X94883504Y-85975704D01*
X94883504Y-85975704D01*
G37*
D15*
X94234000Y-86687000D03*
G04 #@! TD*
D11*
G04 #@! TO.C,R14*
G36*
X94883504Y-95227704D02*
X94907773Y-95231304D01*
X94931571Y-95237265D01*
X94954671Y-95245530D01*
X94976849Y-95256020D01*
X94997893Y-95268633D01*
X95017598Y-95283247D01*
X95035777Y-95299723D01*
X95052253Y-95317902D01*
X95066867Y-95337607D01*
X95079480Y-95358651D01*
X95089970Y-95380829D01*
X95098235Y-95403929D01*
X95104196Y-95427727D01*
X95107796Y-95451996D01*
X95109000Y-95476500D01*
X95109000Y-96401500D01*
X95107796Y-96426004D01*
X95104196Y-96450273D01*
X95098235Y-96474071D01*
X95089970Y-96497171D01*
X95079480Y-96519349D01*
X95066867Y-96540393D01*
X95052253Y-96560098D01*
X95035777Y-96578277D01*
X95017598Y-96594753D01*
X94997893Y-96609367D01*
X94976849Y-96621980D01*
X94954671Y-96632470D01*
X94931571Y-96640735D01*
X94907773Y-96646696D01*
X94883504Y-96650296D01*
X94859000Y-96651500D01*
X93609000Y-96651500D01*
X93584496Y-96650296D01*
X93560227Y-96646696D01*
X93536429Y-96640735D01*
X93513329Y-96632470D01*
X93491151Y-96621980D01*
X93470107Y-96609367D01*
X93450402Y-96594753D01*
X93432223Y-96578277D01*
X93415747Y-96560098D01*
X93401133Y-96540393D01*
X93388520Y-96519349D01*
X93378030Y-96497171D01*
X93369765Y-96474071D01*
X93363804Y-96450273D01*
X93360204Y-96426004D01*
X93359000Y-96401500D01*
X93359000Y-95476500D01*
X93360204Y-95451996D01*
X93363804Y-95427727D01*
X93369765Y-95403929D01*
X93378030Y-95380829D01*
X93388520Y-95358651D01*
X93401133Y-95337607D01*
X93415747Y-95317902D01*
X93432223Y-95299723D01*
X93450402Y-95283247D01*
X93470107Y-95268633D01*
X93491151Y-95256020D01*
X93513329Y-95245530D01*
X93536429Y-95237265D01*
X93560227Y-95231304D01*
X93584496Y-95227704D01*
X93609000Y-95226500D01*
X94859000Y-95226500D01*
X94883504Y-95227704D01*
X94883504Y-95227704D01*
G37*
D15*
X94234000Y-95939000D03*
D11*
G36*
X94883504Y-92252704D02*
X94907773Y-92256304D01*
X94931571Y-92262265D01*
X94954671Y-92270530D01*
X94976849Y-92281020D01*
X94997893Y-92293633D01*
X95017598Y-92308247D01*
X95035777Y-92324723D01*
X95052253Y-92342902D01*
X95066867Y-92362607D01*
X95079480Y-92383651D01*
X95089970Y-92405829D01*
X95098235Y-92428929D01*
X95104196Y-92452727D01*
X95107796Y-92476996D01*
X95109000Y-92501500D01*
X95109000Y-93426500D01*
X95107796Y-93451004D01*
X95104196Y-93475273D01*
X95098235Y-93499071D01*
X95089970Y-93522171D01*
X95079480Y-93544349D01*
X95066867Y-93565393D01*
X95052253Y-93585098D01*
X95035777Y-93603277D01*
X95017598Y-93619753D01*
X94997893Y-93634367D01*
X94976849Y-93646980D01*
X94954671Y-93657470D01*
X94931571Y-93665735D01*
X94907773Y-93671696D01*
X94883504Y-93675296D01*
X94859000Y-93676500D01*
X93609000Y-93676500D01*
X93584496Y-93675296D01*
X93560227Y-93671696D01*
X93536429Y-93665735D01*
X93513329Y-93657470D01*
X93491151Y-93646980D01*
X93470107Y-93634367D01*
X93450402Y-93619753D01*
X93432223Y-93603277D01*
X93415747Y-93585098D01*
X93401133Y-93565393D01*
X93388520Y-93544349D01*
X93378030Y-93522171D01*
X93369765Y-93499071D01*
X93363804Y-93475273D01*
X93360204Y-93451004D01*
X93359000Y-93426500D01*
X93359000Y-92501500D01*
X93360204Y-92476996D01*
X93363804Y-92452727D01*
X93369765Y-92428929D01*
X93378030Y-92405829D01*
X93388520Y-92383651D01*
X93401133Y-92362607D01*
X93415747Y-92342902D01*
X93432223Y-92324723D01*
X93450402Y-92308247D01*
X93470107Y-92293633D01*
X93491151Y-92281020D01*
X93513329Y-92270530D01*
X93536429Y-92262265D01*
X93560227Y-92256304D01*
X93584496Y-92252704D01*
X93609000Y-92251500D01*
X94859000Y-92251500D01*
X94883504Y-92252704D01*
X94883504Y-92252704D01*
G37*
D15*
X94234000Y-92964000D03*
G04 #@! TD*
D11*
G04 #@! TO.C,R1*
G36*
X120362505Y-90594204D02*
X120386773Y-90597804D01*
X120410572Y-90603765D01*
X120433671Y-90612030D01*
X120455850Y-90622520D01*
X120476893Y-90635132D01*
X120496599Y-90649747D01*
X120514777Y-90666223D01*
X120531253Y-90684401D01*
X120545868Y-90704107D01*
X120558480Y-90725150D01*
X120568970Y-90747329D01*
X120577235Y-90770428D01*
X120583196Y-90794227D01*
X120586796Y-90818495D01*
X120588000Y-90842999D01*
X120588000Y-91493001D01*
X120586796Y-91517505D01*
X120583196Y-91541773D01*
X120577235Y-91565572D01*
X120568970Y-91588671D01*
X120558480Y-91610850D01*
X120545868Y-91631893D01*
X120531253Y-91651599D01*
X120514777Y-91669777D01*
X120496599Y-91686253D01*
X120476893Y-91700868D01*
X120455850Y-91713480D01*
X120433671Y-91723970D01*
X120410572Y-91732235D01*
X120386773Y-91738196D01*
X120362505Y-91741796D01*
X120338001Y-91743000D01*
X119437999Y-91743000D01*
X119413495Y-91741796D01*
X119389227Y-91738196D01*
X119365428Y-91732235D01*
X119342329Y-91723970D01*
X119320150Y-91713480D01*
X119299107Y-91700868D01*
X119279401Y-91686253D01*
X119261223Y-91669777D01*
X119244747Y-91651599D01*
X119230132Y-91631893D01*
X119217520Y-91610850D01*
X119207030Y-91588671D01*
X119198765Y-91565572D01*
X119192804Y-91541773D01*
X119189204Y-91517505D01*
X119188000Y-91493001D01*
X119188000Y-90842999D01*
X119189204Y-90818495D01*
X119192804Y-90794227D01*
X119198765Y-90770428D01*
X119207030Y-90747329D01*
X119217520Y-90725150D01*
X119230132Y-90704107D01*
X119244747Y-90684401D01*
X119261223Y-90666223D01*
X119279401Y-90649747D01*
X119299107Y-90635132D01*
X119320150Y-90622520D01*
X119342329Y-90612030D01*
X119365428Y-90603765D01*
X119389227Y-90597804D01*
X119413495Y-90594204D01*
X119437999Y-90593000D01*
X120338001Y-90593000D01*
X120362505Y-90594204D01*
X120362505Y-90594204D01*
G37*
D12*
X119888000Y-91168000D03*
D11*
G36*
X120362505Y-92644204D02*
X120386773Y-92647804D01*
X120410572Y-92653765D01*
X120433671Y-92662030D01*
X120455850Y-92672520D01*
X120476893Y-92685132D01*
X120496599Y-92699747D01*
X120514777Y-92716223D01*
X120531253Y-92734401D01*
X120545868Y-92754107D01*
X120558480Y-92775150D01*
X120568970Y-92797329D01*
X120577235Y-92820428D01*
X120583196Y-92844227D01*
X120586796Y-92868495D01*
X120588000Y-92892999D01*
X120588000Y-93543001D01*
X120586796Y-93567505D01*
X120583196Y-93591773D01*
X120577235Y-93615572D01*
X120568970Y-93638671D01*
X120558480Y-93660850D01*
X120545868Y-93681893D01*
X120531253Y-93701599D01*
X120514777Y-93719777D01*
X120496599Y-93736253D01*
X120476893Y-93750868D01*
X120455850Y-93763480D01*
X120433671Y-93773970D01*
X120410572Y-93782235D01*
X120386773Y-93788196D01*
X120362505Y-93791796D01*
X120338001Y-93793000D01*
X119437999Y-93793000D01*
X119413495Y-93791796D01*
X119389227Y-93788196D01*
X119365428Y-93782235D01*
X119342329Y-93773970D01*
X119320150Y-93763480D01*
X119299107Y-93750868D01*
X119279401Y-93736253D01*
X119261223Y-93719777D01*
X119244747Y-93701599D01*
X119230132Y-93681893D01*
X119217520Y-93660850D01*
X119207030Y-93638671D01*
X119198765Y-93615572D01*
X119192804Y-93591773D01*
X119189204Y-93567505D01*
X119188000Y-93543001D01*
X119188000Y-92892999D01*
X119189204Y-92868495D01*
X119192804Y-92844227D01*
X119198765Y-92820428D01*
X119207030Y-92797329D01*
X119217520Y-92775150D01*
X119230132Y-92754107D01*
X119244747Y-92734401D01*
X119261223Y-92716223D01*
X119279401Y-92699747D01*
X119299107Y-92685132D01*
X119320150Y-92672520D01*
X119342329Y-92662030D01*
X119365428Y-92653765D01*
X119389227Y-92647804D01*
X119413495Y-92644204D01*
X119437999Y-92643000D01*
X120338001Y-92643000D01*
X120362505Y-92644204D01*
X120362505Y-92644204D01*
G37*
D12*
X119888000Y-93218000D03*
G04 #@! TD*
D11*
G04 #@! TO.C,R2*
G36*
X123664505Y-87065204D02*
X123688773Y-87068804D01*
X123712572Y-87074765D01*
X123735671Y-87083030D01*
X123757850Y-87093520D01*
X123778893Y-87106132D01*
X123798599Y-87120747D01*
X123816777Y-87137223D01*
X123833253Y-87155401D01*
X123847868Y-87175107D01*
X123860480Y-87196150D01*
X123870970Y-87218329D01*
X123879235Y-87241428D01*
X123885196Y-87265227D01*
X123888796Y-87289495D01*
X123890000Y-87313999D01*
X123890000Y-87964001D01*
X123888796Y-87988505D01*
X123885196Y-88012773D01*
X123879235Y-88036572D01*
X123870970Y-88059671D01*
X123860480Y-88081850D01*
X123847868Y-88102893D01*
X123833253Y-88122599D01*
X123816777Y-88140777D01*
X123798599Y-88157253D01*
X123778893Y-88171868D01*
X123757850Y-88184480D01*
X123735671Y-88194970D01*
X123712572Y-88203235D01*
X123688773Y-88209196D01*
X123664505Y-88212796D01*
X123640001Y-88214000D01*
X122739999Y-88214000D01*
X122715495Y-88212796D01*
X122691227Y-88209196D01*
X122667428Y-88203235D01*
X122644329Y-88194970D01*
X122622150Y-88184480D01*
X122601107Y-88171868D01*
X122581401Y-88157253D01*
X122563223Y-88140777D01*
X122546747Y-88122599D01*
X122532132Y-88102893D01*
X122519520Y-88081850D01*
X122509030Y-88059671D01*
X122500765Y-88036572D01*
X122494804Y-88012773D01*
X122491204Y-87988505D01*
X122490000Y-87964001D01*
X122490000Y-87313999D01*
X122491204Y-87289495D01*
X122494804Y-87265227D01*
X122500765Y-87241428D01*
X122509030Y-87218329D01*
X122519520Y-87196150D01*
X122532132Y-87175107D01*
X122546747Y-87155401D01*
X122563223Y-87137223D01*
X122581401Y-87120747D01*
X122601107Y-87106132D01*
X122622150Y-87093520D01*
X122644329Y-87083030D01*
X122667428Y-87074765D01*
X122691227Y-87068804D01*
X122715495Y-87065204D01*
X122739999Y-87064000D01*
X123640001Y-87064000D01*
X123664505Y-87065204D01*
X123664505Y-87065204D01*
G37*
D12*
X123190000Y-87639000D03*
D11*
G36*
X123664505Y-85015204D02*
X123688773Y-85018804D01*
X123712572Y-85024765D01*
X123735671Y-85033030D01*
X123757850Y-85043520D01*
X123778893Y-85056132D01*
X123798599Y-85070747D01*
X123816777Y-85087223D01*
X123833253Y-85105401D01*
X123847868Y-85125107D01*
X123860480Y-85146150D01*
X123870970Y-85168329D01*
X123879235Y-85191428D01*
X123885196Y-85215227D01*
X123888796Y-85239495D01*
X123890000Y-85263999D01*
X123890000Y-85914001D01*
X123888796Y-85938505D01*
X123885196Y-85962773D01*
X123879235Y-85986572D01*
X123870970Y-86009671D01*
X123860480Y-86031850D01*
X123847868Y-86052893D01*
X123833253Y-86072599D01*
X123816777Y-86090777D01*
X123798599Y-86107253D01*
X123778893Y-86121868D01*
X123757850Y-86134480D01*
X123735671Y-86144970D01*
X123712572Y-86153235D01*
X123688773Y-86159196D01*
X123664505Y-86162796D01*
X123640001Y-86164000D01*
X122739999Y-86164000D01*
X122715495Y-86162796D01*
X122691227Y-86159196D01*
X122667428Y-86153235D01*
X122644329Y-86144970D01*
X122622150Y-86134480D01*
X122601107Y-86121868D01*
X122581401Y-86107253D01*
X122563223Y-86090777D01*
X122546747Y-86072599D01*
X122532132Y-86052893D01*
X122519520Y-86031850D01*
X122509030Y-86009671D01*
X122500765Y-85986572D01*
X122494804Y-85962773D01*
X122491204Y-85938505D01*
X122490000Y-85914001D01*
X122490000Y-85263999D01*
X122491204Y-85239495D01*
X122494804Y-85215227D01*
X122500765Y-85191428D01*
X122509030Y-85168329D01*
X122519520Y-85146150D01*
X122532132Y-85125107D01*
X122546747Y-85105401D01*
X122563223Y-85087223D01*
X122581401Y-85070747D01*
X122601107Y-85056132D01*
X122622150Y-85043520D01*
X122644329Y-85033030D01*
X122667428Y-85024765D01*
X122691227Y-85018804D01*
X122715495Y-85015204D01*
X122739999Y-85014000D01*
X123640001Y-85014000D01*
X123664505Y-85015204D01*
X123664505Y-85015204D01*
G37*
D12*
X123190000Y-85589000D03*
G04 #@! TD*
D11*
G04 #@! TO.C,R3*
G36*
X120426005Y-85015204D02*
X120450273Y-85018804D01*
X120474072Y-85024765D01*
X120497171Y-85033030D01*
X120519350Y-85043520D01*
X120540393Y-85056132D01*
X120560099Y-85070747D01*
X120578277Y-85087223D01*
X120594753Y-85105401D01*
X120609368Y-85125107D01*
X120621980Y-85146150D01*
X120632470Y-85168329D01*
X120640735Y-85191428D01*
X120646696Y-85215227D01*
X120650296Y-85239495D01*
X120651500Y-85263999D01*
X120651500Y-85914001D01*
X120650296Y-85938505D01*
X120646696Y-85962773D01*
X120640735Y-85986572D01*
X120632470Y-86009671D01*
X120621980Y-86031850D01*
X120609368Y-86052893D01*
X120594753Y-86072599D01*
X120578277Y-86090777D01*
X120560099Y-86107253D01*
X120540393Y-86121868D01*
X120519350Y-86134480D01*
X120497171Y-86144970D01*
X120474072Y-86153235D01*
X120450273Y-86159196D01*
X120426005Y-86162796D01*
X120401501Y-86164000D01*
X119501499Y-86164000D01*
X119476995Y-86162796D01*
X119452727Y-86159196D01*
X119428928Y-86153235D01*
X119405829Y-86144970D01*
X119383650Y-86134480D01*
X119362607Y-86121868D01*
X119342901Y-86107253D01*
X119324723Y-86090777D01*
X119308247Y-86072599D01*
X119293632Y-86052893D01*
X119281020Y-86031850D01*
X119270530Y-86009671D01*
X119262265Y-85986572D01*
X119256304Y-85962773D01*
X119252704Y-85938505D01*
X119251500Y-85914001D01*
X119251500Y-85263999D01*
X119252704Y-85239495D01*
X119256304Y-85215227D01*
X119262265Y-85191428D01*
X119270530Y-85168329D01*
X119281020Y-85146150D01*
X119293632Y-85125107D01*
X119308247Y-85105401D01*
X119324723Y-85087223D01*
X119342901Y-85070747D01*
X119362607Y-85056132D01*
X119383650Y-85043520D01*
X119405829Y-85033030D01*
X119428928Y-85024765D01*
X119452727Y-85018804D01*
X119476995Y-85015204D01*
X119501499Y-85014000D01*
X120401501Y-85014000D01*
X120426005Y-85015204D01*
X120426005Y-85015204D01*
G37*
D12*
X119951500Y-85589000D03*
D11*
G36*
X120426005Y-87065204D02*
X120450273Y-87068804D01*
X120474072Y-87074765D01*
X120497171Y-87083030D01*
X120519350Y-87093520D01*
X120540393Y-87106132D01*
X120560099Y-87120747D01*
X120578277Y-87137223D01*
X120594753Y-87155401D01*
X120609368Y-87175107D01*
X120621980Y-87196150D01*
X120632470Y-87218329D01*
X120640735Y-87241428D01*
X120646696Y-87265227D01*
X120650296Y-87289495D01*
X120651500Y-87313999D01*
X120651500Y-87964001D01*
X120650296Y-87988505D01*
X120646696Y-88012773D01*
X120640735Y-88036572D01*
X120632470Y-88059671D01*
X120621980Y-88081850D01*
X120609368Y-88102893D01*
X120594753Y-88122599D01*
X120578277Y-88140777D01*
X120560099Y-88157253D01*
X120540393Y-88171868D01*
X120519350Y-88184480D01*
X120497171Y-88194970D01*
X120474072Y-88203235D01*
X120450273Y-88209196D01*
X120426005Y-88212796D01*
X120401501Y-88214000D01*
X119501499Y-88214000D01*
X119476995Y-88212796D01*
X119452727Y-88209196D01*
X119428928Y-88203235D01*
X119405829Y-88194970D01*
X119383650Y-88184480D01*
X119362607Y-88171868D01*
X119342901Y-88157253D01*
X119324723Y-88140777D01*
X119308247Y-88122599D01*
X119293632Y-88102893D01*
X119281020Y-88081850D01*
X119270530Y-88059671D01*
X119262265Y-88036572D01*
X119256304Y-88012773D01*
X119252704Y-87988505D01*
X119251500Y-87964001D01*
X119251500Y-87313999D01*
X119252704Y-87289495D01*
X119256304Y-87265227D01*
X119262265Y-87241428D01*
X119270530Y-87218329D01*
X119281020Y-87196150D01*
X119293632Y-87175107D01*
X119308247Y-87155401D01*
X119324723Y-87137223D01*
X119342901Y-87120747D01*
X119362607Y-87106132D01*
X119383650Y-87093520D01*
X119405829Y-87083030D01*
X119428928Y-87074765D01*
X119452727Y-87068804D01*
X119476995Y-87065204D01*
X119501499Y-87064000D01*
X120401501Y-87064000D01*
X120426005Y-87065204D01*
X120426005Y-87065204D01*
G37*
D12*
X119951500Y-87639000D03*
G04 #@! TD*
M02*
