G04 #@! TF.GenerationSoftware,KiCad,Pcbnew,5.0.2-bee76a0~70~ubuntu18.04.1*
G04 #@! TF.CreationDate,2019-02-08T11:17:56-07:00*
G04 #@! TF.ProjectId,driver,64726976-6572-42e6-9b69-6361645f7063,rev?*
G04 #@! TF.SameCoordinates,Original*
G04 #@! TF.FileFunction,Copper,L2,Bot*
G04 #@! TF.FilePolarity,Positive*
%FSLAX46Y46*%
G04 Gerber Fmt 4.6, Leading zero omitted, Abs format (unit mm)*
G04 Created by KiCad (PCBNEW 5.0.2-bee76a0~70~ubuntu18.04.1) date Fri 08 Feb 2019 11:17:56 AM MST*
%MOMM*%
%LPD*%
G01*
G04 APERTURE LIST*
G04 #@! TA.AperFunction,ComponentPad*
%ADD10O,1.600000X1.600000*%
G04 #@! TD*
G04 #@! TA.AperFunction,ComponentPad*
%ADD11R,1.600000X1.600000*%
G04 #@! TD*
G04 #@! TA.AperFunction,ComponentPad*
%ADD12R,2.000000X1.905000*%
G04 #@! TD*
G04 #@! TA.AperFunction,ComponentPad*
%ADD13O,2.000000X1.905000*%
G04 #@! TD*
G04 #@! TA.AperFunction,ComponentPad*
%ADD14R,2.500000X2.500000*%
G04 #@! TD*
G04 #@! TA.AperFunction,ComponentPad*
%ADD15C,2.500000*%
G04 #@! TD*
G04 #@! TA.AperFunction,ComponentPad*
%ADD16R,1.700000X1.700000*%
G04 #@! TD*
G04 #@! TA.AperFunction,ComponentPad*
%ADD17O,1.700000X1.700000*%
G04 #@! TD*
G04 #@! TA.AperFunction,ComponentPad*
%ADD18C,1.600000*%
G04 #@! TD*
G04 #@! TA.AperFunction,Conductor*
%ADD19C,0.100000*%
G04 #@! TD*
G04 #@! TA.AperFunction,SMDPad,CuDef*
%ADD20C,1.425000*%
G04 #@! TD*
G04 #@! TA.AperFunction,ComponentPad*
%ADD21R,1.000000X1.000000*%
G04 #@! TD*
G04 #@! TA.AperFunction,ComponentPad*
%ADD22O,1.000000X1.000000*%
G04 #@! TD*
G04 #@! TA.AperFunction,ViaPad*
%ADD23C,1.200000*%
G04 #@! TD*
G04 #@! TA.AperFunction,Conductor*
%ADD24C,0.254000*%
G04 #@! TD*
G04 #@! TA.AperFunction,Conductor*
%ADD25C,1.500000*%
G04 #@! TD*
G04 APERTURE END LIST*
D10*
G04 #@! TO.P,A1,32*
G04 #@! TO.N,/SCL*
X126238000Y-92206000D03*
G04 #@! TO.P,A1,31*
G04 #@! TO.N,/SDA*
X126238000Y-94746000D03*
D11*
G04 #@! TO.P,A1,1*
G04 #@! TO.N,Net-(A1-Pad1)*
X77978000Y-101346000D03*
D10*
G04 #@! TO.P,A1,17*
G04 #@! TO.N,Net-(A1-Pad17)*
X126238000Y-131826000D03*
G04 #@! TO.P,A1,2*
G04 #@! TO.N,Net-(A1-Pad2)*
X77978000Y-103886000D03*
G04 #@! TO.P,A1,18*
G04 #@! TO.N,Net-(A1-Pad18)*
X126238000Y-129286000D03*
G04 #@! TO.P,A1,3*
G04 #@! TO.N,Net-(A1-Pad3)*
X77978000Y-106426000D03*
G04 #@! TO.P,A1,19*
G04 #@! TO.N,Net-(A1-Pad19)*
X126238000Y-126746000D03*
G04 #@! TO.P,A1,4*
G04 #@! TO.N,Net-(A1-Pad4)*
X77978000Y-108966000D03*
G04 #@! TO.P,A1,20*
G04 #@! TO.N,Net-(A1-Pad20)*
X126238000Y-124206000D03*
G04 #@! TO.P,A1,5*
G04 #@! TO.N,VCC*
X77978000Y-111506000D03*
G04 #@! TO.P,A1,21*
G04 #@! TO.N,Net-(A1-Pad21)*
X126238000Y-121666000D03*
G04 #@! TO.P,A1,6*
G04 #@! TO.N,GND*
X77978000Y-114046000D03*
G04 #@! TO.P,A1,22*
G04 #@! TO.N,Net-(A1-Pad22)*
X126238000Y-119126000D03*
G04 #@! TO.P,A1,7*
G04 #@! TO.N,GND*
X77978000Y-116586000D03*
G04 #@! TO.P,A1,23*
G04 #@! TO.N,Net-(A1-Pad23)*
X126238000Y-115066000D03*
G04 #@! TO.P,A1,8*
G04 #@! TO.N,Net-(A1-Pad8)*
X77978000Y-119126000D03*
G04 #@! TO.P,A1,24*
G04 #@! TO.N,Net-(A1-Pad24)*
X126238000Y-112526000D03*
G04 #@! TO.P,A1,9*
G04 #@! TO.N,Net-(A1-Pad9)*
X77978000Y-124206000D03*
G04 #@! TO.P,A1,25*
G04 #@! TO.N,Net-(A1-Pad25)*
X126238000Y-109986000D03*
G04 #@! TO.P,A1,10*
G04 #@! TO.N,Net-(A1-Pad10)*
X77978000Y-126746000D03*
G04 #@! TO.P,A1,26*
G04 #@! TO.N,Net-(A1-Pad26)*
X126238000Y-107446000D03*
G04 #@! TO.P,A1,11*
G04 #@! TO.N,Net-(A1-Pad11)*
X77978000Y-129286000D03*
G04 #@! TO.P,A1,27*
G04 #@! TO.N,Net-(A1-Pad27)*
X126238000Y-104906000D03*
G04 #@! TO.P,A1,12*
G04 #@! TO.N,/~OE*
X77978000Y-131826000D03*
G04 #@! TO.P,A1,28*
G04 #@! TO.N,Net-(A1-Pad28)*
X126238000Y-102366000D03*
G04 #@! TO.P,A1,13*
G04 #@! TO.N,Net-(A1-Pad13)*
X77978000Y-134366000D03*
G04 #@! TO.P,A1,29*
G04 #@! TO.N,GND*
X126238000Y-99826000D03*
G04 #@! TO.P,A1,14*
G04 #@! TO.N,Net-(A1-Pad14)*
X77978000Y-136906000D03*
G04 #@! TO.P,A1,30*
G04 #@! TO.N,Net-(A1-Pad30)*
X126238000Y-97286000D03*
G04 #@! TO.P,A1,15*
G04 #@! TO.N,Net-(A1-Pad15)*
X126238000Y-136906000D03*
G04 #@! TO.P,A1,16*
G04 #@! TO.N,Net-(A1-Pad16)*
X126238000Y-134366000D03*
G04 #@! TD*
D12*
G04 #@! TO.P,Q1,1*
G04 #@! TO.N,Net-(Q1-Pad1)*
X88900000Y-90805000D03*
D13*
G04 #@! TO.P,Q1,2*
G04 #@! TO.N,/input_hicurrent*
X88900000Y-93345000D03*
G04 #@! TO.P,Q1,3*
G04 #@! TO.N,28V*
X88900000Y-95885000D03*
G04 #@! TD*
D14*
G04 #@! TO.P,J1,1*
G04 #@! TO.N,GND*
X79502000Y-90170000D03*
D15*
G04 #@! TO.P,J1,2*
G04 #@! TO.N,/input_hicurrent*
X79502000Y-95170000D03*
G04 #@! TD*
D16*
G04 #@! TO.P,J2,1*
G04 #@! TO.N,PWR_CH0*
X88900000Y-134620000D03*
D17*
G04 #@! TO.P,J2,2*
G04 #@! TO.N,28V*
X86360000Y-134620000D03*
G04 #@! TO.P,J2,3*
G04 #@! TO.N,PWR_CH1*
X88900000Y-132080000D03*
G04 #@! TO.P,J2,4*
G04 #@! TO.N,28V*
X86360000Y-132080000D03*
G04 #@! TO.P,J2,5*
G04 #@! TO.N,PWR_CH2*
X88900000Y-129540000D03*
G04 #@! TO.P,J2,6*
G04 #@! TO.N,28V*
X86360000Y-129540000D03*
G04 #@! TO.P,J2,7*
G04 #@! TO.N,PWR_CH3*
X88900000Y-127000000D03*
G04 #@! TO.P,J2,8*
G04 #@! TO.N,28V*
X86360000Y-127000000D03*
G04 #@! TO.P,J2,9*
G04 #@! TO.N,PWR_CH4*
X88900000Y-124460000D03*
G04 #@! TO.P,J2,10*
G04 #@! TO.N,28V*
X86360000Y-124460000D03*
G04 #@! TO.P,J2,11*
G04 #@! TO.N,PWR_CH5*
X88900000Y-121920000D03*
G04 #@! TO.P,J2,12*
G04 #@! TO.N,28V*
X86360000Y-121920000D03*
G04 #@! TO.P,J2,13*
G04 #@! TO.N,PWR_CH6*
X88900000Y-119380000D03*
G04 #@! TO.P,J2,14*
G04 #@! TO.N,28V*
X86360000Y-119380000D03*
G04 #@! TO.P,J2,15*
G04 #@! TO.N,PWR_CH7*
X88900000Y-116840000D03*
G04 #@! TO.P,J2,16*
G04 #@! TO.N,28V*
X86360000Y-116840000D03*
G04 #@! TO.P,J2,17*
G04 #@! TO.N,PWR_CH8*
X88900000Y-114300000D03*
G04 #@! TO.P,J2,18*
G04 #@! TO.N,28V*
X86360000Y-114300000D03*
G04 #@! TO.P,J2,19*
G04 #@! TO.N,PWR_CH9*
X88900000Y-111760000D03*
G04 #@! TO.P,J2,20*
G04 #@! TO.N,28V*
X86360000Y-111760000D03*
G04 #@! TO.P,J2,21*
G04 #@! TO.N,PWR_CH10*
X88900000Y-109220000D03*
G04 #@! TO.P,J2,22*
G04 #@! TO.N,28V*
X86360000Y-109220000D03*
G04 #@! TO.P,J2,23*
G04 #@! TO.N,PWR_CH11*
X88900000Y-106680000D03*
G04 #@! TO.P,J2,24*
G04 #@! TO.N,28V*
X86360000Y-106680000D03*
G04 #@! TD*
D18*
G04 #@! TO.P,C2,2*
G04 #@! TO.N,GND*
X123444000Y-77002000D03*
D11*
G04 #@! TO.P,C2,1*
G04 #@! TO.N,VCC*
X123444000Y-79502000D03*
G04 #@! TD*
G04 #@! TO.P,C3,1*
G04 #@! TO.N,28V*
X81534000Y-79502000D03*
D18*
G04 #@! TO.P,C3,2*
G04 #@! TO.N,GND*
X79034000Y-79502000D03*
G04 #@! TD*
D19*
G04 #@! TO.N,GND*
G04 #@! TO.C,R4*
G36*
X99764504Y-134762204D02*
X99788773Y-134765804D01*
X99812571Y-134771765D01*
X99835671Y-134780030D01*
X99857849Y-134790520D01*
X99878893Y-134803133D01*
X99898598Y-134817747D01*
X99916777Y-134834223D01*
X99933253Y-134852402D01*
X99947867Y-134872107D01*
X99960480Y-134893151D01*
X99970970Y-134915329D01*
X99979235Y-134938429D01*
X99985196Y-134962227D01*
X99988796Y-134986496D01*
X99990000Y-135011000D01*
X99990000Y-136261000D01*
X99988796Y-136285504D01*
X99985196Y-136309773D01*
X99979235Y-136333571D01*
X99970970Y-136356671D01*
X99960480Y-136378849D01*
X99947867Y-136399893D01*
X99933253Y-136419598D01*
X99916777Y-136437777D01*
X99898598Y-136454253D01*
X99878893Y-136468867D01*
X99857849Y-136481480D01*
X99835671Y-136491970D01*
X99812571Y-136500235D01*
X99788773Y-136506196D01*
X99764504Y-136509796D01*
X99740000Y-136511000D01*
X98815000Y-136511000D01*
X98790496Y-136509796D01*
X98766227Y-136506196D01*
X98742429Y-136500235D01*
X98719329Y-136491970D01*
X98697151Y-136481480D01*
X98676107Y-136468867D01*
X98656402Y-136454253D01*
X98638223Y-136437777D01*
X98621747Y-136419598D01*
X98607133Y-136399893D01*
X98594520Y-136378849D01*
X98584030Y-136356671D01*
X98575765Y-136333571D01*
X98569804Y-136309773D01*
X98566204Y-136285504D01*
X98565000Y-136261000D01*
X98565000Y-135011000D01*
X98566204Y-134986496D01*
X98569804Y-134962227D01*
X98575765Y-134938429D01*
X98584030Y-134915329D01*
X98594520Y-134893151D01*
X98607133Y-134872107D01*
X98621747Y-134852402D01*
X98638223Y-134834223D01*
X98656402Y-134817747D01*
X98676107Y-134803133D01*
X98697151Y-134790520D01*
X98719329Y-134780030D01*
X98742429Y-134771765D01*
X98766227Y-134765804D01*
X98790496Y-134762204D01*
X98815000Y-134761000D01*
X99740000Y-134761000D01*
X99764504Y-134762204D01*
X99764504Y-134762204D01*
G37*
D20*
G04 #@! TD*
G04 #@! TO.P,R4,2*
G04 #@! TO.N,GND*
X99277500Y-135636000D03*
D19*
G04 #@! TO.N,/PWM0*
G04 #@! TO.C,R4*
G36*
X96789504Y-134762204D02*
X96813773Y-134765804D01*
X96837571Y-134771765D01*
X96860671Y-134780030D01*
X96882849Y-134790520D01*
X96903893Y-134803133D01*
X96923598Y-134817747D01*
X96941777Y-134834223D01*
X96958253Y-134852402D01*
X96972867Y-134872107D01*
X96985480Y-134893151D01*
X96995970Y-134915329D01*
X97004235Y-134938429D01*
X97010196Y-134962227D01*
X97013796Y-134986496D01*
X97015000Y-135011000D01*
X97015000Y-136261000D01*
X97013796Y-136285504D01*
X97010196Y-136309773D01*
X97004235Y-136333571D01*
X96995970Y-136356671D01*
X96985480Y-136378849D01*
X96972867Y-136399893D01*
X96958253Y-136419598D01*
X96941777Y-136437777D01*
X96923598Y-136454253D01*
X96903893Y-136468867D01*
X96882849Y-136481480D01*
X96860671Y-136491970D01*
X96837571Y-136500235D01*
X96813773Y-136506196D01*
X96789504Y-136509796D01*
X96765000Y-136511000D01*
X95840000Y-136511000D01*
X95815496Y-136509796D01*
X95791227Y-136506196D01*
X95767429Y-136500235D01*
X95744329Y-136491970D01*
X95722151Y-136481480D01*
X95701107Y-136468867D01*
X95681402Y-136454253D01*
X95663223Y-136437777D01*
X95646747Y-136419598D01*
X95632133Y-136399893D01*
X95619520Y-136378849D01*
X95609030Y-136356671D01*
X95600765Y-136333571D01*
X95594804Y-136309773D01*
X95591204Y-136285504D01*
X95590000Y-136261000D01*
X95590000Y-135011000D01*
X95591204Y-134986496D01*
X95594804Y-134962227D01*
X95600765Y-134938429D01*
X95609030Y-134915329D01*
X95619520Y-134893151D01*
X95632133Y-134872107D01*
X95646747Y-134852402D01*
X95663223Y-134834223D01*
X95681402Y-134817747D01*
X95701107Y-134803133D01*
X95722151Y-134790520D01*
X95744329Y-134780030D01*
X95767429Y-134771765D01*
X95791227Y-134765804D01*
X95815496Y-134762204D01*
X95840000Y-134761000D01*
X96765000Y-134761000D01*
X96789504Y-134762204D01*
X96789504Y-134762204D01*
G37*
D20*
G04 #@! TD*
G04 #@! TO.P,R4,1*
G04 #@! TO.N,/PWM0*
X96302500Y-135636000D03*
D19*
G04 #@! TO.N,/PWM1*
G04 #@! TO.C,R5*
G36*
X107748004Y-135016204D02*
X107772273Y-135019804D01*
X107796071Y-135025765D01*
X107819171Y-135034030D01*
X107841349Y-135044520D01*
X107862393Y-135057133D01*
X107882098Y-135071747D01*
X107900277Y-135088223D01*
X107916753Y-135106402D01*
X107931367Y-135126107D01*
X107943980Y-135147151D01*
X107954470Y-135169329D01*
X107962735Y-135192429D01*
X107968696Y-135216227D01*
X107972296Y-135240496D01*
X107973500Y-135265000D01*
X107973500Y-136515000D01*
X107972296Y-136539504D01*
X107968696Y-136563773D01*
X107962735Y-136587571D01*
X107954470Y-136610671D01*
X107943980Y-136632849D01*
X107931367Y-136653893D01*
X107916753Y-136673598D01*
X107900277Y-136691777D01*
X107882098Y-136708253D01*
X107862393Y-136722867D01*
X107841349Y-136735480D01*
X107819171Y-136745970D01*
X107796071Y-136754235D01*
X107772273Y-136760196D01*
X107748004Y-136763796D01*
X107723500Y-136765000D01*
X106798500Y-136765000D01*
X106773996Y-136763796D01*
X106749727Y-136760196D01*
X106725929Y-136754235D01*
X106702829Y-136745970D01*
X106680651Y-136735480D01*
X106659607Y-136722867D01*
X106639902Y-136708253D01*
X106621723Y-136691777D01*
X106605247Y-136673598D01*
X106590633Y-136653893D01*
X106578020Y-136632849D01*
X106567530Y-136610671D01*
X106559265Y-136587571D01*
X106553304Y-136563773D01*
X106549704Y-136539504D01*
X106548500Y-136515000D01*
X106548500Y-135265000D01*
X106549704Y-135240496D01*
X106553304Y-135216227D01*
X106559265Y-135192429D01*
X106567530Y-135169329D01*
X106578020Y-135147151D01*
X106590633Y-135126107D01*
X106605247Y-135106402D01*
X106621723Y-135088223D01*
X106639902Y-135071747D01*
X106659607Y-135057133D01*
X106680651Y-135044520D01*
X106702829Y-135034030D01*
X106725929Y-135025765D01*
X106749727Y-135019804D01*
X106773996Y-135016204D01*
X106798500Y-135015000D01*
X107723500Y-135015000D01*
X107748004Y-135016204D01*
X107748004Y-135016204D01*
G37*
D20*
G04 #@! TD*
G04 #@! TO.P,R5,1*
G04 #@! TO.N,/PWM1*
X107261000Y-135890000D03*
D19*
G04 #@! TO.N,GND*
G04 #@! TO.C,R5*
G36*
X110723004Y-135016204D02*
X110747273Y-135019804D01*
X110771071Y-135025765D01*
X110794171Y-135034030D01*
X110816349Y-135044520D01*
X110837393Y-135057133D01*
X110857098Y-135071747D01*
X110875277Y-135088223D01*
X110891753Y-135106402D01*
X110906367Y-135126107D01*
X110918980Y-135147151D01*
X110929470Y-135169329D01*
X110937735Y-135192429D01*
X110943696Y-135216227D01*
X110947296Y-135240496D01*
X110948500Y-135265000D01*
X110948500Y-136515000D01*
X110947296Y-136539504D01*
X110943696Y-136563773D01*
X110937735Y-136587571D01*
X110929470Y-136610671D01*
X110918980Y-136632849D01*
X110906367Y-136653893D01*
X110891753Y-136673598D01*
X110875277Y-136691777D01*
X110857098Y-136708253D01*
X110837393Y-136722867D01*
X110816349Y-136735480D01*
X110794171Y-136745970D01*
X110771071Y-136754235D01*
X110747273Y-136760196D01*
X110723004Y-136763796D01*
X110698500Y-136765000D01*
X109773500Y-136765000D01*
X109748996Y-136763796D01*
X109724727Y-136760196D01*
X109700929Y-136754235D01*
X109677829Y-136745970D01*
X109655651Y-136735480D01*
X109634607Y-136722867D01*
X109614902Y-136708253D01*
X109596723Y-136691777D01*
X109580247Y-136673598D01*
X109565633Y-136653893D01*
X109553020Y-136632849D01*
X109542530Y-136610671D01*
X109534265Y-136587571D01*
X109528304Y-136563773D01*
X109524704Y-136539504D01*
X109523500Y-136515000D01*
X109523500Y-135265000D01*
X109524704Y-135240496D01*
X109528304Y-135216227D01*
X109534265Y-135192429D01*
X109542530Y-135169329D01*
X109553020Y-135147151D01*
X109565633Y-135126107D01*
X109580247Y-135106402D01*
X109596723Y-135088223D01*
X109614902Y-135071747D01*
X109634607Y-135057133D01*
X109655651Y-135044520D01*
X109677829Y-135034030D01*
X109700929Y-135025765D01*
X109724727Y-135019804D01*
X109748996Y-135016204D01*
X109773500Y-135015000D01*
X110698500Y-135015000D01*
X110723004Y-135016204D01*
X110723004Y-135016204D01*
G37*
D20*
G04 #@! TD*
G04 #@! TO.P,R5,2*
G04 #@! TO.N,GND*
X110236000Y-135890000D03*
D19*
G04 #@! TO.N,GND*
G04 #@! TO.C,R6*
G36*
X121826004Y-132222204D02*
X121850273Y-132225804D01*
X121874071Y-132231765D01*
X121897171Y-132240030D01*
X121919349Y-132250520D01*
X121940393Y-132263133D01*
X121960098Y-132277747D01*
X121978277Y-132294223D01*
X121994753Y-132312402D01*
X122009367Y-132332107D01*
X122021980Y-132353151D01*
X122032470Y-132375329D01*
X122040735Y-132398429D01*
X122046696Y-132422227D01*
X122050296Y-132446496D01*
X122051500Y-132471000D01*
X122051500Y-133721000D01*
X122050296Y-133745504D01*
X122046696Y-133769773D01*
X122040735Y-133793571D01*
X122032470Y-133816671D01*
X122021980Y-133838849D01*
X122009367Y-133859893D01*
X121994753Y-133879598D01*
X121978277Y-133897777D01*
X121960098Y-133914253D01*
X121940393Y-133928867D01*
X121919349Y-133941480D01*
X121897171Y-133951970D01*
X121874071Y-133960235D01*
X121850273Y-133966196D01*
X121826004Y-133969796D01*
X121801500Y-133971000D01*
X120876500Y-133971000D01*
X120851996Y-133969796D01*
X120827727Y-133966196D01*
X120803929Y-133960235D01*
X120780829Y-133951970D01*
X120758651Y-133941480D01*
X120737607Y-133928867D01*
X120717902Y-133914253D01*
X120699723Y-133897777D01*
X120683247Y-133879598D01*
X120668633Y-133859893D01*
X120656020Y-133838849D01*
X120645530Y-133816671D01*
X120637265Y-133793571D01*
X120631304Y-133769773D01*
X120627704Y-133745504D01*
X120626500Y-133721000D01*
X120626500Y-132471000D01*
X120627704Y-132446496D01*
X120631304Y-132422227D01*
X120637265Y-132398429D01*
X120645530Y-132375329D01*
X120656020Y-132353151D01*
X120668633Y-132332107D01*
X120683247Y-132312402D01*
X120699723Y-132294223D01*
X120717902Y-132277747D01*
X120737607Y-132263133D01*
X120758651Y-132250520D01*
X120780829Y-132240030D01*
X120803929Y-132231765D01*
X120827727Y-132225804D01*
X120851996Y-132222204D01*
X120876500Y-132221000D01*
X121801500Y-132221000D01*
X121826004Y-132222204D01*
X121826004Y-132222204D01*
G37*
D20*
G04 #@! TD*
G04 #@! TO.P,R6,2*
G04 #@! TO.N,GND*
X121339000Y-133096000D03*
D19*
G04 #@! TO.N,/PWM2*
G04 #@! TO.C,R6*
G36*
X118851004Y-132222204D02*
X118875273Y-132225804D01*
X118899071Y-132231765D01*
X118922171Y-132240030D01*
X118944349Y-132250520D01*
X118965393Y-132263133D01*
X118985098Y-132277747D01*
X119003277Y-132294223D01*
X119019753Y-132312402D01*
X119034367Y-132332107D01*
X119046980Y-132353151D01*
X119057470Y-132375329D01*
X119065735Y-132398429D01*
X119071696Y-132422227D01*
X119075296Y-132446496D01*
X119076500Y-132471000D01*
X119076500Y-133721000D01*
X119075296Y-133745504D01*
X119071696Y-133769773D01*
X119065735Y-133793571D01*
X119057470Y-133816671D01*
X119046980Y-133838849D01*
X119034367Y-133859893D01*
X119019753Y-133879598D01*
X119003277Y-133897777D01*
X118985098Y-133914253D01*
X118965393Y-133928867D01*
X118944349Y-133941480D01*
X118922171Y-133951970D01*
X118899071Y-133960235D01*
X118875273Y-133966196D01*
X118851004Y-133969796D01*
X118826500Y-133971000D01*
X117901500Y-133971000D01*
X117876996Y-133969796D01*
X117852727Y-133966196D01*
X117828929Y-133960235D01*
X117805829Y-133951970D01*
X117783651Y-133941480D01*
X117762607Y-133928867D01*
X117742902Y-133914253D01*
X117724723Y-133897777D01*
X117708247Y-133879598D01*
X117693633Y-133859893D01*
X117681020Y-133838849D01*
X117670530Y-133816671D01*
X117662265Y-133793571D01*
X117656304Y-133769773D01*
X117652704Y-133745504D01*
X117651500Y-133721000D01*
X117651500Y-132471000D01*
X117652704Y-132446496D01*
X117656304Y-132422227D01*
X117662265Y-132398429D01*
X117670530Y-132375329D01*
X117681020Y-132353151D01*
X117693633Y-132332107D01*
X117708247Y-132312402D01*
X117724723Y-132294223D01*
X117742902Y-132277747D01*
X117762607Y-132263133D01*
X117783651Y-132250520D01*
X117805829Y-132240030D01*
X117828929Y-132231765D01*
X117852727Y-132225804D01*
X117876996Y-132222204D01*
X117901500Y-132221000D01*
X118826500Y-132221000D01*
X118851004Y-132222204D01*
X118851004Y-132222204D01*
G37*
D20*
G04 #@! TD*
G04 #@! TO.P,R6,1*
G04 #@! TO.N,/PWM2*
X118364000Y-133096000D03*
D19*
G04 #@! TO.N,/PWM3*
G04 #@! TO.C,R9*
G36*
X96826004Y-126126204D02*
X96850273Y-126129804D01*
X96874071Y-126135765D01*
X96897171Y-126144030D01*
X96919349Y-126154520D01*
X96940393Y-126167133D01*
X96960098Y-126181747D01*
X96978277Y-126198223D01*
X96994753Y-126216402D01*
X97009367Y-126236107D01*
X97021980Y-126257151D01*
X97032470Y-126279329D01*
X97040735Y-126302429D01*
X97046696Y-126326227D01*
X97050296Y-126350496D01*
X97051500Y-126375000D01*
X97051500Y-127625000D01*
X97050296Y-127649504D01*
X97046696Y-127673773D01*
X97040735Y-127697571D01*
X97032470Y-127720671D01*
X97021980Y-127742849D01*
X97009367Y-127763893D01*
X96994753Y-127783598D01*
X96978277Y-127801777D01*
X96960098Y-127818253D01*
X96940393Y-127832867D01*
X96919349Y-127845480D01*
X96897171Y-127855970D01*
X96874071Y-127864235D01*
X96850273Y-127870196D01*
X96826004Y-127873796D01*
X96801500Y-127875000D01*
X95876500Y-127875000D01*
X95851996Y-127873796D01*
X95827727Y-127870196D01*
X95803929Y-127864235D01*
X95780829Y-127855970D01*
X95758651Y-127845480D01*
X95737607Y-127832867D01*
X95717902Y-127818253D01*
X95699723Y-127801777D01*
X95683247Y-127783598D01*
X95668633Y-127763893D01*
X95656020Y-127742849D01*
X95645530Y-127720671D01*
X95637265Y-127697571D01*
X95631304Y-127673773D01*
X95627704Y-127649504D01*
X95626500Y-127625000D01*
X95626500Y-126375000D01*
X95627704Y-126350496D01*
X95631304Y-126326227D01*
X95637265Y-126302429D01*
X95645530Y-126279329D01*
X95656020Y-126257151D01*
X95668633Y-126236107D01*
X95683247Y-126216402D01*
X95699723Y-126198223D01*
X95717902Y-126181747D01*
X95737607Y-126167133D01*
X95758651Y-126154520D01*
X95780829Y-126144030D01*
X95803929Y-126135765D01*
X95827727Y-126129804D01*
X95851996Y-126126204D01*
X95876500Y-126125000D01*
X96801500Y-126125000D01*
X96826004Y-126126204D01*
X96826004Y-126126204D01*
G37*
D20*
G04 #@! TD*
G04 #@! TO.P,R9,1*
G04 #@! TO.N,/PWM3*
X96339000Y-127000000D03*
D19*
G04 #@! TO.N,GND*
G04 #@! TO.C,R9*
G36*
X99801004Y-126126204D02*
X99825273Y-126129804D01*
X99849071Y-126135765D01*
X99872171Y-126144030D01*
X99894349Y-126154520D01*
X99915393Y-126167133D01*
X99935098Y-126181747D01*
X99953277Y-126198223D01*
X99969753Y-126216402D01*
X99984367Y-126236107D01*
X99996980Y-126257151D01*
X100007470Y-126279329D01*
X100015735Y-126302429D01*
X100021696Y-126326227D01*
X100025296Y-126350496D01*
X100026500Y-126375000D01*
X100026500Y-127625000D01*
X100025296Y-127649504D01*
X100021696Y-127673773D01*
X100015735Y-127697571D01*
X100007470Y-127720671D01*
X99996980Y-127742849D01*
X99984367Y-127763893D01*
X99969753Y-127783598D01*
X99953277Y-127801777D01*
X99935098Y-127818253D01*
X99915393Y-127832867D01*
X99894349Y-127845480D01*
X99872171Y-127855970D01*
X99849071Y-127864235D01*
X99825273Y-127870196D01*
X99801004Y-127873796D01*
X99776500Y-127875000D01*
X98851500Y-127875000D01*
X98826996Y-127873796D01*
X98802727Y-127870196D01*
X98778929Y-127864235D01*
X98755829Y-127855970D01*
X98733651Y-127845480D01*
X98712607Y-127832867D01*
X98692902Y-127818253D01*
X98674723Y-127801777D01*
X98658247Y-127783598D01*
X98643633Y-127763893D01*
X98631020Y-127742849D01*
X98620530Y-127720671D01*
X98612265Y-127697571D01*
X98606304Y-127673773D01*
X98602704Y-127649504D01*
X98601500Y-127625000D01*
X98601500Y-126375000D01*
X98602704Y-126350496D01*
X98606304Y-126326227D01*
X98612265Y-126302429D01*
X98620530Y-126279329D01*
X98631020Y-126257151D01*
X98643633Y-126236107D01*
X98658247Y-126216402D01*
X98674723Y-126198223D01*
X98692902Y-126181747D01*
X98712607Y-126167133D01*
X98733651Y-126154520D01*
X98755829Y-126144030D01*
X98778929Y-126135765D01*
X98802727Y-126129804D01*
X98826996Y-126126204D01*
X98851500Y-126125000D01*
X99776500Y-126125000D01*
X99801004Y-126126204D01*
X99801004Y-126126204D01*
G37*
D20*
G04 #@! TD*
G04 #@! TO.P,R9,2*
G04 #@! TO.N,GND*
X99314000Y-127000000D03*
D19*
G04 #@! TO.N,/PWM4*
G04 #@! TO.C,R10*
G36*
X107748004Y-126126204D02*
X107772273Y-126129804D01*
X107796071Y-126135765D01*
X107819171Y-126144030D01*
X107841349Y-126154520D01*
X107862393Y-126167133D01*
X107882098Y-126181747D01*
X107900277Y-126198223D01*
X107916753Y-126216402D01*
X107931367Y-126236107D01*
X107943980Y-126257151D01*
X107954470Y-126279329D01*
X107962735Y-126302429D01*
X107968696Y-126326227D01*
X107972296Y-126350496D01*
X107973500Y-126375000D01*
X107973500Y-127625000D01*
X107972296Y-127649504D01*
X107968696Y-127673773D01*
X107962735Y-127697571D01*
X107954470Y-127720671D01*
X107943980Y-127742849D01*
X107931367Y-127763893D01*
X107916753Y-127783598D01*
X107900277Y-127801777D01*
X107882098Y-127818253D01*
X107862393Y-127832867D01*
X107841349Y-127845480D01*
X107819171Y-127855970D01*
X107796071Y-127864235D01*
X107772273Y-127870196D01*
X107748004Y-127873796D01*
X107723500Y-127875000D01*
X106798500Y-127875000D01*
X106773996Y-127873796D01*
X106749727Y-127870196D01*
X106725929Y-127864235D01*
X106702829Y-127855970D01*
X106680651Y-127845480D01*
X106659607Y-127832867D01*
X106639902Y-127818253D01*
X106621723Y-127801777D01*
X106605247Y-127783598D01*
X106590633Y-127763893D01*
X106578020Y-127742849D01*
X106567530Y-127720671D01*
X106559265Y-127697571D01*
X106553304Y-127673773D01*
X106549704Y-127649504D01*
X106548500Y-127625000D01*
X106548500Y-126375000D01*
X106549704Y-126350496D01*
X106553304Y-126326227D01*
X106559265Y-126302429D01*
X106567530Y-126279329D01*
X106578020Y-126257151D01*
X106590633Y-126236107D01*
X106605247Y-126216402D01*
X106621723Y-126198223D01*
X106639902Y-126181747D01*
X106659607Y-126167133D01*
X106680651Y-126154520D01*
X106702829Y-126144030D01*
X106725929Y-126135765D01*
X106749727Y-126129804D01*
X106773996Y-126126204D01*
X106798500Y-126125000D01*
X107723500Y-126125000D01*
X107748004Y-126126204D01*
X107748004Y-126126204D01*
G37*
D20*
G04 #@! TD*
G04 #@! TO.P,R10,1*
G04 #@! TO.N,/PWM4*
X107261000Y-127000000D03*
D19*
G04 #@! TO.N,GND*
G04 #@! TO.C,R10*
G36*
X110723004Y-126126204D02*
X110747273Y-126129804D01*
X110771071Y-126135765D01*
X110794171Y-126144030D01*
X110816349Y-126154520D01*
X110837393Y-126167133D01*
X110857098Y-126181747D01*
X110875277Y-126198223D01*
X110891753Y-126216402D01*
X110906367Y-126236107D01*
X110918980Y-126257151D01*
X110929470Y-126279329D01*
X110937735Y-126302429D01*
X110943696Y-126326227D01*
X110947296Y-126350496D01*
X110948500Y-126375000D01*
X110948500Y-127625000D01*
X110947296Y-127649504D01*
X110943696Y-127673773D01*
X110937735Y-127697571D01*
X110929470Y-127720671D01*
X110918980Y-127742849D01*
X110906367Y-127763893D01*
X110891753Y-127783598D01*
X110875277Y-127801777D01*
X110857098Y-127818253D01*
X110837393Y-127832867D01*
X110816349Y-127845480D01*
X110794171Y-127855970D01*
X110771071Y-127864235D01*
X110747273Y-127870196D01*
X110723004Y-127873796D01*
X110698500Y-127875000D01*
X109773500Y-127875000D01*
X109748996Y-127873796D01*
X109724727Y-127870196D01*
X109700929Y-127864235D01*
X109677829Y-127855970D01*
X109655651Y-127845480D01*
X109634607Y-127832867D01*
X109614902Y-127818253D01*
X109596723Y-127801777D01*
X109580247Y-127783598D01*
X109565633Y-127763893D01*
X109553020Y-127742849D01*
X109542530Y-127720671D01*
X109534265Y-127697571D01*
X109528304Y-127673773D01*
X109524704Y-127649504D01*
X109523500Y-127625000D01*
X109523500Y-126375000D01*
X109524704Y-126350496D01*
X109528304Y-126326227D01*
X109534265Y-126302429D01*
X109542530Y-126279329D01*
X109553020Y-126257151D01*
X109565633Y-126236107D01*
X109580247Y-126216402D01*
X109596723Y-126198223D01*
X109614902Y-126181747D01*
X109634607Y-126167133D01*
X109655651Y-126154520D01*
X109677829Y-126144030D01*
X109700929Y-126135765D01*
X109724727Y-126129804D01*
X109748996Y-126126204D01*
X109773500Y-126125000D01*
X110698500Y-126125000D01*
X110723004Y-126126204D01*
X110723004Y-126126204D01*
G37*
D20*
G04 #@! TD*
G04 #@! TO.P,R10,2*
G04 #@! TO.N,GND*
X110236000Y-127000000D03*
D19*
G04 #@! TO.N,GND*
G04 #@! TO.C,R11*
G36*
X121826004Y-123586204D02*
X121850273Y-123589804D01*
X121874071Y-123595765D01*
X121897171Y-123604030D01*
X121919349Y-123614520D01*
X121940393Y-123627133D01*
X121960098Y-123641747D01*
X121978277Y-123658223D01*
X121994753Y-123676402D01*
X122009367Y-123696107D01*
X122021980Y-123717151D01*
X122032470Y-123739329D01*
X122040735Y-123762429D01*
X122046696Y-123786227D01*
X122050296Y-123810496D01*
X122051500Y-123835000D01*
X122051500Y-125085000D01*
X122050296Y-125109504D01*
X122046696Y-125133773D01*
X122040735Y-125157571D01*
X122032470Y-125180671D01*
X122021980Y-125202849D01*
X122009367Y-125223893D01*
X121994753Y-125243598D01*
X121978277Y-125261777D01*
X121960098Y-125278253D01*
X121940393Y-125292867D01*
X121919349Y-125305480D01*
X121897171Y-125315970D01*
X121874071Y-125324235D01*
X121850273Y-125330196D01*
X121826004Y-125333796D01*
X121801500Y-125335000D01*
X120876500Y-125335000D01*
X120851996Y-125333796D01*
X120827727Y-125330196D01*
X120803929Y-125324235D01*
X120780829Y-125315970D01*
X120758651Y-125305480D01*
X120737607Y-125292867D01*
X120717902Y-125278253D01*
X120699723Y-125261777D01*
X120683247Y-125243598D01*
X120668633Y-125223893D01*
X120656020Y-125202849D01*
X120645530Y-125180671D01*
X120637265Y-125157571D01*
X120631304Y-125133773D01*
X120627704Y-125109504D01*
X120626500Y-125085000D01*
X120626500Y-123835000D01*
X120627704Y-123810496D01*
X120631304Y-123786227D01*
X120637265Y-123762429D01*
X120645530Y-123739329D01*
X120656020Y-123717151D01*
X120668633Y-123696107D01*
X120683247Y-123676402D01*
X120699723Y-123658223D01*
X120717902Y-123641747D01*
X120737607Y-123627133D01*
X120758651Y-123614520D01*
X120780829Y-123604030D01*
X120803929Y-123595765D01*
X120827727Y-123589804D01*
X120851996Y-123586204D01*
X120876500Y-123585000D01*
X121801500Y-123585000D01*
X121826004Y-123586204D01*
X121826004Y-123586204D01*
G37*
D20*
G04 #@! TD*
G04 #@! TO.P,R11,2*
G04 #@! TO.N,GND*
X121339000Y-124460000D03*
D19*
G04 #@! TO.N,/PWM5*
G04 #@! TO.C,R11*
G36*
X118851004Y-123586204D02*
X118875273Y-123589804D01*
X118899071Y-123595765D01*
X118922171Y-123604030D01*
X118944349Y-123614520D01*
X118965393Y-123627133D01*
X118985098Y-123641747D01*
X119003277Y-123658223D01*
X119019753Y-123676402D01*
X119034367Y-123696107D01*
X119046980Y-123717151D01*
X119057470Y-123739329D01*
X119065735Y-123762429D01*
X119071696Y-123786227D01*
X119075296Y-123810496D01*
X119076500Y-123835000D01*
X119076500Y-125085000D01*
X119075296Y-125109504D01*
X119071696Y-125133773D01*
X119065735Y-125157571D01*
X119057470Y-125180671D01*
X119046980Y-125202849D01*
X119034367Y-125223893D01*
X119019753Y-125243598D01*
X119003277Y-125261777D01*
X118985098Y-125278253D01*
X118965393Y-125292867D01*
X118944349Y-125305480D01*
X118922171Y-125315970D01*
X118899071Y-125324235D01*
X118875273Y-125330196D01*
X118851004Y-125333796D01*
X118826500Y-125335000D01*
X117901500Y-125335000D01*
X117876996Y-125333796D01*
X117852727Y-125330196D01*
X117828929Y-125324235D01*
X117805829Y-125315970D01*
X117783651Y-125305480D01*
X117762607Y-125292867D01*
X117742902Y-125278253D01*
X117724723Y-125261777D01*
X117708247Y-125243598D01*
X117693633Y-125223893D01*
X117681020Y-125202849D01*
X117670530Y-125180671D01*
X117662265Y-125157571D01*
X117656304Y-125133773D01*
X117652704Y-125109504D01*
X117651500Y-125085000D01*
X117651500Y-123835000D01*
X117652704Y-123810496D01*
X117656304Y-123786227D01*
X117662265Y-123762429D01*
X117670530Y-123739329D01*
X117681020Y-123717151D01*
X117693633Y-123696107D01*
X117708247Y-123676402D01*
X117724723Y-123658223D01*
X117742902Y-123641747D01*
X117762607Y-123627133D01*
X117783651Y-123614520D01*
X117805829Y-123604030D01*
X117828929Y-123595765D01*
X117852727Y-123589804D01*
X117876996Y-123586204D01*
X117901500Y-123585000D01*
X118826500Y-123585000D01*
X118851004Y-123586204D01*
X118851004Y-123586204D01*
G37*
D20*
G04 #@! TD*
G04 #@! TO.P,R11,1*
G04 #@! TO.N,/PWM5*
X118364000Y-124460000D03*
D19*
G04 #@! TO.N,/PWM6*
G04 #@! TO.C,R12*
G36*
X96789504Y-116982204D02*
X96813773Y-116985804D01*
X96837571Y-116991765D01*
X96860671Y-117000030D01*
X96882849Y-117010520D01*
X96903893Y-117023133D01*
X96923598Y-117037747D01*
X96941777Y-117054223D01*
X96958253Y-117072402D01*
X96972867Y-117092107D01*
X96985480Y-117113151D01*
X96995970Y-117135329D01*
X97004235Y-117158429D01*
X97010196Y-117182227D01*
X97013796Y-117206496D01*
X97015000Y-117231000D01*
X97015000Y-118481000D01*
X97013796Y-118505504D01*
X97010196Y-118529773D01*
X97004235Y-118553571D01*
X96995970Y-118576671D01*
X96985480Y-118598849D01*
X96972867Y-118619893D01*
X96958253Y-118639598D01*
X96941777Y-118657777D01*
X96923598Y-118674253D01*
X96903893Y-118688867D01*
X96882849Y-118701480D01*
X96860671Y-118711970D01*
X96837571Y-118720235D01*
X96813773Y-118726196D01*
X96789504Y-118729796D01*
X96765000Y-118731000D01*
X95840000Y-118731000D01*
X95815496Y-118729796D01*
X95791227Y-118726196D01*
X95767429Y-118720235D01*
X95744329Y-118711970D01*
X95722151Y-118701480D01*
X95701107Y-118688867D01*
X95681402Y-118674253D01*
X95663223Y-118657777D01*
X95646747Y-118639598D01*
X95632133Y-118619893D01*
X95619520Y-118598849D01*
X95609030Y-118576671D01*
X95600765Y-118553571D01*
X95594804Y-118529773D01*
X95591204Y-118505504D01*
X95590000Y-118481000D01*
X95590000Y-117231000D01*
X95591204Y-117206496D01*
X95594804Y-117182227D01*
X95600765Y-117158429D01*
X95609030Y-117135329D01*
X95619520Y-117113151D01*
X95632133Y-117092107D01*
X95646747Y-117072402D01*
X95663223Y-117054223D01*
X95681402Y-117037747D01*
X95701107Y-117023133D01*
X95722151Y-117010520D01*
X95744329Y-117000030D01*
X95767429Y-116991765D01*
X95791227Y-116985804D01*
X95815496Y-116982204D01*
X95840000Y-116981000D01*
X96765000Y-116981000D01*
X96789504Y-116982204D01*
X96789504Y-116982204D01*
G37*
D20*
G04 #@! TD*
G04 #@! TO.P,R12,1*
G04 #@! TO.N,/PWM6*
X96302500Y-117856000D03*
D19*
G04 #@! TO.N,GND*
G04 #@! TO.C,R12*
G36*
X99764504Y-116982204D02*
X99788773Y-116985804D01*
X99812571Y-116991765D01*
X99835671Y-117000030D01*
X99857849Y-117010520D01*
X99878893Y-117023133D01*
X99898598Y-117037747D01*
X99916777Y-117054223D01*
X99933253Y-117072402D01*
X99947867Y-117092107D01*
X99960480Y-117113151D01*
X99970970Y-117135329D01*
X99979235Y-117158429D01*
X99985196Y-117182227D01*
X99988796Y-117206496D01*
X99990000Y-117231000D01*
X99990000Y-118481000D01*
X99988796Y-118505504D01*
X99985196Y-118529773D01*
X99979235Y-118553571D01*
X99970970Y-118576671D01*
X99960480Y-118598849D01*
X99947867Y-118619893D01*
X99933253Y-118639598D01*
X99916777Y-118657777D01*
X99898598Y-118674253D01*
X99878893Y-118688867D01*
X99857849Y-118701480D01*
X99835671Y-118711970D01*
X99812571Y-118720235D01*
X99788773Y-118726196D01*
X99764504Y-118729796D01*
X99740000Y-118731000D01*
X98815000Y-118731000D01*
X98790496Y-118729796D01*
X98766227Y-118726196D01*
X98742429Y-118720235D01*
X98719329Y-118711970D01*
X98697151Y-118701480D01*
X98676107Y-118688867D01*
X98656402Y-118674253D01*
X98638223Y-118657777D01*
X98621747Y-118639598D01*
X98607133Y-118619893D01*
X98594520Y-118598849D01*
X98584030Y-118576671D01*
X98575765Y-118553571D01*
X98569804Y-118529773D01*
X98566204Y-118505504D01*
X98565000Y-118481000D01*
X98565000Y-117231000D01*
X98566204Y-117206496D01*
X98569804Y-117182227D01*
X98575765Y-117158429D01*
X98584030Y-117135329D01*
X98594520Y-117113151D01*
X98607133Y-117092107D01*
X98621747Y-117072402D01*
X98638223Y-117054223D01*
X98656402Y-117037747D01*
X98676107Y-117023133D01*
X98697151Y-117010520D01*
X98719329Y-117000030D01*
X98742429Y-116991765D01*
X98766227Y-116985804D01*
X98790496Y-116982204D01*
X98815000Y-116981000D01*
X99740000Y-116981000D01*
X99764504Y-116982204D01*
X99764504Y-116982204D01*
G37*
D20*
G04 #@! TD*
G04 #@! TO.P,R12,2*
G04 #@! TO.N,GND*
X99277500Y-117856000D03*
D19*
G04 #@! TO.N,GND*
G04 #@! TO.C,R13*
G36*
X110396004Y-117236204D02*
X110420273Y-117239804D01*
X110444071Y-117245765D01*
X110467171Y-117254030D01*
X110489349Y-117264520D01*
X110510393Y-117277133D01*
X110530098Y-117291747D01*
X110548277Y-117308223D01*
X110564753Y-117326402D01*
X110579367Y-117346107D01*
X110591980Y-117367151D01*
X110602470Y-117389329D01*
X110610735Y-117412429D01*
X110616696Y-117436227D01*
X110620296Y-117460496D01*
X110621500Y-117485000D01*
X110621500Y-118735000D01*
X110620296Y-118759504D01*
X110616696Y-118783773D01*
X110610735Y-118807571D01*
X110602470Y-118830671D01*
X110591980Y-118852849D01*
X110579367Y-118873893D01*
X110564753Y-118893598D01*
X110548277Y-118911777D01*
X110530098Y-118928253D01*
X110510393Y-118942867D01*
X110489349Y-118955480D01*
X110467171Y-118965970D01*
X110444071Y-118974235D01*
X110420273Y-118980196D01*
X110396004Y-118983796D01*
X110371500Y-118985000D01*
X109446500Y-118985000D01*
X109421996Y-118983796D01*
X109397727Y-118980196D01*
X109373929Y-118974235D01*
X109350829Y-118965970D01*
X109328651Y-118955480D01*
X109307607Y-118942867D01*
X109287902Y-118928253D01*
X109269723Y-118911777D01*
X109253247Y-118893598D01*
X109238633Y-118873893D01*
X109226020Y-118852849D01*
X109215530Y-118830671D01*
X109207265Y-118807571D01*
X109201304Y-118783773D01*
X109197704Y-118759504D01*
X109196500Y-118735000D01*
X109196500Y-117485000D01*
X109197704Y-117460496D01*
X109201304Y-117436227D01*
X109207265Y-117412429D01*
X109215530Y-117389329D01*
X109226020Y-117367151D01*
X109238633Y-117346107D01*
X109253247Y-117326402D01*
X109269723Y-117308223D01*
X109287902Y-117291747D01*
X109307607Y-117277133D01*
X109328651Y-117264520D01*
X109350829Y-117254030D01*
X109373929Y-117245765D01*
X109397727Y-117239804D01*
X109421996Y-117236204D01*
X109446500Y-117235000D01*
X110371500Y-117235000D01*
X110396004Y-117236204D01*
X110396004Y-117236204D01*
G37*
D20*
G04 #@! TD*
G04 #@! TO.P,R13,2*
G04 #@! TO.N,GND*
X109909000Y-118110000D03*
D19*
G04 #@! TO.N,/PWM7*
G04 #@! TO.C,R13*
G36*
X107421004Y-117236204D02*
X107445273Y-117239804D01*
X107469071Y-117245765D01*
X107492171Y-117254030D01*
X107514349Y-117264520D01*
X107535393Y-117277133D01*
X107555098Y-117291747D01*
X107573277Y-117308223D01*
X107589753Y-117326402D01*
X107604367Y-117346107D01*
X107616980Y-117367151D01*
X107627470Y-117389329D01*
X107635735Y-117412429D01*
X107641696Y-117436227D01*
X107645296Y-117460496D01*
X107646500Y-117485000D01*
X107646500Y-118735000D01*
X107645296Y-118759504D01*
X107641696Y-118783773D01*
X107635735Y-118807571D01*
X107627470Y-118830671D01*
X107616980Y-118852849D01*
X107604367Y-118873893D01*
X107589753Y-118893598D01*
X107573277Y-118911777D01*
X107555098Y-118928253D01*
X107535393Y-118942867D01*
X107514349Y-118955480D01*
X107492171Y-118965970D01*
X107469071Y-118974235D01*
X107445273Y-118980196D01*
X107421004Y-118983796D01*
X107396500Y-118985000D01*
X106471500Y-118985000D01*
X106446996Y-118983796D01*
X106422727Y-118980196D01*
X106398929Y-118974235D01*
X106375829Y-118965970D01*
X106353651Y-118955480D01*
X106332607Y-118942867D01*
X106312902Y-118928253D01*
X106294723Y-118911777D01*
X106278247Y-118893598D01*
X106263633Y-118873893D01*
X106251020Y-118852849D01*
X106240530Y-118830671D01*
X106232265Y-118807571D01*
X106226304Y-118783773D01*
X106222704Y-118759504D01*
X106221500Y-118735000D01*
X106221500Y-117485000D01*
X106222704Y-117460496D01*
X106226304Y-117436227D01*
X106232265Y-117412429D01*
X106240530Y-117389329D01*
X106251020Y-117367151D01*
X106263633Y-117346107D01*
X106278247Y-117326402D01*
X106294723Y-117308223D01*
X106312902Y-117291747D01*
X106332607Y-117277133D01*
X106353651Y-117264520D01*
X106375829Y-117254030D01*
X106398929Y-117245765D01*
X106422727Y-117239804D01*
X106446996Y-117236204D01*
X106471500Y-117235000D01*
X107396500Y-117235000D01*
X107421004Y-117236204D01*
X107421004Y-117236204D01*
G37*
D20*
G04 #@! TD*
G04 #@! TO.P,R13,1*
G04 #@! TO.N,/PWM7*
X106934000Y-118110000D03*
D19*
G04 #@! TO.N,GND*
G04 #@! TO.C,R18*
G36*
X121826004Y-106568204D02*
X121850273Y-106571804D01*
X121874071Y-106577765D01*
X121897171Y-106586030D01*
X121919349Y-106596520D01*
X121940393Y-106609133D01*
X121960098Y-106623747D01*
X121978277Y-106640223D01*
X121994753Y-106658402D01*
X122009367Y-106678107D01*
X122021980Y-106699151D01*
X122032470Y-106721329D01*
X122040735Y-106744429D01*
X122046696Y-106768227D01*
X122050296Y-106792496D01*
X122051500Y-106817000D01*
X122051500Y-108067000D01*
X122050296Y-108091504D01*
X122046696Y-108115773D01*
X122040735Y-108139571D01*
X122032470Y-108162671D01*
X122021980Y-108184849D01*
X122009367Y-108205893D01*
X121994753Y-108225598D01*
X121978277Y-108243777D01*
X121960098Y-108260253D01*
X121940393Y-108274867D01*
X121919349Y-108287480D01*
X121897171Y-108297970D01*
X121874071Y-108306235D01*
X121850273Y-108312196D01*
X121826004Y-108315796D01*
X121801500Y-108317000D01*
X120876500Y-108317000D01*
X120851996Y-108315796D01*
X120827727Y-108312196D01*
X120803929Y-108306235D01*
X120780829Y-108297970D01*
X120758651Y-108287480D01*
X120737607Y-108274867D01*
X120717902Y-108260253D01*
X120699723Y-108243777D01*
X120683247Y-108225598D01*
X120668633Y-108205893D01*
X120656020Y-108184849D01*
X120645530Y-108162671D01*
X120637265Y-108139571D01*
X120631304Y-108115773D01*
X120627704Y-108091504D01*
X120626500Y-108067000D01*
X120626500Y-106817000D01*
X120627704Y-106792496D01*
X120631304Y-106768227D01*
X120637265Y-106744429D01*
X120645530Y-106721329D01*
X120656020Y-106699151D01*
X120668633Y-106678107D01*
X120683247Y-106658402D01*
X120699723Y-106640223D01*
X120717902Y-106623747D01*
X120737607Y-106609133D01*
X120758651Y-106596520D01*
X120780829Y-106586030D01*
X120803929Y-106577765D01*
X120827727Y-106571804D01*
X120851996Y-106568204D01*
X120876500Y-106567000D01*
X121801500Y-106567000D01*
X121826004Y-106568204D01*
X121826004Y-106568204D01*
G37*
D20*
G04 #@! TD*
G04 #@! TO.P,R18,2*
G04 #@! TO.N,GND*
X121339000Y-107442000D03*
D19*
G04 #@! TO.N,/PWM11*
G04 #@! TO.C,R18*
G36*
X118851004Y-106568204D02*
X118875273Y-106571804D01*
X118899071Y-106577765D01*
X118922171Y-106586030D01*
X118944349Y-106596520D01*
X118965393Y-106609133D01*
X118985098Y-106623747D01*
X119003277Y-106640223D01*
X119019753Y-106658402D01*
X119034367Y-106678107D01*
X119046980Y-106699151D01*
X119057470Y-106721329D01*
X119065735Y-106744429D01*
X119071696Y-106768227D01*
X119075296Y-106792496D01*
X119076500Y-106817000D01*
X119076500Y-108067000D01*
X119075296Y-108091504D01*
X119071696Y-108115773D01*
X119065735Y-108139571D01*
X119057470Y-108162671D01*
X119046980Y-108184849D01*
X119034367Y-108205893D01*
X119019753Y-108225598D01*
X119003277Y-108243777D01*
X118985098Y-108260253D01*
X118965393Y-108274867D01*
X118944349Y-108287480D01*
X118922171Y-108297970D01*
X118899071Y-108306235D01*
X118875273Y-108312196D01*
X118851004Y-108315796D01*
X118826500Y-108317000D01*
X117901500Y-108317000D01*
X117876996Y-108315796D01*
X117852727Y-108312196D01*
X117828929Y-108306235D01*
X117805829Y-108297970D01*
X117783651Y-108287480D01*
X117762607Y-108274867D01*
X117742902Y-108260253D01*
X117724723Y-108243777D01*
X117708247Y-108225598D01*
X117693633Y-108205893D01*
X117681020Y-108184849D01*
X117670530Y-108162671D01*
X117662265Y-108139571D01*
X117656304Y-108115773D01*
X117652704Y-108091504D01*
X117651500Y-108067000D01*
X117651500Y-106817000D01*
X117652704Y-106792496D01*
X117656304Y-106768227D01*
X117662265Y-106744429D01*
X117670530Y-106721329D01*
X117681020Y-106699151D01*
X117693633Y-106678107D01*
X117708247Y-106658402D01*
X117724723Y-106640223D01*
X117742902Y-106623747D01*
X117762607Y-106609133D01*
X117783651Y-106596520D01*
X117805829Y-106586030D01*
X117828929Y-106577765D01*
X117852727Y-106571804D01*
X117876996Y-106568204D01*
X117901500Y-106567000D01*
X118826500Y-106567000D01*
X118851004Y-106568204D01*
X118851004Y-106568204D01*
G37*
D20*
G04 #@! TD*
G04 #@! TO.P,R18,1*
G04 #@! TO.N,/PWM11*
X118364000Y-107442000D03*
D19*
G04 #@! TO.N,/PWM10*
G04 #@! TO.C,R19*
G36*
X107421004Y-108346204D02*
X107445273Y-108349804D01*
X107469071Y-108355765D01*
X107492171Y-108364030D01*
X107514349Y-108374520D01*
X107535393Y-108387133D01*
X107555098Y-108401747D01*
X107573277Y-108418223D01*
X107589753Y-108436402D01*
X107604367Y-108456107D01*
X107616980Y-108477151D01*
X107627470Y-108499329D01*
X107635735Y-108522429D01*
X107641696Y-108546227D01*
X107645296Y-108570496D01*
X107646500Y-108595000D01*
X107646500Y-109845000D01*
X107645296Y-109869504D01*
X107641696Y-109893773D01*
X107635735Y-109917571D01*
X107627470Y-109940671D01*
X107616980Y-109962849D01*
X107604367Y-109983893D01*
X107589753Y-110003598D01*
X107573277Y-110021777D01*
X107555098Y-110038253D01*
X107535393Y-110052867D01*
X107514349Y-110065480D01*
X107492171Y-110075970D01*
X107469071Y-110084235D01*
X107445273Y-110090196D01*
X107421004Y-110093796D01*
X107396500Y-110095000D01*
X106471500Y-110095000D01*
X106446996Y-110093796D01*
X106422727Y-110090196D01*
X106398929Y-110084235D01*
X106375829Y-110075970D01*
X106353651Y-110065480D01*
X106332607Y-110052867D01*
X106312902Y-110038253D01*
X106294723Y-110021777D01*
X106278247Y-110003598D01*
X106263633Y-109983893D01*
X106251020Y-109962849D01*
X106240530Y-109940671D01*
X106232265Y-109917571D01*
X106226304Y-109893773D01*
X106222704Y-109869504D01*
X106221500Y-109845000D01*
X106221500Y-108595000D01*
X106222704Y-108570496D01*
X106226304Y-108546227D01*
X106232265Y-108522429D01*
X106240530Y-108499329D01*
X106251020Y-108477151D01*
X106263633Y-108456107D01*
X106278247Y-108436402D01*
X106294723Y-108418223D01*
X106312902Y-108401747D01*
X106332607Y-108387133D01*
X106353651Y-108374520D01*
X106375829Y-108364030D01*
X106398929Y-108355765D01*
X106422727Y-108349804D01*
X106446996Y-108346204D01*
X106471500Y-108345000D01*
X107396500Y-108345000D01*
X107421004Y-108346204D01*
X107421004Y-108346204D01*
G37*
D20*
G04 #@! TD*
G04 #@! TO.P,R19,1*
G04 #@! TO.N,/PWM10*
X106934000Y-109220000D03*
D19*
G04 #@! TO.N,GND*
G04 #@! TO.C,R19*
G36*
X110396004Y-108346204D02*
X110420273Y-108349804D01*
X110444071Y-108355765D01*
X110467171Y-108364030D01*
X110489349Y-108374520D01*
X110510393Y-108387133D01*
X110530098Y-108401747D01*
X110548277Y-108418223D01*
X110564753Y-108436402D01*
X110579367Y-108456107D01*
X110591980Y-108477151D01*
X110602470Y-108499329D01*
X110610735Y-108522429D01*
X110616696Y-108546227D01*
X110620296Y-108570496D01*
X110621500Y-108595000D01*
X110621500Y-109845000D01*
X110620296Y-109869504D01*
X110616696Y-109893773D01*
X110610735Y-109917571D01*
X110602470Y-109940671D01*
X110591980Y-109962849D01*
X110579367Y-109983893D01*
X110564753Y-110003598D01*
X110548277Y-110021777D01*
X110530098Y-110038253D01*
X110510393Y-110052867D01*
X110489349Y-110065480D01*
X110467171Y-110075970D01*
X110444071Y-110084235D01*
X110420273Y-110090196D01*
X110396004Y-110093796D01*
X110371500Y-110095000D01*
X109446500Y-110095000D01*
X109421996Y-110093796D01*
X109397727Y-110090196D01*
X109373929Y-110084235D01*
X109350829Y-110075970D01*
X109328651Y-110065480D01*
X109307607Y-110052867D01*
X109287902Y-110038253D01*
X109269723Y-110021777D01*
X109253247Y-110003598D01*
X109238633Y-109983893D01*
X109226020Y-109962849D01*
X109215530Y-109940671D01*
X109207265Y-109917571D01*
X109201304Y-109893773D01*
X109197704Y-109869504D01*
X109196500Y-109845000D01*
X109196500Y-108595000D01*
X109197704Y-108570496D01*
X109201304Y-108546227D01*
X109207265Y-108522429D01*
X109215530Y-108499329D01*
X109226020Y-108477151D01*
X109238633Y-108456107D01*
X109253247Y-108436402D01*
X109269723Y-108418223D01*
X109287902Y-108401747D01*
X109307607Y-108387133D01*
X109328651Y-108374520D01*
X109350829Y-108364030D01*
X109373929Y-108355765D01*
X109397727Y-108349804D01*
X109421996Y-108346204D01*
X109446500Y-108345000D01*
X110371500Y-108345000D01*
X110396004Y-108346204D01*
X110396004Y-108346204D01*
G37*
D20*
G04 #@! TD*
G04 #@! TO.P,R19,2*
G04 #@! TO.N,GND*
X109909000Y-109220000D03*
D19*
G04 #@! TO.N,GND*
G04 #@! TO.C,R20*
G36*
X99764504Y-108346204D02*
X99788773Y-108349804D01*
X99812571Y-108355765D01*
X99835671Y-108364030D01*
X99857849Y-108374520D01*
X99878893Y-108387133D01*
X99898598Y-108401747D01*
X99916777Y-108418223D01*
X99933253Y-108436402D01*
X99947867Y-108456107D01*
X99960480Y-108477151D01*
X99970970Y-108499329D01*
X99979235Y-108522429D01*
X99985196Y-108546227D01*
X99988796Y-108570496D01*
X99990000Y-108595000D01*
X99990000Y-109845000D01*
X99988796Y-109869504D01*
X99985196Y-109893773D01*
X99979235Y-109917571D01*
X99970970Y-109940671D01*
X99960480Y-109962849D01*
X99947867Y-109983893D01*
X99933253Y-110003598D01*
X99916777Y-110021777D01*
X99898598Y-110038253D01*
X99878893Y-110052867D01*
X99857849Y-110065480D01*
X99835671Y-110075970D01*
X99812571Y-110084235D01*
X99788773Y-110090196D01*
X99764504Y-110093796D01*
X99740000Y-110095000D01*
X98815000Y-110095000D01*
X98790496Y-110093796D01*
X98766227Y-110090196D01*
X98742429Y-110084235D01*
X98719329Y-110075970D01*
X98697151Y-110065480D01*
X98676107Y-110052867D01*
X98656402Y-110038253D01*
X98638223Y-110021777D01*
X98621747Y-110003598D01*
X98607133Y-109983893D01*
X98594520Y-109962849D01*
X98584030Y-109940671D01*
X98575765Y-109917571D01*
X98569804Y-109893773D01*
X98566204Y-109869504D01*
X98565000Y-109845000D01*
X98565000Y-108595000D01*
X98566204Y-108570496D01*
X98569804Y-108546227D01*
X98575765Y-108522429D01*
X98584030Y-108499329D01*
X98594520Y-108477151D01*
X98607133Y-108456107D01*
X98621747Y-108436402D01*
X98638223Y-108418223D01*
X98656402Y-108401747D01*
X98676107Y-108387133D01*
X98697151Y-108374520D01*
X98719329Y-108364030D01*
X98742429Y-108355765D01*
X98766227Y-108349804D01*
X98790496Y-108346204D01*
X98815000Y-108345000D01*
X99740000Y-108345000D01*
X99764504Y-108346204D01*
X99764504Y-108346204D01*
G37*
D20*
G04 #@! TD*
G04 #@! TO.P,R20,2*
G04 #@! TO.N,GND*
X99277500Y-109220000D03*
D19*
G04 #@! TO.N,/PWM9*
G04 #@! TO.C,R20*
G36*
X96789504Y-108346204D02*
X96813773Y-108349804D01*
X96837571Y-108355765D01*
X96860671Y-108364030D01*
X96882849Y-108374520D01*
X96903893Y-108387133D01*
X96923598Y-108401747D01*
X96941777Y-108418223D01*
X96958253Y-108436402D01*
X96972867Y-108456107D01*
X96985480Y-108477151D01*
X96995970Y-108499329D01*
X97004235Y-108522429D01*
X97010196Y-108546227D01*
X97013796Y-108570496D01*
X97015000Y-108595000D01*
X97015000Y-109845000D01*
X97013796Y-109869504D01*
X97010196Y-109893773D01*
X97004235Y-109917571D01*
X96995970Y-109940671D01*
X96985480Y-109962849D01*
X96972867Y-109983893D01*
X96958253Y-110003598D01*
X96941777Y-110021777D01*
X96923598Y-110038253D01*
X96903893Y-110052867D01*
X96882849Y-110065480D01*
X96860671Y-110075970D01*
X96837571Y-110084235D01*
X96813773Y-110090196D01*
X96789504Y-110093796D01*
X96765000Y-110095000D01*
X95840000Y-110095000D01*
X95815496Y-110093796D01*
X95791227Y-110090196D01*
X95767429Y-110084235D01*
X95744329Y-110075970D01*
X95722151Y-110065480D01*
X95701107Y-110052867D01*
X95681402Y-110038253D01*
X95663223Y-110021777D01*
X95646747Y-110003598D01*
X95632133Y-109983893D01*
X95619520Y-109962849D01*
X95609030Y-109940671D01*
X95600765Y-109917571D01*
X95594804Y-109893773D01*
X95591204Y-109869504D01*
X95590000Y-109845000D01*
X95590000Y-108595000D01*
X95591204Y-108570496D01*
X95594804Y-108546227D01*
X95600765Y-108522429D01*
X95609030Y-108499329D01*
X95619520Y-108477151D01*
X95632133Y-108456107D01*
X95646747Y-108436402D01*
X95663223Y-108418223D01*
X95681402Y-108401747D01*
X95701107Y-108387133D01*
X95722151Y-108374520D01*
X95744329Y-108364030D01*
X95767429Y-108355765D01*
X95791227Y-108349804D01*
X95815496Y-108346204D01*
X95840000Y-108345000D01*
X96765000Y-108345000D01*
X96789504Y-108346204D01*
X96789504Y-108346204D01*
G37*
D20*
G04 #@! TD*
G04 #@! TO.P,R20,1*
G04 #@! TO.N,/PWM9*
X96302500Y-109220000D03*
D19*
G04 #@! TO.N,/PWM8*
G04 #@! TO.C,R21*
G36*
X118851004Y-114442204D02*
X118875273Y-114445804D01*
X118899071Y-114451765D01*
X118922171Y-114460030D01*
X118944349Y-114470520D01*
X118965393Y-114483133D01*
X118985098Y-114497747D01*
X119003277Y-114514223D01*
X119019753Y-114532402D01*
X119034367Y-114552107D01*
X119046980Y-114573151D01*
X119057470Y-114595329D01*
X119065735Y-114618429D01*
X119071696Y-114642227D01*
X119075296Y-114666496D01*
X119076500Y-114691000D01*
X119076500Y-115941000D01*
X119075296Y-115965504D01*
X119071696Y-115989773D01*
X119065735Y-116013571D01*
X119057470Y-116036671D01*
X119046980Y-116058849D01*
X119034367Y-116079893D01*
X119019753Y-116099598D01*
X119003277Y-116117777D01*
X118985098Y-116134253D01*
X118965393Y-116148867D01*
X118944349Y-116161480D01*
X118922171Y-116171970D01*
X118899071Y-116180235D01*
X118875273Y-116186196D01*
X118851004Y-116189796D01*
X118826500Y-116191000D01*
X117901500Y-116191000D01*
X117876996Y-116189796D01*
X117852727Y-116186196D01*
X117828929Y-116180235D01*
X117805829Y-116171970D01*
X117783651Y-116161480D01*
X117762607Y-116148867D01*
X117742902Y-116134253D01*
X117724723Y-116117777D01*
X117708247Y-116099598D01*
X117693633Y-116079893D01*
X117681020Y-116058849D01*
X117670530Y-116036671D01*
X117662265Y-116013571D01*
X117656304Y-115989773D01*
X117652704Y-115965504D01*
X117651500Y-115941000D01*
X117651500Y-114691000D01*
X117652704Y-114666496D01*
X117656304Y-114642227D01*
X117662265Y-114618429D01*
X117670530Y-114595329D01*
X117681020Y-114573151D01*
X117693633Y-114552107D01*
X117708247Y-114532402D01*
X117724723Y-114514223D01*
X117742902Y-114497747D01*
X117762607Y-114483133D01*
X117783651Y-114470520D01*
X117805829Y-114460030D01*
X117828929Y-114451765D01*
X117852727Y-114445804D01*
X117876996Y-114442204D01*
X117901500Y-114441000D01*
X118826500Y-114441000D01*
X118851004Y-114442204D01*
X118851004Y-114442204D01*
G37*
D20*
G04 #@! TD*
G04 #@! TO.P,R21,1*
G04 #@! TO.N,/PWM8*
X118364000Y-115316000D03*
D19*
G04 #@! TO.N,GND*
G04 #@! TO.C,R21*
G36*
X121826004Y-114442204D02*
X121850273Y-114445804D01*
X121874071Y-114451765D01*
X121897171Y-114460030D01*
X121919349Y-114470520D01*
X121940393Y-114483133D01*
X121960098Y-114497747D01*
X121978277Y-114514223D01*
X121994753Y-114532402D01*
X122009367Y-114552107D01*
X122021980Y-114573151D01*
X122032470Y-114595329D01*
X122040735Y-114618429D01*
X122046696Y-114642227D01*
X122050296Y-114666496D01*
X122051500Y-114691000D01*
X122051500Y-115941000D01*
X122050296Y-115965504D01*
X122046696Y-115989773D01*
X122040735Y-116013571D01*
X122032470Y-116036671D01*
X122021980Y-116058849D01*
X122009367Y-116079893D01*
X121994753Y-116099598D01*
X121978277Y-116117777D01*
X121960098Y-116134253D01*
X121940393Y-116148867D01*
X121919349Y-116161480D01*
X121897171Y-116171970D01*
X121874071Y-116180235D01*
X121850273Y-116186196D01*
X121826004Y-116189796D01*
X121801500Y-116191000D01*
X120876500Y-116191000D01*
X120851996Y-116189796D01*
X120827727Y-116186196D01*
X120803929Y-116180235D01*
X120780829Y-116171970D01*
X120758651Y-116161480D01*
X120737607Y-116148867D01*
X120717902Y-116134253D01*
X120699723Y-116117777D01*
X120683247Y-116099598D01*
X120668633Y-116079893D01*
X120656020Y-116058849D01*
X120645530Y-116036671D01*
X120637265Y-116013571D01*
X120631304Y-115989773D01*
X120627704Y-115965504D01*
X120626500Y-115941000D01*
X120626500Y-114691000D01*
X120627704Y-114666496D01*
X120631304Y-114642227D01*
X120637265Y-114618429D01*
X120645530Y-114595329D01*
X120656020Y-114573151D01*
X120668633Y-114552107D01*
X120683247Y-114532402D01*
X120699723Y-114514223D01*
X120717902Y-114497747D01*
X120737607Y-114483133D01*
X120758651Y-114470520D01*
X120780829Y-114460030D01*
X120803929Y-114451765D01*
X120827727Y-114445804D01*
X120851996Y-114442204D01*
X120876500Y-114441000D01*
X121801500Y-114441000D01*
X121826004Y-114442204D01*
X121826004Y-114442204D01*
G37*
D20*
G04 #@! TD*
G04 #@! TO.P,R21,2*
G04 #@! TO.N,GND*
X121339000Y-115316000D03*
D21*
G04 #@! TO.P,J3,1*
G04 #@! TO.N,/SDA*
X93472000Y-74930000D03*
D22*
G04 #@! TO.P,J3,2*
G04 #@! TO.N,/SCL*
X92202000Y-74930000D03*
G04 #@! TO.P,J3,3*
G04 #@! TO.N,VCC*
X90932000Y-74930000D03*
G04 #@! TO.P,J3,4*
G04 #@! TO.N,GND*
X89662000Y-74930000D03*
G04 #@! TD*
D23*
G04 #@! TO.N,/~OE*
X112014000Y-90170000D03*
G04 #@! TO.N,GND*
X116078000Y-137414000D03*
X123190000Y-120142000D03*
X123190000Y-111760000D03*
X123190000Y-128778000D03*
X120332500Y-81089500D03*
X109918500Y-85407500D03*
G04 #@! TO.N,/PWM11*
X121666000Y-98044000D03*
X119126000Y-104140000D03*
G04 #@! TO.N,/PWM10*
X107696000Y-105918000D03*
X114300014Y-95631000D03*
G04 #@! TO.N,/PWM9*
X118364000Y-95504004D03*
X96266000Y-106934000D03*
G04 #@! TO.N,/PWM8*
X119380000Y-100076000D03*
X119888000Y-113284000D03*
G04 #@! TO.N,/PWM7*
X107950000Y-100075992D03*
X108712000Y-115824000D03*
G04 #@! TO.N,/PWM6*
X97536000Y-115824000D03*
X104879243Y-95100241D03*
G04 #@! TO.N,/PWM5*
X114722210Y-100330000D03*
X119126000Y-122174000D03*
G04 #@! TO.N,/PWM4*
X112641601Y-94402210D03*
X108204000Y-124460000D03*
G04 #@! TO.N,/PWM0*
X97282000Y-133604000D03*
X103886002Y-93012254D03*
G04 #@! TO.N,/PWM1*
X114554000Y-92710000D03*
X107950000Y-133604000D03*
G04 #@! TO.N,/PWM2*
X117348000Y-100076000D03*
X119126000Y-130810000D03*
G04 #@! TO.N,/PWM3*
X97790000Y-124968000D03*
X103123992Y-95377000D03*
G04 #@! TD*
D24*
G04 #@! TO.N,/SCL*
X111070211Y-77038211D02*
X93603105Y-77038211D01*
X92202000Y-75637106D02*
X92202000Y-74930000D01*
X126238000Y-92206000D02*
X111070211Y-77038211D01*
X93603105Y-77038211D02*
X92202000Y-75637106D01*
G04 #@! TO.N,/SDA*
X95123000Y-76581000D02*
X93472000Y-74930000D01*
X111379000Y-76581000D02*
X95123000Y-76581000D01*
X126488000Y-94746000D02*
X128016000Y-93218000D01*
X126238000Y-94746000D02*
X126488000Y-94746000D01*
X128016000Y-91440000D02*
X126428500Y-89852500D01*
X126428500Y-89852500D02*
X124650500Y-89852500D01*
X128016000Y-93218000D02*
X128016000Y-91440000D01*
X124650500Y-89852500D02*
X111379000Y-76581000D01*
G04 #@! TO.N,/~OE*
X77978000Y-131826000D02*
X81534000Y-128270000D01*
X81534000Y-128270000D02*
X81534000Y-101600000D01*
X81534000Y-101600000D02*
X83312000Y-99822000D01*
X83312000Y-99822000D02*
X94996000Y-99822000D01*
X94996000Y-99822000D02*
X104648000Y-90170000D01*
X104648000Y-90170000D02*
X112014000Y-90170000D01*
G04 #@! TO.N,GND*
X98425000Y-92710000D02*
X99949000Y-92710000D01*
X101600000Y-81407000D02*
X96012000Y-81407000D01*
G04 #@! TO.N,VCC*
X92202000Y-78740000D02*
X90932000Y-77470000D01*
X82296000Y-98806000D02*
X90170000Y-98806000D01*
X77978000Y-111506000D02*
X80010000Y-109474000D01*
X80010000Y-101092000D02*
X82296000Y-98806000D01*
X90932000Y-77470000D02*
X90932000Y-74930000D01*
X80010000Y-109474000D02*
X80010000Y-101092000D01*
X92202000Y-96774000D02*
X92202000Y-78740000D01*
X90170000Y-98806000D02*
X92202000Y-96774000D01*
D25*
G04 #@! TO.N,28V*
X85344000Y-92603422D02*
X88625578Y-95885000D01*
X85344000Y-85612000D02*
X85344000Y-92603422D01*
X88625578Y-95885000D02*
X88900000Y-95885000D01*
X81534000Y-79502000D02*
X81534000Y-81802000D01*
X81534000Y-81802000D02*
X85344000Y-85612000D01*
D24*
G04 #@! TO.N,/PWM11*
X118364000Y-107442000D02*
X118364000Y-106467000D01*
X121666000Y-103165000D02*
X121666000Y-99822000D01*
X121666000Y-99822000D02*
X121666000Y-98044000D01*
X119766999Y-104739999D02*
X119929000Y-104902000D01*
X119126000Y-104140000D02*
X119725999Y-104739999D01*
X118364000Y-106467000D02*
X119929000Y-104902000D01*
X119725999Y-104739999D02*
X119766999Y-104739999D01*
X119929000Y-104902000D02*
X121666000Y-103165000D01*
G04 #@! TO.N,/PWM10*
X106934000Y-106680000D02*
X106934000Y-109220000D01*
X107696000Y-105918000D02*
X106934000Y-106680000D01*
X108458000Y-101473014D02*
X113700015Y-96230999D01*
X107696000Y-105918000D02*
X108458000Y-105156000D01*
X113700015Y-96230999D02*
X114300014Y-95631000D01*
X108458000Y-105156000D02*
X108458000Y-101473014D01*
G04 #@! TO.N,/PWM9*
X113284000Y-91440000D02*
X112268000Y-91440000D01*
X113284000Y-91440000D02*
X115148524Y-91440000D01*
X115148524Y-91440000D02*
X118364000Y-94655476D01*
X96302500Y-104992500D02*
X109855000Y-91440000D01*
X118364000Y-94655476D02*
X118364000Y-95504004D01*
X109855000Y-91440000D02*
X113284000Y-91440000D01*
X96302500Y-109220000D02*
X96302500Y-104992500D01*
G04 #@! TO.N,/PWM8*
X115163633Y-104292367D02*
X118780001Y-100675999D01*
X118364000Y-115316000D02*
X115163633Y-112115633D01*
X118780001Y-100675999D02*
X119380000Y-100076000D01*
X115163633Y-112115633D02*
X115163633Y-104292367D01*
X118364000Y-114808000D02*
X118364000Y-115316000D01*
X119888000Y-113284000D02*
X118364000Y-114808000D01*
G04 #@! TO.N,/PWM7*
X106934000Y-118110000D02*
X108712000Y-116332000D01*
X108712000Y-116332000D02*
X108712000Y-115824000D01*
X102870000Y-107950000D02*
X107950000Y-102870000D01*
X107950000Y-102870000D02*
X107950000Y-100075992D01*
X108712000Y-115824000D02*
X103632000Y-115824000D01*
X102870000Y-115062000D02*
X102870000Y-107950000D01*
X103632000Y-115824000D02*
X102870000Y-115062000D01*
G04 #@! TO.N,/PWM6*
X96302500Y-117856000D02*
X97536000Y-116622500D01*
X97536000Y-116622500D02*
X97536000Y-115824000D01*
X97536000Y-115824000D02*
X93472000Y-111760000D01*
X93472000Y-106507484D02*
X104279244Y-95700240D01*
X104279244Y-95700240D02*
X104879243Y-95100241D01*
X93472000Y-111760000D02*
X93472000Y-106507484D01*
G04 #@! TO.N,/PWM5*
X114722210Y-101685790D02*
X114722210Y-100330000D01*
X114249211Y-102158789D02*
X114722210Y-101685790D01*
X118364000Y-124460000D02*
X114249211Y-120345211D01*
X114249211Y-120345211D02*
X114249211Y-102158789D01*
X118364000Y-122936000D02*
X118364000Y-124460000D01*
X119126000Y-122174000D02*
X118364000Y-122936000D01*
G04 #@! TO.N,/PWM4*
X107261000Y-125403000D02*
X107261000Y-127000000D01*
X108204000Y-124460000D02*
X107261000Y-125403000D01*
X104721000Y-124460000D02*
X108204000Y-124460000D01*
X102412789Y-122151789D02*
X104721000Y-124460000D01*
X112641601Y-94402210D02*
X112041602Y-95002209D01*
X112041602Y-95002209D02*
X110991791Y-95002209D01*
X110991791Y-95002209D02*
X106807000Y-99187000D01*
X106807000Y-103366407D02*
X102412789Y-107760618D01*
X106807000Y-99187000D02*
X106807000Y-103366407D01*
X102412789Y-107760618D02*
X102412789Y-122151789D01*
G04 #@! TO.N,/PWM0*
X96302500Y-135636000D02*
X96302500Y-134583500D01*
X96302500Y-134583500D02*
X97282000Y-133604000D01*
X103286003Y-93612253D02*
X103886002Y-93012254D01*
X92557578Y-104340678D02*
X103286003Y-93612253D01*
X92557578Y-131927578D02*
X92557578Y-104340678D01*
X97282000Y-133604000D02*
X94234000Y-133604000D01*
X94234000Y-133604000D02*
X92557578Y-131927578D01*
G04 #@! TO.N,/PWM1*
X107188000Y-135817000D02*
X107261000Y-135890000D01*
X107950000Y-133604000D02*
X107188000Y-134366000D01*
X107188000Y-134366000D02*
X107188000Y-135817000D01*
X115824000Y-96012000D02*
X115824000Y-93980000D01*
X113792000Y-98044000D02*
X115824000Y-96012000D01*
X115824000Y-93980000D02*
X114554000Y-92710000D01*
X113792000Y-129359000D02*
X113792000Y-98044000D01*
X107950000Y-133604000D02*
X109547000Y-133604000D01*
X109547000Y-133604000D02*
X113792000Y-129359000D01*
G04 #@! TO.N,/PWM2*
X118364000Y-133096000D02*
X119888000Y-131572000D01*
X119126000Y-130810000D02*
X119888000Y-130810000D01*
X119888000Y-131572000D02*
X119888000Y-130810000D01*
X114706422Y-102717578D02*
X117348000Y-100076000D01*
X119888000Y-130810000D02*
X120142000Y-130556000D01*
X118618000Y-118364000D02*
X116332000Y-118364000D01*
X120142000Y-130556000D02*
X120142000Y-119888000D01*
X120142000Y-119888000D02*
X118618000Y-118364000D01*
X114706422Y-116738422D02*
X114706422Y-102717578D01*
X116332000Y-118364000D02*
X114706422Y-116738422D01*
G04 #@! TO.N,/PWM3*
X96339000Y-127000000D02*
X97790000Y-125549000D01*
X97790000Y-125549000D02*
X97790000Y-124968000D01*
X93014789Y-123675789D02*
X93014789Y-105486203D01*
X93014789Y-105486203D02*
X102523993Y-95976999D01*
X102523993Y-95976999D02*
X103123992Y-95377000D01*
X94307000Y-124968000D02*
X93014789Y-123675789D01*
X97790000Y-124968000D02*
X94307000Y-124968000D01*
G04 #@! TD*
G04 #@! TO.N,GND*
G36*
X89101791Y-73942873D02*
X88766677Y-74232396D01*
X88567868Y-74628123D01*
X88692865Y-74803000D01*
X89535000Y-74803000D01*
X89535000Y-74783000D01*
X89789000Y-74783000D01*
X89789000Y-74803000D01*
X89800027Y-74803000D01*
X89774765Y-74930000D01*
X89800027Y-75057000D01*
X89789000Y-75057000D01*
X89789000Y-75897954D01*
X89963874Y-76024119D01*
X90170001Y-75938750D01*
X90170000Y-77394957D01*
X90155073Y-77470000D01*
X90170000Y-77545043D01*
X90170000Y-77545047D01*
X90214212Y-77767316D01*
X90382629Y-78019371D01*
X90446253Y-78061883D01*
X91440001Y-79055632D01*
X91440000Y-96458369D01*
X89854370Y-98044000D01*
X82371042Y-98044000D01*
X82295999Y-98029073D01*
X82220956Y-98044000D01*
X82220952Y-98044000D01*
X81998683Y-98088212D01*
X81998682Y-98088213D01*
X81998681Y-98088213D01*
X81810251Y-98214118D01*
X81746629Y-98256629D01*
X81704118Y-98320251D01*
X79524251Y-100500119D01*
X79460630Y-100542629D01*
X79425440Y-100595295D01*
X79425440Y-100546000D01*
X79376157Y-100298235D01*
X79235809Y-100088191D01*
X79025765Y-99947843D01*
X78778000Y-99898560D01*
X77178000Y-99898560D01*
X76930235Y-99947843D01*
X76720191Y-100088191D01*
X76579843Y-100298235D01*
X76530560Y-100546000D01*
X76530560Y-102146000D01*
X76579843Y-102393765D01*
X76720191Y-102603809D01*
X76930235Y-102744157D01*
X77064106Y-102770785D01*
X76943423Y-102851423D01*
X76626260Y-103326091D01*
X76514887Y-103886000D01*
X76626260Y-104445909D01*
X76943423Y-104920577D01*
X77295758Y-105156000D01*
X76943423Y-105391423D01*
X76626260Y-105866091D01*
X76514887Y-106426000D01*
X76626260Y-106985909D01*
X76943423Y-107460577D01*
X77295758Y-107696000D01*
X76943423Y-107931423D01*
X76626260Y-108406091D01*
X76514887Y-108966000D01*
X76626260Y-109525909D01*
X76943423Y-110000577D01*
X77295758Y-110236000D01*
X76943423Y-110471423D01*
X76626260Y-110946091D01*
X76514887Y-111506000D01*
X76626260Y-112065909D01*
X76943423Y-112540577D01*
X77327108Y-112796947D01*
X77122866Y-112893611D01*
X76746959Y-113308577D01*
X76586096Y-113696961D01*
X76708085Y-113919000D01*
X77851000Y-113919000D01*
X77851000Y-113899000D01*
X78105000Y-113899000D01*
X78105000Y-113919000D01*
X79247915Y-113919000D01*
X79369904Y-113696961D01*
X79209041Y-113308577D01*
X78833134Y-112893611D01*
X78628892Y-112796947D01*
X79012577Y-112540577D01*
X79329740Y-112065909D01*
X79441113Y-111506000D01*
X79377157Y-111184473D01*
X80495750Y-110065881D01*
X80559371Y-110023371D01*
X80727788Y-109771317D01*
X80772000Y-109549048D01*
X80772000Y-109549043D01*
X80772001Y-109549040D01*
X80772000Y-127954369D01*
X79440990Y-129285380D01*
X79329740Y-128726091D01*
X79012577Y-128251423D01*
X78660242Y-128016000D01*
X79012577Y-127780577D01*
X79329740Y-127305909D01*
X79441113Y-126746000D01*
X79329740Y-126186091D01*
X79012577Y-125711423D01*
X78660242Y-125476000D01*
X79012577Y-125240577D01*
X79329740Y-124765909D01*
X79441113Y-124206000D01*
X79329740Y-123646091D01*
X79012577Y-123171423D01*
X78537909Y-122854260D01*
X78119333Y-122771000D01*
X77836667Y-122771000D01*
X77418091Y-122854260D01*
X76943423Y-123171423D01*
X76626260Y-123646091D01*
X76514887Y-124206000D01*
X76626260Y-124765909D01*
X76943423Y-125240577D01*
X77295758Y-125476000D01*
X76943423Y-125711423D01*
X76626260Y-126186091D01*
X76514887Y-126746000D01*
X76626260Y-127305909D01*
X76943423Y-127780577D01*
X77295758Y-128016000D01*
X76943423Y-128251423D01*
X76626260Y-128726091D01*
X76514887Y-129286000D01*
X76626260Y-129845909D01*
X76943423Y-130320577D01*
X77295758Y-130556000D01*
X76943423Y-130791423D01*
X76626260Y-131266091D01*
X76514887Y-131826000D01*
X76626260Y-132385909D01*
X76943423Y-132860577D01*
X77295758Y-133096000D01*
X76943423Y-133331423D01*
X76626260Y-133806091D01*
X76514887Y-134366000D01*
X76626260Y-134925909D01*
X76943423Y-135400577D01*
X77295758Y-135636000D01*
X76943423Y-135871423D01*
X76626260Y-136346091D01*
X76514887Y-136906000D01*
X76626260Y-137465909D01*
X76943423Y-137940577D01*
X77418091Y-138257740D01*
X77836667Y-138341000D01*
X78119333Y-138341000D01*
X78537909Y-138257740D01*
X79012577Y-137940577D01*
X79329740Y-137465909D01*
X79441113Y-136906000D01*
X79329740Y-136346091D01*
X79012577Y-135871423D01*
X78660242Y-135636000D01*
X79012577Y-135400577D01*
X79329740Y-134925909D01*
X79441113Y-134366000D01*
X79329740Y-133806091D01*
X79012577Y-133331423D01*
X78660242Y-133096000D01*
X79012577Y-132860577D01*
X79329740Y-132385909D01*
X79441113Y-131826000D01*
X79377157Y-131504473D01*
X82019750Y-128861881D01*
X82083371Y-128819371D01*
X82145699Y-128726091D01*
X82251787Y-128567319D01*
X82251787Y-128567318D01*
X82251788Y-128567317D01*
X82296000Y-128345048D01*
X82296000Y-128345044D01*
X82310927Y-128270001D01*
X82296000Y-128194958D01*
X82296000Y-106680000D01*
X84845908Y-106680000D01*
X84961161Y-107259418D01*
X85289375Y-107750625D01*
X85587761Y-107950000D01*
X85289375Y-108149375D01*
X84961161Y-108640582D01*
X84845908Y-109220000D01*
X84961161Y-109799418D01*
X85289375Y-110290625D01*
X85587761Y-110490000D01*
X85289375Y-110689375D01*
X84961161Y-111180582D01*
X84845908Y-111760000D01*
X84961161Y-112339418D01*
X85289375Y-112830625D01*
X85587761Y-113030000D01*
X85289375Y-113229375D01*
X84961161Y-113720582D01*
X84845908Y-114300000D01*
X84961161Y-114879418D01*
X85289375Y-115370625D01*
X85587761Y-115570000D01*
X85289375Y-115769375D01*
X84961161Y-116260582D01*
X84845908Y-116840000D01*
X84961161Y-117419418D01*
X85289375Y-117910625D01*
X85587761Y-118110000D01*
X85289375Y-118309375D01*
X84961161Y-118800582D01*
X84845908Y-119380000D01*
X84961161Y-119959418D01*
X85289375Y-120450625D01*
X85587761Y-120650000D01*
X85289375Y-120849375D01*
X84961161Y-121340582D01*
X84845908Y-121920000D01*
X84961161Y-122499418D01*
X85289375Y-122990625D01*
X85587761Y-123190000D01*
X85289375Y-123389375D01*
X84961161Y-123880582D01*
X84845908Y-124460000D01*
X84961161Y-125039418D01*
X85289375Y-125530625D01*
X85587761Y-125730000D01*
X85289375Y-125929375D01*
X84961161Y-126420582D01*
X84845908Y-127000000D01*
X84961161Y-127579418D01*
X85289375Y-128070625D01*
X85587761Y-128270000D01*
X85289375Y-128469375D01*
X84961161Y-128960582D01*
X84845908Y-129540000D01*
X84961161Y-130119418D01*
X85289375Y-130610625D01*
X85587761Y-130810000D01*
X85289375Y-131009375D01*
X84961161Y-131500582D01*
X84845908Y-132080000D01*
X84961161Y-132659418D01*
X85289375Y-133150625D01*
X85587761Y-133350000D01*
X85289375Y-133549375D01*
X84961161Y-134040582D01*
X84845908Y-134620000D01*
X84961161Y-135199418D01*
X85289375Y-135690625D01*
X85780582Y-136018839D01*
X86213744Y-136105000D01*
X86506256Y-136105000D01*
X86939418Y-136018839D01*
X87430625Y-135690625D01*
X87442816Y-135672381D01*
X87451843Y-135717765D01*
X87592191Y-135927809D01*
X87802235Y-136068157D01*
X88050000Y-136117440D01*
X89750000Y-136117440D01*
X89997765Y-136068157D01*
X90207809Y-135927809D01*
X90348157Y-135717765D01*
X90397440Y-135470000D01*
X90397440Y-133770000D01*
X90348157Y-133522235D01*
X90207809Y-133312191D01*
X89997765Y-133171843D01*
X89952381Y-133162816D01*
X89970625Y-133150625D01*
X90298839Y-132659418D01*
X90414092Y-132080000D01*
X90298839Y-131500582D01*
X89970625Y-131009375D01*
X89672239Y-130810000D01*
X89970625Y-130610625D01*
X90298839Y-130119418D01*
X90414092Y-129540000D01*
X90298839Y-128960582D01*
X89970625Y-128469375D01*
X89672239Y-128270000D01*
X89970625Y-128070625D01*
X90298839Y-127579418D01*
X90414092Y-127000000D01*
X90298839Y-126420582D01*
X89970625Y-125929375D01*
X89672239Y-125730000D01*
X89970625Y-125530625D01*
X90298839Y-125039418D01*
X90414092Y-124460000D01*
X90298839Y-123880582D01*
X89970625Y-123389375D01*
X89672239Y-123190000D01*
X89970625Y-122990625D01*
X90298839Y-122499418D01*
X90414092Y-121920000D01*
X90298839Y-121340582D01*
X89970625Y-120849375D01*
X89672239Y-120650000D01*
X89970625Y-120450625D01*
X90298839Y-119959418D01*
X90414092Y-119380000D01*
X90298839Y-118800582D01*
X89970625Y-118309375D01*
X89672239Y-118110000D01*
X89970625Y-117910625D01*
X90298839Y-117419418D01*
X90414092Y-116840000D01*
X90298839Y-116260582D01*
X89970625Y-115769375D01*
X89672239Y-115570000D01*
X89970625Y-115370625D01*
X90298839Y-114879418D01*
X90414092Y-114300000D01*
X90298839Y-113720582D01*
X89970625Y-113229375D01*
X89672239Y-113030000D01*
X89970625Y-112830625D01*
X90298839Y-112339418D01*
X90414092Y-111760000D01*
X90298839Y-111180582D01*
X89970625Y-110689375D01*
X89672239Y-110490000D01*
X89970625Y-110290625D01*
X90298839Y-109799418D01*
X90414092Y-109220000D01*
X90298839Y-108640582D01*
X89970625Y-108149375D01*
X89672239Y-107950000D01*
X89970625Y-107750625D01*
X90298839Y-107259418D01*
X90414092Y-106680000D01*
X90298839Y-106100582D01*
X89970625Y-105609375D01*
X89479418Y-105281161D01*
X89046256Y-105195000D01*
X88753744Y-105195000D01*
X88320582Y-105281161D01*
X87829375Y-105609375D01*
X87630000Y-105907761D01*
X87430625Y-105609375D01*
X86939418Y-105281161D01*
X86506256Y-105195000D01*
X86213744Y-105195000D01*
X85780582Y-105281161D01*
X85289375Y-105609375D01*
X84961161Y-106100582D01*
X84845908Y-106680000D01*
X82296000Y-106680000D01*
X82296000Y-101915630D01*
X83627631Y-100584000D01*
X94920957Y-100584000D01*
X94996000Y-100598927D01*
X95071043Y-100584000D01*
X95071048Y-100584000D01*
X95277739Y-100542887D01*
X92071829Y-103748797D01*
X92008208Y-103791307D01*
X91965697Y-103854929D01*
X91965696Y-103854930D01*
X91839791Y-104043361D01*
X91780651Y-104340678D01*
X91795579Y-104415726D01*
X91795578Y-131852535D01*
X91780651Y-131927578D01*
X91795578Y-132002621D01*
X91795578Y-132002625D01*
X91839790Y-132224894D01*
X92008207Y-132476949D01*
X92071831Y-132519461D01*
X93642118Y-134089749D01*
X93684629Y-134153371D01*
X93936683Y-134321788D01*
X94158952Y-134366000D01*
X94158953Y-134366000D01*
X94234000Y-134380928D01*
X94309047Y-134366000D01*
X95221000Y-134366000D01*
X95205414Y-134376414D01*
X95010874Y-134667565D01*
X94942560Y-135011000D01*
X94942560Y-136261000D01*
X95010874Y-136604435D01*
X95205414Y-136895586D01*
X95496565Y-137090126D01*
X95840000Y-137158440D01*
X96765000Y-137158440D01*
X97108435Y-137090126D01*
X97399586Y-136895586D01*
X97594126Y-136604435D01*
X97662440Y-136261000D01*
X97662440Y-135921750D01*
X97930000Y-135921750D01*
X97930000Y-136637310D01*
X98026673Y-136870699D01*
X98205302Y-137049327D01*
X98438691Y-137146000D01*
X98991750Y-137146000D01*
X99150500Y-136987250D01*
X99150500Y-135763000D01*
X99404500Y-135763000D01*
X99404500Y-136987250D01*
X99563250Y-137146000D01*
X100116309Y-137146000D01*
X100349698Y-137049327D01*
X100528327Y-136870699D01*
X100625000Y-136637310D01*
X100625000Y-135921750D01*
X100466250Y-135763000D01*
X99404500Y-135763000D01*
X99150500Y-135763000D01*
X98088750Y-135763000D01*
X97930000Y-135921750D01*
X97662440Y-135921750D01*
X97662440Y-135011000D01*
X97620571Y-134800513D01*
X97930000Y-134672343D01*
X97930000Y-135350250D01*
X98088750Y-135509000D01*
X99150500Y-135509000D01*
X99150500Y-134284750D01*
X99404500Y-134284750D01*
X99404500Y-135509000D01*
X100466250Y-135509000D01*
X100625000Y-135350250D01*
X100625000Y-134634690D01*
X100528327Y-134401301D01*
X100349698Y-134222673D01*
X100116309Y-134126000D01*
X99563250Y-134126000D01*
X99404500Y-134284750D01*
X99150500Y-134284750D01*
X98991750Y-134126000D01*
X98438691Y-134126000D01*
X98395046Y-134144078D01*
X98517000Y-133849657D01*
X98517000Y-133358343D01*
X98328982Y-132904429D01*
X97981571Y-132557018D01*
X97527657Y-132369000D01*
X97036343Y-132369000D01*
X96582429Y-132557018D01*
X96297447Y-132842000D01*
X94549631Y-132842000D01*
X93319578Y-131611948D01*
X93319578Y-125058209D01*
X93715118Y-125453749D01*
X93757629Y-125517371D01*
X93821251Y-125559882D01*
X94009681Y-125685787D01*
X94009682Y-125685787D01*
X94009683Y-125685788D01*
X94231952Y-125730000D01*
X94231956Y-125730000D01*
X94306999Y-125744927D01*
X94382042Y-125730000D01*
X95257500Y-125730000D01*
X95241914Y-125740414D01*
X95047374Y-126031565D01*
X94979060Y-126375000D01*
X94979060Y-127625000D01*
X95047374Y-127968435D01*
X95241914Y-128259586D01*
X95533065Y-128454126D01*
X95876500Y-128522440D01*
X96801500Y-128522440D01*
X97144935Y-128454126D01*
X97436086Y-128259586D01*
X97630626Y-127968435D01*
X97698940Y-127625000D01*
X97698940Y-127285750D01*
X97966500Y-127285750D01*
X97966500Y-128001310D01*
X98063173Y-128234699D01*
X98241802Y-128413327D01*
X98475191Y-128510000D01*
X99028250Y-128510000D01*
X99187000Y-128351250D01*
X99187000Y-127127000D01*
X99441000Y-127127000D01*
X99441000Y-128351250D01*
X99599750Y-128510000D01*
X100152809Y-128510000D01*
X100386198Y-128413327D01*
X100564827Y-128234699D01*
X100661500Y-128001310D01*
X100661500Y-127285750D01*
X100502750Y-127127000D01*
X99441000Y-127127000D01*
X99187000Y-127127000D01*
X98125250Y-127127000D01*
X97966500Y-127285750D01*
X97698940Y-127285750D01*
X97698940Y-126717691D01*
X97966500Y-126450131D01*
X97966500Y-126714250D01*
X98125250Y-126873000D01*
X99187000Y-126873000D01*
X99187000Y-125648750D01*
X99441000Y-125648750D01*
X99441000Y-126873000D01*
X100502750Y-126873000D01*
X100661500Y-126714250D01*
X100661500Y-125998690D01*
X100564827Y-125765301D01*
X100386198Y-125586673D01*
X100152809Y-125490000D01*
X99599750Y-125490000D01*
X99441000Y-125648750D01*
X99187000Y-125648750D01*
X99028250Y-125490000D01*
X98910535Y-125490000D01*
X99025000Y-125213657D01*
X99025000Y-124722343D01*
X98836982Y-124268429D01*
X98489571Y-123921018D01*
X98035657Y-123733000D01*
X97544343Y-123733000D01*
X97090429Y-123921018D01*
X96805447Y-124206000D01*
X94622631Y-124206000D01*
X93776789Y-123360159D01*
X93776789Y-113142419D01*
X96301000Y-115666631D01*
X96301000Y-116069657D01*
X96410313Y-116333560D01*
X95840000Y-116333560D01*
X95496565Y-116401874D01*
X95205414Y-116596414D01*
X95010874Y-116887565D01*
X94942560Y-117231000D01*
X94942560Y-118481000D01*
X95010874Y-118824435D01*
X95205414Y-119115586D01*
X95496565Y-119310126D01*
X95840000Y-119378440D01*
X96765000Y-119378440D01*
X97108435Y-119310126D01*
X97399586Y-119115586D01*
X97594126Y-118824435D01*
X97662440Y-118481000D01*
X97662440Y-118141750D01*
X97930000Y-118141750D01*
X97930000Y-118857310D01*
X98026673Y-119090699D01*
X98205302Y-119269327D01*
X98438691Y-119366000D01*
X98991750Y-119366000D01*
X99150500Y-119207250D01*
X99150500Y-117983000D01*
X99404500Y-117983000D01*
X99404500Y-119207250D01*
X99563250Y-119366000D01*
X100116309Y-119366000D01*
X100349698Y-119269327D01*
X100528327Y-119090699D01*
X100625000Y-118857310D01*
X100625000Y-118141750D01*
X100466250Y-117983000D01*
X99404500Y-117983000D01*
X99150500Y-117983000D01*
X98088750Y-117983000D01*
X97930000Y-118141750D01*
X97662440Y-118141750D01*
X97662440Y-117573691D01*
X97930000Y-117306131D01*
X97930000Y-117570250D01*
X98088750Y-117729000D01*
X99150500Y-117729000D01*
X99150500Y-116504750D01*
X99404500Y-116504750D01*
X99404500Y-117729000D01*
X100466250Y-117729000D01*
X100625000Y-117570250D01*
X100625000Y-116854690D01*
X100528327Y-116621301D01*
X100349698Y-116442673D01*
X100116309Y-116346000D01*
X99563250Y-116346000D01*
X99404500Y-116504750D01*
X99150500Y-116504750D01*
X98991750Y-116346000D01*
X98656535Y-116346000D01*
X98771000Y-116069657D01*
X98771000Y-115578343D01*
X98582982Y-115124429D01*
X98235571Y-114777018D01*
X97781657Y-114589000D01*
X97378631Y-114589000D01*
X94234000Y-111444370D01*
X94234000Y-106823114D01*
X95540501Y-105516613D01*
X95540501Y-105912946D01*
X95219018Y-106234429D01*
X95031000Y-106688343D01*
X95031000Y-107179657D01*
X95219018Y-107633571D01*
X95409497Y-107824050D01*
X95205414Y-107960414D01*
X95010874Y-108251565D01*
X94942560Y-108595000D01*
X94942560Y-109845000D01*
X95010874Y-110188435D01*
X95205414Y-110479586D01*
X95496565Y-110674126D01*
X95840000Y-110742440D01*
X96765000Y-110742440D01*
X97108435Y-110674126D01*
X97399586Y-110479586D01*
X97594126Y-110188435D01*
X97662440Y-109845000D01*
X97662440Y-109505750D01*
X97930000Y-109505750D01*
X97930000Y-110221310D01*
X98026673Y-110454699D01*
X98205302Y-110633327D01*
X98438691Y-110730000D01*
X98991750Y-110730000D01*
X99150500Y-110571250D01*
X99150500Y-109347000D01*
X99404500Y-109347000D01*
X99404500Y-110571250D01*
X99563250Y-110730000D01*
X100116309Y-110730000D01*
X100349698Y-110633327D01*
X100528327Y-110454699D01*
X100625000Y-110221310D01*
X100625000Y-109505750D01*
X100466250Y-109347000D01*
X99404500Y-109347000D01*
X99150500Y-109347000D01*
X98088750Y-109347000D01*
X97930000Y-109505750D01*
X97662440Y-109505750D01*
X97662440Y-108595000D01*
X97594126Y-108251565D01*
X97572160Y-108218690D01*
X97930000Y-108218690D01*
X97930000Y-108934250D01*
X98088750Y-109093000D01*
X99150500Y-109093000D01*
X99150500Y-107868750D01*
X99404500Y-107868750D01*
X99404500Y-109093000D01*
X100466250Y-109093000D01*
X100625000Y-108934250D01*
X100625000Y-108218690D01*
X100528327Y-107985301D01*
X100349698Y-107806673D01*
X100116309Y-107710000D01*
X99563250Y-107710000D01*
X99404500Y-107868750D01*
X99150500Y-107868750D01*
X98991750Y-107710000D01*
X98438691Y-107710000D01*
X98205302Y-107806673D01*
X98026673Y-107985301D01*
X97930000Y-108218690D01*
X97572160Y-108218690D01*
X97399586Y-107960414D01*
X97151742Y-107794811D01*
X97312982Y-107633571D01*
X97501000Y-107179657D01*
X97501000Y-106688343D01*
X97312982Y-106234429D01*
X97064500Y-105985947D01*
X97064500Y-105308130D01*
X100137630Y-102235000D01*
X106045001Y-102235000D01*
X106045001Y-103050775D01*
X101927042Y-107168735D01*
X101863418Y-107211247D01*
X101695001Y-107463302D01*
X101650789Y-107685571D01*
X101650789Y-107685575D01*
X101635862Y-107760618D01*
X101650789Y-107835661D01*
X101650790Y-122076741D01*
X101635862Y-122151789D01*
X101650790Y-122226837D01*
X101695002Y-122449106D01*
X101863419Y-122701160D01*
X101927040Y-122743670D01*
X104129118Y-124945749D01*
X104171629Y-125009371D01*
X104235251Y-125051882D01*
X104423681Y-125177787D01*
X104423682Y-125177787D01*
X104423683Y-125177788D01*
X104645952Y-125222000D01*
X104645956Y-125222000D01*
X104720999Y-125236927D01*
X104796042Y-125222000D01*
X106520075Y-125222000D01*
X106499000Y-125327953D01*
X106499000Y-125327957D01*
X106484073Y-125403000D01*
X106499000Y-125478044D01*
X106499000Y-125537135D01*
X106455065Y-125545874D01*
X106163914Y-125740414D01*
X105969374Y-126031565D01*
X105901060Y-126375000D01*
X105901060Y-127625000D01*
X105969374Y-127968435D01*
X106163914Y-128259586D01*
X106455065Y-128454126D01*
X106798500Y-128522440D01*
X107723500Y-128522440D01*
X108066935Y-128454126D01*
X108358086Y-128259586D01*
X108552626Y-127968435D01*
X108620940Y-127625000D01*
X108620940Y-127285750D01*
X108888500Y-127285750D01*
X108888500Y-128001310D01*
X108985173Y-128234699D01*
X109163802Y-128413327D01*
X109397191Y-128510000D01*
X109950250Y-128510000D01*
X110109000Y-128351250D01*
X110109000Y-127127000D01*
X110363000Y-127127000D01*
X110363000Y-128351250D01*
X110521750Y-128510000D01*
X111074809Y-128510000D01*
X111308198Y-128413327D01*
X111486827Y-128234699D01*
X111583500Y-128001310D01*
X111583500Y-127285750D01*
X111424750Y-127127000D01*
X110363000Y-127127000D01*
X110109000Y-127127000D01*
X109047250Y-127127000D01*
X108888500Y-127285750D01*
X108620940Y-127285750D01*
X108620940Y-126375000D01*
X108552626Y-126031565D01*
X108530660Y-125998690D01*
X108888500Y-125998690D01*
X108888500Y-126714250D01*
X109047250Y-126873000D01*
X110109000Y-126873000D01*
X110109000Y-125648750D01*
X110363000Y-125648750D01*
X110363000Y-126873000D01*
X111424750Y-126873000D01*
X111583500Y-126714250D01*
X111583500Y-125998690D01*
X111486827Y-125765301D01*
X111308198Y-125586673D01*
X111074809Y-125490000D01*
X110521750Y-125490000D01*
X110363000Y-125648750D01*
X110109000Y-125648750D01*
X109950250Y-125490000D01*
X109397191Y-125490000D01*
X109163802Y-125586673D01*
X108985173Y-125765301D01*
X108888500Y-125998690D01*
X108530660Y-125998690D01*
X108358086Y-125740414D01*
X108290119Y-125695000D01*
X108449657Y-125695000D01*
X108903571Y-125506982D01*
X109250982Y-125159571D01*
X109439000Y-124705657D01*
X109439000Y-124214343D01*
X109250982Y-123760429D01*
X108903571Y-123413018D01*
X108449657Y-123225000D01*
X107958343Y-123225000D01*
X107504429Y-123413018D01*
X107219447Y-123698000D01*
X105036631Y-123698000D01*
X103174789Y-121836159D01*
X103174789Y-116434950D01*
X103334683Y-116541788D01*
X103556952Y-116586000D01*
X103556953Y-116586000D01*
X103632000Y-116600928D01*
X103707047Y-116586000D01*
X107380369Y-116586000D01*
X107378809Y-116587560D01*
X106471500Y-116587560D01*
X106128065Y-116655874D01*
X105836914Y-116850414D01*
X105642374Y-117141565D01*
X105574060Y-117485000D01*
X105574060Y-118735000D01*
X105642374Y-119078435D01*
X105836914Y-119369586D01*
X106128065Y-119564126D01*
X106471500Y-119632440D01*
X107396500Y-119632440D01*
X107739935Y-119564126D01*
X108031086Y-119369586D01*
X108225626Y-119078435D01*
X108293940Y-118735000D01*
X108293940Y-118395750D01*
X108561500Y-118395750D01*
X108561500Y-119111310D01*
X108658173Y-119344699D01*
X108836802Y-119523327D01*
X109070191Y-119620000D01*
X109623250Y-119620000D01*
X109782000Y-119461250D01*
X109782000Y-118237000D01*
X110036000Y-118237000D01*
X110036000Y-119461250D01*
X110194750Y-119620000D01*
X110747809Y-119620000D01*
X110981198Y-119523327D01*
X111159827Y-119344699D01*
X111256500Y-119111310D01*
X111256500Y-118395750D01*
X111097750Y-118237000D01*
X110036000Y-118237000D01*
X109782000Y-118237000D01*
X108720250Y-118237000D01*
X108561500Y-118395750D01*
X108293940Y-118395750D01*
X108293940Y-117827690D01*
X108561500Y-117560131D01*
X108561500Y-117824250D01*
X108720250Y-117983000D01*
X109782000Y-117983000D01*
X109782000Y-116758750D01*
X110036000Y-116758750D01*
X110036000Y-117983000D01*
X111097750Y-117983000D01*
X111256500Y-117824250D01*
X111256500Y-117108690D01*
X111159827Y-116875301D01*
X110981198Y-116696673D01*
X110747809Y-116600000D01*
X110194750Y-116600000D01*
X110036000Y-116758750D01*
X109782000Y-116758750D01*
X109652902Y-116629652D01*
X109758982Y-116523571D01*
X109947000Y-116069657D01*
X109947000Y-115578343D01*
X109758982Y-115124429D01*
X109411571Y-114777018D01*
X108957657Y-114589000D01*
X108466343Y-114589000D01*
X108012429Y-114777018D01*
X107727447Y-115062000D01*
X103947631Y-115062000D01*
X103632000Y-114746370D01*
X103632000Y-108265630D01*
X106627675Y-105269956D01*
X106461000Y-105672343D01*
X106461000Y-106075370D01*
X106448253Y-106088117D01*
X106384629Y-106130629D01*
X106216212Y-106382684D01*
X106172000Y-106604953D01*
X106172000Y-106604957D01*
X106157073Y-106680000D01*
X106172000Y-106755043D01*
X106172000Y-107757135D01*
X106128065Y-107765874D01*
X105836914Y-107960414D01*
X105642374Y-108251565D01*
X105574060Y-108595000D01*
X105574060Y-109845000D01*
X105642374Y-110188435D01*
X105836914Y-110479586D01*
X106128065Y-110674126D01*
X106471500Y-110742440D01*
X107396500Y-110742440D01*
X107739935Y-110674126D01*
X108031086Y-110479586D01*
X108225626Y-110188435D01*
X108293940Y-109845000D01*
X108293940Y-109505750D01*
X108561500Y-109505750D01*
X108561500Y-110221310D01*
X108658173Y-110454699D01*
X108836802Y-110633327D01*
X109070191Y-110730000D01*
X109623250Y-110730000D01*
X109782000Y-110571250D01*
X109782000Y-109347000D01*
X110036000Y-109347000D01*
X110036000Y-110571250D01*
X110194750Y-110730000D01*
X110747809Y-110730000D01*
X110981198Y-110633327D01*
X111159827Y-110454699D01*
X111256500Y-110221310D01*
X111256500Y-109505750D01*
X111097750Y-109347000D01*
X110036000Y-109347000D01*
X109782000Y-109347000D01*
X108720250Y-109347000D01*
X108561500Y-109505750D01*
X108293940Y-109505750D01*
X108293940Y-108595000D01*
X108225626Y-108251565D01*
X108203660Y-108218690D01*
X108561500Y-108218690D01*
X108561500Y-108934250D01*
X108720250Y-109093000D01*
X109782000Y-109093000D01*
X109782000Y-107868750D01*
X110036000Y-107868750D01*
X110036000Y-109093000D01*
X111097750Y-109093000D01*
X111256500Y-108934250D01*
X111256500Y-108218690D01*
X111159827Y-107985301D01*
X110981198Y-107806673D01*
X110747809Y-107710000D01*
X110194750Y-107710000D01*
X110036000Y-107868750D01*
X109782000Y-107868750D01*
X109623250Y-107710000D01*
X109070191Y-107710000D01*
X108836802Y-107806673D01*
X108658173Y-107985301D01*
X108561500Y-108218690D01*
X108203660Y-108218690D01*
X108031086Y-107960414D01*
X107739935Y-107765874D01*
X107696000Y-107757135D01*
X107696000Y-107153000D01*
X107941657Y-107153000D01*
X108395571Y-106964982D01*
X108742982Y-106617571D01*
X108931000Y-106163657D01*
X108931000Y-105760631D01*
X108943750Y-105747881D01*
X109007371Y-105705371D01*
X109071514Y-105609375D01*
X109175787Y-105453318D01*
X109175788Y-105453317D01*
X109220000Y-105231048D01*
X109220000Y-105231047D01*
X109234928Y-105156000D01*
X109220000Y-105080953D01*
X109220000Y-102235000D01*
X113030001Y-102235000D01*
X113030000Y-129043369D01*
X109231370Y-132842000D01*
X108934553Y-132842000D01*
X108649571Y-132557018D01*
X108195657Y-132369000D01*
X107704343Y-132369000D01*
X107250429Y-132557018D01*
X106903018Y-132904429D01*
X106715000Y-133358343D01*
X106715000Y-133761370D01*
X106702253Y-133774117D01*
X106638629Y-133816629D01*
X106470212Y-134068684D01*
X106426000Y-134290953D01*
X106426000Y-134290957D01*
X106411073Y-134366000D01*
X106426000Y-134441044D01*
X106426000Y-134455294D01*
X106163914Y-134630414D01*
X105969374Y-134921565D01*
X105901060Y-135265000D01*
X105901060Y-136515000D01*
X105969374Y-136858435D01*
X106163914Y-137149586D01*
X106455065Y-137344126D01*
X106798500Y-137412440D01*
X107723500Y-137412440D01*
X108066935Y-137344126D01*
X108358086Y-137149586D01*
X108552626Y-136858435D01*
X108620940Y-136515000D01*
X108620940Y-136175750D01*
X108888500Y-136175750D01*
X108888500Y-136891310D01*
X108985173Y-137124699D01*
X109163802Y-137303327D01*
X109397191Y-137400000D01*
X109950250Y-137400000D01*
X110109000Y-137241250D01*
X110109000Y-136017000D01*
X110363000Y-136017000D01*
X110363000Y-137241250D01*
X110521750Y-137400000D01*
X111074809Y-137400000D01*
X111308198Y-137303327D01*
X111486827Y-137124699D01*
X111583500Y-136891310D01*
X111583500Y-136175750D01*
X111424750Y-136017000D01*
X110363000Y-136017000D01*
X110109000Y-136017000D01*
X109047250Y-136017000D01*
X108888500Y-136175750D01*
X108620940Y-136175750D01*
X108620940Y-135265000D01*
X108552626Y-134921565D01*
X108432036Y-134741088D01*
X108649571Y-134650982D01*
X108934553Y-134366000D01*
X109471957Y-134366000D01*
X109542340Y-134380000D01*
X109397191Y-134380000D01*
X109163802Y-134476673D01*
X108985173Y-134655301D01*
X108888500Y-134888690D01*
X108888500Y-135604250D01*
X109047250Y-135763000D01*
X110109000Y-135763000D01*
X110109000Y-134538750D01*
X110363000Y-134538750D01*
X110363000Y-135763000D01*
X111424750Y-135763000D01*
X111583500Y-135604250D01*
X111583500Y-134888690D01*
X111486827Y-134655301D01*
X111308198Y-134476673D01*
X111074809Y-134380000D01*
X110521750Y-134380000D01*
X110363000Y-134538750D01*
X110109000Y-134538750D01*
X109950250Y-134380000D01*
X109551660Y-134380000D01*
X109622043Y-134366000D01*
X109622048Y-134366000D01*
X109844317Y-134321788D01*
X110096371Y-134153371D01*
X110138883Y-134089747D01*
X114277750Y-129950881D01*
X114341371Y-129908371D01*
X114509788Y-129656317D01*
X114554000Y-129434048D01*
X114554000Y-129434047D01*
X114568928Y-129359000D01*
X114554000Y-129283953D01*
X114554000Y-121727630D01*
X117004060Y-124177691D01*
X117004060Y-125085000D01*
X117072374Y-125428435D01*
X117266914Y-125719586D01*
X117558065Y-125914126D01*
X117901500Y-125982440D01*
X118826500Y-125982440D01*
X119169935Y-125914126D01*
X119380000Y-125773765D01*
X119380000Y-129578456D01*
X119371657Y-129575000D01*
X118880343Y-129575000D01*
X118426429Y-129763018D01*
X118079018Y-130110429D01*
X117891000Y-130564343D01*
X117891000Y-131055657D01*
X118079018Y-131509571D01*
X118143007Y-131573560D01*
X117901500Y-131573560D01*
X117558065Y-131641874D01*
X117266914Y-131836414D01*
X117072374Y-132127565D01*
X117004060Y-132471000D01*
X117004060Y-133721000D01*
X117072374Y-134064435D01*
X117266914Y-134355586D01*
X117558065Y-134550126D01*
X117901500Y-134618440D01*
X118826500Y-134618440D01*
X119169935Y-134550126D01*
X119461086Y-134355586D01*
X119655626Y-134064435D01*
X119723940Y-133721000D01*
X119723940Y-133381750D01*
X119991500Y-133381750D01*
X119991500Y-134097310D01*
X120088173Y-134330699D01*
X120266802Y-134509327D01*
X120500191Y-134606000D01*
X121053250Y-134606000D01*
X121212000Y-134447250D01*
X121212000Y-133223000D01*
X121466000Y-133223000D01*
X121466000Y-134447250D01*
X121624750Y-134606000D01*
X122177809Y-134606000D01*
X122411198Y-134509327D01*
X122589827Y-134330699D01*
X122686500Y-134097310D01*
X122686500Y-133381750D01*
X122527750Y-133223000D01*
X121466000Y-133223000D01*
X121212000Y-133223000D01*
X120150250Y-133223000D01*
X119991500Y-133381750D01*
X119723940Y-133381750D01*
X119723940Y-132813690D01*
X119991500Y-132546130D01*
X119991500Y-132810250D01*
X120150250Y-132969000D01*
X121212000Y-132969000D01*
X121212000Y-131744750D01*
X121466000Y-131744750D01*
X121466000Y-132969000D01*
X122527750Y-132969000D01*
X122686500Y-132810250D01*
X122686500Y-132094690D01*
X122589827Y-131861301D01*
X122411198Y-131682673D01*
X122177809Y-131586000D01*
X121624750Y-131586000D01*
X121466000Y-131744750D01*
X121212000Y-131744750D01*
X121053250Y-131586000D01*
X120662142Y-131586000D01*
X120664927Y-131572001D01*
X120650000Y-131496958D01*
X120650000Y-131133014D01*
X120691371Y-131105371D01*
X120859788Y-130853317D01*
X120904000Y-130631048D01*
X120904000Y-130631044D01*
X120918927Y-130556001D01*
X120904000Y-130480958D01*
X120904000Y-125970000D01*
X121053250Y-125970000D01*
X121212000Y-125811250D01*
X121212000Y-124587000D01*
X121466000Y-124587000D01*
X121466000Y-125811250D01*
X121624750Y-125970000D01*
X122177809Y-125970000D01*
X122411198Y-125873327D01*
X122589827Y-125694699D01*
X122686500Y-125461310D01*
X122686500Y-124745750D01*
X122527750Y-124587000D01*
X121466000Y-124587000D01*
X121212000Y-124587000D01*
X121192000Y-124587000D01*
X121192000Y-124333000D01*
X121212000Y-124333000D01*
X121212000Y-123108750D01*
X121466000Y-123108750D01*
X121466000Y-124333000D01*
X122527750Y-124333000D01*
X122686500Y-124174250D01*
X122686500Y-123458690D01*
X122589827Y-123225301D01*
X122411198Y-123046673D01*
X122177809Y-122950000D01*
X121624750Y-122950000D01*
X121466000Y-123108750D01*
X121212000Y-123108750D01*
X121053250Y-122950000D01*
X120904000Y-122950000D01*
X120904000Y-119963042D01*
X120918927Y-119887999D01*
X120904000Y-119812956D01*
X120904000Y-119812952D01*
X120859788Y-119590683D01*
X120844822Y-119568284D01*
X120814782Y-119523327D01*
X120691371Y-119338629D01*
X120627746Y-119296116D01*
X120457630Y-119126000D01*
X124774887Y-119126000D01*
X124886260Y-119685909D01*
X125203423Y-120160577D01*
X125555758Y-120396000D01*
X125203423Y-120631423D01*
X124886260Y-121106091D01*
X124774887Y-121666000D01*
X124886260Y-122225909D01*
X125203423Y-122700577D01*
X125555758Y-122936000D01*
X125203423Y-123171423D01*
X124886260Y-123646091D01*
X124774887Y-124206000D01*
X124886260Y-124765909D01*
X125203423Y-125240577D01*
X125555758Y-125476000D01*
X125203423Y-125711423D01*
X124886260Y-126186091D01*
X124774887Y-126746000D01*
X124886260Y-127305909D01*
X125203423Y-127780577D01*
X125555758Y-128016000D01*
X125203423Y-128251423D01*
X124886260Y-128726091D01*
X124774887Y-129286000D01*
X124886260Y-129845909D01*
X125203423Y-130320577D01*
X125555758Y-130556000D01*
X125203423Y-130791423D01*
X124886260Y-131266091D01*
X124774887Y-131826000D01*
X124886260Y-132385909D01*
X125203423Y-132860577D01*
X125555758Y-133096000D01*
X125203423Y-133331423D01*
X124886260Y-133806091D01*
X124774887Y-134366000D01*
X124886260Y-134925909D01*
X125203423Y-135400577D01*
X125555758Y-135636000D01*
X125203423Y-135871423D01*
X124886260Y-136346091D01*
X124774887Y-136906000D01*
X124886260Y-137465909D01*
X125203423Y-137940577D01*
X125678091Y-138257740D01*
X126096667Y-138341000D01*
X126379333Y-138341000D01*
X126797909Y-138257740D01*
X127272577Y-137940577D01*
X127589740Y-137465909D01*
X127701113Y-136906000D01*
X127589740Y-136346091D01*
X127272577Y-135871423D01*
X126920242Y-135636000D01*
X127272577Y-135400577D01*
X127589740Y-134925909D01*
X127701113Y-134366000D01*
X127589740Y-133806091D01*
X127272577Y-133331423D01*
X126920242Y-133096000D01*
X127272577Y-132860577D01*
X127589740Y-132385909D01*
X127701113Y-131826000D01*
X127589740Y-131266091D01*
X127272577Y-130791423D01*
X126920242Y-130556000D01*
X127272577Y-130320577D01*
X127589740Y-129845909D01*
X127701113Y-129286000D01*
X127589740Y-128726091D01*
X127272577Y-128251423D01*
X126920242Y-128016000D01*
X127272577Y-127780577D01*
X127589740Y-127305909D01*
X127701113Y-126746000D01*
X127589740Y-126186091D01*
X127272577Y-125711423D01*
X126920242Y-125476000D01*
X127272577Y-125240577D01*
X127589740Y-124765909D01*
X127701113Y-124206000D01*
X127589740Y-123646091D01*
X127272577Y-123171423D01*
X126920242Y-122936000D01*
X127272577Y-122700577D01*
X127589740Y-122225909D01*
X127701113Y-121666000D01*
X127589740Y-121106091D01*
X127272577Y-120631423D01*
X126920242Y-120396000D01*
X127272577Y-120160577D01*
X127589740Y-119685909D01*
X127701113Y-119126000D01*
X127589740Y-118566091D01*
X127272577Y-118091423D01*
X126797909Y-117774260D01*
X126379333Y-117691000D01*
X126096667Y-117691000D01*
X125678091Y-117774260D01*
X125203423Y-118091423D01*
X124886260Y-118566091D01*
X124774887Y-119126000D01*
X120457630Y-119126000D01*
X119209884Y-117878254D01*
X119167371Y-117814629D01*
X118915317Y-117646212D01*
X118693048Y-117602000D01*
X118693043Y-117602000D01*
X118618000Y-117587073D01*
X118542957Y-117602000D01*
X116647630Y-117602000D01*
X115468422Y-116422792D01*
X115468422Y-113498052D01*
X117004060Y-115033691D01*
X117004060Y-115941000D01*
X117072374Y-116284435D01*
X117266914Y-116575586D01*
X117558065Y-116770126D01*
X117901500Y-116838440D01*
X118826500Y-116838440D01*
X119169935Y-116770126D01*
X119461086Y-116575586D01*
X119655626Y-116284435D01*
X119723940Y-115941000D01*
X119723940Y-115601750D01*
X119991500Y-115601750D01*
X119991500Y-116317310D01*
X120088173Y-116550699D01*
X120266802Y-116729327D01*
X120500191Y-116826000D01*
X121053250Y-116826000D01*
X121212000Y-116667250D01*
X121212000Y-115443000D01*
X121466000Y-115443000D01*
X121466000Y-116667250D01*
X121624750Y-116826000D01*
X122177809Y-116826000D01*
X122411198Y-116729327D01*
X122589827Y-116550699D01*
X122686500Y-116317310D01*
X122686500Y-115601750D01*
X122527750Y-115443000D01*
X121466000Y-115443000D01*
X121212000Y-115443000D01*
X120150250Y-115443000D01*
X119991500Y-115601750D01*
X119723940Y-115601750D01*
X119723940Y-114691000D01*
X119696513Y-114553117D01*
X119730630Y-114519000D01*
X119991500Y-114519000D01*
X119991500Y-115030250D01*
X120150250Y-115189000D01*
X121212000Y-115189000D01*
X121212000Y-113964750D01*
X121466000Y-113964750D01*
X121466000Y-115189000D01*
X122527750Y-115189000D01*
X122686500Y-115030250D01*
X122686500Y-114314690D01*
X122589827Y-114081301D01*
X122411198Y-113902673D01*
X122177809Y-113806000D01*
X121624750Y-113806000D01*
X121466000Y-113964750D01*
X121212000Y-113964750D01*
X121053250Y-113806000D01*
X121008535Y-113806000D01*
X121123000Y-113529657D01*
X121123000Y-113038343D01*
X120934982Y-112584429D01*
X120587571Y-112237018D01*
X120133657Y-112049000D01*
X119642343Y-112049000D01*
X119188429Y-112237018D01*
X118841018Y-112584429D01*
X118653000Y-113038343D01*
X118653000Y-113441370D01*
X118300810Y-113793560D01*
X117919191Y-113793560D01*
X115925633Y-111800003D01*
X115925633Y-104607997D01*
X118298631Y-102235000D01*
X120904000Y-102235000D01*
X120904000Y-102849369D01*
X120213975Y-103539395D01*
X120172982Y-103440429D01*
X119825571Y-103093018D01*
X119371657Y-102905000D01*
X118880343Y-102905000D01*
X118426429Y-103093018D01*
X118079018Y-103440429D01*
X117891000Y-103894343D01*
X117891000Y-104385657D01*
X118079018Y-104839571D01*
X118426429Y-105186982D01*
X118525395Y-105227975D01*
X117878251Y-105875119D01*
X117814630Y-105917629D01*
X117799826Y-105939784D01*
X117558065Y-105987874D01*
X117266914Y-106182414D01*
X117072374Y-106473565D01*
X117004060Y-106817000D01*
X117004060Y-108067000D01*
X117072374Y-108410435D01*
X117266914Y-108701586D01*
X117558065Y-108896126D01*
X117901500Y-108964440D01*
X118826500Y-108964440D01*
X119169935Y-108896126D01*
X119461086Y-108701586D01*
X119655626Y-108410435D01*
X119723940Y-108067000D01*
X119723940Y-107727750D01*
X119991500Y-107727750D01*
X119991500Y-108443310D01*
X120088173Y-108676699D01*
X120266802Y-108855327D01*
X120500191Y-108952000D01*
X121053250Y-108952000D01*
X121212000Y-108793250D01*
X121212000Y-107569000D01*
X121466000Y-107569000D01*
X121466000Y-108793250D01*
X121624750Y-108952000D01*
X122177809Y-108952000D01*
X122411198Y-108855327D01*
X122589827Y-108676699D01*
X122686500Y-108443310D01*
X122686500Y-107727750D01*
X122527750Y-107569000D01*
X121466000Y-107569000D01*
X121212000Y-107569000D01*
X120150250Y-107569000D01*
X119991500Y-107727750D01*
X119723940Y-107727750D01*
X119723940Y-106817000D01*
X119655626Y-106473565D01*
X119633660Y-106440690D01*
X119991500Y-106440690D01*
X119991500Y-107156250D01*
X120150250Y-107315000D01*
X121212000Y-107315000D01*
X121212000Y-106090750D01*
X121466000Y-106090750D01*
X121466000Y-107315000D01*
X122527750Y-107315000D01*
X122686500Y-107156250D01*
X122686500Y-106440690D01*
X122589827Y-106207301D01*
X122411198Y-106028673D01*
X122177809Y-105932000D01*
X121624750Y-105932000D01*
X121466000Y-106090750D01*
X121212000Y-106090750D01*
X121053250Y-105932000D01*
X120500191Y-105932000D01*
X120266802Y-106028673D01*
X120088173Y-106207301D01*
X119991500Y-106440690D01*
X119633660Y-106440690D01*
X119567282Y-106341348D01*
X120414750Y-105493881D01*
X120478371Y-105451371D01*
X120520882Y-105387749D01*
X120520884Y-105387746D01*
X122151750Y-103756881D01*
X122215371Y-103714371D01*
X122383788Y-103462317D01*
X122428000Y-103240048D01*
X122428000Y-103240043D01*
X122442927Y-103165000D01*
X122428000Y-103089957D01*
X122428000Y-102235000D01*
X124800945Y-102235000D01*
X124774887Y-102366000D01*
X124886260Y-102925909D01*
X125203423Y-103400577D01*
X125555758Y-103636000D01*
X125203423Y-103871423D01*
X124886260Y-104346091D01*
X124774887Y-104906000D01*
X124886260Y-105465909D01*
X125203423Y-105940577D01*
X125555758Y-106176000D01*
X125203423Y-106411423D01*
X124886260Y-106886091D01*
X124774887Y-107446000D01*
X124886260Y-108005909D01*
X125203423Y-108480577D01*
X125555758Y-108716000D01*
X125203423Y-108951423D01*
X124886260Y-109426091D01*
X124774887Y-109986000D01*
X124886260Y-110545909D01*
X125203423Y-111020577D01*
X125555758Y-111256000D01*
X125203423Y-111491423D01*
X124886260Y-111966091D01*
X124774887Y-112526000D01*
X124886260Y-113085909D01*
X125203423Y-113560577D01*
X125555758Y-113796000D01*
X125203423Y-114031423D01*
X124886260Y-114506091D01*
X124774887Y-115066000D01*
X124886260Y-115625909D01*
X125203423Y-116100577D01*
X125678091Y-116417740D01*
X126096667Y-116501000D01*
X126379333Y-116501000D01*
X126797909Y-116417740D01*
X127272577Y-116100577D01*
X127589740Y-115625909D01*
X127701113Y-115066000D01*
X127589740Y-114506091D01*
X127272577Y-114031423D01*
X126920242Y-113796000D01*
X127272577Y-113560577D01*
X127589740Y-113085909D01*
X127701113Y-112526000D01*
X127589740Y-111966091D01*
X127272577Y-111491423D01*
X126920242Y-111256000D01*
X127272577Y-111020577D01*
X127589740Y-110545909D01*
X127701113Y-109986000D01*
X127589740Y-109426091D01*
X127272577Y-108951423D01*
X126920242Y-108716000D01*
X127272577Y-108480577D01*
X127589740Y-108005909D01*
X127701113Y-107446000D01*
X127589740Y-106886091D01*
X127272577Y-106411423D01*
X126920242Y-106176000D01*
X127272577Y-105940577D01*
X127589740Y-105465909D01*
X127701113Y-104906000D01*
X127589740Y-104346091D01*
X127272577Y-103871423D01*
X126920242Y-103636000D01*
X127272577Y-103400577D01*
X127589740Y-102925909D01*
X127701113Y-102366000D01*
X127675055Y-102235000D01*
X128322000Y-102235000D01*
X128322001Y-137627907D01*
X126959910Y-138990000D01*
X115893920Y-138990000D01*
X115823999Y-138976092D01*
X115754078Y-138990000D01*
X115754074Y-138990000D01*
X115546972Y-139031195D01*
X115312119Y-139188119D01*
X115272509Y-139247400D01*
X112989910Y-141530000D01*
X80812091Y-141530000D01*
X78529494Y-139247404D01*
X78489881Y-139188119D01*
X78255028Y-139031195D01*
X78047926Y-138990000D01*
X78047924Y-138990000D01*
X77978000Y-138976091D01*
X77908076Y-138990000D01*
X75894000Y-138990000D01*
X75894000Y-119126000D01*
X76514887Y-119126000D01*
X76626260Y-119685909D01*
X76943423Y-120160577D01*
X77418091Y-120477740D01*
X77836667Y-120561000D01*
X78119333Y-120561000D01*
X78537909Y-120477740D01*
X79012577Y-120160577D01*
X79329740Y-119685909D01*
X79441113Y-119126000D01*
X79329740Y-118566091D01*
X79012577Y-118091423D01*
X78628892Y-117835053D01*
X78833134Y-117738389D01*
X79209041Y-117323423D01*
X79369904Y-116935039D01*
X79247915Y-116713000D01*
X78105000Y-116713000D01*
X78105000Y-116733000D01*
X77851000Y-116733000D01*
X77851000Y-116713000D01*
X76708085Y-116713000D01*
X76586096Y-116935039D01*
X76746959Y-117323423D01*
X77122866Y-117738389D01*
X77327108Y-117835053D01*
X76943423Y-118091423D01*
X76626260Y-118566091D01*
X76514887Y-119126000D01*
X75894000Y-119126000D01*
X75894000Y-114395039D01*
X76586096Y-114395039D01*
X76746959Y-114783423D01*
X77122866Y-115198389D01*
X77371367Y-115316000D01*
X77122866Y-115433611D01*
X76746959Y-115848577D01*
X76586096Y-116236961D01*
X76708085Y-116459000D01*
X77851000Y-116459000D01*
X77851000Y-114173000D01*
X78105000Y-114173000D01*
X78105000Y-116459000D01*
X79247915Y-116459000D01*
X79369904Y-116236961D01*
X79209041Y-115848577D01*
X78833134Y-115433611D01*
X78584633Y-115316000D01*
X78833134Y-115198389D01*
X79209041Y-114783423D01*
X79369904Y-114395039D01*
X79247915Y-114173000D01*
X78105000Y-114173000D01*
X77851000Y-114173000D01*
X76708085Y-114173000D01*
X76586096Y-114395039D01*
X75894000Y-114395039D01*
X75894000Y-94795050D01*
X77617000Y-94795050D01*
X77617000Y-95544950D01*
X77903974Y-96237767D01*
X78434233Y-96768026D01*
X79127050Y-97055000D01*
X79876950Y-97055000D01*
X80569767Y-96768026D01*
X81100026Y-96237767D01*
X81387000Y-95544950D01*
X81387000Y-94795050D01*
X81100026Y-94102233D01*
X80569767Y-93571974D01*
X79876950Y-93285000D01*
X79127050Y-93285000D01*
X78434233Y-93571974D01*
X77903974Y-94102233D01*
X77617000Y-94795050D01*
X75894000Y-94795050D01*
X75894000Y-80509745D01*
X78205861Y-80509745D01*
X78279995Y-80755864D01*
X78817223Y-80948965D01*
X79387454Y-80921778D01*
X79788005Y-80755864D01*
X79862139Y-80509745D01*
X79034000Y-79681605D01*
X78205861Y-80509745D01*
X75894000Y-80509745D01*
X75894000Y-79285223D01*
X77587035Y-79285223D01*
X77614222Y-79855454D01*
X77780136Y-80256005D01*
X78026255Y-80330139D01*
X78854395Y-79502000D01*
X79213605Y-79502000D01*
X80041745Y-80330139D01*
X80089307Y-80315813D01*
X80135843Y-80549765D01*
X80149000Y-80569456D01*
X80149001Y-81665589D01*
X80121867Y-81802000D01*
X80229359Y-82342399D01*
X80229360Y-82342400D01*
X80535472Y-82800529D01*
X80651112Y-82877797D01*
X83959000Y-86185686D01*
X83959001Y-92467010D01*
X83931867Y-92603422D01*
X84039359Y-93143821D01*
X84173783Y-93345000D01*
X84345472Y-93601951D01*
X84461112Y-93679219D01*
X87499688Y-96717796D01*
X87707977Y-97029523D01*
X88233089Y-97380391D01*
X88696150Y-97472500D01*
X89103850Y-97472500D01*
X89566911Y-97380391D01*
X90092023Y-97029523D01*
X90442891Y-96504411D01*
X90566100Y-95885000D01*
X90442891Y-95265589D01*
X90092023Y-94740477D01*
X89904233Y-94615000D01*
X90092023Y-94489523D01*
X90442891Y-93964411D01*
X90566100Y-93345000D01*
X90442891Y-92725589D01*
X90180912Y-92333509D01*
X90357809Y-92215309D01*
X90498157Y-92005265D01*
X90547440Y-91757500D01*
X90547440Y-89852500D01*
X90498157Y-89604735D01*
X90357809Y-89394691D01*
X90147765Y-89254343D01*
X89900000Y-89205060D01*
X87900000Y-89205060D01*
X87652235Y-89254343D01*
X87442191Y-89394691D01*
X87301843Y-89604735D01*
X87252560Y-89852500D01*
X87252560Y-91757500D01*
X87301843Y-92005265D01*
X87442191Y-92215309D01*
X87619088Y-92333509D01*
X87384243Y-92684980D01*
X86729000Y-92029737D01*
X86729000Y-85748407D01*
X86756133Y-85612000D01*
X86648641Y-85071600D01*
X86419797Y-84729111D01*
X86419795Y-84729109D01*
X86342528Y-84613471D01*
X86226890Y-84536204D01*
X82919000Y-81228315D01*
X82919000Y-80569456D01*
X82932157Y-80549765D01*
X82981440Y-80302000D01*
X82981440Y-78702000D01*
X82932157Y-78454235D01*
X82791809Y-78244191D01*
X82581765Y-78103843D01*
X82334000Y-78054560D01*
X80734000Y-78054560D01*
X80486235Y-78103843D01*
X80276191Y-78244191D01*
X80135843Y-78454235D01*
X80089307Y-78688187D01*
X80041745Y-78673861D01*
X79213605Y-79502000D01*
X78854395Y-79502000D01*
X78026255Y-78673861D01*
X77780136Y-78747995D01*
X77587035Y-79285223D01*
X75894000Y-79285223D01*
X75894000Y-78494255D01*
X78205861Y-78494255D01*
X79034000Y-79322395D01*
X79862139Y-78494255D01*
X79788005Y-78248136D01*
X79250777Y-78055035D01*
X78680546Y-78082222D01*
X78279995Y-78248136D01*
X78205861Y-78494255D01*
X75894000Y-78494255D01*
X75894000Y-75231877D01*
X88567868Y-75231877D01*
X88766677Y-75627604D01*
X89101791Y-75917127D01*
X89360126Y-76024119D01*
X89535000Y-75897954D01*
X89535000Y-75057000D01*
X88692865Y-75057000D01*
X88567868Y-75231877D01*
X75894000Y-75231877D01*
X75894000Y-73862000D01*
X89297061Y-73862000D01*
X89101791Y-73942873D01*
X89101791Y-73942873D01*
G37*
X89101791Y-73942873D02*
X88766677Y-74232396D01*
X88567868Y-74628123D01*
X88692865Y-74803000D01*
X89535000Y-74803000D01*
X89535000Y-74783000D01*
X89789000Y-74783000D01*
X89789000Y-74803000D01*
X89800027Y-74803000D01*
X89774765Y-74930000D01*
X89800027Y-75057000D01*
X89789000Y-75057000D01*
X89789000Y-75897954D01*
X89963874Y-76024119D01*
X90170001Y-75938750D01*
X90170000Y-77394957D01*
X90155073Y-77470000D01*
X90170000Y-77545043D01*
X90170000Y-77545047D01*
X90214212Y-77767316D01*
X90382629Y-78019371D01*
X90446253Y-78061883D01*
X91440001Y-79055632D01*
X91440000Y-96458369D01*
X89854370Y-98044000D01*
X82371042Y-98044000D01*
X82295999Y-98029073D01*
X82220956Y-98044000D01*
X82220952Y-98044000D01*
X81998683Y-98088212D01*
X81998682Y-98088213D01*
X81998681Y-98088213D01*
X81810251Y-98214118D01*
X81746629Y-98256629D01*
X81704118Y-98320251D01*
X79524251Y-100500119D01*
X79460630Y-100542629D01*
X79425440Y-100595295D01*
X79425440Y-100546000D01*
X79376157Y-100298235D01*
X79235809Y-100088191D01*
X79025765Y-99947843D01*
X78778000Y-99898560D01*
X77178000Y-99898560D01*
X76930235Y-99947843D01*
X76720191Y-100088191D01*
X76579843Y-100298235D01*
X76530560Y-100546000D01*
X76530560Y-102146000D01*
X76579843Y-102393765D01*
X76720191Y-102603809D01*
X76930235Y-102744157D01*
X77064106Y-102770785D01*
X76943423Y-102851423D01*
X76626260Y-103326091D01*
X76514887Y-103886000D01*
X76626260Y-104445909D01*
X76943423Y-104920577D01*
X77295758Y-105156000D01*
X76943423Y-105391423D01*
X76626260Y-105866091D01*
X76514887Y-106426000D01*
X76626260Y-106985909D01*
X76943423Y-107460577D01*
X77295758Y-107696000D01*
X76943423Y-107931423D01*
X76626260Y-108406091D01*
X76514887Y-108966000D01*
X76626260Y-109525909D01*
X76943423Y-110000577D01*
X77295758Y-110236000D01*
X76943423Y-110471423D01*
X76626260Y-110946091D01*
X76514887Y-111506000D01*
X76626260Y-112065909D01*
X76943423Y-112540577D01*
X77327108Y-112796947D01*
X77122866Y-112893611D01*
X76746959Y-113308577D01*
X76586096Y-113696961D01*
X76708085Y-113919000D01*
X77851000Y-113919000D01*
X77851000Y-113899000D01*
X78105000Y-113899000D01*
X78105000Y-113919000D01*
X79247915Y-113919000D01*
X79369904Y-113696961D01*
X79209041Y-113308577D01*
X78833134Y-112893611D01*
X78628892Y-112796947D01*
X79012577Y-112540577D01*
X79329740Y-112065909D01*
X79441113Y-111506000D01*
X79377157Y-111184473D01*
X80495750Y-110065881D01*
X80559371Y-110023371D01*
X80727788Y-109771317D01*
X80772000Y-109549048D01*
X80772000Y-109549043D01*
X80772001Y-109549040D01*
X80772000Y-127954369D01*
X79440990Y-129285380D01*
X79329740Y-128726091D01*
X79012577Y-128251423D01*
X78660242Y-128016000D01*
X79012577Y-127780577D01*
X79329740Y-127305909D01*
X79441113Y-126746000D01*
X79329740Y-126186091D01*
X79012577Y-125711423D01*
X78660242Y-125476000D01*
X79012577Y-125240577D01*
X79329740Y-124765909D01*
X79441113Y-124206000D01*
X79329740Y-123646091D01*
X79012577Y-123171423D01*
X78537909Y-122854260D01*
X78119333Y-122771000D01*
X77836667Y-122771000D01*
X77418091Y-122854260D01*
X76943423Y-123171423D01*
X76626260Y-123646091D01*
X76514887Y-124206000D01*
X76626260Y-124765909D01*
X76943423Y-125240577D01*
X77295758Y-125476000D01*
X76943423Y-125711423D01*
X76626260Y-126186091D01*
X76514887Y-126746000D01*
X76626260Y-127305909D01*
X76943423Y-127780577D01*
X77295758Y-128016000D01*
X76943423Y-128251423D01*
X76626260Y-128726091D01*
X76514887Y-129286000D01*
X76626260Y-129845909D01*
X76943423Y-130320577D01*
X77295758Y-130556000D01*
X76943423Y-130791423D01*
X76626260Y-131266091D01*
X76514887Y-131826000D01*
X76626260Y-132385909D01*
X76943423Y-132860577D01*
X77295758Y-133096000D01*
X76943423Y-133331423D01*
X76626260Y-133806091D01*
X76514887Y-134366000D01*
X76626260Y-134925909D01*
X76943423Y-135400577D01*
X77295758Y-135636000D01*
X76943423Y-135871423D01*
X76626260Y-136346091D01*
X76514887Y-136906000D01*
X76626260Y-137465909D01*
X76943423Y-137940577D01*
X77418091Y-138257740D01*
X77836667Y-138341000D01*
X78119333Y-138341000D01*
X78537909Y-138257740D01*
X79012577Y-137940577D01*
X79329740Y-137465909D01*
X79441113Y-136906000D01*
X79329740Y-136346091D01*
X79012577Y-135871423D01*
X78660242Y-135636000D01*
X79012577Y-135400577D01*
X79329740Y-134925909D01*
X79441113Y-134366000D01*
X79329740Y-133806091D01*
X79012577Y-133331423D01*
X78660242Y-133096000D01*
X79012577Y-132860577D01*
X79329740Y-132385909D01*
X79441113Y-131826000D01*
X79377157Y-131504473D01*
X82019750Y-128861881D01*
X82083371Y-128819371D01*
X82145699Y-128726091D01*
X82251787Y-128567319D01*
X82251787Y-128567318D01*
X82251788Y-128567317D01*
X82296000Y-128345048D01*
X82296000Y-128345044D01*
X82310927Y-128270001D01*
X82296000Y-128194958D01*
X82296000Y-106680000D01*
X84845908Y-106680000D01*
X84961161Y-107259418D01*
X85289375Y-107750625D01*
X85587761Y-107950000D01*
X85289375Y-108149375D01*
X84961161Y-108640582D01*
X84845908Y-109220000D01*
X84961161Y-109799418D01*
X85289375Y-110290625D01*
X85587761Y-110490000D01*
X85289375Y-110689375D01*
X84961161Y-111180582D01*
X84845908Y-111760000D01*
X84961161Y-112339418D01*
X85289375Y-112830625D01*
X85587761Y-113030000D01*
X85289375Y-113229375D01*
X84961161Y-113720582D01*
X84845908Y-114300000D01*
X84961161Y-114879418D01*
X85289375Y-115370625D01*
X85587761Y-115570000D01*
X85289375Y-115769375D01*
X84961161Y-116260582D01*
X84845908Y-116840000D01*
X84961161Y-117419418D01*
X85289375Y-117910625D01*
X85587761Y-118110000D01*
X85289375Y-118309375D01*
X84961161Y-118800582D01*
X84845908Y-119380000D01*
X84961161Y-119959418D01*
X85289375Y-120450625D01*
X85587761Y-120650000D01*
X85289375Y-120849375D01*
X84961161Y-121340582D01*
X84845908Y-121920000D01*
X84961161Y-122499418D01*
X85289375Y-122990625D01*
X85587761Y-123190000D01*
X85289375Y-123389375D01*
X84961161Y-123880582D01*
X84845908Y-124460000D01*
X84961161Y-125039418D01*
X85289375Y-125530625D01*
X85587761Y-125730000D01*
X85289375Y-125929375D01*
X84961161Y-126420582D01*
X84845908Y-127000000D01*
X84961161Y-127579418D01*
X85289375Y-128070625D01*
X85587761Y-128270000D01*
X85289375Y-128469375D01*
X84961161Y-128960582D01*
X84845908Y-129540000D01*
X84961161Y-130119418D01*
X85289375Y-130610625D01*
X85587761Y-130810000D01*
X85289375Y-131009375D01*
X84961161Y-131500582D01*
X84845908Y-132080000D01*
X84961161Y-132659418D01*
X85289375Y-133150625D01*
X85587761Y-133350000D01*
X85289375Y-133549375D01*
X84961161Y-134040582D01*
X84845908Y-134620000D01*
X84961161Y-135199418D01*
X85289375Y-135690625D01*
X85780582Y-136018839D01*
X86213744Y-136105000D01*
X86506256Y-136105000D01*
X86939418Y-136018839D01*
X87430625Y-135690625D01*
X87442816Y-135672381D01*
X87451843Y-135717765D01*
X87592191Y-135927809D01*
X87802235Y-136068157D01*
X88050000Y-136117440D01*
X89750000Y-136117440D01*
X89997765Y-136068157D01*
X90207809Y-135927809D01*
X90348157Y-135717765D01*
X90397440Y-135470000D01*
X90397440Y-133770000D01*
X90348157Y-133522235D01*
X90207809Y-133312191D01*
X89997765Y-133171843D01*
X89952381Y-133162816D01*
X89970625Y-133150625D01*
X90298839Y-132659418D01*
X90414092Y-132080000D01*
X90298839Y-131500582D01*
X89970625Y-131009375D01*
X89672239Y-130810000D01*
X89970625Y-130610625D01*
X90298839Y-130119418D01*
X90414092Y-129540000D01*
X90298839Y-128960582D01*
X89970625Y-128469375D01*
X89672239Y-128270000D01*
X89970625Y-128070625D01*
X90298839Y-127579418D01*
X90414092Y-127000000D01*
X90298839Y-126420582D01*
X89970625Y-125929375D01*
X89672239Y-125730000D01*
X89970625Y-125530625D01*
X90298839Y-125039418D01*
X90414092Y-124460000D01*
X90298839Y-123880582D01*
X89970625Y-123389375D01*
X89672239Y-123190000D01*
X89970625Y-122990625D01*
X90298839Y-122499418D01*
X90414092Y-121920000D01*
X90298839Y-121340582D01*
X89970625Y-120849375D01*
X89672239Y-120650000D01*
X89970625Y-120450625D01*
X90298839Y-119959418D01*
X90414092Y-119380000D01*
X90298839Y-118800582D01*
X89970625Y-118309375D01*
X89672239Y-118110000D01*
X89970625Y-117910625D01*
X90298839Y-117419418D01*
X90414092Y-116840000D01*
X90298839Y-116260582D01*
X89970625Y-115769375D01*
X89672239Y-115570000D01*
X89970625Y-115370625D01*
X90298839Y-114879418D01*
X90414092Y-114300000D01*
X90298839Y-113720582D01*
X89970625Y-113229375D01*
X89672239Y-113030000D01*
X89970625Y-112830625D01*
X90298839Y-112339418D01*
X90414092Y-111760000D01*
X90298839Y-111180582D01*
X89970625Y-110689375D01*
X89672239Y-110490000D01*
X89970625Y-110290625D01*
X90298839Y-109799418D01*
X90414092Y-109220000D01*
X90298839Y-108640582D01*
X89970625Y-108149375D01*
X89672239Y-107950000D01*
X89970625Y-107750625D01*
X90298839Y-107259418D01*
X90414092Y-106680000D01*
X90298839Y-106100582D01*
X89970625Y-105609375D01*
X89479418Y-105281161D01*
X89046256Y-105195000D01*
X88753744Y-105195000D01*
X88320582Y-105281161D01*
X87829375Y-105609375D01*
X87630000Y-105907761D01*
X87430625Y-105609375D01*
X86939418Y-105281161D01*
X86506256Y-105195000D01*
X86213744Y-105195000D01*
X85780582Y-105281161D01*
X85289375Y-105609375D01*
X84961161Y-106100582D01*
X84845908Y-106680000D01*
X82296000Y-106680000D01*
X82296000Y-101915630D01*
X83627631Y-100584000D01*
X94920957Y-100584000D01*
X94996000Y-100598927D01*
X95071043Y-100584000D01*
X95071048Y-100584000D01*
X95277739Y-100542887D01*
X92071829Y-103748797D01*
X92008208Y-103791307D01*
X91965697Y-103854929D01*
X91965696Y-103854930D01*
X91839791Y-104043361D01*
X91780651Y-104340678D01*
X91795579Y-104415726D01*
X91795578Y-131852535D01*
X91780651Y-131927578D01*
X91795578Y-132002621D01*
X91795578Y-132002625D01*
X91839790Y-132224894D01*
X92008207Y-132476949D01*
X92071831Y-132519461D01*
X93642118Y-134089749D01*
X93684629Y-134153371D01*
X93936683Y-134321788D01*
X94158952Y-134366000D01*
X94158953Y-134366000D01*
X94234000Y-134380928D01*
X94309047Y-134366000D01*
X95221000Y-134366000D01*
X95205414Y-134376414D01*
X95010874Y-134667565D01*
X94942560Y-135011000D01*
X94942560Y-136261000D01*
X95010874Y-136604435D01*
X95205414Y-136895586D01*
X95496565Y-137090126D01*
X95840000Y-137158440D01*
X96765000Y-137158440D01*
X97108435Y-137090126D01*
X97399586Y-136895586D01*
X97594126Y-136604435D01*
X97662440Y-136261000D01*
X97662440Y-135921750D01*
X97930000Y-135921750D01*
X97930000Y-136637310D01*
X98026673Y-136870699D01*
X98205302Y-137049327D01*
X98438691Y-137146000D01*
X98991750Y-137146000D01*
X99150500Y-136987250D01*
X99150500Y-135763000D01*
X99404500Y-135763000D01*
X99404500Y-136987250D01*
X99563250Y-137146000D01*
X100116309Y-137146000D01*
X100349698Y-137049327D01*
X100528327Y-136870699D01*
X100625000Y-136637310D01*
X100625000Y-135921750D01*
X100466250Y-135763000D01*
X99404500Y-135763000D01*
X99150500Y-135763000D01*
X98088750Y-135763000D01*
X97930000Y-135921750D01*
X97662440Y-135921750D01*
X97662440Y-135011000D01*
X97620571Y-134800513D01*
X97930000Y-134672343D01*
X97930000Y-135350250D01*
X98088750Y-135509000D01*
X99150500Y-135509000D01*
X99150500Y-134284750D01*
X99404500Y-134284750D01*
X99404500Y-135509000D01*
X100466250Y-135509000D01*
X100625000Y-135350250D01*
X100625000Y-134634690D01*
X100528327Y-134401301D01*
X100349698Y-134222673D01*
X100116309Y-134126000D01*
X99563250Y-134126000D01*
X99404500Y-134284750D01*
X99150500Y-134284750D01*
X98991750Y-134126000D01*
X98438691Y-134126000D01*
X98395046Y-134144078D01*
X98517000Y-133849657D01*
X98517000Y-133358343D01*
X98328982Y-132904429D01*
X97981571Y-132557018D01*
X97527657Y-132369000D01*
X97036343Y-132369000D01*
X96582429Y-132557018D01*
X96297447Y-132842000D01*
X94549631Y-132842000D01*
X93319578Y-131611948D01*
X93319578Y-125058209D01*
X93715118Y-125453749D01*
X93757629Y-125517371D01*
X93821251Y-125559882D01*
X94009681Y-125685787D01*
X94009682Y-125685787D01*
X94009683Y-125685788D01*
X94231952Y-125730000D01*
X94231956Y-125730000D01*
X94306999Y-125744927D01*
X94382042Y-125730000D01*
X95257500Y-125730000D01*
X95241914Y-125740414D01*
X95047374Y-126031565D01*
X94979060Y-126375000D01*
X94979060Y-127625000D01*
X95047374Y-127968435D01*
X95241914Y-128259586D01*
X95533065Y-128454126D01*
X95876500Y-128522440D01*
X96801500Y-128522440D01*
X97144935Y-128454126D01*
X97436086Y-128259586D01*
X97630626Y-127968435D01*
X97698940Y-127625000D01*
X97698940Y-127285750D01*
X97966500Y-127285750D01*
X97966500Y-128001310D01*
X98063173Y-128234699D01*
X98241802Y-128413327D01*
X98475191Y-128510000D01*
X99028250Y-128510000D01*
X99187000Y-128351250D01*
X99187000Y-127127000D01*
X99441000Y-127127000D01*
X99441000Y-128351250D01*
X99599750Y-128510000D01*
X100152809Y-128510000D01*
X100386198Y-128413327D01*
X100564827Y-128234699D01*
X100661500Y-128001310D01*
X100661500Y-127285750D01*
X100502750Y-127127000D01*
X99441000Y-127127000D01*
X99187000Y-127127000D01*
X98125250Y-127127000D01*
X97966500Y-127285750D01*
X97698940Y-127285750D01*
X97698940Y-126717691D01*
X97966500Y-126450131D01*
X97966500Y-126714250D01*
X98125250Y-126873000D01*
X99187000Y-126873000D01*
X99187000Y-125648750D01*
X99441000Y-125648750D01*
X99441000Y-126873000D01*
X100502750Y-126873000D01*
X100661500Y-126714250D01*
X100661500Y-125998690D01*
X100564827Y-125765301D01*
X100386198Y-125586673D01*
X100152809Y-125490000D01*
X99599750Y-125490000D01*
X99441000Y-125648750D01*
X99187000Y-125648750D01*
X99028250Y-125490000D01*
X98910535Y-125490000D01*
X99025000Y-125213657D01*
X99025000Y-124722343D01*
X98836982Y-124268429D01*
X98489571Y-123921018D01*
X98035657Y-123733000D01*
X97544343Y-123733000D01*
X97090429Y-123921018D01*
X96805447Y-124206000D01*
X94622631Y-124206000D01*
X93776789Y-123360159D01*
X93776789Y-113142419D01*
X96301000Y-115666631D01*
X96301000Y-116069657D01*
X96410313Y-116333560D01*
X95840000Y-116333560D01*
X95496565Y-116401874D01*
X95205414Y-116596414D01*
X95010874Y-116887565D01*
X94942560Y-117231000D01*
X94942560Y-118481000D01*
X95010874Y-118824435D01*
X95205414Y-119115586D01*
X95496565Y-119310126D01*
X95840000Y-119378440D01*
X96765000Y-119378440D01*
X97108435Y-119310126D01*
X97399586Y-119115586D01*
X97594126Y-118824435D01*
X97662440Y-118481000D01*
X97662440Y-118141750D01*
X97930000Y-118141750D01*
X97930000Y-118857310D01*
X98026673Y-119090699D01*
X98205302Y-119269327D01*
X98438691Y-119366000D01*
X98991750Y-119366000D01*
X99150500Y-119207250D01*
X99150500Y-117983000D01*
X99404500Y-117983000D01*
X99404500Y-119207250D01*
X99563250Y-119366000D01*
X100116309Y-119366000D01*
X100349698Y-119269327D01*
X100528327Y-119090699D01*
X100625000Y-118857310D01*
X100625000Y-118141750D01*
X100466250Y-117983000D01*
X99404500Y-117983000D01*
X99150500Y-117983000D01*
X98088750Y-117983000D01*
X97930000Y-118141750D01*
X97662440Y-118141750D01*
X97662440Y-117573691D01*
X97930000Y-117306131D01*
X97930000Y-117570250D01*
X98088750Y-117729000D01*
X99150500Y-117729000D01*
X99150500Y-116504750D01*
X99404500Y-116504750D01*
X99404500Y-117729000D01*
X100466250Y-117729000D01*
X100625000Y-117570250D01*
X100625000Y-116854690D01*
X100528327Y-116621301D01*
X100349698Y-116442673D01*
X100116309Y-116346000D01*
X99563250Y-116346000D01*
X99404500Y-116504750D01*
X99150500Y-116504750D01*
X98991750Y-116346000D01*
X98656535Y-116346000D01*
X98771000Y-116069657D01*
X98771000Y-115578343D01*
X98582982Y-115124429D01*
X98235571Y-114777018D01*
X97781657Y-114589000D01*
X97378631Y-114589000D01*
X94234000Y-111444370D01*
X94234000Y-106823114D01*
X95540501Y-105516613D01*
X95540501Y-105912946D01*
X95219018Y-106234429D01*
X95031000Y-106688343D01*
X95031000Y-107179657D01*
X95219018Y-107633571D01*
X95409497Y-107824050D01*
X95205414Y-107960414D01*
X95010874Y-108251565D01*
X94942560Y-108595000D01*
X94942560Y-109845000D01*
X95010874Y-110188435D01*
X95205414Y-110479586D01*
X95496565Y-110674126D01*
X95840000Y-110742440D01*
X96765000Y-110742440D01*
X97108435Y-110674126D01*
X97399586Y-110479586D01*
X97594126Y-110188435D01*
X97662440Y-109845000D01*
X97662440Y-109505750D01*
X97930000Y-109505750D01*
X97930000Y-110221310D01*
X98026673Y-110454699D01*
X98205302Y-110633327D01*
X98438691Y-110730000D01*
X98991750Y-110730000D01*
X99150500Y-110571250D01*
X99150500Y-109347000D01*
X99404500Y-109347000D01*
X99404500Y-110571250D01*
X99563250Y-110730000D01*
X100116309Y-110730000D01*
X100349698Y-110633327D01*
X100528327Y-110454699D01*
X100625000Y-110221310D01*
X100625000Y-109505750D01*
X100466250Y-109347000D01*
X99404500Y-109347000D01*
X99150500Y-109347000D01*
X98088750Y-109347000D01*
X97930000Y-109505750D01*
X97662440Y-109505750D01*
X97662440Y-108595000D01*
X97594126Y-108251565D01*
X97572160Y-108218690D01*
X97930000Y-108218690D01*
X97930000Y-108934250D01*
X98088750Y-109093000D01*
X99150500Y-109093000D01*
X99150500Y-107868750D01*
X99404500Y-107868750D01*
X99404500Y-109093000D01*
X100466250Y-109093000D01*
X100625000Y-108934250D01*
X100625000Y-108218690D01*
X100528327Y-107985301D01*
X100349698Y-107806673D01*
X100116309Y-107710000D01*
X99563250Y-107710000D01*
X99404500Y-107868750D01*
X99150500Y-107868750D01*
X98991750Y-107710000D01*
X98438691Y-107710000D01*
X98205302Y-107806673D01*
X98026673Y-107985301D01*
X97930000Y-108218690D01*
X97572160Y-108218690D01*
X97399586Y-107960414D01*
X97151742Y-107794811D01*
X97312982Y-107633571D01*
X97501000Y-107179657D01*
X97501000Y-106688343D01*
X97312982Y-106234429D01*
X97064500Y-105985947D01*
X97064500Y-105308130D01*
X100137630Y-102235000D01*
X106045001Y-102235000D01*
X106045001Y-103050775D01*
X101927042Y-107168735D01*
X101863418Y-107211247D01*
X101695001Y-107463302D01*
X101650789Y-107685571D01*
X101650789Y-107685575D01*
X101635862Y-107760618D01*
X101650789Y-107835661D01*
X101650790Y-122076741D01*
X101635862Y-122151789D01*
X101650790Y-122226837D01*
X101695002Y-122449106D01*
X101863419Y-122701160D01*
X101927040Y-122743670D01*
X104129118Y-124945749D01*
X104171629Y-125009371D01*
X104235251Y-125051882D01*
X104423681Y-125177787D01*
X104423682Y-125177787D01*
X104423683Y-125177788D01*
X104645952Y-125222000D01*
X104645956Y-125222000D01*
X104720999Y-125236927D01*
X104796042Y-125222000D01*
X106520075Y-125222000D01*
X106499000Y-125327953D01*
X106499000Y-125327957D01*
X106484073Y-125403000D01*
X106499000Y-125478044D01*
X106499000Y-125537135D01*
X106455065Y-125545874D01*
X106163914Y-125740414D01*
X105969374Y-126031565D01*
X105901060Y-126375000D01*
X105901060Y-127625000D01*
X105969374Y-127968435D01*
X106163914Y-128259586D01*
X106455065Y-128454126D01*
X106798500Y-128522440D01*
X107723500Y-128522440D01*
X108066935Y-128454126D01*
X108358086Y-128259586D01*
X108552626Y-127968435D01*
X108620940Y-127625000D01*
X108620940Y-127285750D01*
X108888500Y-127285750D01*
X108888500Y-128001310D01*
X108985173Y-128234699D01*
X109163802Y-128413327D01*
X109397191Y-128510000D01*
X109950250Y-128510000D01*
X110109000Y-128351250D01*
X110109000Y-127127000D01*
X110363000Y-127127000D01*
X110363000Y-128351250D01*
X110521750Y-128510000D01*
X111074809Y-128510000D01*
X111308198Y-128413327D01*
X111486827Y-128234699D01*
X111583500Y-128001310D01*
X111583500Y-127285750D01*
X111424750Y-127127000D01*
X110363000Y-127127000D01*
X110109000Y-127127000D01*
X109047250Y-127127000D01*
X108888500Y-127285750D01*
X108620940Y-127285750D01*
X108620940Y-126375000D01*
X108552626Y-126031565D01*
X108530660Y-125998690D01*
X108888500Y-125998690D01*
X108888500Y-126714250D01*
X109047250Y-126873000D01*
X110109000Y-126873000D01*
X110109000Y-125648750D01*
X110363000Y-125648750D01*
X110363000Y-126873000D01*
X111424750Y-126873000D01*
X111583500Y-126714250D01*
X111583500Y-125998690D01*
X111486827Y-125765301D01*
X111308198Y-125586673D01*
X111074809Y-125490000D01*
X110521750Y-125490000D01*
X110363000Y-125648750D01*
X110109000Y-125648750D01*
X109950250Y-125490000D01*
X109397191Y-125490000D01*
X109163802Y-125586673D01*
X108985173Y-125765301D01*
X108888500Y-125998690D01*
X108530660Y-125998690D01*
X108358086Y-125740414D01*
X108290119Y-125695000D01*
X108449657Y-125695000D01*
X108903571Y-125506982D01*
X109250982Y-125159571D01*
X109439000Y-124705657D01*
X109439000Y-124214343D01*
X109250982Y-123760429D01*
X108903571Y-123413018D01*
X108449657Y-123225000D01*
X107958343Y-123225000D01*
X107504429Y-123413018D01*
X107219447Y-123698000D01*
X105036631Y-123698000D01*
X103174789Y-121836159D01*
X103174789Y-116434950D01*
X103334683Y-116541788D01*
X103556952Y-116586000D01*
X103556953Y-116586000D01*
X103632000Y-116600928D01*
X103707047Y-116586000D01*
X107380369Y-116586000D01*
X107378809Y-116587560D01*
X106471500Y-116587560D01*
X106128065Y-116655874D01*
X105836914Y-116850414D01*
X105642374Y-117141565D01*
X105574060Y-117485000D01*
X105574060Y-118735000D01*
X105642374Y-119078435D01*
X105836914Y-119369586D01*
X106128065Y-119564126D01*
X106471500Y-119632440D01*
X107396500Y-119632440D01*
X107739935Y-119564126D01*
X108031086Y-119369586D01*
X108225626Y-119078435D01*
X108293940Y-118735000D01*
X108293940Y-118395750D01*
X108561500Y-118395750D01*
X108561500Y-119111310D01*
X108658173Y-119344699D01*
X108836802Y-119523327D01*
X109070191Y-119620000D01*
X109623250Y-119620000D01*
X109782000Y-119461250D01*
X109782000Y-118237000D01*
X110036000Y-118237000D01*
X110036000Y-119461250D01*
X110194750Y-119620000D01*
X110747809Y-119620000D01*
X110981198Y-119523327D01*
X111159827Y-119344699D01*
X111256500Y-119111310D01*
X111256500Y-118395750D01*
X111097750Y-118237000D01*
X110036000Y-118237000D01*
X109782000Y-118237000D01*
X108720250Y-118237000D01*
X108561500Y-118395750D01*
X108293940Y-118395750D01*
X108293940Y-117827690D01*
X108561500Y-117560131D01*
X108561500Y-117824250D01*
X108720250Y-117983000D01*
X109782000Y-117983000D01*
X109782000Y-116758750D01*
X110036000Y-116758750D01*
X110036000Y-117983000D01*
X111097750Y-117983000D01*
X111256500Y-117824250D01*
X111256500Y-117108690D01*
X111159827Y-116875301D01*
X110981198Y-116696673D01*
X110747809Y-116600000D01*
X110194750Y-116600000D01*
X110036000Y-116758750D01*
X109782000Y-116758750D01*
X109652902Y-116629652D01*
X109758982Y-116523571D01*
X109947000Y-116069657D01*
X109947000Y-115578343D01*
X109758982Y-115124429D01*
X109411571Y-114777018D01*
X108957657Y-114589000D01*
X108466343Y-114589000D01*
X108012429Y-114777018D01*
X107727447Y-115062000D01*
X103947631Y-115062000D01*
X103632000Y-114746370D01*
X103632000Y-108265630D01*
X106627675Y-105269956D01*
X106461000Y-105672343D01*
X106461000Y-106075370D01*
X106448253Y-106088117D01*
X106384629Y-106130629D01*
X106216212Y-106382684D01*
X106172000Y-106604953D01*
X106172000Y-106604957D01*
X106157073Y-106680000D01*
X106172000Y-106755043D01*
X106172000Y-107757135D01*
X106128065Y-107765874D01*
X105836914Y-107960414D01*
X105642374Y-108251565D01*
X105574060Y-108595000D01*
X105574060Y-109845000D01*
X105642374Y-110188435D01*
X105836914Y-110479586D01*
X106128065Y-110674126D01*
X106471500Y-110742440D01*
X107396500Y-110742440D01*
X107739935Y-110674126D01*
X108031086Y-110479586D01*
X108225626Y-110188435D01*
X108293940Y-109845000D01*
X108293940Y-109505750D01*
X108561500Y-109505750D01*
X108561500Y-110221310D01*
X108658173Y-110454699D01*
X108836802Y-110633327D01*
X109070191Y-110730000D01*
X109623250Y-110730000D01*
X109782000Y-110571250D01*
X109782000Y-109347000D01*
X110036000Y-109347000D01*
X110036000Y-110571250D01*
X110194750Y-110730000D01*
X110747809Y-110730000D01*
X110981198Y-110633327D01*
X111159827Y-110454699D01*
X111256500Y-110221310D01*
X111256500Y-109505750D01*
X111097750Y-109347000D01*
X110036000Y-109347000D01*
X109782000Y-109347000D01*
X108720250Y-109347000D01*
X108561500Y-109505750D01*
X108293940Y-109505750D01*
X108293940Y-108595000D01*
X108225626Y-108251565D01*
X108203660Y-108218690D01*
X108561500Y-108218690D01*
X108561500Y-108934250D01*
X108720250Y-109093000D01*
X109782000Y-109093000D01*
X109782000Y-107868750D01*
X110036000Y-107868750D01*
X110036000Y-109093000D01*
X111097750Y-109093000D01*
X111256500Y-108934250D01*
X111256500Y-108218690D01*
X111159827Y-107985301D01*
X110981198Y-107806673D01*
X110747809Y-107710000D01*
X110194750Y-107710000D01*
X110036000Y-107868750D01*
X109782000Y-107868750D01*
X109623250Y-107710000D01*
X109070191Y-107710000D01*
X108836802Y-107806673D01*
X108658173Y-107985301D01*
X108561500Y-108218690D01*
X108203660Y-108218690D01*
X108031086Y-107960414D01*
X107739935Y-107765874D01*
X107696000Y-107757135D01*
X107696000Y-107153000D01*
X107941657Y-107153000D01*
X108395571Y-106964982D01*
X108742982Y-106617571D01*
X108931000Y-106163657D01*
X108931000Y-105760631D01*
X108943750Y-105747881D01*
X109007371Y-105705371D01*
X109071514Y-105609375D01*
X109175787Y-105453318D01*
X109175788Y-105453317D01*
X109220000Y-105231048D01*
X109220000Y-105231047D01*
X109234928Y-105156000D01*
X109220000Y-105080953D01*
X109220000Y-102235000D01*
X113030001Y-102235000D01*
X113030000Y-129043369D01*
X109231370Y-132842000D01*
X108934553Y-132842000D01*
X108649571Y-132557018D01*
X108195657Y-132369000D01*
X107704343Y-132369000D01*
X107250429Y-132557018D01*
X106903018Y-132904429D01*
X106715000Y-133358343D01*
X106715000Y-133761370D01*
X106702253Y-133774117D01*
X106638629Y-133816629D01*
X106470212Y-134068684D01*
X106426000Y-134290953D01*
X106426000Y-134290957D01*
X106411073Y-134366000D01*
X106426000Y-134441044D01*
X106426000Y-134455294D01*
X106163914Y-134630414D01*
X105969374Y-134921565D01*
X105901060Y-135265000D01*
X105901060Y-136515000D01*
X105969374Y-136858435D01*
X106163914Y-137149586D01*
X106455065Y-137344126D01*
X106798500Y-137412440D01*
X107723500Y-137412440D01*
X108066935Y-137344126D01*
X108358086Y-137149586D01*
X108552626Y-136858435D01*
X108620940Y-136515000D01*
X108620940Y-136175750D01*
X108888500Y-136175750D01*
X108888500Y-136891310D01*
X108985173Y-137124699D01*
X109163802Y-137303327D01*
X109397191Y-137400000D01*
X109950250Y-137400000D01*
X110109000Y-137241250D01*
X110109000Y-136017000D01*
X110363000Y-136017000D01*
X110363000Y-137241250D01*
X110521750Y-137400000D01*
X111074809Y-137400000D01*
X111308198Y-137303327D01*
X111486827Y-137124699D01*
X111583500Y-136891310D01*
X111583500Y-136175750D01*
X111424750Y-136017000D01*
X110363000Y-136017000D01*
X110109000Y-136017000D01*
X109047250Y-136017000D01*
X108888500Y-136175750D01*
X108620940Y-136175750D01*
X108620940Y-135265000D01*
X108552626Y-134921565D01*
X108432036Y-134741088D01*
X108649571Y-134650982D01*
X108934553Y-134366000D01*
X109471957Y-134366000D01*
X109542340Y-134380000D01*
X109397191Y-134380000D01*
X109163802Y-134476673D01*
X108985173Y-134655301D01*
X108888500Y-134888690D01*
X108888500Y-135604250D01*
X109047250Y-135763000D01*
X110109000Y-135763000D01*
X110109000Y-134538750D01*
X110363000Y-134538750D01*
X110363000Y-135763000D01*
X111424750Y-135763000D01*
X111583500Y-135604250D01*
X111583500Y-134888690D01*
X111486827Y-134655301D01*
X111308198Y-134476673D01*
X111074809Y-134380000D01*
X110521750Y-134380000D01*
X110363000Y-134538750D01*
X110109000Y-134538750D01*
X109950250Y-134380000D01*
X109551660Y-134380000D01*
X109622043Y-134366000D01*
X109622048Y-134366000D01*
X109844317Y-134321788D01*
X110096371Y-134153371D01*
X110138883Y-134089747D01*
X114277750Y-129950881D01*
X114341371Y-129908371D01*
X114509788Y-129656317D01*
X114554000Y-129434048D01*
X114554000Y-129434047D01*
X114568928Y-129359000D01*
X114554000Y-129283953D01*
X114554000Y-121727630D01*
X117004060Y-124177691D01*
X117004060Y-125085000D01*
X117072374Y-125428435D01*
X117266914Y-125719586D01*
X117558065Y-125914126D01*
X117901500Y-125982440D01*
X118826500Y-125982440D01*
X119169935Y-125914126D01*
X119380000Y-125773765D01*
X119380000Y-129578456D01*
X119371657Y-129575000D01*
X118880343Y-129575000D01*
X118426429Y-129763018D01*
X118079018Y-130110429D01*
X117891000Y-130564343D01*
X117891000Y-131055657D01*
X118079018Y-131509571D01*
X118143007Y-131573560D01*
X117901500Y-131573560D01*
X117558065Y-131641874D01*
X117266914Y-131836414D01*
X117072374Y-132127565D01*
X117004060Y-132471000D01*
X117004060Y-133721000D01*
X117072374Y-134064435D01*
X117266914Y-134355586D01*
X117558065Y-134550126D01*
X117901500Y-134618440D01*
X118826500Y-134618440D01*
X119169935Y-134550126D01*
X119461086Y-134355586D01*
X119655626Y-134064435D01*
X119723940Y-133721000D01*
X119723940Y-133381750D01*
X119991500Y-133381750D01*
X119991500Y-134097310D01*
X120088173Y-134330699D01*
X120266802Y-134509327D01*
X120500191Y-134606000D01*
X121053250Y-134606000D01*
X121212000Y-134447250D01*
X121212000Y-133223000D01*
X121466000Y-133223000D01*
X121466000Y-134447250D01*
X121624750Y-134606000D01*
X122177809Y-134606000D01*
X122411198Y-134509327D01*
X122589827Y-134330699D01*
X122686500Y-134097310D01*
X122686500Y-133381750D01*
X122527750Y-133223000D01*
X121466000Y-133223000D01*
X121212000Y-133223000D01*
X120150250Y-133223000D01*
X119991500Y-133381750D01*
X119723940Y-133381750D01*
X119723940Y-132813690D01*
X119991500Y-132546130D01*
X119991500Y-132810250D01*
X120150250Y-132969000D01*
X121212000Y-132969000D01*
X121212000Y-131744750D01*
X121466000Y-131744750D01*
X121466000Y-132969000D01*
X122527750Y-132969000D01*
X122686500Y-132810250D01*
X122686500Y-132094690D01*
X122589827Y-131861301D01*
X122411198Y-131682673D01*
X122177809Y-131586000D01*
X121624750Y-131586000D01*
X121466000Y-131744750D01*
X121212000Y-131744750D01*
X121053250Y-131586000D01*
X120662142Y-131586000D01*
X120664927Y-131572001D01*
X120650000Y-131496958D01*
X120650000Y-131133014D01*
X120691371Y-131105371D01*
X120859788Y-130853317D01*
X120904000Y-130631048D01*
X120904000Y-130631044D01*
X120918927Y-130556001D01*
X120904000Y-130480958D01*
X120904000Y-125970000D01*
X121053250Y-125970000D01*
X121212000Y-125811250D01*
X121212000Y-124587000D01*
X121466000Y-124587000D01*
X121466000Y-125811250D01*
X121624750Y-125970000D01*
X122177809Y-125970000D01*
X122411198Y-125873327D01*
X122589827Y-125694699D01*
X122686500Y-125461310D01*
X122686500Y-124745750D01*
X122527750Y-124587000D01*
X121466000Y-124587000D01*
X121212000Y-124587000D01*
X121192000Y-124587000D01*
X121192000Y-124333000D01*
X121212000Y-124333000D01*
X121212000Y-123108750D01*
X121466000Y-123108750D01*
X121466000Y-124333000D01*
X122527750Y-124333000D01*
X122686500Y-124174250D01*
X122686500Y-123458690D01*
X122589827Y-123225301D01*
X122411198Y-123046673D01*
X122177809Y-122950000D01*
X121624750Y-122950000D01*
X121466000Y-123108750D01*
X121212000Y-123108750D01*
X121053250Y-122950000D01*
X120904000Y-122950000D01*
X120904000Y-119963042D01*
X120918927Y-119887999D01*
X120904000Y-119812956D01*
X120904000Y-119812952D01*
X120859788Y-119590683D01*
X120844822Y-119568284D01*
X120814782Y-119523327D01*
X120691371Y-119338629D01*
X120627746Y-119296116D01*
X120457630Y-119126000D01*
X124774887Y-119126000D01*
X124886260Y-119685909D01*
X125203423Y-120160577D01*
X125555758Y-120396000D01*
X125203423Y-120631423D01*
X124886260Y-121106091D01*
X124774887Y-121666000D01*
X124886260Y-122225909D01*
X125203423Y-122700577D01*
X125555758Y-122936000D01*
X125203423Y-123171423D01*
X124886260Y-123646091D01*
X124774887Y-124206000D01*
X124886260Y-124765909D01*
X125203423Y-125240577D01*
X125555758Y-125476000D01*
X125203423Y-125711423D01*
X124886260Y-126186091D01*
X124774887Y-126746000D01*
X124886260Y-127305909D01*
X125203423Y-127780577D01*
X125555758Y-128016000D01*
X125203423Y-128251423D01*
X124886260Y-128726091D01*
X124774887Y-129286000D01*
X124886260Y-129845909D01*
X125203423Y-130320577D01*
X125555758Y-130556000D01*
X125203423Y-130791423D01*
X124886260Y-131266091D01*
X124774887Y-131826000D01*
X124886260Y-132385909D01*
X125203423Y-132860577D01*
X125555758Y-133096000D01*
X125203423Y-133331423D01*
X124886260Y-133806091D01*
X124774887Y-134366000D01*
X124886260Y-134925909D01*
X125203423Y-135400577D01*
X125555758Y-135636000D01*
X125203423Y-135871423D01*
X124886260Y-136346091D01*
X124774887Y-136906000D01*
X124886260Y-137465909D01*
X125203423Y-137940577D01*
X125678091Y-138257740D01*
X126096667Y-138341000D01*
X126379333Y-138341000D01*
X126797909Y-138257740D01*
X127272577Y-137940577D01*
X127589740Y-137465909D01*
X127701113Y-136906000D01*
X127589740Y-136346091D01*
X127272577Y-135871423D01*
X126920242Y-135636000D01*
X127272577Y-135400577D01*
X127589740Y-134925909D01*
X127701113Y-134366000D01*
X127589740Y-133806091D01*
X127272577Y-133331423D01*
X126920242Y-133096000D01*
X127272577Y-132860577D01*
X127589740Y-132385909D01*
X127701113Y-131826000D01*
X127589740Y-131266091D01*
X127272577Y-130791423D01*
X126920242Y-130556000D01*
X127272577Y-130320577D01*
X127589740Y-129845909D01*
X127701113Y-129286000D01*
X127589740Y-128726091D01*
X127272577Y-128251423D01*
X126920242Y-128016000D01*
X127272577Y-127780577D01*
X127589740Y-127305909D01*
X127701113Y-126746000D01*
X127589740Y-126186091D01*
X127272577Y-125711423D01*
X126920242Y-125476000D01*
X127272577Y-125240577D01*
X127589740Y-124765909D01*
X127701113Y-124206000D01*
X127589740Y-123646091D01*
X127272577Y-123171423D01*
X126920242Y-122936000D01*
X127272577Y-122700577D01*
X127589740Y-122225909D01*
X127701113Y-121666000D01*
X127589740Y-121106091D01*
X127272577Y-120631423D01*
X126920242Y-120396000D01*
X127272577Y-120160577D01*
X127589740Y-119685909D01*
X127701113Y-119126000D01*
X127589740Y-118566091D01*
X127272577Y-118091423D01*
X126797909Y-117774260D01*
X126379333Y-117691000D01*
X126096667Y-117691000D01*
X125678091Y-117774260D01*
X125203423Y-118091423D01*
X124886260Y-118566091D01*
X124774887Y-119126000D01*
X120457630Y-119126000D01*
X119209884Y-117878254D01*
X119167371Y-117814629D01*
X118915317Y-117646212D01*
X118693048Y-117602000D01*
X118693043Y-117602000D01*
X118618000Y-117587073D01*
X118542957Y-117602000D01*
X116647630Y-117602000D01*
X115468422Y-116422792D01*
X115468422Y-113498052D01*
X117004060Y-115033691D01*
X117004060Y-115941000D01*
X117072374Y-116284435D01*
X117266914Y-116575586D01*
X117558065Y-116770126D01*
X117901500Y-116838440D01*
X118826500Y-116838440D01*
X119169935Y-116770126D01*
X119461086Y-116575586D01*
X119655626Y-116284435D01*
X119723940Y-115941000D01*
X119723940Y-115601750D01*
X119991500Y-115601750D01*
X119991500Y-116317310D01*
X120088173Y-116550699D01*
X120266802Y-116729327D01*
X120500191Y-116826000D01*
X121053250Y-116826000D01*
X121212000Y-116667250D01*
X121212000Y-115443000D01*
X121466000Y-115443000D01*
X121466000Y-116667250D01*
X121624750Y-116826000D01*
X122177809Y-116826000D01*
X122411198Y-116729327D01*
X122589827Y-116550699D01*
X122686500Y-116317310D01*
X122686500Y-115601750D01*
X122527750Y-115443000D01*
X121466000Y-115443000D01*
X121212000Y-115443000D01*
X120150250Y-115443000D01*
X119991500Y-115601750D01*
X119723940Y-115601750D01*
X119723940Y-114691000D01*
X119696513Y-114553117D01*
X119730630Y-114519000D01*
X119991500Y-114519000D01*
X119991500Y-115030250D01*
X120150250Y-115189000D01*
X121212000Y-115189000D01*
X121212000Y-113964750D01*
X121466000Y-113964750D01*
X121466000Y-115189000D01*
X122527750Y-115189000D01*
X122686500Y-115030250D01*
X122686500Y-114314690D01*
X122589827Y-114081301D01*
X122411198Y-113902673D01*
X122177809Y-113806000D01*
X121624750Y-113806000D01*
X121466000Y-113964750D01*
X121212000Y-113964750D01*
X121053250Y-113806000D01*
X121008535Y-113806000D01*
X121123000Y-113529657D01*
X121123000Y-113038343D01*
X120934982Y-112584429D01*
X120587571Y-112237018D01*
X120133657Y-112049000D01*
X119642343Y-112049000D01*
X119188429Y-112237018D01*
X118841018Y-112584429D01*
X118653000Y-113038343D01*
X118653000Y-113441370D01*
X118300810Y-113793560D01*
X117919191Y-113793560D01*
X115925633Y-111800003D01*
X115925633Y-104607997D01*
X118298631Y-102235000D01*
X120904000Y-102235000D01*
X120904000Y-102849369D01*
X120213975Y-103539395D01*
X120172982Y-103440429D01*
X119825571Y-103093018D01*
X119371657Y-102905000D01*
X118880343Y-102905000D01*
X118426429Y-103093018D01*
X118079018Y-103440429D01*
X117891000Y-103894343D01*
X117891000Y-104385657D01*
X118079018Y-104839571D01*
X118426429Y-105186982D01*
X118525395Y-105227975D01*
X117878251Y-105875119D01*
X117814630Y-105917629D01*
X117799826Y-105939784D01*
X117558065Y-105987874D01*
X117266914Y-106182414D01*
X117072374Y-106473565D01*
X117004060Y-106817000D01*
X117004060Y-108067000D01*
X117072374Y-108410435D01*
X117266914Y-108701586D01*
X117558065Y-108896126D01*
X117901500Y-108964440D01*
X118826500Y-108964440D01*
X119169935Y-108896126D01*
X119461086Y-108701586D01*
X119655626Y-108410435D01*
X119723940Y-108067000D01*
X119723940Y-107727750D01*
X119991500Y-107727750D01*
X119991500Y-108443310D01*
X120088173Y-108676699D01*
X120266802Y-108855327D01*
X120500191Y-108952000D01*
X121053250Y-108952000D01*
X121212000Y-108793250D01*
X121212000Y-107569000D01*
X121466000Y-107569000D01*
X121466000Y-108793250D01*
X121624750Y-108952000D01*
X122177809Y-108952000D01*
X122411198Y-108855327D01*
X122589827Y-108676699D01*
X122686500Y-108443310D01*
X122686500Y-107727750D01*
X122527750Y-107569000D01*
X121466000Y-107569000D01*
X121212000Y-107569000D01*
X120150250Y-107569000D01*
X119991500Y-107727750D01*
X119723940Y-107727750D01*
X119723940Y-106817000D01*
X119655626Y-106473565D01*
X119633660Y-106440690D01*
X119991500Y-106440690D01*
X119991500Y-107156250D01*
X120150250Y-107315000D01*
X121212000Y-107315000D01*
X121212000Y-106090750D01*
X121466000Y-106090750D01*
X121466000Y-107315000D01*
X122527750Y-107315000D01*
X122686500Y-107156250D01*
X122686500Y-106440690D01*
X122589827Y-106207301D01*
X122411198Y-106028673D01*
X122177809Y-105932000D01*
X121624750Y-105932000D01*
X121466000Y-106090750D01*
X121212000Y-106090750D01*
X121053250Y-105932000D01*
X120500191Y-105932000D01*
X120266802Y-106028673D01*
X120088173Y-106207301D01*
X119991500Y-106440690D01*
X119633660Y-106440690D01*
X119567282Y-106341348D01*
X120414750Y-105493881D01*
X120478371Y-105451371D01*
X120520882Y-105387749D01*
X120520884Y-105387746D01*
X122151750Y-103756881D01*
X122215371Y-103714371D01*
X122383788Y-103462317D01*
X122428000Y-103240048D01*
X122428000Y-103240043D01*
X122442927Y-103165000D01*
X122428000Y-103089957D01*
X122428000Y-102235000D01*
X124800945Y-102235000D01*
X124774887Y-102366000D01*
X124886260Y-102925909D01*
X125203423Y-103400577D01*
X125555758Y-103636000D01*
X125203423Y-103871423D01*
X124886260Y-104346091D01*
X124774887Y-104906000D01*
X124886260Y-105465909D01*
X125203423Y-105940577D01*
X125555758Y-106176000D01*
X125203423Y-106411423D01*
X124886260Y-106886091D01*
X124774887Y-107446000D01*
X124886260Y-108005909D01*
X125203423Y-108480577D01*
X125555758Y-108716000D01*
X125203423Y-108951423D01*
X124886260Y-109426091D01*
X124774887Y-109986000D01*
X124886260Y-110545909D01*
X125203423Y-111020577D01*
X125555758Y-111256000D01*
X125203423Y-111491423D01*
X124886260Y-111966091D01*
X124774887Y-112526000D01*
X124886260Y-113085909D01*
X125203423Y-113560577D01*
X125555758Y-113796000D01*
X125203423Y-114031423D01*
X124886260Y-114506091D01*
X124774887Y-115066000D01*
X124886260Y-115625909D01*
X125203423Y-116100577D01*
X125678091Y-116417740D01*
X126096667Y-116501000D01*
X126379333Y-116501000D01*
X126797909Y-116417740D01*
X127272577Y-116100577D01*
X127589740Y-115625909D01*
X127701113Y-115066000D01*
X127589740Y-114506091D01*
X127272577Y-114031423D01*
X126920242Y-113796000D01*
X127272577Y-113560577D01*
X127589740Y-113085909D01*
X127701113Y-112526000D01*
X127589740Y-111966091D01*
X127272577Y-111491423D01*
X126920242Y-111256000D01*
X127272577Y-111020577D01*
X127589740Y-110545909D01*
X127701113Y-109986000D01*
X127589740Y-109426091D01*
X127272577Y-108951423D01*
X126920242Y-108716000D01*
X127272577Y-108480577D01*
X127589740Y-108005909D01*
X127701113Y-107446000D01*
X127589740Y-106886091D01*
X127272577Y-106411423D01*
X126920242Y-106176000D01*
X127272577Y-105940577D01*
X127589740Y-105465909D01*
X127701113Y-104906000D01*
X127589740Y-104346091D01*
X127272577Y-103871423D01*
X126920242Y-103636000D01*
X127272577Y-103400577D01*
X127589740Y-102925909D01*
X127701113Y-102366000D01*
X127675055Y-102235000D01*
X128322000Y-102235000D01*
X128322001Y-137627907D01*
X126959910Y-138990000D01*
X115893920Y-138990000D01*
X115823999Y-138976092D01*
X115754078Y-138990000D01*
X115754074Y-138990000D01*
X115546972Y-139031195D01*
X115312119Y-139188119D01*
X115272509Y-139247400D01*
X112989910Y-141530000D01*
X80812091Y-141530000D01*
X78529494Y-139247404D01*
X78489881Y-139188119D01*
X78255028Y-139031195D01*
X78047926Y-138990000D01*
X78047924Y-138990000D01*
X77978000Y-138976091D01*
X77908076Y-138990000D01*
X75894000Y-138990000D01*
X75894000Y-119126000D01*
X76514887Y-119126000D01*
X76626260Y-119685909D01*
X76943423Y-120160577D01*
X77418091Y-120477740D01*
X77836667Y-120561000D01*
X78119333Y-120561000D01*
X78537909Y-120477740D01*
X79012577Y-120160577D01*
X79329740Y-119685909D01*
X79441113Y-119126000D01*
X79329740Y-118566091D01*
X79012577Y-118091423D01*
X78628892Y-117835053D01*
X78833134Y-117738389D01*
X79209041Y-117323423D01*
X79369904Y-116935039D01*
X79247915Y-116713000D01*
X78105000Y-116713000D01*
X78105000Y-116733000D01*
X77851000Y-116733000D01*
X77851000Y-116713000D01*
X76708085Y-116713000D01*
X76586096Y-116935039D01*
X76746959Y-117323423D01*
X77122866Y-117738389D01*
X77327108Y-117835053D01*
X76943423Y-118091423D01*
X76626260Y-118566091D01*
X76514887Y-119126000D01*
X75894000Y-119126000D01*
X75894000Y-114395039D01*
X76586096Y-114395039D01*
X76746959Y-114783423D01*
X77122866Y-115198389D01*
X77371367Y-115316000D01*
X77122866Y-115433611D01*
X76746959Y-115848577D01*
X76586096Y-116236961D01*
X76708085Y-116459000D01*
X77851000Y-116459000D01*
X77851000Y-114173000D01*
X78105000Y-114173000D01*
X78105000Y-116459000D01*
X79247915Y-116459000D01*
X79369904Y-116236961D01*
X79209041Y-115848577D01*
X78833134Y-115433611D01*
X78584633Y-115316000D01*
X78833134Y-115198389D01*
X79209041Y-114783423D01*
X79369904Y-114395039D01*
X79247915Y-114173000D01*
X78105000Y-114173000D01*
X77851000Y-114173000D01*
X76708085Y-114173000D01*
X76586096Y-114395039D01*
X75894000Y-114395039D01*
X75894000Y-94795050D01*
X77617000Y-94795050D01*
X77617000Y-95544950D01*
X77903974Y-96237767D01*
X78434233Y-96768026D01*
X79127050Y-97055000D01*
X79876950Y-97055000D01*
X80569767Y-96768026D01*
X81100026Y-96237767D01*
X81387000Y-95544950D01*
X81387000Y-94795050D01*
X81100026Y-94102233D01*
X80569767Y-93571974D01*
X79876950Y-93285000D01*
X79127050Y-93285000D01*
X78434233Y-93571974D01*
X77903974Y-94102233D01*
X77617000Y-94795050D01*
X75894000Y-94795050D01*
X75894000Y-80509745D01*
X78205861Y-80509745D01*
X78279995Y-80755864D01*
X78817223Y-80948965D01*
X79387454Y-80921778D01*
X79788005Y-80755864D01*
X79862139Y-80509745D01*
X79034000Y-79681605D01*
X78205861Y-80509745D01*
X75894000Y-80509745D01*
X75894000Y-79285223D01*
X77587035Y-79285223D01*
X77614222Y-79855454D01*
X77780136Y-80256005D01*
X78026255Y-80330139D01*
X78854395Y-79502000D01*
X79213605Y-79502000D01*
X80041745Y-80330139D01*
X80089307Y-80315813D01*
X80135843Y-80549765D01*
X80149000Y-80569456D01*
X80149001Y-81665589D01*
X80121867Y-81802000D01*
X80229359Y-82342399D01*
X80229360Y-82342400D01*
X80535472Y-82800529D01*
X80651112Y-82877797D01*
X83959000Y-86185686D01*
X83959001Y-92467010D01*
X83931867Y-92603422D01*
X84039359Y-93143821D01*
X84173783Y-93345000D01*
X84345472Y-93601951D01*
X84461112Y-93679219D01*
X87499688Y-96717796D01*
X87707977Y-97029523D01*
X88233089Y-97380391D01*
X88696150Y-97472500D01*
X89103850Y-97472500D01*
X89566911Y-97380391D01*
X90092023Y-97029523D01*
X90442891Y-96504411D01*
X90566100Y-95885000D01*
X90442891Y-95265589D01*
X90092023Y-94740477D01*
X89904233Y-94615000D01*
X90092023Y-94489523D01*
X90442891Y-93964411D01*
X90566100Y-93345000D01*
X90442891Y-92725589D01*
X90180912Y-92333509D01*
X90357809Y-92215309D01*
X90498157Y-92005265D01*
X90547440Y-91757500D01*
X90547440Y-89852500D01*
X90498157Y-89604735D01*
X90357809Y-89394691D01*
X90147765Y-89254343D01*
X89900000Y-89205060D01*
X87900000Y-89205060D01*
X87652235Y-89254343D01*
X87442191Y-89394691D01*
X87301843Y-89604735D01*
X87252560Y-89852500D01*
X87252560Y-91757500D01*
X87301843Y-92005265D01*
X87442191Y-92215309D01*
X87619088Y-92333509D01*
X87384243Y-92684980D01*
X86729000Y-92029737D01*
X86729000Y-85748407D01*
X86756133Y-85612000D01*
X86648641Y-85071600D01*
X86419797Y-84729111D01*
X86419795Y-84729109D01*
X86342528Y-84613471D01*
X86226890Y-84536204D01*
X82919000Y-81228315D01*
X82919000Y-80569456D01*
X82932157Y-80549765D01*
X82981440Y-80302000D01*
X82981440Y-78702000D01*
X82932157Y-78454235D01*
X82791809Y-78244191D01*
X82581765Y-78103843D01*
X82334000Y-78054560D01*
X80734000Y-78054560D01*
X80486235Y-78103843D01*
X80276191Y-78244191D01*
X80135843Y-78454235D01*
X80089307Y-78688187D01*
X80041745Y-78673861D01*
X79213605Y-79502000D01*
X78854395Y-79502000D01*
X78026255Y-78673861D01*
X77780136Y-78747995D01*
X77587035Y-79285223D01*
X75894000Y-79285223D01*
X75894000Y-78494255D01*
X78205861Y-78494255D01*
X79034000Y-79322395D01*
X79862139Y-78494255D01*
X79788005Y-78248136D01*
X79250777Y-78055035D01*
X78680546Y-78082222D01*
X78279995Y-78248136D01*
X78205861Y-78494255D01*
X75894000Y-78494255D01*
X75894000Y-75231877D01*
X88567868Y-75231877D01*
X88766677Y-75627604D01*
X89101791Y-75917127D01*
X89360126Y-76024119D01*
X89535000Y-75897954D01*
X89535000Y-75057000D01*
X88692865Y-75057000D01*
X88567868Y-75231877D01*
X75894000Y-75231877D01*
X75894000Y-73862000D01*
X89297061Y-73862000D01*
X89101791Y-73942873D01*
G36*
X91716253Y-76228989D02*
X93011222Y-77523959D01*
X93053734Y-77587582D01*
X93305788Y-77755999D01*
X93528057Y-77800211D01*
X93528058Y-77800211D01*
X93603105Y-77815139D01*
X93678152Y-77800211D01*
X98679000Y-77800211D01*
X98679000Y-95061370D01*
X94680370Y-99060000D01*
X90993630Y-99060000D01*
X92687750Y-97365881D01*
X92751371Y-97323371D01*
X92919788Y-97071317D01*
X92964000Y-96849048D01*
X92964000Y-96849043D01*
X92978927Y-96774000D01*
X92964000Y-96698957D01*
X92964000Y-78815042D01*
X92978927Y-78739999D01*
X92964000Y-78664956D01*
X92964000Y-78664952D01*
X92919788Y-78442683D01*
X92751371Y-78190629D01*
X92687749Y-78148118D01*
X91694000Y-77154370D01*
X91694000Y-76214120D01*
X91716253Y-76228989D01*
X91716253Y-76228989D01*
G37*
X91716253Y-76228989D02*
X93011222Y-77523959D01*
X93053734Y-77587582D01*
X93305788Y-77755999D01*
X93528057Y-77800211D01*
X93528058Y-77800211D01*
X93603105Y-77815139D01*
X93678152Y-77800211D01*
X98679000Y-77800211D01*
X98679000Y-95061370D01*
X94680370Y-99060000D01*
X90993630Y-99060000D01*
X92687750Y-97365881D01*
X92751371Y-97323371D01*
X92919788Y-97071317D01*
X92964000Y-96849048D01*
X92964000Y-96849043D01*
X92978927Y-96774000D01*
X92964000Y-96698957D01*
X92964000Y-78815042D01*
X92978927Y-78739999D01*
X92964000Y-78664956D01*
X92964000Y-78664952D01*
X92919788Y-78442683D01*
X92751371Y-78190629D01*
X92687749Y-78148118D01*
X91694000Y-77154370D01*
X91694000Y-76214120D01*
X91716253Y-76228989D01*
G36*
X124838843Y-91884474D02*
X124774887Y-92206000D01*
X124886260Y-92765909D01*
X125203423Y-93240577D01*
X125555758Y-93476000D01*
X125203423Y-93711423D01*
X124886260Y-94186091D01*
X124774887Y-94746000D01*
X124886260Y-95305909D01*
X125203423Y-95780577D01*
X125555758Y-96016000D01*
X125203423Y-96251423D01*
X124886260Y-96726091D01*
X124774887Y-97286000D01*
X124886260Y-97845909D01*
X125203423Y-98320577D01*
X125587108Y-98576947D01*
X125382866Y-98673611D01*
X125006959Y-99088577D01*
X124846096Y-99476961D01*
X124968085Y-99699000D01*
X126111000Y-99699000D01*
X126111000Y-99679000D01*
X126365000Y-99679000D01*
X126365000Y-99699000D01*
X127507915Y-99699000D01*
X127629904Y-99476961D01*
X127469041Y-99088577D01*
X127093134Y-98673611D01*
X126888892Y-98576947D01*
X127272577Y-98320577D01*
X127589740Y-97845909D01*
X127701113Y-97286000D01*
X127589740Y-96726091D01*
X127272577Y-96251423D01*
X126920242Y-96016000D01*
X127272577Y-95780577D01*
X127589740Y-95305909D01*
X127701113Y-94746000D01*
X127678635Y-94632995D01*
X128322000Y-93989631D01*
X128322000Y-101219000D01*
X127104324Y-101219000D01*
X126888892Y-101075053D01*
X127093134Y-100978389D01*
X127469041Y-100563423D01*
X127629904Y-100175039D01*
X127507915Y-99953000D01*
X126365000Y-99953000D01*
X126365000Y-99973000D01*
X126111000Y-99973000D01*
X126111000Y-99953000D01*
X124968085Y-99953000D01*
X124846096Y-100175039D01*
X125006959Y-100563423D01*
X125382866Y-100978389D01*
X125587108Y-101075053D01*
X125371676Y-101219000D01*
X122428000Y-101219000D01*
X122428000Y-99028553D01*
X122712982Y-98743571D01*
X122901000Y-98289657D01*
X122901000Y-97798343D01*
X122712982Y-97344429D01*
X122365571Y-96997018D01*
X121911657Y-96809000D01*
X121420343Y-96809000D01*
X120966429Y-96997018D01*
X120619018Y-97344429D01*
X120431000Y-97798343D01*
X120431000Y-98289657D01*
X120619018Y-98743571D01*
X120904000Y-99028553D01*
X120904000Y-99897047D01*
X120904001Y-99897052D01*
X120904001Y-101219000D01*
X119847764Y-101219000D01*
X120079571Y-101122982D01*
X120426982Y-100775571D01*
X120615000Y-100321657D01*
X120615000Y-99830343D01*
X120426982Y-99376429D01*
X120079571Y-99029018D01*
X119625657Y-98841000D01*
X119134343Y-98841000D01*
X118680429Y-99029018D01*
X118364000Y-99345447D01*
X118047571Y-99029018D01*
X117593657Y-98841000D01*
X117102343Y-98841000D01*
X116648429Y-99029018D01*
X116301018Y-99376429D01*
X116113000Y-99830343D01*
X116113000Y-100233369D01*
X115957210Y-100389159D01*
X115957210Y-100084343D01*
X115769192Y-99630429D01*
X115421781Y-99283018D01*
X114967867Y-99095000D01*
X114554000Y-99095000D01*
X114554000Y-98359630D01*
X116309750Y-96603881D01*
X116373371Y-96561371D01*
X116541788Y-96309317D01*
X116586000Y-96087048D01*
X116586000Y-96087043D01*
X116600927Y-96012000D01*
X116586000Y-95936957D01*
X116586000Y-94055042D01*
X116600927Y-93979999D01*
X116598453Y-93967559D01*
X117376172Y-94745279D01*
X117317018Y-94804433D01*
X117129000Y-95258347D01*
X117129000Y-95749661D01*
X117317018Y-96203575D01*
X117664429Y-96550986D01*
X118118343Y-96739004D01*
X118609657Y-96739004D01*
X119063571Y-96550986D01*
X119410982Y-96203575D01*
X119599000Y-95749661D01*
X119599000Y-95258347D01*
X119410982Y-94804433D01*
X119110859Y-94504310D01*
X119081788Y-94358159D01*
X118913371Y-94106105D01*
X118849750Y-94063595D01*
X115740407Y-90954253D01*
X115697895Y-90890629D01*
X115445841Y-90722212D01*
X115223572Y-90678000D01*
X115223567Y-90678000D01*
X115148524Y-90663073D01*
X115073481Y-90678000D01*
X113140334Y-90678000D01*
X113249000Y-90415657D01*
X113249000Y-89924343D01*
X113060982Y-89470429D01*
X112713571Y-89123018D01*
X112259657Y-88935000D01*
X111768343Y-88935000D01*
X111314429Y-89123018D01*
X111029447Y-89408000D01*
X104723042Y-89408000D01*
X104647999Y-89393073D01*
X104572956Y-89408000D01*
X104572952Y-89408000D01*
X104350683Y-89452212D01*
X104350682Y-89452213D01*
X104350681Y-89452213D01*
X104323419Y-89470429D01*
X104098629Y-89620629D01*
X104056118Y-89684251D01*
X99695000Y-94045369D01*
X99695000Y-77800211D01*
X110754581Y-77800211D01*
X124838843Y-91884474D01*
X124838843Y-91884474D01*
G37*
X124838843Y-91884474D02*
X124774887Y-92206000D01*
X124886260Y-92765909D01*
X125203423Y-93240577D01*
X125555758Y-93476000D01*
X125203423Y-93711423D01*
X124886260Y-94186091D01*
X124774887Y-94746000D01*
X124886260Y-95305909D01*
X125203423Y-95780577D01*
X125555758Y-96016000D01*
X125203423Y-96251423D01*
X124886260Y-96726091D01*
X124774887Y-97286000D01*
X124886260Y-97845909D01*
X125203423Y-98320577D01*
X125587108Y-98576947D01*
X125382866Y-98673611D01*
X125006959Y-99088577D01*
X124846096Y-99476961D01*
X124968085Y-99699000D01*
X126111000Y-99699000D01*
X126111000Y-99679000D01*
X126365000Y-99679000D01*
X126365000Y-99699000D01*
X127507915Y-99699000D01*
X127629904Y-99476961D01*
X127469041Y-99088577D01*
X127093134Y-98673611D01*
X126888892Y-98576947D01*
X127272577Y-98320577D01*
X127589740Y-97845909D01*
X127701113Y-97286000D01*
X127589740Y-96726091D01*
X127272577Y-96251423D01*
X126920242Y-96016000D01*
X127272577Y-95780577D01*
X127589740Y-95305909D01*
X127701113Y-94746000D01*
X127678635Y-94632995D01*
X128322000Y-93989631D01*
X128322000Y-101219000D01*
X127104324Y-101219000D01*
X126888892Y-101075053D01*
X127093134Y-100978389D01*
X127469041Y-100563423D01*
X127629904Y-100175039D01*
X127507915Y-99953000D01*
X126365000Y-99953000D01*
X126365000Y-99973000D01*
X126111000Y-99973000D01*
X126111000Y-99953000D01*
X124968085Y-99953000D01*
X124846096Y-100175039D01*
X125006959Y-100563423D01*
X125382866Y-100978389D01*
X125587108Y-101075053D01*
X125371676Y-101219000D01*
X122428000Y-101219000D01*
X122428000Y-99028553D01*
X122712982Y-98743571D01*
X122901000Y-98289657D01*
X122901000Y-97798343D01*
X122712982Y-97344429D01*
X122365571Y-96997018D01*
X121911657Y-96809000D01*
X121420343Y-96809000D01*
X120966429Y-96997018D01*
X120619018Y-97344429D01*
X120431000Y-97798343D01*
X120431000Y-98289657D01*
X120619018Y-98743571D01*
X120904000Y-99028553D01*
X120904000Y-99897047D01*
X120904001Y-99897052D01*
X120904001Y-101219000D01*
X119847764Y-101219000D01*
X120079571Y-101122982D01*
X120426982Y-100775571D01*
X120615000Y-100321657D01*
X120615000Y-99830343D01*
X120426982Y-99376429D01*
X120079571Y-99029018D01*
X119625657Y-98841000D01*
X119134343Y-98841000D01*
X118680429Y-99029018D01*
X118364000Y-99345447D01*
X118047571Y-99029018D01*
X117593657Y-98841000D01*
X117102343Y-98841000D01*
X116648429Y-99029018D01*
X116301018Y-99376429D01*
X116113000Y-99830343D01*
X116113000Y-100233369D01*
X115957210Y-100389159D01*
X115957210Y-100084343D01*
X115769192Y-99630429D01*
X115421781Y-99283018D01*
X114967867Y-99095000D01*
X114554000Y-99095000D01*
X114554000Y-98359630D01*
X116309750Y-96603881D01*
X116373371Y-96561371D01*
X116541788Y-96309317D01*
X116586000Y-96087048D01*
X116586000Y-96087043D01*
X116600927Y-96012000D01*
X116586000Y-95936957D01*
X116586000Y-94055042D01*
X116600927Y-93979999D01*
X116598453Y-93967559D01*
X117376172Y-94745279D01*
X117317018Y-94804433D01*
X117129000Y-95258347D01*
X117129000Y-95749661D01*
X117317018Y-96203575D01*
X117664429Y-96550986D01*
X118118343Y-96739004D01*
X118609657Y-96739004D01*
X119063571Y-96550986D01*
X119410982Y-96203575D01*
X119599000Y-95749661D01*
X119599000Y-95258347D01*
X119410982Y-94804433D01*
X119110859Y-94504310D01*
X119081788Y-94358159D01*
X118913371Y-94106105D01*
X118849750Y-94063595D01*
X115740407Y-90954253D01*
X115697895Y-90890629D01*
X115445841Y-90722212D01*
X115223572Y-90678000D01*
X115223567Y-90678000D01*
X115148524Y-90663073D01*
X115073481Y-90678000D01*
X113140334Y-90678000D01*
X113249000Y-90415657D01*
X113249000Y-89924343D01*
X113060982Y-89470429D01*
X112713571Y-89123018D01*
X112259657Y-88935000D01*
X111768343Y-88935000D01*
X111314429Y-89123018D01*
X111029447Y-89408000D01*
X104723042Y-89408000D01*
X104647999Y-89393073D01*
X104572956Y-89408000D01*
X104572952Y-89408000D01*
X104350683Y-89452212D01*
X104350682Y-89452213D01*
X104350681Y-89452213D01*
X104323419Y-89470429D01*
X104098629Y-89620629D01*
X104056118Y-89684251D01*
X99695000Y-94045369D01*
X99695000Y-77800211D01*
X110754581Y-77800211D01*
X124838843Y-91884474D01*
G36*
X128322000Y-90668369D02*
X127020383Y-89366753D01*
X126977871Y-89303129D01*
X126725817Y-89134712D01*
X126503548Y-89090500D01*
X126503543Y-89090500D01*
X126428500Y-89075573D01*
X126353457Y-89090500D01*
X124966131Y-89090500D01*
X114577631Y-78702000D01*
X121996560Y-78702000D01*
X121996560Y-80302000D01*
X122045843Y-80549765D01*
X122186191Y-80759809D01*
X122396235Y-80900157D01*
X122644000Y-80949440D01*
X124244000Y-80949440D01*
X124491765Y-80900157D01*
X124701809Y-80759809D01*
X124842157Y-80549765D01*
X124891440Y-80302000D01*
X124891440Y-78702000D01*
X124842157Y-78454235D01*
X124701809Y-78244191D01*
X124491765Y-78103843D01*
X124257813Y-78057307D01*
X124272139Y-78009745D01*
X123444000Y-77181605D01*
X122615861Y-78009745D01*
X122630187Y-78057307D01*
X122396235Y-78103843D01*
X122186191Y-78244191D01*
X122045843Y-78454235D01*
X121996560Y-78702000D01*
X114577631Y-78702000D01*
X112660854Y-76785223D01*
X121997035Y-76785223D01*
X122024222Y-77355454D01*
X122190136Y-77756005D01*
X122436255Y-77830139D01*
X123264395Y-77002000D01*
X123623605Y-77002000D01*
X124451745Y-77830139D01*
X124697864Y-77756005D01*
X124890965Y-77218777D01*
X124863778Y-76648546D01*
X124697864Y-76247995D01*
X124451745Y-76173861D01*
X123623605Y-77002000D01*
X123264395Y-77002000D01*
X122436255Y-76173861D01*
X122190136Y-76247995D01*
X121997035Y-76785223D01*
X112660854Y-76785223D01*
X111970884Y-76095253D01*
X111928371Y-76031629D01*
X111872437Y-75994255D01*
X122615861Y-75994255D01*
X123444000Y-76822395D01*
X124272139Y-75994255D01*
X124198005Y-75748136D01*
X123660777Y-75555035D01*
X123090546Y-75582222D01*
X122689995Y-75748136D01*
X122615861Y-75994255D01*
X111872437Y-75994255D01*
X111676317Y-75863212D01*
X111454048Y-75819000D01*
X111454043Y-75819000D01*
X111379000Y-75804073D01*
X111303957Y-75819000D01*
X99695000Y-75819000D01*
X99695000Y-73862000D01*
X128322000Y-73862000D01*
X128322000Y-90668369D01*
X128322000Y-90668369D01*
G37*
X128322000Y-90668369D02*
X127020383Y-89366753D01*
X126977871Y-89303129D01*
X126725817Y-89134712D01*
X126503548Y-89090500D01*
X126503543Y-89090500D01*
X126428500Y-89075573D01*
X126353457Y-89090500D01*
X124966131Y-89090500D01*
X114577631Y-78702000D01*
X121996560Y-78702000D01*
X121996560Y-80302000D01*
X122045843Y-80549765D01*
X122186191Y-80759809D01*
X122396235Y-80900157D01*
X122644000Y-80949440D01*
X124244000Y-80949440D01*
X124491765Y-80900157D01*
X124701809Y-80759809D01*
X124842157Y-80549765D01*
X124891440Y-80302000D01*
X124891440Y-78702000D01*
X124842157Y-78454235D01*
X124701809Y-78244191D01*
X124491765Y-78103843D01*
X124257813Y-78057307D01*
X124272139Y-78009745D01*
X123444000Y-77181605D01*
X122615861Y-78009745D01*
X122630187Y-78057307D01*
X122396235Y-78103843D01*
X122186191Y-78244191D01*
X122045843Y-78454235D01*
X121996560Y-78702000D01*
X114577631Y-78702000D01*
X112660854Y-76785223D01*
X121997035Y-76785223D01*
X122024222Y-77355454D01*
X122190136Y-77756005D01*
X122436255Y-77830139D01*
X123264395Y-77002000D01*
X123623605Y-77002000D01*
X124451745Y-77830139D01*
X124697864Y-77756005D01*
X124890965Y-77218777D01*
X124863778Y-76648546D01*
X124697864Y-76247995D01*
X124451745Y-76173861D01*
X123623605Y-77002000D01*
X123264395Y-77002000D01*
X122436255Y-76173861D01*
X122190136Y-76247995D01*
X121997035Y-76785223D01*
X112660854Y-76785223D01*
X111970884Y-76095253D01*
X111928371Y-76031629D01*
X111872437Y-75994255D01*
X122615861Y-75994255D01*
X123444000Y-76822395D01*
X124272139Y-75994255D01*
X124198005Y-75748136D01*
X123660777Y-75555035D01*
X123090546Y-75582222D01*
X122689995Y-75748136D01*
X122615861Y-75994255D01*
X111872437Y-75994255D01*
X111676317Y-75863212D01*
X111454048Y-75819000D01*
X111454043Y-75819000D01*
X111379000Y-75804073D01*
X111303957Y-75819000D01*
X99695000Y-75819000D01*
X99695000Y-73862000D01*
X128322000Y-73862000D01*
X128322000Y-90668369D01*
G04 #@! TD*
M02*
