G04 #@! TF.GenerationSoftware,KiCad,Pcbnew,5.0.2-bee76a0~70~ubuntu18.04.1*
G04 #@! TF.CreationDate,2019-02-08T11:17:56-07:00*
G04 #@! TF.ProjectId,driver,64726976-6572-42e6-9b69-6361645f7063,rev?*
G04 #@! TF.SameCoordinates,Original*
G04 #@! TF.FileFunction,Paste,Bot*
G04 #@! TF.FilePolarity,Positive*
%FSLAX46Y46*%
G04 Gerber Fmt 4.6, Leading zero omitted, Abs format (unit mm)*
G04 Created by KiCad (PCBNEW 5.0.2-bee76a0~70~ubuntu18.04.1) date Fri 08 Feb 2019 11:17:56 AM MST*
%MOMM*%
%LPD*%
G01*
G04 APERTURE LIST*
%ADD10C,0.100000*%
%ADD11C,1.425000*%
G04 APERTURE END LIST*
D10*
G04 #@! TO.C,R4*
G36*
X99764504Y-134762204D02*
X99788773Y-134765804D01*
X99812571Y-134771765D01*
X99835671Y-134780030D01*
X99857849Y-134790520D01*
X99878893Y-134803133D01*
X99898598Y-134817747D01*
X99916777Y-134834223D01*
X99933253Y-134852402D01*
X99947867Y-134872107D01*
X99960480Y-134893151D01*
X99970970Y-134915329D01*
X99979235Y-134938429D01*
X99985196Y-134962227D01*
X99988796Y-134986496D01*
X99990000Y-135011000D01*
X99990000Y-136261000D01*
X99988796Y-136285504D01*
X99985196Y-136309773D01*
X99979235Y-136333571D01*
X99970970Y-136356671D01*
X99960480Y-136378849D01*
X99947867Y-136399893D01*
X99933253Y-136419598D01*
X99916777Y-136437777D01*
X99898598Y-136454253D01*
X99878893Y-136468867D01*
X99857849Y-136481480D01*
X99835671Y-136491970D01*
X99812571Y-136500235D01*
X99788773Y-136506196D01*
X99764504Y-136509796D01*
X99740000Y-136511000D01*
X98815000Y-136511000D01*
X98790496Y-136509796D01*
X98766227Y-136506196D01*
X98742429Y-136500235D01*
X98719329Y-136491970D01*
X98697151Y-136481480D01*
X98676107Y-136468867D01*
X98656402Y-136454253D01*
X98638223Y-136437777D01*
X98621747Y-136419598D01*
X98607133Y-136399893D01*
X98594520Y-136378849D01*
X98584030Y-136356671D01*
X98575765Y-136333571D01*
X98569804Y-136309773D01*
X98566204Y-136285504D01*
X98565000Y-136261000D01*
X98565000Y-135011000D01*
X98566204Y-134986496D01*
X98569804Y-134962227D01*
X98575765Y-134938429D01*
X98584030Y-134915329D01*
X98594520Y-134893151D01*
X98607133Y-134872107D01*
X98621747Y-134852402D01*
X98638223Y-134834223D01*
X98656402Y-134817747D01*
X98676107Y-134803133D01*
X98697151Y-134790520D01*
X98719329Y-134780030D01*
X98742429Y-134771765D01*
X98766227Y-134765804D01*
X98790496Y-134762204D01*
X98815000Y-134761000D01*
X99740000Y-134761000D01*
X99764504Y-134762204D01*
X99764504Y-134762204D01*
G37*
D11*
X99277500Y-135636000D03*
D10*
G36*
X96789504Y-134762204D02*
X96813773Y-134765804D01*
X96837571Y-134771765D01*
X96860671Y-134780030D01*
X96882849Y-134790520D01*
X96903893Y-134803133D01*
X96923598Y-134817747D01*
X96941777Y-134834223D01*
X96958253Y-134852402D01*
X96972867Y-134872107D01*
X96985480Y-134893151D01*
X96995970Y-134915329D01*
X97004235Y-134938429D01*
X97010196Y-134962227D01*
X97013796Y-134986496D01*
X97015000Y-135011000D01*
X97015000Y-136261000D01*
X97013796Y-136285504D01*
X97010196Y-136309773D01*
X97004235Y-136333571D01*
X96995970Y-136356671D01*
X96985480Y-136378849D01*
X96972867Y-136399893D01*
X96958253Y-136419598D01*
X96941777Y-136437777D01*
X96923598Y-136454253D01*
X96903893Y-136468867D01*
X96882849Y-136481480D01*
X96860671Y-136491970D01*
X96837571Y-136500235D01*
X96813773Y-136506196D01*
X96789504Y-136509796D01*
X96765000Y-136511000D01*
X95840000Y-136511000D01*
X95815496Y-136509796D01*
X95791227Y-136506196D01*
X95767429Y-136500235D01*
X95744329Y-136491970D01*
X95722151Y-136481480D01*
X95701107Y-136468867D01*
X95681402Y-136454253D01*
X95663223Y-136437777D01*
X95646747Y-136419598D01*
X95632133Y-136399893D01*
X95619520Y-136378849D01*
X95609030Y-136356671D01*
X95600765Y-136333571D01*
X95594804Y-136309773D01*
X95591204Y-136285504D01*
X95590000Y-136261000D01*
X95590000Y-135011000D01*
X95591204Y-134986496D01*
X95594804Y-134962227D01*
X95600765Y-134938429D01*
X95609030Y-134915329D01*
X95619520Y-134893151D01*
X95632133Y-134872107D01*
X95646747Y-134852402D01*
X95663223Y-134834223D01*
X95681402Y-134817747D01*
X95701107Y-134803133D01*
X95722151Y-134790520D01*
X95744329Y-134780030D01*
X95767429Y-134771765D01*
X95791227Y-134765804D01*
X95815496Y-134762204D01*
X95840000Y-134761000D01*
X96765000Y-134761000D01*
X96789504Y-134762204D01*
X96789504Y-134762204D01*
G37*
D11*
X96302500Y-135636000D03*
G04 #@! TD*
D10*
G04 #@! TO.C,R5*
G36*
X107748004Y-135016204D02*
X107772273Y-135019804D01*
X107796071Y-135025765D01*
X107819171Y-135034030D01*
X107841349Y-135044520D01*
X107862393Y-135057133D01*
X107882098Y-135071747D01*
X107900277Y-135088223D01*
X107916753Y-135106402D01*
X107931367Y-135126107D01*
X107943980Y-135147151D01*
X107954470Y-135169329D01*
X107962735Y-135192429D01*
X107968696Y-135216227D01*
X107972296Y-135240496D01*
X107973500Y-135265000D01*
X107973500Y-136515000D01*
X107972296Y-136539504D01*
X107968696Y-136563773D01*
X107962735Y-136587571D01*
X107954470Y-136610671D01*
X107943980Y-136632849D01*
X107931367Y-136653893D01*
X107916753Y-136673598D01*
X107900277Y-136691777D01*
X107882098Y-136708253D01*
X107862393Y-136722867D01*
X107841349Y-136735480D01*
X107819171Y-136745970D01*
X107796071Y-136754235D01*
X107772273Y-136760196D01*
X107748004Y-136763796D01*
X107723500Y-136765000D01*
X106798500Y-136765000D01*
X106773996Y-136763796D01*
X106749727Y-136760196D01*
X106725929Y-136754235D01*
X106702829Y-136745970D01*
X106680651Y-136735480D01*
X106659607Y-136722867D01*
X106639902Y-136708253D01*
X106621723Y-136691777D01*
X106605247Y-136673598D01*
X106590633Y-136653893D01*
X106578020Y-136632849D01*
X106567530Y-136610671D01*
X106559265Y-136587571D01*
X106553304Y-136563773D01*
X106549704Y-136539504D01*
X106548500Y-136515000D01*
X106548500Y-135265000D01*
X106549704Y-135240496D01*
X106553304Y-135216227D01*
X106559265Y-135192429D01*
X106567530Y-135169329D01*
X106578020Y-135147151D01*
X106590633Y-135126107D01*
X106605247Y-135106402D01*
X106621723Y-135088223D01*
X106639902Y-135071747D01*
X106659607Y-135057133D01*
X106680651Y-135044520D01*
X106702829Y-135034030D01*
X106725929Y-135025765D01*
X106749727Y-135019804D01*
X106773996Y-135016204D01*
X106798500Y-135015000D01*
X107723500Y-135015000D01*
X107748004Y-135016204D01*
X107748004Y-135016204D01*
G37*
D11*
X107261000Y-135890000D03*
D10*
G36*
X110723004Y-135016204D02*
X110747273Y-135019804D01*
X110771071Y-135025765D01*
X110794171Y-135034030D01*
X110816349Y-135044520D01*
X110837393Y-135057133D01*
X110857098Y-135071747D01*
X110875277Y-135088223D01*
X110891753Y-135106402D01*
X110906367Y-135126107D01*
X110918980Y-135147151D01*
X110929470Y-135169329D01*
X110937735Y-135192429D01*
X110943696Y-135216227D01*
X110947296Y-135240496D01*
X110948500Y-135265000D01*
X110948500Y-136515000D01*
X110947296Y-136539504D01*
X110943696Y-136563773D01*
X110937735Y-136587571D01*
X110929470Y-136610671D01*
X110918980Y-136632849D01*
X110906367Y-136653893D01*
X110891753Y-136673598D01*
X110875277Y-136691777D01*
X110857098Y-136708253D01*
X110837393Y-136722867D01*
X110816349Y-136735480D01*
X110794171Y-136745970D01*
X110771071Y-136754235D01*
X110747273Y-136760196D01*
X110723004Y-136763796D01*
X110698500Y-136765000D01*
X109773500Y-136765000D01*
X109748996Y-136763796D01*
X109724727Y-136760196D01*
X109700929Y-136754235D01*
X109677829Y-136745970D01*
X109655651Y-136735480D01*
X109634607Y-136722867D01*
X109614902Y-136708253D01*
X109596723Y-136691777D01*
X109580247Y-136673598D01*
X109565633Y-136653893D01*
X109553020Y-136632849D01*
X109542530Y-136610671D01*
X109534265Y-136587571D01*
X109528304Y-136563773D01*
X109524704Y-136539504D01*
X109523500Y-136515000D01*
X109523500Y-135265000D01*
X109524704Y-135240496D01*
X109528304Y-135216227D01*
X109534265Y-135192429D01*
X109542530Y-135169329D01*
X109553020Y-135147151D01*
X109565633Y-135126107D01*
X109580247Y-135106402D01*
X109596723Y-135088223D01*
X109614902Y-135071747D01*
X109634607Y-135057133D01*
X109655651Y-135044520D01*
X109677829Y-135034030D01*
X109700929Y-135025765D01*
X109724727Y-135019804D01*
X109748996Y-135016204D01*
X109773500Y-135015000D01*
X110698500Y-135015000D01*
X110723004Y-135016204D01*
X110723004Y-135016204D01*
G37*
D11*
X110236000Y-135890000D03*
G04 #@! TD*
D10*
G04 #@! TO.C,R6*
G36*
X121826004Y-132222204D02*
X121850273Y-132225804D01*
X121874071Y-132231765D01*
X121897171Y-132240030D01*
X121919349Y-132250520D01*
X121940393Y-132263133D01*
X121960098Y-132277747D01*
X121978277Y-132294223D01*
X121994753Y-132312402D01*
X122009367Y-132332107D01*
X122021980Y-132353151D01*
X122032470Y-132375329D01*
X122040735Y-132398429D01*
X122046696Y-132422227D01*
X122050296Y-132446496D01*
X122051500Y-132471000D01*
X122051500Y-133721000D01*
X122050296Y-133745504D01*
X122046696Y-133769773D01*
X122040735Y-133793571D01*
X122032470Y-133816671D01*
X122021980Y-133838849D01*
X122009367Y-133859893D01*
X121994753Y-133879598D01*
X121978277Y-133897777D01*
X121960098Y-133914253D01*
X121940393Y-133928867D01*
X121919349Y-133941480D01*
X121897171Y-133951970D01*
X121874071Y-133960235D01*
X121850273Y-133966196D01*
X121826004Y-133969796D01*
X121801500Y-133971000D01*
X120876500Y-133971000D01*
X120851996Y-133969796D01*
X120827727Y-133966196D01*
X120803929Y-133960235D01*
X120780829Y-133951970D01*
X120758651Y-133941480D01*
X120737607Y-133928867D01*
X120717902Y-133914253D01*
X120699723Y-133897777D01*
X120683247Y-133879598D01*
X120668633Y-133859893D01*
X120656020Y-133838849D01*
X120645530Y-133816671D01*
X120637265Y-133793571D01*
X120631304Y-133769773D01*
X120627704Y-133745504D01*
X120626500Y-133721000D01*
X120626500Y-132471000D01*
X120627704Y-132446496D01*
X120631304Y-132422227D01*
X120637265Y-132398429D01*
X120645530Y-132375329D01*
X120656020Y-132353151D01*
X120668633Y-132332107D01*
X120683247Y-132312402D01*
X120699723Y-132294223D01*
X120717902Y-132277747D01*
X120737607Y-132263133D01*
X120758651Y-132250520D01*
X120780829Y-132240030D01*
X120803929Y-132231765D01*
X120827727Y-132225804D01*
X120851996Y-132222204D01*
X120876500Y-132221000D01*
X121801500Y-132221000D01*
X121826004Y-132222204D01*
X121826004Y-132222204D01*
G37*
D11*
X121339000Y-133096000D03*
D10*
G36*
X118851004Y-132222204D02*
X118875273Y-132225804D01*
X118899071Y-132231765D01*
X118922171Y-132240030D01*
X118944349Y-132250520D01*
X118965393Y-132263133D01*
X118985098Y-132277747D01*
X119003277Y-132294223D01*
X119019753Y-132312402D01*
X119034367Y-132332107D01*
X119046980Y-132353151D01*
X119057470Y-132375329D01*
X119065735Y-132398429D01*
X119071696Y-132422227D01*
X119075296Y-132446496D01*
X119076500Y-132471000D01*
X119076500Y-133721000D01*
X119075296Y-133745504D01*
X119071696Y-133769773D01*
X119065735Y-133793571D01*
X119057470Y-133816671D01*
X119046980Y-133838849D01*
X119034367Y-133859893D01*
X119019753Y-133879598D01*
X119003277Y-133897777D01*
X118985098Y-133914253D01*
X118965393Y-133928867D01*
X118944349Y-133941480D01*
X118922171Y-133951970D01*
X118899071Y-133960235D01*
X118875273Y-133966196D01*
X118851004Y-133969796D01*
X118826500Y-133971000D01*
X117901500Y-133971000D01*
X117876996Y-133969796D01*
X117852727Y-133966196D01*
X117828929Y-133960235D01*
X117805829Y-133951970D01*
X117783651Y-133941480D01*
X117762607Y-133928867D01*
X117742902Y-133914253D01*
X117724723Y-133897777D01*
X117708247Y-133879598D01*
X117693633Y-133859893D01*
X117681020Y-133838849D01*
X117670530Y-133816671D01*
X117662265Y-133793571D01*
X117656304Y-133769773D01*
X117652704Y-133745504D01*
X117651500Y-133721000D01*
X117651500Y-132471000D01*
X117652704Y-132446496D01*
X117656304Y-132422227D01*
X117662265Y-132398429D01*
X117670530Y-132375329D01*
X117681020Y-132353151D01*
X117693633Y-132332107D01*
X117708247Y-132312402D01*
X117724723Y-132294223D01*
X117742902Y-132277747D01*
X117762607Y-132263133D01*
X117783651Y-132250520D01*
X117805829Y-132240030D01*
X117828929Y-132231765D01*
X117852727Y-132225804D01*
X117876996Y-132222204D01*
X117901500Y-132221000D01*
X118826500Y-132221000D01*
X118851004Y-132222204D01*
X118851004Y-132222204D01*
G37*
D11*
X118364000Y-133096000D03*
G04 #@! TD*
D10*
G04 #@! TO.C,R9*
G36*
X96826004Y-126126204D02*
X96850273Y-126129804D01*
X96874071Y-126135765D01*
X96897171Y-126144030D01*
X96919349Y-126154520D01*
X96940393Y-126167133D01*
X96960098Y-126181747D01*
X96978277Y-126198223D01*
X96994753Y-126216402D01*
X97009367Y-126236107D01*
X97021980Y-126257151D01*
X97032470Y-126279329D01*
X97040735Y-126302429D01*
X97046696Y-126326227D01*
X97050296Y-126350496D01*
X97051500Y-126375000D01*
X97051500Y-127625000D01*
X97050296Y-127649504D01*
X97046696Y-127673773D01*
X97040735Y-127697571D01*
X97032470Y-127720671D01*
X97021980Y-127742849D01*
X97009367Y-127763893D01*
X96994753Y-127783598D01*
X96978277Y-127801777D01*
X96960098Y-127818253D01*
X96940393Y-127832867D01*
X96919349Y-127845480D01*
X96897171Y-127855970D01*
X96874071Y-127864235D01*
X96850273Y-127870196D01*
X96826004Y-127873796D01*
X96801500Y-127875000D01*
X95876500Y-127875000D01*
X95851996Y-127873796D01*
X95827727Y-127870196D01*
X95803929Y-127864235D01*
X95780829Y-127855970D01*
X95758651Y-127845480D01*
X95737607Y-127832867D01*
X95717902Y-127818253D01*
X95699723Y-127801777D01*
X95683247Y-127783598D01*
X95668633Y-127763893D01*
X95656020Y-127742849D01*
X95645530Y-127720671D01*
X95637265Y-127697571D01*
X95631304Y-127673773D01*
X95627704Y-127649504D01*
X95626500Y-127625000D01*
X95626500Y-126375000D01*
X95627704Y-126350496D01*
X95631304Y-126326227D01*
X95637265Y-126302429D01*
X95645530Y-126279329D01*
X95656020Y-126257151D01*
X95668633Y-126236107D01*
X95683247Y-126216402D01*
X95699723Y-126198223D01*
X95717902Y-126181747D01*
X95737607Y-126167133D01*
X95758651Y-126154520D01*
X95780829Y-126144030D01*
X95803929Y-126135765D01*
X95827727Y-126129804D01*
X95851996Y-126126204D01*
X95876500Y-126125000D01*
X96801500Y-126125000D01*
X96826004Y-126126204D01*
X96826004Y-126126204D01*
G37*
D11*
X96339000Y-127000000D03*
D10*
G36*
X99801004Y-126126204D02*
X99825273Y-126129804D01*
X99849071Y-126135765D01*
X99872171Y-126144030D01*
X99894349Y-126154520D01*
X99915393Y-126167133D01*
X99935098Y-126181747D01*
X99953277Y-126198223D01*
X99969753Y-126216402D01*
X99984367Y-126236107D01*
X99996980Y-126257151D01*
X100007470Y-126279329D01*
X100015735Y-126302429D01*
X100021696Y-126326227D01*
X100025296Y-126350496D01*
X100026500Y-126375000D01*
X100026500Y-127625000D01*
X100025296Y-127649504D01*
X100021696Y-127673773D01*
X100015735Y-127697571D01*
X100007470Y-127720671D01*
X99996980Y-127742849D01*
X99984367Y-127763893D01*
X99969753Y-127783598D01*
X99953277Y-127801777D01*
X99935098Y-127818253D01*
X99915393Y-127832867D01*
X99894349Y-127845480D01*
X99872171Y-127855970D01*
X99849071Y-127864235D01*
X99825273Y-127870196D01*
X99801004Y-127873796D01*
X99776500Y-127875000D01*
X98851500Y-127875000D01*
X98826996Y-127873796D01*
X98802727Y-127870196D01*
X98778929Y-127864235D01*
X98755829Y-127855970D01*
X98733651Y-127845480D01*
X98712607Y-127832867D01*
X98692902Y-127818253D01*
X98674723Y-127801777D01*
X98658247Y-127783598D01*
X98643633Y-127763893D01*
X98631020Y-127742849D01*
X98620530Y-127720671D01*
X98612265Y-127697571D01*
X98606304Y-127673773D01*
X98602704Y-127649504D01*
X98601500Y-127625000D01*
X98601500Y-126375000D01*
X98602704Y-126350496D01*
X98606304Y-126326227D01*
X98612265Y-126302429D01*
X98620530Y-126279329D01*
X98631020Y-126257151D01*
X98643633Y-126236107D01*
X98658247Y-126216402D01*
X98674723Y-126198223D01*
X98692902Y-126181747D01*
X98712607Y-126167133D01*
X98733651Y-126154520D01*
X98755829Y-126144030D01*
X98778929Y-126135765D01*
X98802727Y-126129804D01*
X98826996Y-126126204D01*
X98851500Y-126125000D01*
X99776500Y-126125000D01*
X99801004Y-126126204D01*
X99801004Y-126126204D01*
G37*
D11*
X99314000Y-127000000D03*
G04 #@! TD*
D10*
G04 #@! TO.C,R10*
G36*
X107748004Y-126126204D02*
X107772273Y-126129804D01*
X107796071Y-126135765D01*
X107819171Y-126144030D01*
X107841349Y-126154520D01*
X107862393Y-126167133D01*
X107882098Y-126181747D01*
X107900277Y-126198223D01*
X107916753Y-126216402D01*
X107931367Y-126236107D01*
X107943980Y-126257151D01*
X107954470Y-126279329D01*
X107962735Y-126302429D01*
X107968696Y-126326227D01*
X107972296Y-126350496D01*
X107973500Y-126375000D01*
X107973500Y-127625000D01*
X107972296Y-127649504D01*
X107968696Y-127673773D01*
X107962735Y-127697571D01*
X107954470Y-127720671D01*
X107943980Y-127742849D01*
X107931367Y-127763893D01*
X107916753Y-127783598D01*
X107900277Y-127801777D01*
X107882098Y-127818253D01*
X107862393Y-127832867D01*
X107841349Y-127845480D01*
X107819171Y-127855970D01*
X107796071Y-127864235D01*
X107772273Y-127870196D01*
X107748004Y-127873796D01*
X107723500Y-127875000D01*
X106798500Y-127875000D01*
X106773996Y-127873796D01*
X106749727Y-127870196D01*
X106725929Y-127864235D01*
X106702829Y-127855970D01*
X106680651Y-127845480D01*
X106659607Y-127832867D01*
X106639902Y-127818253D01*
X106621723Y-127801777D01*
X106605247Y-127783598D01*
X106590633Y-127763893D01*
X106578020Y-127742849D01*
X106567530Y-127720671D01*
X106559265Y-127697571D01*
X106553304Y-127673773D01*
X106549704Y-127649504D01*
X106548500Y-127625000D01*
X106548500Y-126375000D01*
X106549704Y-126350496D01*
X106553304Y-126326227D01*
X106559265Y-126302429D01*
X106567530Y-126279329D01*
X106578020Y-126257151D01*
X106590633Y-126236107D01*
X106605247Y-126216402D01*
X106621723Y-126198223D01*
X106639902Y-126181747D01*
X106659607Y-126167133D01*
X106680651Y-126154520D01*
X106702829Y-126144030D01*
X106725929Y-126135765D01*
X106749727Y-126129804D01*
X106773996Y-126126204D01*
X106798500Y-126125000D01*
X107723500Y-126125000D01*
X107748004Y-126126204D01*
X107748004Y-126126204D01*
G37*
D11*
X107261000Y-127000000D03*
D10*
G36*
X110723004Y-126126204D02*
X110747273Y-126129804D01*
X110771071Y-126135765D01*
X110794171Y-126144030D01*
X110816349Y-126154520D01*
X110837393Y-126167133D01*
X110857098Y-126181747D01*
X110875277Y-126198223D01*
X110891753Y-126216402D01*
X110906367Y-126236107D01*
X110918980Y-126257151D01*
X110929470Y-126279329D01*
X110937735Y-126302429D01*
X110943696Y-126326227D01*
X110947296Y-126350496D01*
X110948500Y-126375000D01*
X110948500Y-127625000D01*
X110947296Y-127649504D01*
X110943696Y-127673773D01*
X110937735Y-127697571D01*
X110929470Y-127720671D01*
X110918980Y-127742849D01*
X110906367Y-127763893D01*
X110891753Y-127783598D01*
X110875277Y-127801777D01*
X110857098Y-127818253D01*
X110837393Y-127832867D01*
X110816349Y-127845480D01*
X110794171Y-127855970D01*
X110771071Y-127864235D01*
X110747273Y-127870196D01*
X110723004Y-127873796D01*
X110698500Y-127875000D01*
X109773500Y-127875000D01*
X109748996Y-127873796D01*
X109724727Y-127870196D01*
X109700929Y-127864235D01*
X109677829Y-127855970D01*
X109655651Y-127845480D01*
X109634607Y-127832867D01*
X109614902Y-127818253D01*
X109596723Y-127801777D01*
X109580247Y-127783598D01*
X109565633Y-127763893D01*
X109553020Y-127742849D01*
X109542530Y-127720671D01*
X109534265Y-127697571D01*
X109528304Y-127673773D01*
X109524704Y-127649504D01*
X109523500Y-127625000D01*
X109523500Y-126375000D01*
X109524704Y-126350496D01*
X109528304Y-126326227D01*
X109534265Y-126302429D01*
X109542530Y-126279329D01*
X109553020Y-126257151D01*
X109565633Y-126236107D01*
X109580247Y-126216402D01*
X109596723Y-126198223D01*
X109614902Y-126181747D01*
X109634607Y-126167133D01*
X109655651Y-126154520D01*
X109677829Y-126144030D01*
X109700929Y-126135765D01*
X109724727Y-126129804D01*
X109748996Y-126126204D01*
X109773500Y-126125000D01*
X110698500Y-126125000D01*
X110723004Y-126126204D01*
X110723004Y-126126204D01*
G37*
D11*
X110236000Y-127000000D03*
G04 #@! TD*
D10*
G04 #@! TO.C,R11*
G36*
X121826004Y-123586204D02*
X121850273Y-123589804D01*
X121874071Y-123595765D01*
X121897171Y-123604030D01*
X121919349Y-123614520D01*
X121940393Y-123627133D01*
X121960098Y-123641747D01*
X121978277Y-123658223D01*
X121994753Y-123676402D01*
X122009367Y-123696107D01*
X122021980Y-123717151D01*
X122032470Y-123739329D01*
X122040735Y-123762429D01*
X122046696Y-123786227D01*
X122050296Y-123810496D01*
X122051500Y-123835000D01*
X122051500Y-125085000D01*
X122050296Y-125109504D01*
X122046696Y-125133773D01*
X122040735Y-125157571D01*
X122032470Y-125180671D01*
X122021980Y-125202849D01*
X122009367Y-125223893D01*
X121994753Y-125243598D01*
X121978277Y-125261777D01*
X121960098Y-125278253D01*
X121940393Y-125292867D01*
X121919349Y-125305480D01*
X121897171Y-125315970D01*
X121874071Y-125324235D01*
X121850273Y-125330196D01*
X121826004Y-125333796D01*
X121801500Y-125335000D01*
X120876500Y-125335000D01*
X120851996Y-125333796D01*
X120827727Y-125330196D01*
X120803929Y-125324235D01*
X120780829Y-125315970D01*
X120758651Y-125305480D01*
X120737607Y-125292867D01*
X120717902Y-125278253D01*
X120699723Y-125261777D01*
X120683247Y-125243598D01*
X120668633Y-125223893D01*
X120656020Y-125202849D01*
X120645530Y-125180671D01*
X120637265Y-125157571D01*
X120631304Y-125133773D01*
X120627704Y-125109504D01*
X120626500Y-125085000D01*
X120626500Y-123835000D01*
X120627704Y-123810496D01*
X120631304Y-123786227D01*
X120637265Y-123762429D01*
X120645530Y-123739329D01*
X120656020Y-123717151D01*
X120668633Y-123696107D01*
X120683247Y-123676402D01*
X120699723Y-123658223D01*
X120717902Y-123641747D01*
X120737607Y-123627133D01*
X120758651Y-123614520D01*
X120780829Y-123604030D01*
X120803929Y-123595765D01*
X120827727Y-123589804D01*
X120851996Y-123586204D01*
X120876500Y-123585000D01*
X121801500Y-123585000D01*
X121826004Y-123586204D01*
X121826004Y-123586204D01*
G37*
D11*
X121339000Y-124460000D03*
D10*
G36*
X118851004Y-123586204D02*
X118875273Y-123589804D01*
X118899071Y-123595765D01*
X118922171Y-123604030D01*
X118944349Y-123614520D01*
X118965393Y-123627133D01*
X118985098Y-123641747D01*
X119003277Y-123658223D01*
X119019753Y-123676402D01*
X119034367Y-123696107D01*
X119046980Y-123717151D01*
X119057470Y-123739329D01*
X119065735Y-123762429D01*
X119071696Y-123786227D01*
X119075296Y-123810496D01*
X119076500Y-123835000D01*
X119076500Y-125085000D01*
X119075296Y-125109504D01*
X119071696Y-125133773D01*
X119065735Y-125157571D01*
X119057470Y-125180671D01*
X119046980Y-125202849D01*
X119034367Y-125223893D01*
X119019753Y-125243598D01*
X119003277Y-125261777D01*
X118985098Y-125278253D01*
X118965393Y-125292867D01*
X118944349Y-125305480D01*
X118922171Y-125315970D01*
X118899071Y-125324235D01*
X118875273Y-125330196D01*
X118851004Y-125333796D01*
X118826500Y-125335000D01*
X117901500Y-125335000D01*
X117876996Y-125333796D01*
X117852727Y-125330196D01*
X117828929Y-125324235D01*
X117805829Y-125315970D01*
X117783651Y-125305480D01*
X117762607Y-125292867D01*
X117742902Y-125278253D01*
X117724723Y-125261777D01*
X117708247Y-125243598D01*
X117693633Y-125223893D01*
X117681020Y-125202849D01*
X117670530Y-125180671D01*
X117662265Y-125157571D01*
X117656304Y-125133773D01*
X117652704Y-125109504D01*
X117651500Y-125085000D01*
X117651500Y-123835000D01*
X117652704Y-123810496D01*
X117656304Y-123786227D01*
X117662265Y-123762429D01*
X117670530Y-123739329D01*
X117681020Y-123717151D01*
X117693633Y-123696107D01*
X117708247Y-123676402D01*
X117724723Y-123658223D01*
X117742902Y-123641747D01*
X117762607Y-123627133D01*
X117783651Y-123614520D01*
X117805829Y-123604030D01*
X117828929Y-123595765D01*
X117852727Y-123589804D01*
X117876996Y-123586204D01*
X117901500Y-123585000D01*
X118826500Y-123585000D01*
X118851004Y-123586204D01*
X118851004Y-123586204D01*
G37*
D11*
X118364000Y-124460000D03*
G04 #@! TD*
D10*
G04 #@! TO.C,R12*
G36*
X96789504Y-116982204D02*
X96813773Y-116985804D01*
X96837571Y-116991765D01*
X96860671Y-117000030D01*
X96882849Y-117010520D01*
X96903893Y-117023133D01*
X96923598Y-117037747D01*
X96941777Y-117054223D01*
X96958253Y-117072402D01*
X96972867Y-117092107D01*
X96985480Y-117113151D01*
X96995970Y-117135329D01*
X97004235Y-117158429D01*
X97010196Y-117182227D01*
X97013796Y-117206496D01*
X97015000Y-117231000D01*
X97015000Y-118481000D01*
X97013796Y-118505504D01*
X97010196Y-118529773D01*
X97004235Y-118553571D01*
X96995970Y-118576671D01*
X96985480Y-118598849D01*
X96972867Y-118619893D01*
X96958253Y-118639598D01*
X96941777Y-118657777D01*
X96923598Y-118674253D01*
X96903893Y-118688867D01*
X96882849Y-118701480D01*
X96860671Y-118711970D01*
X96837571Y-118720235D01*
X96813773Y-118726196D01*
X96789504Y-118729796D01*
X96765000Y-118731000D01*
X95840000Y-118731000D01*
X95815496Y-118729796D01*
X95791227Y-118726196D01*
X95767429Y-118720235D01*
X95744329Y-118711970D01*
X95722151Y-118701480D01*
X95701107Y-118688867D01*
X95681402Y-118674253D01*
X95663223Y-118657777D01*
X95646747Y-118639598D01*
X95632133Y-118619893D01*
X95619520Y-118598849D01*
X95609030Y-118576671D01*
X95600765Y-118553571D01*
X95594804Y-118529773D01*
X95591204Y-118505504D01*
X95590000Y-118481000D01*
X95590000Y-117231000D01*
X95591204Y-117206496D01*
X95594804Y-117182227D01*
X95600765Y-117158429D01*
X95609030Y-117135329D01*
X95619520Y-117113151D01*
X95632133Y-117092107D01*
X95646747Y-117072402D01*
X95663223Y-117054223D01*
X95681402Y-117037747D01*
X95701107Y-117023133D01*
X95722151Y-117010520D01*
X95744329Y-117000030D01*
X95767429Y-116991765D01*
X95791227Y-116985804D01*
X95815496Y-116982204D01*
X95840000Y-116981000D01*
X96765000Y-116981000D01*
X96789504Y-116982204D01*
X96789504Y-116982204D01*
G37*
D11*
X96302500Y-117856000D03*
D10*
G36*
X99764504Y-116982204D02*
X99788773Y-116985804D01*
X99812571Y-116991765D01*
X99835671Y-117000030D01*
X99857849Y-117010520D01*
X99878893Y-117023133D01*
X99898598Y-117037747D01*
X99916777Y-117054223D01*
X99933253Y-117072402D01*
X99947867Y-117092107D01*
X99960480Y-117113151D01*
X99970970Y-117135329D01*
X99979235Y-117158429D01*
X99985196Y-117182227D01*
X99988796Y-117206496D01*
X99990000Y-117231000D01*
X99990000Y-118481000D01*
X99988796Y-118505504D01*
X99985196Y-118529773D01*
X99979235Y-118553571D01*
X99970970Y-118576671D01*
X99960480Y-118598849D01*
X99947867Y-118619893D01*
X99933253Y-118639598D01*
X99916777Y-118657777D01*
X99898598Y-118674253D01*
X99878893Y-118688867D01*
X99857849Y-118701480D01*
X99835671Y-118711970D01*
X99812571Y-118720235D01*
X99788773Y-118726196D01*
X99764504Y-118729796D01*
X99740000Y-118731000D01*
X98815000Y-118731000D01*
X98790496Y-118729796D01*
X98766227Y-118726196D01*
X98742429Y-118720235D01*
X98719329Y-118711970D01*
X98697151Y-118701480D01*
X98676107Y-118688867D01*
X98656402Y-118674253D01*
X98638223Y-118657777D01*
X98621747Y-118639598D01*
X98607133Y-118619893D01*
X98594520Y-118598849D01*
X98584030Y-118576671D01*
X98575765Y-118553571D01*
X98569804Y-118529773D01*
X98566204Y-118505504D01*
X98565000Y-118481000D01*
X98565000Y-117231000D01*
X98566204Y-117206496D01*
X98569804Y-117182227D01*
X98575765Y-117158429D01*
X98584030Y-117135329D01*
X98594520Y-117113151D01*
X98607133Y-117092107D01*
X98621747Y-117072402D01*
X98638223Y-117054223D01*
X98656402Y-117037747D01*
X98676107Y-117023133D01*
X98697151Y-117010520D01*
X98719329Y-117000030D01*
X98742429Y-116991765D01*
X98766227Y-116985804D01*
X98790496Y-116982204D01*
X98815000Y-116981000D01*
X99740000Y-116981000D01*
X99764504Y-116982204D01*
X99764504Y-116982204D01*
G37*
D11*
X99277500Y-117856000D03*
G04 #@! TD*
D10*
G04 #@! TO.C,R13*
G36*
X110396004Y-117236204D02*
X110420273Y-117239804D01*
X110444071Y-117245765D01*
X110467171Y-117254030D01*
X110489349Y-117264520D01*
X110510393Y-117277133D01*
X110530098Y-117291747D01*
X110548277Y-117308223D01*
X110564753Y-117326402D01*
X110579367Y-117346107D01*
X110591980Y-117367151D01*
X110602470Y-117389329D01*
X110610735Y-117412429D01*
X110616696Y-117436227D01*
X110620296Y-117460496D01*
X110621500Y-117485000D01*
X110621500Y-118735000D01*
X110620296Y-118759504D01*
X110616696Y-118783773D01*
X110610735Y-118807571D01*
X110602470Y-118830671D01*
X110591980Y-118852849D01*
X110579367Y-118873893D01*
X110564753Y-118893598D01*
X110548277Y-118911777D01*
X110530098Y-118928253D01*
X110510393Y-118942867D01*
X110489349Y-118955480D01*
X110467171Y-118965970D01*
X110444071Y-118974235D01*
X110420273Y-118980196D01*
X110396004Y-118983796D01*
X110371500Y-118985000D01*
X109446500Y-118985000D01*
X109421996Y-118983796D01*
X109397727Y-118980196D01*
X109373929Y-118974235D01*
X109350829Y-118965970D01*
X109328651Y-118955480D01*
X109307607Y-118942867D01*
X109287902Y-118928253D01*
X109269723Y-118911777D01*
X109253247Y-118893598D01*
X109238633Y-118873893D01*
X109226020Y-118852849D01*
X109215530Y-118830671D01*
X109207265Y-118807571D01*
X109201304Y-118783773D01*
X109197704Y-118759504D01*
X109196500Y-118735000D01*
X109196500Y-117485000D01*
X109197704Y-117460496D01*
X109201304Y-117436227D01*
X109207265Y-117412429D01*
X109215530Y-117389329D01*
X109226020Y-117367151D01*
X109238633Y-117346107D01*
X109253247Y-117326402D01*
X109269723Y-117308223D01*
X109287902Y-117291747D01*
X109307607Y-117277133D01*
X109328651Y-117264520D01*
X109350829Y-117254030D01*
X109373929Y-117245765D01*
X109397727Y-117239804D01*
X109421996Y-117236204D01*
X109446500Y-117235000D01*
X110371500Y-117235000D01*
X110396004Y-117236204D01*
X110396004Y-117236204D01*
G37*
D11*
X109909000Y-118110000D03*
D10*
G36*
X107421004Y-117236204D02*
X107445273Y-117239804D01*
X107469071Y-117245765D01*
X107492171Y-117254030D01*
X107514349Y-117264520D01*
X107535393Y-117277133D01*
X107555098Y-117291747D01*
X107573277Y-117308223D01*
X107589753Y-117326402D01*
X107604367Y-117346107D01*
X107616980Y-117367151D01*
X107627470Y-117389329D01*
X107635735Y-117412429D01*
X107641696Y-117436227D01*
X107645296Y-117460496D01*
X107646500Y-117485000D01*
X107646500Y-118735000D01*
X107645296Y-118759504D01*
X107641696Y-118783773D01*
X107635735Y-118807571D01*
X107627470Y-118830671D01*
X107616980Y-118852849D01*
X107604367Y-118873893D01*
X107589753Y-118893598D01*
X107573277Y-118911777D01*
X107555098Y-118928253D01*
X107535393Y-118942867D01*
X107514349Y-118955480D01*
X107492171Y-118965970D01*
X107469071Y-118974235D01*
X107445273Y-118980196D01*
X107421004Y-118983796D01*
X107396500Y-118985000D01*
X106471500Y-118985000D01*
X106446996Y-118983796D01*
X106422727Y-118980196D01*
X106398929Y-118974235D01*
X106375829Y-118965970D01*
X106353651Y-118955480D01*
X106332607Y-118942867D01*
X106312902Y-118928253D01*
X106294723Y-118911777D01*
X106278247Y-118893598D01*
X106263633Y-118873893D01*
X106251020Y-118852849D01*
X106240530Y-118830671D01*
X106232265Y-118807571D01*
X106226304Y-118783773D01*
X106222704Y-118759504D01*
X106221500Y-118735000D01*
X106221500Y-117485000D01*
X106222704Y-117460496D01*
X106226304Y-117436227D01*
X106232265Y-117412429D01*
X106240530Y-117389329D01*
X106251020Y-117367151D01*
X106263633Y-117346107D01*
X106278247Y-117326402D01*
X106294723Y-117308223D01*
X106312902Y-117291747D01*
X106332607Y-117277133D01*
X106353651Y-117264520D01*
X106375829Y-117254030D01*
X106398929Y-117245765D01*
X106422727Y-117239804D01*
X106446996Y-117236204D01*
X106471500Y-117235000D01*
X107396500Y-117235000D01*
X107421004Y-117236204D01*
X107421004Y-117236204D01*
G37*
D11*
X106934000Y-118110000D03*
G04 #@! TD*
D10*
G04 #@! TO.C,R18*
G36*
X121826004Y-106568204D02*
X121850273Y-106571804D01*
X121874071Y-106577765D01*
X121897171Y-106586030D01*
X121919349Y-106596520D01*
X121940393Y-106609133D01*
X121960098Y-106623747D01*
X121978277Y-106640223D01*
X121994753Y-106658402D01*
X122009367Y-106678107D01*
X122021980Y-106699151D01*
X122032470Y-106721329D01*
X122040735Y-106744429D01*
X122046696Y-106768227D01*
X122050296Y-106792496D01*
X122051500Y-106817000D01*
X122051500Y-108067000D01*
X122050296Y-108091504D01*
X122046696Y-108115773D01*
X122040735Y-108139571D01*
X122032470Y-108162671D01*
X122021980Y-108184849D01*
X122009367Y-108205893D01*
X121994753Y-108225598D01*
X121978277Y-108243777D01*
X121960098Y-108260253D01*
X121940393Y-108274867D01*
X121919349Y-108287480D01*
X121897171Y-108297970D01*
X121874071Y-108306235D01*
X121850273Y-108312196D01*
X121826004Y-108315796D01*
X121801500Y-108317000D01*
X120876500Y-108317000D01*
X120851996Y-108315796D01*
X120827727Y-108312196D01*
X120803929Y-108306235D01*
X120780829Y-108297970D01*
X120758651Y-108287480D01*
X120737607Y-108274867D01*
X120717902Y-108260253D01*
X120699723Y-108243777D01*
X120683247Y-108225598D01*
X120668633Y-108205893D01*
X120656020Y-108184849D01*
X120645530Y-108162671D01*
X120637265Y-108139571D01*
X120631304Y-108115773D01*
X120627704Y-108091504D01*
X120626500Y-108067000D01*
X120626500Y-106817000D01*
X120627704Y-106792496D01*
X120631304Y-106768227D01*
X120637265Y-106744429D01*
X120645530Y-106721329D01*
X120656020Y-106699151D01*
X120668633Y-106678107D01*
X120683247Y-106658402D01*
X120699723Y-106640223D01*
X120717902Y-106623747D01*
X120737607Y-106609133D01*
X120758651Y-106596520D01*
X120780829Y-106586030D01*
X120803929Y-106577765D01*
X120827727Y-106571804D01*
X120851996Y-106568204D01*
X120876500Y-106567000D01*
X121801500Y-106567000D01*
X121826004Y-106568204D01*
X121826004Y-106568204D01*
G37*
D11*
X121339000Y-107442000D03*
D10*
G36*
X118851004Y-106568204D02*
X118875273Y-106571804D01*
X118899071Y-106577765D01*
X118922171Y-106586030D01*
X118944349Y-106596520D01*
X118965393Y-106609133D01*
X118985098Y-106623747D01*
X119003277Y-106640223D01*
X119019753Y-106658402D01*
X119034367Y-106678107D01*
X119046980Y-106699151D01*
X119057470Y-106721329D01*
X119065735Y-106744429D01*
X119071696Y-106768227D01*
X119075296Y-106792496D01*
X119076500Y-106817000D01*
X119076500Y-108067000D01*
X119075296Y-108091504D01*
X119071696Y-108115773D01*
X119065735Y-108139571D01*
X119057470Y-108162671D01*
X119046980Y-108184849D01*
X119034367Y-108205893D01*
X119019753Y-108225598D01*
X119003277Y-108243777D01*
X118985098Y-108260253D01*
X118965393Y-108274867D01*
X118944349Y-108287480D01*
X118922171Y-108297970D01*
X118899071Y-108306235D01*
X118875273Y-108312196D01*
X118851004Y-108315796D01*
X118826500Y-108317000D01*
X117901500Y-108317000D01*
X117876996Y-108315796D01*
X117852727Y-108312196D01*
X117828929Y-108306235D01*
X117805829Y-108297970D01*
X117783651Y-108287480D01*
X117762607Y-108274867D01*
X117742902Y-108260253D01*
X117724723Y-108243777D01*
X117708247Y-108225598D01*
X117693633Y-108205893D01*
X117681020Y-108184849D01*
X117670530Y-108162671D01*
X117662265Y-108139571D01*
X117656304Y-108115773D01*
X117652704Y-108091504D01*
X117651500Y-108067000D01*
X117651500Y-106817000D01*
X117652704Y-106792496D01*
X117656304Y-106768227D01*
X117662265Y-106744429D01*
X117670530Y-106721329D01*
X117681020Y-106699151D01*
X117693633Y-106678107D01*
X117708247Y-106658402D01*
X117724723Y-106640223D01*
X117742902Y-106623747D01*
X117762607Y-106609133D01*
X117783651Y-106596520D01*
X117805829Y-106586030D01*
X117828929Y-106577765D01*
X117852727Y-106571804D01*
X117876996Y-106568204D01*
X117901500Y-106567000D01*
X118826500Y-106567000D01*
X118851004Y-106568204D01*
X118851004Y-106568204D01*
G37*
D11*
X118364000Y-107442000D03*
G04 #@! TD*
D10*
G04 #@! TO.C,R19*
G36*
X107421004Y-108346204D02*
X107445273Y-108349804D01*
X107469071Y-108355765D01*
X107492171Y-108364030D01*
X107514349Y-108374520D01*
X107535393Y-108387133D01*
X107555098Y-108401747D01*
X107573277Y-108418223D01*
X107589753Y-108436402D01*
X107604367Y-108456107D01*
X107616980Y-108477151D01*
X107627470Y-108499329D01*
X107635735Y-108522429D01*
X107641696Y-108546227D01*
X107645296Y-108570496D01*
X107646500Y-108595000D01*
X107646500Y-109845000D01*
X107645296Y-109869504D01*
X107641696Y-109893773D01*
X107635735Y-109917571D01*
X107627470Y-109940671D01*
X107616980Y-109962849D01*
X107604367Y-109983893D01*
X107589753Y-110003598D01*
X107573277Y-110021777D01*
X107555098Y-110038253D01*
X107535393Y-110052867D01*
X107514349Y-110065480D01*
X107492171Y-110075970D01*
X107469071Y-110084235D01*
X107445273Y-110090196D01*
X107421004Y-110093796D01*
X107396500Y-110095000D01*
X106471500Y-110095000D01*
X106446996Y-110093796D01*
X106422727Y-110090196D01*
X106398929Y-110084235D01*
X106375829Y-110075970D01*
X106353651Y-110065480D01*
X106332607Y-110052867D01*
X106312902Y-110038253D01*
X106294723Y-110021777D01*
X106278247Y-110003598D01*
X106263633Y-109983893D01*
X106251020Y-109962849D01*
X106240530Y-109940671D01*
X106232265Y-109917571D01*
X106226304Y-109893773D01*
X106222704Y-109869504D01*
X106221500Y-109845000D01*
X106221500Y-108595000D01*
X106222704Y-108570496D01*
X106226304Y-108546227D01*
X106232265Y-108522429D01*
X106240530Y-108499329D01*
X106251020Y-108477151D01*
X106263633Y-108456107D01*
X106278247Y-108436402D01*
X106294723Y-108418223D01*
X106312902Y-108401747D01*
X106332607Y-108387133D01*
X106353651Y-108374520D01*
X106375829Y-108364030D01*
X106398929Y-108355765D01*
X106422727Y-108349804D01*
X106446996Y-108346204D01*
X106471500Y-108345000D01*
X107396500Y-108345000D01*
X107421004Y-108346204D01*
X107421004Y-108346204D01*
G37*
D11*
X106934000Y-109220000D03*
D10*
G36*
X110396004Y-108346204D02*
X110420273Y-108349804D01*
X110444071Y-108355765D01*
X110467171Y-108364030D01*
X110489349Y-108374520D01*
X110510393Y-108387133D01*
X110530098Y-108401747D01*
X110548277Y-108418223D01*
X110564753Y-108436402D01*
X110579367Y-108456107D01*
X110591980Y-108477151D01*
X110602470Y-108499329D01*
X110610735Y-108522429D01*
X110616696Y-108546227D01*
X110620296Y-108570496D01*
X110621500Y-108595000D01*
X110621500Y-109845000D01*
X110620296Y-109869504D01*
X110616696Y-109893773D01*
X110610735Y-109917571D01*
X110602470Y-109940671D01*
X110591980Y-109962849D01*
X110579367Y-109983893D01*
X110564753Y-110003598D01*
X110548277Y-110021777D01*
X110530098Y-110038253D01*
X110510393Y-110052867D01*
X110489349Y-110065480D01*
X110467171Y-110075970D01*
X110444071Y-110084235D01*
X110420273Y-110090196D01*
X110396004Y-110093796D01*
X110371500Y-110095000D01*
X109446500Y-110095000D01*
X109421996Y-110093796D01*
X109397727Y-110090196D01*
X109373929Y-110084235D01*
X109350829Y-110075970D01*
X109328651Y-110065480D01*
X109307607Y-110052867D01*
X109287902Y-110038253D01*
X109269723Y-110021777D01*
X109253247Y-110003598D01*
X109238633Y-109983893D01*
X109226020Y-109962849D01*
X109215530Y-109940671D01*
X109207265Y-109917571D01*
X109201304Y-109893773D01*
X109197704Y-109869504D01*
X109196500Y-109845000D01*
X109196500Y-108595000D01*
X109197704Y-108570496D01*
X109201304Y-108546227D01*
X109207265Y-108522429D01*
X109215530Y-108499329D01*
X109226020Y-108477151D01*
X109238633Y-108456107D01*
X109253247Y-108436402D01*
X109269723Y-108418223D01*
X109287902Y-108401747D01*
X109307607Y-108387133D01*
X109328651Y-108374520D01*
X109350829Y-108364030D01*
X109373929Y-108355765D01*
X109397727Y-108349804D01*
X109421996Y-108346204D01*
X109446500Y-108345000D01*
X110371500Y-108345000D01*
X110396004Y-108346204D01*
X110396004Y-108346204D01*
G37*
D11*
X109909000Y-109220000D03*
G04 #@! TD*
D10*
G04 #@! TO.C,R20*
G36*
X99764504Y-108346204D02*
X99788773Y-108349804D01*
X99812571Y-108355765D01*
X99835671Y-108364030D01*
X99857849Y-108374520D01*
X99878893Y-108387133D01*
X99898598Y-108401747D01*
X99916777Y-108418223D01*
X99933253Y-108436402D01*
X99947867Y-108456107D01*
X99960480Y-108477151D01*
X99970970Y-108499329D01*
X99979235Y-108522429D01*
X99985196Y-108546227D01*
X99988796Y-108570496D01*
X99990000Y-108595000D01*
X99990000Y-109845000D01*
X99988796Y-109869504D01*
X99985196Y-109893773D01*
X99979235Y-109917571D01*
X99970970Y-109940671D01*
X99960480Y-109962849D01*
X99947867Y-109983893D01*
X99933253Y-110003598D01*
X99916777Y-110021777D01*
X99898598Y-110038253D01*
X99878893Y-110052867D01*
X99857849Y-110065480D01*
X99835671Y-110075970D01*
X99812571Y-110084235D01*
X99788773Y-110090196D01*
X99764504Y-110093796D01*
X99740000Y-110095000D01*
X98815000Y-110095000D01*
X98790496Y-110093796D01*
X98766227Y-110090196D01*
X98742429Y-110084235D01*
X98719329Y-110075970D01*
X98697151Y-110065480D01*
X98676107Y-110052867D01*
X98656402Y-110038253D01*
X98638223Y-110021777D01*
X98621747Y-110003598D01*
X98607133Y-109983893D01*
X98594520Y-109962849D01*
X98584030Y-109940671D01*
X98575765Y-109917571D01*
X98569804Y-109893773D01*
X98566204Y-109869504D01*
X98565000Y-109845000D01*
X98565000Y-108595000D01*
X98566204Y-108570496D01*
X98569804Y-108546227D01*
X98575765Y-108522429D01*
X98584030Y-108499329D01*
X98594520Y-108477151D01*
X98607133Y-108456107D01*
X98621747Y-108436402D01*
X98638223Y-108418223D01*
X98656402Y-108401747D01*
X98676107Y-108387133D01*
X98697151Y-108374520D01*
X98719329Y-108364030D01*
X98742429Y-108355765D01*
X98766227Y-108349804D01*
X98790496Y-108346204D01*
X98815000Y-108345000D01*
X99740000Y-108345000D01*
X99764504Y-108346204D01*
X99764504Y-108346204D01*
G37*
D11*
X99277500Y-109220000D03*
D10*
G36*
X96789504Y-108346204D02*
X96813773Y-108349804D01*
X96837571Y-108355765D01*
X96860671Y-108364030D01*
X96882849Y-108374520D01*
X96903893Y-108387133D01*
X96923598Y-108401747D01*
X96941777Y-108418223D01*
X96958253Y-108436402D01*
X96972867Y-108456107D01*
X96985480Y-108477151D01*
X96995970Y-108499329D01*
X97004235Y-108522429D01*
X97010196Y-108546227D01*
X97013796Y-108570496D01*
X97015000Y-108595000D01*
X97015000Y-109845000D01*
X97013796Y-109869504D01*
X97010196Y-109893773D01*
X97004235Y-109917571D01*
X96995970Y-109940671D01*
X96985480Y-109962849D01*
X96972867Y-109983893D01*
X96958253Y-110003598D01*
X96941777Y-110021777D01*
X96923598Y-110038253D01*
X96903893Y-110052867D01*
X96882849Y-110065480D01*
X96860671Y-110075970D01*
X96837571Y-110084235D01*
X96813773Y-110090196D01*
X96789504Y-110093796D01*
X96765000Y-110095000D01*
X95840000Y-110095000D01*
X95815496Y-110093796D01*
X95791227Y-110090196D01*
X95767429Y-110084235D01*
X95744329Y-110075970D01*
X95722151Y-110065480D01*
X95701107Y-110052867D01*
X95681402Y-110038253D01*
X95663223Y-110021777D01*
X95646747Y-110003598D01*
X95632133Y-109983893D01*
X95619520Y-109962849D01*
X95609030Y-109940671D01*
X95600765Y-109917571D01*
X95594804Y-109893773D01*
X95591204Y-109869504D01*
X95590000Y-109845000D01*
X95590000Y-108595000D01*
X95591204Y-108570496D01*
X95594804Y-108546227D01*
X95600765Y-108522429D01*
X95609030Y-108499329D01*
X95619520Y-108477151D01*
X95632133Y-108456107D01*
X95646747Y-108436402D01*
X95663223Y-108418223D01*
X95681402Y-108401747D01*
X95701107Y-108387133D01*
X95722151Y-108374520D01*
X95744329Y-108364030D01*
X95767429Y-108355765D01*
X95791227Y-108349804D01*
X95815496Y-108346204D01*
X95840000Y-108345000D01*
X96765000Y-108345000D01*
X96789504Y-108346204D01*
X96789504Y-108346204D01*
G37*
D11*
X96302500Y-109220000D03*
G04 #@! TD*
D10*
G04 #@! TO.C,R21*
G36*
X118851004Y-114442204D02*
X118875273Y-114445804D01*
X118899071Y-114451765D01*
X118922171Y-114460030D01*
X118944349Y-114470520D01*
X118965393Y-114483133D01*
X118985098Y-114497747D01*
X119003277Y-114514223D01*
X119019753Y-114532402D01*
X119034367Y-114552107D01*
X119046980Y-114573151D01*
X119057470Y-114595329D01*
X119065735Y-114618429D01*
X119071696Y-114642227D01*
X119075296Y-114666496D01*
X119076500Y-114691000D01*
X119076500Y-115941000D01*
X119075296Y-115965504D01*
X119071696Y-115989773D01*
X119065735Y-116013571D01*
X119057470Y-116036671D01*
X119046980Y-116058849D01*
X119034367Y-116079893D01*
X119019753Y-116099598D01*
X119003277Y-116117777D01*
X118985098Y-116134253D01*
X118965393Y-116148867D01*
X118944349Y-116161480D01*
X118922171Y-116171970D01*
X118899071Y-116180235D01*
X118875273Y-116186196D01*
X118851004Y-116189796D01*
X118826500Y-116191000D01*
X117901500Y-116191000D01*
X117876996Y-116189796D01*
X117852727Y-116186196D01*
X117828929Y-116180235D01*
X117805829Y-116171970D01*
X117783651Y-116161480D01*
X117762607Y-116148867D01*
X117742902Y-116134253D01*
X117724723Y-116117777D01*
X117708247Y-116099598D01*
X117693633Y-116079893D01*
X117681020Y-116058849D01*
X117670530Y-116036671D01*
X117662265Y-116013571D01*
X117656304Y-115989773D01*
X117652704Y-115965504D01*
X117651500Y-115941000D01*
X117651500Y-114691000D01*
X117652704Y-114666496D01*
X117656304Y-114642227D01*
X117662265Y-114618429D01*
X117670530Y-114595329D01*
X117681020Y-114573151D01*
X117693633Y-114552107D01*
X117708247Y-114532402D01*
X117724723Y-114514223D01*
X117742902Y-114497747D01*
X117762607Y-114483133D01*
X117783651Y-114470520D01*
X117805829Y-114460030D01*
X117828929Y-114451765D01*
X117852727Y-114445804D01*
X117876996Y-114442204D01*
X117901500Y-114441000D01*
X118826500Y-114441000D01*
X118851004Y-114442204D01*
X118851004Y-114442204D01*
G37*
D11*
X118364000Y-115316000D03*
D10*
G36*
X121826004Y-114442204D02*
X121850273Y-114445804D01*
X121874071Y-114451765D01*
X121897171Y-114460030D01*
X121919349Y-114470520D01*
X121940393Y-114483133D01*
X121960098Y-114497747D01*
X121978277Y-114514223D01*
X121994753Y-114532402D01*
X122009367Y-114552107D01*
X122021980Y-114573151D01*
X122032470Y-114595329D01*
X122040735Y-114618429D01*
X122046696Y-114642227D01*
X122050296Y-114666496D01*
X122051500Y-114691000D01*
X122051500Y-115941000D01*
X122050296Y-115965504D01*
X122046696Y-115989773D01*
X122040735Y-116013571D01*
X122032470Y-116036671D01*
X122021980Y-116058849D01*
X122009367Y-116079893D01*
X121994753Y-116099598D01*
X121978277Y-116117777D01*
X121960098Y-116134253D01*
X121940393Y-116148867D01*
X121919349Y-116161480D01*
X121897171Y-116171970D01*
X121874071Y-116180235D01*
X121850273Y-116186196D01*
X121826004Y-116189796D01*
X121801500Y-116191000D01*
X120876500Y-116191000D01*
X120851996Y-116189796D01*
X120827727Y-116186196D01*
X120803929Y-116180235D01*
X120780829Y-116171970D01*
X120758651Y-116161480D01*
X120737607Y-116148867D01*
X120717902Y-116134253D01*
X120699723Y-116117777D01*
X120683247Y-116099598D01*
X120668633Y-116079893D01*
X120656020Y-116058849D01*
X120645530Y-116036671D01*
X120637265Y-116013571D01*
X120631304Y-115989773D01*
X120627704Y-115965504D01*
X120626500Y-115941000D01*
X120626500Y-114691000D01*
X120627704Y-114666496D01*
X120631304Y-114642227D01*
X120637265Y-114618429D01*
X120645530Y-114595329D01*
X120656020Y-114573151D01*
X120668633Y-114552107D01*
X120683247Y-114532402D01*
X120699723Y-114514223D01*
X120717902Y-114497747D01*
X120737607Y-114483133D01*
X120758651Y-114470520D01*
X120780829Y-114460030D01*
X120803929Y-114451765D01*
X120827727Y-114445804D01*
X120851996Y-114442204D01*
X120876500Y-114441000D01*
X121801500Y-114441000D01*
X121826004Y-114442204D01*
X121826004Y-114442204D01*
G37*
D11*
X121339000Y-115316000D03*
G04 #@! TD*
M02*
