G04 #@! TF.GenerationSoftware,KiCad,Pcbnew,5.0.2-bee76a0~70~ubuntu18.04.1*
G04 #@! TF.CreationDate,2019-02-08T11:17:56-07:00*
G04 #@! TF.ProjectId,driver,64726976-6572-42e6-9b69-6361645f7063,rev?*
G04 #@! TF.SameCoordinates,Original*
G04 #@! TF.FileFunction,Soldermask,Top*
G04 #@! TF.FilePolarity,Negative*
%FSLAX46Y46*%
G04 Gerber Fmt 4.6, Leading zero omitted, Abs format (unit mm)*
G04 Created by KiCad (PCBNEW 5.0.2-bee76a0~70~ubuntu18.04.1) date Fri 08 Feb 2019 11:17:56 AM MST*
%MOMM*%
%LPD*%
G01*
G04 APERTURE LIST*
%ADD10C,0.100000*%
G04 APERTURE END LIST*
D10*
G36*
X106511000Y-138991000D02*
X104409000Y-138991000D01*
X104409000Y-137389000D01*
X106511000Y-137389000D01*
X106511000Y-138991000D01*
X106511000Y-138991000D01*
G37*
G36*
X95081000Y-138991000D02*
X92979000Y-138991000D01*
X92979000Y-137389000D01*
X95081000Y-137389000D01*
X95081000Y-138991000D01*
X95081000Y-138991000D01*
G37*
G36*
X101381000Y-137841000D02*
X99279000Y-137841000D01*
X99279000Y-133939000D01*
X101381000Y-133939000D01*
X101381000Y-137841000D01*
X101381000Y-137841000D01*
G37*
G36*
X112811000Y-137841000D02*
X110709000Y-137841000D01*
X110709000Y-133939000D01*
X112811000Y-133939000D01*
X112811000Y-137841000D01*
X112811000Y-137841000D01*
G37*
G36*
X78144821Y-136067313D02*
X78144824Y-136067314D01*
X78144825Y-136067314D01*
X78305239Y-136115975D01*
X78305241Y-136115976D01*
X78305244Y-136115977D01*
X78453078Y-136194995D01*
X78582659Y-136301341D01*
X78689005Y-136430922D01*
X78768023Y-136578756D01*
X78816687Y-136739179D01*
X78833117Y-136906000D01*
X78816687Y-137072821D01*
X78768023Y-137233244D01*
X78689005Y-137381078D01*
X78582659Y-137510659D01*
X78453078Y-137617005D01*
X78305244Y-137696023D01*
X78305241Y-137696024D01*
X78305239Y-137696025D01*
X78144825Y-137744686D01*
X78144824Y-137744686D01*
X78144821Y-137744687D01*
X78019804Y-137757000D01*
X77936196Y-137757000D01*
X77811179Y-137744687D01*
X77811176Y-137744686D01*
X77811175Y-137744686D01*
X77650761Y-137696025D01*
X77650759Y-137696024D01*
X77650756Y-137696023D01*
X77502922Y-137617005D01*
X77373341Y-137510659D01*
X77266995Y-137381078D01*
X77187977Y-137233244D01*
X77139313Y-137072821D01*
X77122883Y-136906000D01*
X77139313Y-136739179D01*
X77187977Y-136578756D01*
X77266995Y-136430922D01*
X77373341Y-136301341D01*
X77502922Y-136194995D01*
X77650756Y-136115977D01*
X77650759Y-136115976D01*
X77650761Y-136115975D01*
X77811175Y-136067314D01*
X77811176Y-136067314D01*
X77811179Y-136067313D01*
X77936196Y-136055000D01*
X78019804Y-136055000D01*
X78144821Y-136067313D01*
X78144821Y-136067313D01*
G37*
G36*
X126404821Y-136067313D02*
X126404824Y-136067314D01*
X126404825Y-136067314D01*
X126565239Y-136115975D01*
X126565241Y-136115976D01*
X126565244Y-136115977D01*
X126713078Y-136194995D01*
X126842659Y-136301341D01*
X126949005Y-136430922D01*
X127028023Y-136578756D01*
X127076687Y-136739179D01*
X127093117Y-136906000D01*
X127076687Y-137072821D01*
X127028023Y-137233244D01*
X126949005Y-137381078D01*
X126842659Y-137510659D01*
X126713078Y-137617005D01*
X126565244Y-137696023D01*
X126565241Y-137696024D01*
X126565239Y-137696025D01*
X126404825Y-137744686D01*
X126404824Y-137744686D01*
X126404821Y-137744687D01*
X126279804Y-137757000D01*
X126196196Y-137757000D01*
X126071179Y-137744687D01*
X126071176Y-137744686D01*
X126071175Y-137744686D01*
X125910761Y-137696025D01*
X125910759Y-137696024D01*
X125910756Y-137696023D01*
X125762922Y-137617005D01*
X125633341Y-137510659D01*
X125526995Y-137381078D01*
X125447977Y-137233244D01*
X125399313Y-137072821D01*
X125382883Y-136906000D01*
X125399313Y-136739179D01*
X125447977Y-136578756D01*
X125526995Y-136430922D01*
X125633341Y-136301341D01*
X125762922Y-136194995D01*
X125910756Y-136115977D01*
X125910759Y-136115976D01*
X125910761Y-136115975D01*
X126071175Y-136067314D01*
X126071176Y-136067314D01*
X126071179Y-136067313D01*
X126196196Y-136055000D01*
X126279804Y-136055000D01*
X126404821Y-136067313D01*
X126404821Y-136067313D01*
G37*
G36*
X106511000Y-136691000D02*
X104409000Y-136691000D01*
X104409000Y-135089000D01*
X106511000Y-135089000D01*
X106511000Y-136691000D01*
X106511000Y-136691000D01*
G37*
G36*
X95081000Y-136691000D02*
X92979000Y-136691000D01*
X92979000Y-135089000D01*
X95081000Y-135089000D01*
X95081000Y-136691000D01*
X95081000Y-136691000D01*
G37*
G36*
X117941000Y-136451000D02*
X115839000Y-136451000D01*
X115839000Y-134849000D01*
X117941000Y-134849000D01*
X117941000Y-136451000D01*
X117941000Y-136451000D01*
G37*
G36*
X86470443Y-133725519D02*
X86536627Y-133732037D01*
X86649853Y-133766384D01*
X86706467Y-133783557D01*
X86845087Y-133857652D01*
X86862991Y-133867222D01*
X86891869Y-133890922D01*
X87000186Y-133979814D01*
X87083448Y-134081271D01*
X87112778Y-134117009D01*
X87112779Y-134117011D01*
X87196443Y-134273533D01*
X87196443Y-134273534D01*
X87247963Y-134443373D01*
X87265359Y-134620000D01*
X87247963Y-134796627D01*
X87234479Y-134841078D01*
X87196443Y-134966467D01*
X87194202Y-134970659D01*
X87112778Y-135122991D01*
X87083448Y-135158729D01*
X87000186Y-135260186D01*
X86898729Y-135343448D01*
X86862991Y-135372778D01*
X86862989Y-135372779D01*
X86706467Y-135456443D01*
X86649853Y-135473616D01*
X86536627Y-135507963D01*
X86470443Y-135514481D01*
X86404260Y-135521000D01*
X86315740Y-135521000D01*
X86249557Y-135514481D01*
X86183373Y-135507963D01*
X86070147Y-135473616D01*
X86013533Y-135456443D01*
X85857011Y-135372779D01*
X85857009Y-135372778D01*
X85821271Y-135343448D01*
X85719814Y-135260186D01*
X85636552Y-135158729D01*
X85607222Y-135122991D01*
X85525798Y-134970659D01*
X85523557Y-134966467D01*
X85485521Y-134841078D01*
X85472037Y-134796627D01*
X85454641Y-134620000D01*
X85472037Y-134443373D01*
X85523557Y-134273534D01*
X85523557Y-134273533D01*
X85607221Y-134117011D01*
X85607222Y-134117009D01*
X85636552Y-134081271D01*
X85719814Y-133979814D01*
X85828131Y-133890922D01*
X85857009Y-133867222D01*
X85874913Y-133857652D01*
X86013533Y-133783557D01*
X86070147Y-133766384D01*
X86183373Y-133732037D01*
X86249557Y-133725519D01*
X86315740Y-133719000D01*
X86404260Y-133719000D01*
X86470443Y-133725519D01*
X86470443Y-133725519D01*
G37*
G36*
X89801000Y-135521000D02*
X87999000Y-135521000D01*
X87999000Y-133719000D01*
X89801000Y-133719000D01*
X89801000Y-135521000D01*
X89801000Y-135521000D01*
G37*
G36*
X124241000Y-135301000D02*
X122139000Y-135301000D01*
X122139000Y-131399000D01*
X124241000Y-131399000D01*
X124241000Y-135301000D01*
X124241000Y-135301000D01*
G37*
G36*
X126404821Y-133527313D02*
X126404824Y-133527314D01*
X126404825Y-133527314D01*
X126565239Y-133575975D01*
X126565241Y-133575976D01*
X126565244Y-133575977D01*
X126713078Y-133654995D01*
X126842659Y-133761341D01*
X126949005Y-133890922D01*
X127028023Y-134038756D01*
X127028024Y-134038759D01*
X127028025Y-134038761D01*
X127062072Y-134151000D01*
X127076687Y-134199179D01*
X127093117Y-134366000D01*
X127076687Y-134532821D01*
X127076686Y-134532824D01*
X127076686Y-134532825D01*
X127050242Y-134620000D01*
X127028023Y-134693244D01*
X126949005Y-134841078D01*
X126842659Y-134970659D01*
X126713078Y-135077005D01*
X126565244Y-135156023D01*
X126565241Y-135156024D01*
X126565239Y-135156025D01*
X126404825Y-135204686D01*
X126404824Y-135204686D01*
X126404821Y-135204687D01*
X126279804Y-135217000D01*
X126196196Y-135217000D01*
X126071179Y-135204687D01*
X126071176Y-135204686D01*
X126071175Y-135204686D01*
X125910761Y-135156025D01*
X125910759Y-135156024D01*
X125910756Y-135156023D01*
X125762922Y-135077005D01*
X125633341Y-134970659D01*
X125526995Y-134841078D01*
X125447977Y-134693244D01*
X125425759Y-134620000D01*
X125399314Y-134532825D01*
X125399314Y-134532824D01*
X125399313Y-134532821D01*
X125382883Y-134366000D01*
X125399313Y-134199179D01*
X125413928Y-134151000D01*
X125447975Y-134038761D01*
X125447976Y-134038759D01*
X125447977Y-134038756D01*
X125526995Y-133890922D01*
X125633341Y-133761341D01*
X125762922Y-133654995D01*
X125910756Y-133575977D01*
X125910759Y-133575976D01*
X125910761Y-133575975D01*
X126071175Y-133527314D01*
X126071176Y-133527314D01*
X126071179Y-133527313D01*
X126196196Y-133515000D01*
X126279804Y-133515000D01*
X126404821Y-133527313D01*
X126404821Y-133527313D01*
G37*
G36*
X78144821Y-133527313D02*
X78144824Y-133527314D01*
X78144825Y-133527314D01*
X78305239Y-133575975D01*
X78305241Y-133575976D01*
X78305244Y-133575977D01*
X78453078Y-133654995D01*
X78582659Y-133761341D01*
X78689005Y-133890922D01*
X78768023Y-134038756D01*
X78768024Y-134038759D01*
X78768025Y-134038761D01*
X78802072Y-134151000D01*
X78816687Y-134199179D01*
X78833117Y-134366000D01*
X78816687Y-134532821D01*
X78816686Y-134532824D01*
X78816686Y-134532825D01*
X78790242Y-134620000D01*
X78768023Y-134693244D01*
X78689005Y-134841078D01*
X78582659Y-134970659D01*
X78453078Y-135077005D01*
X78305244Y-135156023D01*
X78305241Y-135156024D01*
X78305239Y-135156025D01*
X78144825Y-135204686D01*
X78144824Y-135204686D01*
X78144821Y-135204687D01*
X78019804Y-135217000D01*
X77936196Y-135217000D01*
X77811179Y-135204687D01*
X77811176Y-135204686D01*
X77811175Y-135204686D01*
X77650761Y-135156025D01*
X77650759Y-135156024D01*
X77650756Y-135156023D01*
X77502922Y-135077005D01*
X77373341Y-134970659D01*
X77266995Y-134841078D01*
X77187977Y-134693244D01*
X77165759Y-134620000D01*
X77139314Y-134532825D01*
X77139314Y-134532824D01*
X77139313Y-134532821D01*
X77122883Y-134366000D01*
X77139313Y-134199179D01*
X77153928Y-134151000D01*
X77187975Y-134038761D01*
X77187976Y-134038759D01*
X77187977Y-134038756D01*
X77266995Y-133890922D01*
X77373341Y-133761341D01*
X77502922Y-133654995D01*
X77650756Y-133575977D01*
X77650759Y-133575976D01*
X77650761Y-133575975D01*
X77811175Y-133527314D01*
X77811176Y-133527314D01*
X77811179Y-133527313D01*
X77936196Y-133515000D01*
X78019804Y-133515000D01*
X78144821Y-133527313D01*
X78144821Y-133527313D01*
G37*
G36*
X95081000Y-134391000D02*
X92979000Y-134391000D01*
X92979000Y-132789000D01*
X95081000Y-132789000D01*
X95081000Y-134391000D01*
X95081000Y-134391000D01*
G37*
G36*
X106511000Y-134391000D02*
X104409000Y-134391000D01*
X104409000Y-132789000D01*
X106511000Y-132789000D01*
X106511000Y-134391000D01*
X106511000Y-134391000D01*
G37*
G36*
X117941000Y-134151000D02*
X115839000Y-134151000D01*
X115839000Y-132549000D01*
X117941000Y-132549000D01*
X117941000Y-134151000D01*
X117941000Y-134151000D01*
G37*
G36*
X86470442Y-131185518D02*
X86536627Y-131192037D01*
X86649853Y-131226384D01*
X86706467Y-131243557D01*
X86845087Y-131317652D01*
X86862991Y-131327222D01*
X86891869Y-131350922D01*
X87000186Y-131439814D01*
X87083448Y-131541271D01*
X87112778Y-131577009D01*
X87112779Y-131577011D01*
X87196443Y-131733533D01*
X87196443Y-131733534D01*
X87247963Y-131903373D01*
X87265359Y-132080000D01*
X87247963Y-132256627D01*
X87234479Y-132301078D01*
X87196443Y-132426467D01*
X87194202Y-132430659D01*
X87112778Y-132582991D01*
X87083448Y-132618729D01*
X87000186Y-132720186D01*
X86898729Y-132803448D01*
X86862991Y-132832778D01*
X86862989Y-132832779D01*
X86706467Y-132916443D01*
X86649853Y-132933616D01*
X86536627Y-132967963D01*
X86470443Y-132974481D01*
X86404260Y-132981000D01*
X86315740Y-132981000D01*
X86249557Y-132974481D01*
X86183373Y-132967963D01*
X86070147Y-132933616D01*
X86013533Y-132916443D01*
X85857011Y-132832779D01*
X85857009Y-132832778D01*
X85821271Y-132803448D01*
X85719814Y-132720186D01*
X85636552Y-132618729D01*
X85607222Y-132582991D01*
X85525798Y-132430659D01*
X85523557Y-132426467D01*
X85485521Y-132301078D01*
X85472037Y-132256627D01*
X85454641Y-132080000D01*
X85472037Y-131903373D01*
X85523557Y-131733534D01*
X85523557Y-131733533D01*
X85607221Y-131577011D01*
X85607222Y-131577009D01*
X85636552Y-131541271D01*
X85719814Y-131439814D01*
X85828131Y-131350922D01*
X85857009Y-131327222D01*
X85874913Y-131317652D01*
X86013533Y-131243557D01*
X86070147Y-131226384D01*
X86183373Y-131192037D01*
X86249558Y-131185518D01*
X86315740Y-131179000D01*
X86404260Y-131179000D01*
X86470442Y-131185518D01*
X86470442Y-131185518D01*
G37*
G36*
X89010442Y-131185518D02*
X89076627Y-131192037D01*
X89189853Y-131226384D01*
X89246467Y-131243557D01*
X89385087Y-131317652D01*
X89402991Y-131327222D01*
X89431869Y-131350922D01*
X89540186Y-131439814D01*
X89623448Y-131541271D01*
X89652778Y-131577009D01*
X89652779Y-131577011D01*
X89736443Y-131733533D01*
X89736443Y-131733534D01*
X89787963Y-131903373D01*
X89805359Y-132080000D01*
X89787963Y-132256627D01*
X89774479Y-132301078D01*
X89736443Y-132426467D01*
X89734202Y-132430659D01*
X89652778Y-132582991D01*
X89623448Y-132618729D01*
X89540186Y-132720186D01*
X89438729Y-132803448D01*
X89402991Y-132832778D01*
X89402989Y-132832779D01*
X89246467Y-132916443D01*
X89189853Y-132933616D01*
X89076627Y-132967963D01*
X89010443Y-132974481D01*
X88944260Y-132981000D01*
X88855740Y-132981000D01*
X88789557Y-132974481D01*
X88723373Y-132967963D01*
X88610147Y-132933616D01*
X88553533Y-132916443D01*
X88397011Y-132832779D01*
X88397009Y-132832778D01*
X88361271Y-132803448D01*
X88259814Y-132720186D01*
X88176552Y-132618729D01*
X88147222Y-132582991D01*
X88065798Y-132430659D01*
X88063557Y-132426467D01*
X88025521Y-132301078D01*
X88012037Y-132256627D01*
X87994641Y-132080000D01*
X88012037Y-131903373D01*
X88063557Y-131733534D01*
X88063557Y-131733533D01*
X88147221Y-131577011D01*
X88147222Y-131577009D01*
X88176552Y-131541271D01*
X88259814Y-131439814D01*
X88368131Y-131350922D01*
X88397009Y-131327222D01*
X88414913Y-131317652D01*
X88553533Y-131243557D01*
X88610147Y-131226384D01*
X88723373Y-131192037D01*
X88789558Y-131185518D01*
X88855740Y-131179000D01*
X88944260Y-131179000D01*
X89010442Y-131185518D01*
X89010442Y-131185518D01*
G37*
G36*
X78144821Y-130987313D02*
X78144824Y-130987314D01*
X78144825Y-130987314D01*
X78305239Y-131035975D01*
X78305241Y-131035976D01*
X78305244Y-131035977D01*
X78453078Y-131114995D01*
X78582659Y-131221341D01*
X78689005Y-131350922D01*
X78768023Y-131498756D01*
X78768024Y-131498759D01*
X78768025Y-131498761D01*
X78816686Y-131659175D01*
X78816687Y-131659179D01*
X78833117Y-131826000D01*
X78816687Y-131992821D01*
X78816686Y-131992824D01*
X78816686Y-131992825D01*
X78790242Y-132080000D01*
X78768023Y-132153244D01*
X78689005Y-132301078D01*
X78582659Y-132430659D01*
X78453078Y-132537005D01*
X78305244Y-132616023D01*
X78305241Y-132616024D01*
X78305239Y-132616025D01*
X78144825Y-132664686D01*
X78144824Y-132664686D01*
X78144821Y-132664687D01*
X78019804Y-132677000D01*
X77936196Y-132677000D01*
X77811179Y-132664687D01*
X77811176Y-132664686D01*
X77811175Y-132664686D01*
X77650761Y-132616025D01*
X77650759Y-132616024D01*
X77650756Y-132616023D01*
X77502922Y-132537005D01*
X77373341Y-132430659D01*
X77266995Y-132301078D01*
X77187977Y-132153244D01*
X77165759Y-132080000D01*
X77139314Y-131992825D01*
X77139314Y-131992824D01*
X77139313Y-131992821D01*
X77122883Y-131826000D01*
X77139313Y-131659179D01*
X77139314Y-131659175D01*
X77187975Y-131498761D01*
X77187976Y-131498759D01*
X77187977Y-131498756D01*
X77266995Y-131350922D01*
X77373341Y-131221341D01*
X77502922Y-131114995D01*
X77650756Y-131035977D01*
X77650759Y-131035976D01*
X77650761Y-131035975D01*
X77811175Y-130987314D01*
X77811176Y-130987314D01*
X77811179Y-130987313D01*
X77936196Y-130975000D01*
X78019804Y-130975000D01*
X78144821Y-130987313D01*
X78144821Y-130987313D01*
G37*
G36*
X126404821Y-130987313D02*
X126404824Y-130987314D01*
X126404825Y-130987314D01*
X126565239Y-131035975D01*
X126565241Y-131035976D01*
X126565244Y-131035977D01*
X126713078Y-131114995D01*
X126842659Y-131221341D01*
X126949005Y-131350922D01*
X127028023Y-131498756D01*
X127028024Y-131498759D01*
X127028025Y-131498761D01*
X127076686Y-131659175D01*
X127076687Y-131659179D01*
X127093117Y-131826000D01*
X127076687Y-131992821D01*
X127076686Y-131992824D01*
X127076686Y-131992825D01*
X127050242Y-132080000D01*
X127028023Y-132153244D01*
X126949005Y-132301078D01*
X126842659Y-132430659D01*
X126713078Y-132537005D01*
X126565244Y-132616023D01*
X126565241Y-132616024D01*
X126565239Y-132616025D01*
X126404825Y-132664686D01*
X126404824Y-132664686D01*
X126404821Y-132664687D01*
X126279804Y-132677000D01*
X126196196Y-132677000D01*
X126071179Y-132664687D01*
X126071176Y-132664686D01*
X126071175Y-132664686D01*
X125910761Y-132616025D01*
X125910759Y-132616024D01*
X125910756Y-132616023D01*
X125762922Y-132537005D01*
X125633341Y-132430659D01*
X125526995Y-132301078D01*
X125447977Y-132153244D01*
X125425759Y-132080000D01*
X125399314Y-131992825D01*
X125399314Y-131992824D01*
X125399313Y-131992821D01*
X125382883Y-131826000D01*
X125399313Y-131659179D01*
X125399314Y-131659175D01*
X125447975Y-131498761D01*
X125447976Y-131498759D01*
X125447977Y-131498756D01*
X125526995Y-131350922D01*
X125633341Y-131221341D01*
X125762922Y-131114995D01*
X125910756Y-131035977D01*
X125910759Y-131035976D01*
X125910761Y-131035975D01*
X126071175Y-130987314D01*
X126071176Y-130987314D01*
X126071179Y-130987313D01*
X126196196Y-130975000D01*
X126279804Y-130975000D01*
X126404821Y-130987313D01*
X126404821Y-130987313D01*
G37*
G36*
X117941000Y-131851000D02*
X115839000Y-131851000D01*
X115839000Y-130249000D01*
X117941000Y-130249000D01*
X117941000Y-131851000D01*
X117941000Y-131851000D01*
G37*
G36*
X86470443Y-128645519D02*
X86536627Y-128652037D01*
X86649853Y-128686384D01*
X86706467Y-128703557D01*
X86845087Y-128777652D01*
X86862991Y-128787222D01*
X86891869Y-128810922D01*
X87000186Y-128899814D01*
X87083448Y-129001271D01*
X87112778Y-129037009D01*
X87112779Y-129037011D01*
X87196443Y-129193533D01*
X87196443Y-129193534D01*
X87247963Y-129363373D01*
X87265359Y-129540000D01*
X87247963Y-129716627D01*
X87234479Y-129761078D01*
X87196443Y-129886467D01*
X87194202Y-129890659D01*
X87112778Y-130042991D01*
X87083448Y-130078729D01*
X87000186Y-130180186D01*
X86898729Y-130263448D01*
X86862991Y-130292778D01*
X86862989Y-130292779D01*
X86706467Y-130376443D01*
X86649853Y-130393616D01*
X86536627Y-130427963D01*
X86470443Y-130434481D01*
X86404260Y-130441000D01*
X86315740Y-130441000D01*
X86249557Y-130434481D01*
X86183373Y-130427963D01*
X86070147Y-130393616D01*
X86013533Y-130376443D01*
X85857011Y-130292779D01*
X85857009Y-130292778D01*
X85821271Y-130263448D01*
X85719814Y-130180186D01*
X85636552Y-130078729D01*
X85607222Y-130042991D01*
X85525798Y-129890659D01*
X85523557Y-129886467D01*
X85485521Y-129761078D01*
X85472037Y-129716627D01*
X85454641Y-129540000D01*
X85472037Y-129363373D01*
X85523557Y-129193534D01*
X85523557Y-129193533D01*
X85607221Y-129037011D01*
X85607222Y-129037009D01*
X85636552Y-129001271D01*
X85719814Y-128899814D01*
X85828131Y-128810922D01*
X85857009Y-128787222D01*
X85874913Y-128777652D01*
X86013533Y-128703557D01*
X86070147Y-128686384D01*
X86183373Y-128652037D01*
X86249557Y-128645519D01*
X86315740Y-128639000D01*
X86404260Y-128639000D01*
X86470443Y-128645519D01*
X86470443Y-128645519D01*
G37*
G36*
X89010443Y-128645519D02*
X89076627Y-128652037D01*
X89189853Y-128686384D01*
X89246467Y-128703557D01*
X89385087Y-128777652D01*
X89402991Y-128787222D01*
X89431869Y-128810922D01*
X89540186Y-128899814D01*
X89623448Y-129001271D01*
X89652778Y-129037009D01*
X89652779Y-129037011D01*
X89736443Y-129193533D01*
X89736443Y-129193534D01*
X89787963Y-129363373D01*
X89805359Y-129540000D01*
X89787963Y-129716627D01*
X89774479Y-129761078D01*
X89736443Y-129886467D01*
X89734202Y-129890659D01*
X89652778Y-130042991D01*
X89623448Y-130078729D01*
X89540186Y-130180186D01*
X89438729Y-130263448D01*
X89402991Y-130292778D01*
X89402989Y-130292779D01*
X89246467Y-130376443D01*
X89189853Y-130393616D01*
X89076627Y-130427963D01*
X89010443Y-130434481D01*
X88944260Y-130441000D01*
X88855740Y-130441000D01*
X88789557Y-130434481D01*
X88723373Y-130427963D01*
X88610147Y-130393616D01*
X88553533Y-130376443D01*
X88397011Y-130292779D01*
X88397009Y-130292778D01*
X88361271Y-130263448D01*
X88259814Y-130180186D01*
X88176552Y-130078729D01*
X88147222Y-130042991D01*
X88065798Y-129890659D01*
X88063557Y-129886467D01*
X88025521Y-129761078D01*
X88012037Y-129716627D01*
X87994641Y-129540000D01*
X88012037Y-129363373D01*
X88063557Y-129193534D01*
X88063557Y-129193533D01*
X88147221Y-129037011D01*
X88147222Y-129037009D01*
X88176552Y-129001271D01*
X88259814Y-128899814D01*
X88368131Y-128810922D01*
X88397009Y-128787222D01*
X88414913Y-128777652D01*
X88553533Y-128703557D01*
X88610147Y-128686384D01*
X88723373Y-128652037D01*
X88789557Y-128645519D01*
X88855740Y-128639000D01*
X88944260Y-128639000D01*
X89010443Y-128645519D01*
X89010443Y-128645519D01*
G37*
G36*
X126404821Y-128447313D02*
X126404824Y-128447314D01*
X126404825Y-128447314D01*
X126565239Y-128495975D01*
X126565241Y-128495976D01*
X126565244Y-128495977D01*
X126713078Y-128574995D01*
X126842659Y-128681341D01*
X126949005Y-128810922D01*
X127028023Y-128958756D01*
X127028024Y-128958759D01*
X127028025Y-128958761D01*
X127076686Y-129119175D01*
X127076687Y-129119179D01*
X127093117Y-129286000D01*
X127076687Y-129452821D01*
X127076686Y-129452824D01*
X127076686Y-129452825D01*
X127050242Y-129540000D01*
X127028023Y-129613244D01*
X126949005Y-129761078D01*
X126842659Y-129890659D01*
X126713078Y-129997005D01*
X126565244Y-130076023D01*
X126565241Y-130076024D01*
X126565239Y-130076025D01*
X126404825Y-130124686D01*
X126404824Y-130124686D01*
X126404821Y-130124687D01*
X126279804Y-130137000D01*
X126196196Y-130137000D01*
X126071179Y-130124687D01*
X126071176Y-130124686D01*
X126071175Y-130124686D01*
X125910761Y-130076025D01*
X125910759Y-130076024D01*
X125910756Y-130076023D01*
X125762922Y-129997005D01*
X125633341Y-129890659D01*
X125526995Y-129761078D01*
X125447977Y-129613244D01*
X125425759Y-129540000D01*
X125399314Y-129452825D01*
X125399314Y-129452824D01*
X125399313Y-129452821D01*
X125382883Y-129286000D01*
X125399313Y-129119179D01*
X125399314Y-129119175D01*
X125447975Y-128958761D01*
X125447976Y-128958759D01*
X125447977Y-128958756D01*
X125526995Y-128810922D01*
X125633341Y-128681341D01*
X125762922Y-128574995D01*
X125910756Y-128495977D01*
X125910759Y-128495976D01*
X125910761Y-128495975D01*
X126071175Y-128447314D01*
X126071176Y-128447314D01*
X126071179Y-128447313D01*
X126196196Y-128435000D01*
X126279804Y-128435000D01*
X126404821Y-128447313D01*
X126404821Y-128447313D01*
G37*
G36*
X78144821Y-128447313D02*
X78144824Y-128447314D01*
X78144825Y-128447314D01*
X78305239Y-128495975D01*
X78305241Y-128495976D01*
X78305244Y-128495977D01*
X78453078Y-128574995D01*
X78582659Y-128681341D01*
X78689005Y-128810922D01*
X78768023Y-128958756D01*
X78768024Y-128958759D01*
X78768025Y-128958761D01*
X78816686Y-129119175D01*
X78816687Y-129119179D01*
X78833117Y-129286000D01*
X78816687Y-129452821D01*
X78816686Y-129452824D01*
X78816686Y-129452825D01*
X78790242Y-129540000D01*
X78768023Y-129613244D01*
X78689005Y-129761078D01*
X78582659Y-129890659D01*
X78453078Y-129997005D01*
X78305244Y-130076023D01*
X78305241Y-130076024D01*
X78305239Y-130076025D01*
X78144825Y-130124686D01*
X78144824Y-130124686D01*
X78144821Y-130124687D01*
X78019804Y-130137000D01*
X77936196Y-130137000D01*
X77811179Y-130124687D01*
X77811176Y-130124686D01*
X77811175Y-130124686D01*
X77650761Y-130076025D01*
X77650759Y-130076024D01*
X77650756Y-130076023D01*
X77502922Y-129997005D01*
X77373341Y-129890659D01*
X77266995Y-129761078D01*
X77187977Y-129613244D01*
X77165759Y-129540000D01*
X77139314Y-129452825D01*
X77139314Y-129452824D01*
X77139313Y-129452821D01*
X77122883Y-129286000D01*
X77139313Y-129119179D01*
X77139314Y-129119175D01*
X77187975Y-128958761D01*
X77187976Y-128958759D01*
X77187977Y-128958756D01*
X77266995Y-128810922D01*
X77373341Y-128681341D01*
X77502922Y-128574995D01*
X77650756Y-128495977D01*
X77650759Y-128495976D01*
X77650761Y-128495975D01*
X77811175Y-128447314D01*
X77811176Y-128447314D01*
X77811179Y-128447313D01*
X77936196Y-128435000D01*
X78019804Y-128435000D01*
X78144821Y-128447313D01*
X78144821Y-128447313D01*
G37*
G36*
X106511000Y-130101000D02*
X104409000Y-130101000D01*
X104409000Y-128499000D01*
X106511000Y-128499000D01*
X106511000Y-130101000D01*
X106511000Y-130101000D01*
G37*
G36*
X95081000Y-130101000D02*
X92979000Y-130101000D01*
X92979000Y-128499000D01*
X95081000Y-128499000D01*
X95081000Y-130101000D01*
X95081000Y-130101000D01*
G37*
G36*
X112811000Y-128951000D02*
X110709000Y-128951000D01*
X110709000Y-125049000D01*
X112811000Y-125049000D01*
X112811000Y-128951000D01*
X112811000Y-128951000D01*
G37*
G36*
X101381000Y-128951000D02*
X99279000Y-128951000D01*
X99279000Y-125049000D01*
X101381000Y-125049000D01*
X101381000Y-128951000D01*
X101381000Y-128951000D01*
G37*
G36*
X86470443Y-126105519D02*
X86536627Y-126112037D01*
X86649853Y-126146384D01*
X86706467Y-126163557D01*
X86772775Y-126199000D01*
X86862991Y-126247222D01*
X86891869Y-126270922D01*
X87000186Y-126359814D01*
X87083448Y-126461271D01*
X87112778Y-126497009D01*
X87112779Y-126497011D01*
X87196443Y-126653533D01*
X87196443Y-126653534D01*
X87247963Y-126823373D01*
X87265359Y-127000000D01*
X87247963Y-127176627D01*
X87234479Y-127221078D01*
X87196443Y-127346467D01*
X87194202Y-127350659D01*
X87112778Y-127502991D01*
X87083448Y-127538729D01*
X87000186Y-127640186D01*
X86898729Y-127723448D01*
X86862991Y-127752778D01*
X86862989Y-127752779D01*
X86706467Y-127836443D01*
X86649853Y-127853616D01*
X86536627Y-127887963D01*
X86470442Y-127894482D01*
X86404260Y-127901000D01*
X86315740Y-127901000D01*
X86249558Y-127894482D01*
X86183373Y-127887963D01*
X86070147Y-127853616D01*
X86013533Y-127836443D01*
X85857011Y-127752779D01*
X85857009Y-127752778D01*
X85821271Y-127723448D01*
X85719814Y-127640186D01*
X85636552Y-127538729D01*
X85607222Y-127502991D01*
X85525798Y-127350659D01*
X85523557Y-127346467D01*
X85485521Y-127221078D01*
X85472037Y-127176627D01*
X85454641Y-127000000D01*
X85472037Y-126823373D01*
X85523557Y-126653534D01*
X85523557Y-126653533D01*
X85607221Y-126497011D01*
X85607222Y-126497009D01*
X85636552Y-126461271D01*
X85719814Y-126359814D01*
X85828131Y-126270922D01*
X85857009Y-126247222D01*
X85947225Y-126199000D01*
X86013533Y-126163557D01*
X86070147Y-126146384D01*
X86183373Y-126112037D01*
X86249557Y-126105519D01*
X86315740Y-126099000D01*
X86404260Y-126099000D01*
X86470443Y-126105519D01*
X86470443Y-126105519D01*
G37*
G36*
X89010443Y-126105519D02*
X89076627Y-126112037D01*
X89189853Y-126146384D01*
X89246467Y-126163557D01*
X89312775Y-126199000D01*
X89402991Y-126247222D01*
X89431869Y-126270922D01*
X89540186Y-126359814D01*
X89623448Y-126461271D01*
X89652778Y-126497009D01*
X89652779Y-126497011D01*
X89736443Y-126653533D01*
X89736443Y-126653534D01*
X89787963Y-126823373D01*
X89805359Y-127000000D01*
X89787963Y-127176627D01*
X89774479Y-127221078D01*
X89736443Y-127346467D01*
X89734202Y-127350659D01*
X89652778Y-127502991D01*
X89623448Y-127538729D01*
X89540186Y-127640186D01*
X89438729Y-127723448D01*
X89402991Y-127752778D01*
X89402989Y-127752779D01*
X89246467Y-127836443D01*
X89189853Y-127853616D01*
X89076627Y-127887963D01*
X89010442Y-127894482D01*
X88944260Y-127901000D01*
X88855740Y-127901000D01*
X88789558Y-127894482D01*
X88723373Y-127887963D01*
X88610147Y-127853616D01*
X88553533Y-127836443D01*
X88397011Y-127752779D01*
X88397009Y-127752778D01*
X88361271Y-127723448D01*
X88259814Y-127640186D01*
X88176552Y-127538729D01*
X88147222Y-127502991D01*
X88065798Y-127350659D01*
X88063557Y-127346467D01*
X88025521Y-127221078D01*
X88012037Y-127176627D01*
X87994641Y-127000000D01*
X88012037Y-126823373D01*
X88063557Y-126653534D01*
X88063557Y-126653533D01*
X88147221Y-126497011D01*
X88147222Y-126497009D01*
X88176552Y-126461271D01*
X88259814Y-126359814D01*
X88368131Y-126270922D01*
X88397009Y-126247222D01*
X88487225Y-126199000D01*
X88553533Y-126163557D01*
X88610147Y-126146384D01*
X88723373Y-126112037D01*
X88789557Y-126105519D01*
X88855740Y-126099000D01*
X88944260Y-126099000D01*
X89010443Y-126105519D01*
X89010443Y-126105519D01*
G37*
G36*
X106511000Y-127801000D02*
X104409000Y-127801000D01*
X104409000Y-126199000D01*
X106511000Y-126199000D01*
X106511000Y-127801000D01*
X106511000Y-127801000D01*
G37*
G36*
X95081000Y-127801000D02*
X92979000Y-127801000D01*
X92979000Y-126199000D01*
X95081000Y-126199000D01*
X95081000Y-127801000D01*
X95081000Y-127801000D01*
G37*
G36*
X126404821Y-125907313D02*
X126404824Y-125907314D01*
X126404825Y-125907314D01*
X126565239Y-125955975D01*
X126565241Y-125955976D01*
X126565244Y-125955977D01*
X126713078Y-126034995D01*
X126842659Y-126141341D01*
X126949005Y-126270922D01*
X127028023Y-126418756D01*
X127028024Y-126418759D01*
X127028025Y-126418761D01*
X127076686Y-126579175D01*
X127076687Y-126579179D01*
X127093117Y-126746000D01*
X127076687Y-126912821D01*
X127076686Y-126912824D01*
X127076686Y-126912825D01*
X127050242Y-127000000D01*
X127028023Y-127073244D01*
X126949005Y-127221078D01*
X126842659Y-127350659D01*
X126713078Y-127457005D01*
X126565244Y-127536023D01*
X126565241Y-127536024D01*
X126565239Y-127536025D01*
X126404825Y-127584686D01*
X126404824Y-127584686D01*
X126404821Y-127584687D01*
X126279804Y-127597000D01*
X126196196Y-127597000D01*
X126071179Y-127584687D01*
X126071176Y-127584686D01*
X126071175Y-127584686D01*
X125910761Y-127536025D01*
X125910759Y-127536024D01*
X125910756Y-127536023D01*
X125762922Y-127457005D01*
X125633341Y-127350659D01*
X125526995Y-127221078D01*
X125447977Y-127073244D01*
X125425759Y-127000000D01*
X125399314Y-126912825D01*
X125399314Y-126912824D01*
X125399313Y-126912821D01*
X125382883Y-126746000D01*
X125399313Y-126579179D01*
X125399314Y-126579175D01*
X125447975Y-126418761D01*
X125447976Y-126418759D01*
X125447977Y-126418756D01*
X125526995Y-126270922D01*
X125633341Y-126141341D01*
X125762922Y-126034995D01*
X125910756Y-125955977D01*
X125910759Y-125955976D01*
X125910761Y-125955975D01*
X126071175Y-125907314D01*
X126071176Y-125907314D01*
X126071179Y-125907313D01*
X126196196Y-125895000D01*
X126279804Y-125895000D01*
X126404821Y-125907313D01*
X126404821Y-125907313D01*
G37*
G36*
X78144821Y-125907313D02*
X78144824Y-125907314D01*
X78144825Y-125907314D01*
X78305239Y-125955975D01*
X78305241Y-125955976D01*
X78305244Y-125955977D01*
X78453078Y-126034995D01*
X78582659Y-126141341D01*
X78689005Y-126270922D01*
X78768023Y-126418756D01*
X78768024Y-126418759D01*
X78768025Y-126418761D01*
X78816686Y-126579175D01*
X78816687Y-126579179D01*
X78833117Y-126746000D01*
X78816687Y-126912821D01*
X78816686Y-126912824D01*
X78816686Y-126912825D01*
X78790242Y-127000000D01*
X78768023Y-127073244D01*
X78689005Y-127221078D01*
X78582659Y-127350659D01*
X78453078Y-127457005D01*
X78305244Y-127536023D01*
X78305241Y-127536024D01*
X78305239Y-127536025D01*
X78144825Y-127584686D01*
X78144824Y-127584686D01*
X78144821Y-127584687D01*
X78019804Y-127597000D01*
X77936196Y-127597000D01*
X77811179Y-127584687D01*
X77811176Y-127584686D01*
X77811175Y-127584686D01*
X77650761Y-127536025D01*
X77650759Y-127536024D01*
X77650756Y-127536023D01*
X77502922Y-127457005D01*
X77373341Y-127350659D01*
X77266995Y-127221078D01*
X77187977Y-127073244D01*
X77165759Y-127000000D01*
X77139314Y-126912825D01*
X77139314Y-126912824D01*
X77139313Y-126912821D01*
X77122883Y-126746000D01*
X77139313Y-126579179D01*
X77139314Y-126579175D01*
X77187975Y-126418761D01*
X77187976Y-126418759D01*
X77187977Y-126418756D01*
X77266995Y-126270922D01*
X77373341Y-126141341D01*
X77502922Y-126034995D01*
X77650756Y-125955977D01*
X77650759Y-125955976D01*
X77650761Y-125955975D01*
X77811175Y-125907314D01*
X77811176Y-125907314D01*
X77811179Y-125907313D01*
X77936196Y-125895000D01*
X78019804Y-125895000D01*
X78144821Y-125907313D01*
X78144821Y-125907313D01*
G37*
G36*
X117941000Y-127561000D02*
X115839000Y-127561000D01*
X115839000Y-125959000D01*
X117941000Y-125959000D01*
X117941000Y-127561000D01*
X117941000Y-127561000D01*
G37*
G36*
X124241000Y-126411000D02*
X122139000Y-126411000D01*
X122139000Y-122509000D01*
X124241000Y-122509000D01*
X124241000Y-126411000D01*
X124241000Y-126411000D01*
G37*
G36*
X106511000Y-125501000D02*
X104409000Y-125501000D01*
X104409000Y-123899000D01*
X106511000Y-123899000D01*
X106511000Y-125501000D01*
X106511000Y-125501000D01*
G37*
G36*
X95081000Y-125501000D02*
X92979000Y-125501000D01*
X92979000Y-123899000D01*
X95081000Y-123899000D01*
X95081000Y-125501000D01*
X95081000Y-125501000D01*
G37*
G36*
X86470442Y-123565518D02*
X86536627Y-123572037D01*
X86649853Y-123606384D01*
X86706467Y-123623557D01*
X86772775Y-123659000D01*
X86862991Y-123707222D01*
X86891869Y-123730922D01*
X87000186Y-123819814D01*
X87065171Y-123899000D01*
X87112778Y-123957009D01*
X87112779Y-123957011D01*
X87196443Y-124113533D01*
X87196443Y-124113534D01*
X87247963Y-124283373D01*
X87265359Y-124460000D01*
X87247963Y-124636627D01*
X87234479Y-124681078D01*
X87196443Y-124806467D01*
X87194202Y-124810659D01*
X87112778Y-124962991D01*
X87083448Y-124998729D01*
X87000186Y-125100186D01*
X86898729Y-125183448D01*
X86862991Y-125212778D01*
X86862989Y-125212779D01*
X86706467Y-125296443D01*
X86649853Y-125313616D01*
X86536627Y-125347963D01*
X86470442Y-125354482D01*
X86404260Y-125361000D01*
X86315740Y-125361000D01*
X86249558Y-125354482D01*
X86183373Y-125347963D01*
X86070147Y-125313616D01*
X86013533Y-125296443D01*
X85857011Y-125212779D01*
X85857009Y-125212778D01*
X85821271Y-125183448D01*
X85719814Y-125100186D01*
X85636552Y-124998729D01*
X85607222Y-124962991D01*
X85525798Y-124810659D01*
X85523557Y-124806467D01*
X85485521Y-124681078D01*
X85472037Y-124636627D01*
X85454641Y-124460000D01*
X85472037Y-124283373D01*
X85523557Y-124113534D01*
X85523557Y-124113533D01*
X85607221Y-123957011D01*
X85607222Y-123957009D01*
X85654829Y-123899000D01*
X85719814Y-123819814D01*
X85828131Y-123730922D01*
X85857009Y-123707222D01*
X85947225Y-123659000D01*
X86013533Y-123623557D01*
X86070147Y-123606384D01*
X86183373Y-123572037D01*
X86249558Y-123565518D01*
X86315740Y-123559000D01*
X86404260Y-123559000D01*
X86470442Y-123565518D01*
X86470442Y-123565518D01*
G37*
G36*
X89010442Y-123565518D02*
X89076627Y-123572037D01*
X89189853Y-123606384D01*
X89246467Y-123623557D01*
X89312775Y-123659000D01*
X89402991Y-123707222D01*
X89431869Y-123730922D01*
X89540186Y-123819814D01*
X89605171Y-123899000D01*
X89652778Y-123957009D01*
X89652779Y-123957011D01*
X89736443Y-124113533D01*
X89736443Y-124113534D01*
X89787963Y-124283373D01*
X89805359Y-124460000D01*
X89787963Y-124636627D01*
X89774479Y-124681078D01*
X89736443Y-124806467D01*
X89734202Y-124810659D01*
X89652778Y-124962991D01*
X89623448Y-124998729D01*
X89540186Y-125100186D01*
X89438729Y-125183448D01*
X89402991Y-125212778D01*
X89402989Y-125212779D01*
X89246467Y-125296443D01*
X89189853Y-125313616D01*
X89076627Y-125347963D01*
X89010442Y-125354482D01*
X88944260Y-125361000D01*
X88855740Y-125361000D01*
X88789558Y-125354482D01*
X88723373Y-125347963D01*
X88610147Y-125313616D01*
X88553533Y-125296443D01*
X88397011Y-125212779D01*
X88397009Y-125212778D01*
X88361271Y-125183448D01*
X88259814Y-125100186D01*
X88176552Y-124998729D01*
X88147222Y-124962991D01*
X88065798Y-124810659D01*
X88063557Y-124806467D01*
X88025521Y-124681078D01*
X88012037Y-124636627D01*
X87994641Y-124460000D01*
X88012037Y-124283373D01*
X88063557Y-124113534D01*
X88063557Y-124113533D01*
X88147221Y-123957011D01*
X88147222Y-123957009D01*
X88194829Y-123899000D01*
X88259814Y-123819814D01*
X88368131Y-123730922D01*
X88397009Y-123707222D01*
X88487225Y-123659000D01*
X88553533Y-123623557D01*
X88610147Y-123606384D01*
X88723373Y-123572037D01*
X88789558Y-123565518D01*
X88855740Y-123559000D01*
X88944260Y-123559000D01*
X89010442Y-123565518D01*
X89010442Y-123565518D01*
G37*
G36*
X117941000Y-125261000D02*
X115839000Y-125261000D01*
X115839000Y-123659000D01*
X117941000Y-123659000D01*
X117941000Y-125261000D01*
X117941000Y-125261000D01*
G37*
G36*
X78144821Y-123367313D02*
X78144824Y-123367314D01*
X78144825Y-123367314D01*
X78305239Y-123415975D01*
X78305241Y-123415976D01*
X78305244Y-123415977D01*
X78453078Y-123494995D01*
X78582659Y-123601341D01*
X78689005Y-123730922D01*
X78768023Y-123878756D01*
X78768024Y-123878759D01*
X78768025Y-123878761D01*
X78816686Y-124039175D01*
X78816687Y-124039179D01*
X78833117Y-124206000D01*
X78816687Y-124372821D01*
X78816686Y-124372824D01*
X78816686Y-124372825D01*
X78790242Y-124460000D01*
X78768023Y-124533244D01*
X78689005Y-124681078D01*
X78582659Y-124810659D01*
X78453078Y-124917005D01*
X78305244Y-124996023D01*
X78305241Y-124996024D01*
X78305239Y-124996025D01*
X78144825Y-125044686D01*
X78144824Y-125044686D01*
X78144821Y-125044687D01*
X78019804Y-125057000D01*
X77936196Y-125057000D01*
X77811179Y-125044687D01*
X77811176Y-125044686D01*
X77811175Y-125044686D01*
X77650761Y-124996025D01*
X77650759Y-124996024D01*
X77650756Y-124996023D01*
X77502922Y-124917005D01*
X77373341Y-124810659D01*
X77266995Y-124681078D01*
X77187977Y-124533244D01*
X77165759Y-124460000D01*
X77139314Y-124372825D01*
X77139314Y-124372824D01*
X77139313Y-124372821D01*
X77122883Y-124206000D01*
X77139313Y-124039179D01*
X77139314Y-124039175D01*
X77187975Y-123878761D01*
X77187976Y-123878759D01*
X77187977Y-123878756D01*
X77266995Y-123730922D01*
X77373341Y-123601341D01*
X77502922Y-123494995D01*
X77650756Y-123415977D01*
X77650759Y-123415976D01*
X77650761Y-123415975D01*
X77811175Y-123367314D01*
X77811176Y-123367314D01*
X77811179Y-123367313D01*
X77936196Y-123355000D01*
X78019804Y-123355000D01*
X78144821Y-123367313D01*
X78144821Y-123367313D01*
G37*
G36*
X126404821Y-123367313D02*
X126404824Y-123367314D01*
X126404825Y-123367314D01*
X126565239Y-123415975D01*
X126565241Y-123415976D01*
X126565244Y-123415977D01*
X126713078Y-123494995D01*
X126842659Y-123601341D01*
X126949005Y-123730922D01*
X127028023Y-123878756D01*
X127028024Y-123878759D01*
X127028025Y-123878761D01*
X127076686Y-124039175D01*
X127076687Y-124039179D01*
X127093117Y-124206000D01*
X127076687Y-124372821D01*
X127076686Y-124372824D01*
X127076686Y-124372825D01*
X127050242Y-124460000D01*
X127028023Y-124533244D01*
X126949005Y-124681078D01*
X126842659Y-124810659D01*
X126713078Y-124917005D01*
X126565244Y-124996023D01*
X126565241Y-124996024D01*
X126565239Y-124996025D01*
X126404825Y-125044686D01*
X126404824Y-125044686D01*
X126404821Y-125044687D01*
X126279804Y-125057000D01*
X126196196Y-125057000D01*
X126071179Y-125044687D01*
X126071176Y-125044686D01*
X126071175Y-125044686D01*
X125910761Y-124996025D01*
X125910759Y-124996024D01*
X125910756Y-124996023D01*
X125762922Y-124917005D01*
X125633341Y-124810659D01*
X125526995Y-124681078D01*
X125447977Y-124533244D01*
X125425759Y-124460000D01*
X125399314Y-124372825D01*
X125399314Y-124372824D01*
X125399313Y-124372821D01*
X125382883Y-124206000D01*
X125399313Y-124039179D01*
X125399314Y-124039175D01*
X125447975Y-123878761D01*
X125447976Y-123878759D01*
X125447977Y-123878756D01*
X125526995Y-123730922D01*
X125633341Y-123601341D01*
X125762922Y-123494995D01*
X125910756Y-123415977D01*
X125910759Y-123415976D01*
X125910761Y-123415975D01*
X126071175Y-123367314D01*
X126071176Y-123367314D01*
X126071179Y-123367313D01*
X126196196Y-123355000D01*
X126279804Y-123355000D01*
X126404821Y-123367313D01*
X126404821Y-123367313D01*
G37*
G36*
X117941000Y-122961000D02*
X115839000Y-122961000D01*
X115839000Y-121359000D01*
X117941000Y-121359000D01*
X117941000Y-122961000D01*
X117941000Y-122961000D01*
G37*
G36*
X89010442Y-121025518D02*
X89076627Y-121032037D01*
X89189853Y-121066384D01*
X89246467Y-121083557D01*
X89385087Y-121157652D01*
X89402991Y-121167222D01*
X89431869Y-121190922D01*
X89540186Y-121279814D01*
X89605171Y-121359000D01*
X89652778Y-121417009D01*
X89652779Y-121417011D01*
X89736443Y-121573533D01*
X89736443Y-121573534D01*
X89787963Y-121743373D01*
X89805359Y-121920000D01*
X89787963Y-122096627D01*
X89774479Y-122141078D01*
X89736443Y-122266467D01*
X89734202Y-122270659D01*
X89652778Y-122422991D01*
X89623448Y-122458729D01*
X89540186Y-122560186D01*
X89438729Y-122643448D01*
X89402991Y-122672778D01*
X89402989Y-122672779D01*
X89246467Y-122756443D01*
X89189853Y-122773616D01*
X89076627Y-122807963D01*
X89010443Y-122814481D01*
X88944260Y-122821000D01*
X88855740Y-122821000D01*
X88789557Y-122814481D01*
X88723373Y-122807963D01*
X88610147Y-122773616D01*
X88553533Y-122756443D01*
X88397011Y-122672779D01*
X88397009Y-122672778D01*
X88361271Y-122643448D01*
X88259814Y-122560186D01*
X88176552Y-122458729D01*
X88147222Y-122422991D01*
X88065798Y-122270659D01*
X88063557Y-122266467D01*
X88025521Y-122141078D01*
X88012037Y-122096627D01*
X87994641Y-121920000D01*
X88012037Y-121743373D01*
X88063557Y-121573534D01*
X88063557Y-121573533D01*
X88147221Y-121417011D01*
X88147222Y-121417009D01*
X88194829Y-121359000D01*
X88259814Y-121279814D01*
X88368131Y-121190922D01*
X88397009Y-121167222D01*
X88414913Y-121157652D01*
X88553533Y-121083557D01*
X88610147Y-121066384D01*
X88723373Y-121032037D01*
X88789558Y-121025518D01*
X88855740Y-121019000D01*
X88944260Y-121019000D01*
X89010442Y-121025518D01*
X89010442Y-121025518D01*
G37*
G36*
X86470442Y-121025518D02*
X86536627Y-121032037D01*
X86649853Y-121066384D01*
X86706467Y-121083557D01*
X86845087Y-121157652D01*
X86862991Y-121167222D01*
X86891869Y-121190922D01*
X87000186Y-121279814D01*
X87065171Y-121359000D01*
X87112778Y-121417009D01*
X87112779Y-121417011D01*
X87196443Y-121573533D01*
X87196443Y-121573534D01*
X87247963Y-121743373D01*
X87265359Y-121920000D01*
X87247963Y-122096627D01*
X87234479Y-122141078D01*
X87196443Y-122266467D01*
X87194202Y-122270659D01*
X87112778Y-122422991D01*
X87083448Y-122458729D01*
X87000186Y-122560186D01*
X86898729Y-122643448D01*
X86862991Y-122672778D01*
X86862989Y-122672779D01*
X86706467Y-122756443D01*
X86649853Y-122773616D01*
X86536627Y-122807963D01*
X86470443Y-122814481D01*
X86404260Y-122821000D01*
X86315740Y-122821000D01*
X86249557Y-122814481D01*
X86183373Y-122807963D01*
X86070147Y-122773616D01*
X86013533Y-122756443D01*
X85857011Y-122672779D01*
X85857009Y-122672778D01*
X85821271Y-122643448D01*
X85719814Y-122560186D01*
X85636552Y-122458729D01*
X85607222Y-122422991D01*
X85525798Y-122270659D01*
X85523557Y-122266467D01*
X85485521Y-122141078D01*
X85472037Y-122096627D01*
X85454641Y-121920000D01*
X85472037Y-121743373D01*
X85523557Y-121573534D01*
X85523557Y-121573533D01*
X85607221Y-121417011D01*
X85607222Y-121417009D01*
X85654829Y-121359000D01*
X85719814Y-121279814D01*
X85828131Y-121190922D01*
X85857009Y-121167222D01*
X85874913Y-121157652D01*
X86013533Y-121083557D01*
X86070147Y-121066384D01*
X86183373Y-121032037D01*
X86249558Y-121025518D01*
X86315740Y-121019000D01*
X86404260Y-121019000D01*
X86470442Y-121025518D01*
X86470442Y-121025518D01*
G37*
G36*
X126404821Y-120827313D02*
X126404824Y-120827314D01*
X126404825Y-120827314D01*
X126565239Y-120875975D01*
X126565241Y-120875976D01*
X126565244Y-120875977D01*
X126713078Y-120954995D01*
X126842659Y-121061341D01*
X126949005Y-121190922D01*
X127028023Y-121338756D01*
X127028024Y-121338759D01*
X127028025Y-121338761D01*
X127076686Y-121499175D01*
X127076687Y-121499179D01*
X127093117Y-121666000D01*
X127076687Y-121832821D01*
X127076686Y-121832824D01*
X127076686Y-121832825D01*
X127050242Y-121920000D01*
X127028023Y-121993244D01*
X126949005Y-122141078D01*
X126842659Y-122270659D01*
X126713078Y-122377005D01*
X126565244Y-122456023D01*
X126565241Y-122456024D01*
X126565239Y-122456025D01*
X126404825Y-122504686D01*
X126404824Y-122504686D01*
X126404821Y-122504687D01*
X126279804Y-122517000D01*
X126196196Y-122517000D01*
X126071179Y-122504687D01*
X126071176Y-122504686D01*
X126071175Y-122504686D01*
X125910761Y-122456025D01*
X125910759Y-122456024D01*
X125910756Y-122456023D01*
X125762922Y-122377005D01*
X125633341Y-122270659D01*
X125526995Y-122141078D01*
X125447977Y-121993244D01*
X125425759Y-121920000D01*
X125399314Y-121832825D01*
X125399314Y-121832824D01*
X125399313Y-121832821D01*
X125382883Y-121666000D01*
X125399313Y-121499179D01*
X125399314Y-121499175D01*
X125447975Y-121338761D01*
X125447976Y-121338759D01*
X125447977Y-121338756D01*
X125526995Y-121190922D01*
X125633341Y-121061341D01*
X125762922Y-120954995D01*
X125910756Y-120875977D01*
X125910759Y-120875976D01*
X125910761Y-120875975D01*
X126071175Y-120827314D01*
X126071176Y-120827314D01*
X126071179Y-120827313D01*
X126196196Y-120815000D01*
X126279804Y-120815000D01*
X126404821Y-120827313D01*
X126404821Y-120827313D01*
G37*
G36*
X95081000Y-121211000D02*
X92979000Y-121211000D01*
X92979000Y-119609000D01*
X95081000Y-119609000D01*
X95081000Y-121211000D01*
X95081000Y-121211000D01*
G37*
G36*
X106511000Y-121211000D02*
X104409000Y-121211000D01*
X104409000Y-119609000D01*
X106511000Y-119609000D01*
X106511000Y-121211000D01*
X106511000Y-121211000D01*
G37*
G36*
X86470442Y-118485518D02*
X86536627Y-118492037D01*
X86649853Y-118526384D01*
X86706467Y-118543557D01*
X86845087Y-118617652D01*
X86862991Y-118627222D01*
X86891869Y-118650922D01*
X87000186Y-118739814D01*
X87083448Y-118841271D01*
X87112778Y-118877009D01*
X87112779Y-118877011D01*
X87196443Y-119033533D01*
X87196443Y-119033534D01*
X87247963Y-119203373D01*
X87265359Y-119380000D01*
X87247963Y-119556627D01*
X87234479Y-119601078D01*
X87196443Y-119726467D01*
X87194202Y-119730659D01*
X87112778Y-119882991D01*
X87083448Y-119918729D01*
X87000186Y-120020186D01*
X86898729Y-120103448D01*
X86862991Y-120132778D01*
X86862989Y-120132779D01*
X86706467Y-120216443D01*
X86649853Y-120233616D01*
X86536627Y-120267963D01*
X86470442Y-120274482D01*
X86404260Y-120281000D01*
X86315740Y-120281000D01*
X86249558Y-120274482D01*
X86183373Y-120267963D01*
X86070147Y-120233616D01*
X86013533Y-120216443D01*
X85857011Y-120132779D01*
X85857009Y-120132778D01*
X85821271Y-120103448D01*
X85719814Y-120020186D01*
X85636552Y-119918729D01*
X85607222Y-119882991D01*
X85525798Y-119730659D01*
X85523557Y-119726467D01*
X85485521Y-119601078D01*
X85472037Y-119556627D01*
X85454641Y-119380000D01*
X85472037Y-119203373D01*
X85523557Y-119033534D01*
X85523557Y-119033533D01*
X85607221Y-118877011D01*
X85607222Y-118877009D01*
X85636552Y-118841271D01*
X85719814Y-118739814D01*
X85828131Y-118650922D01*
X85857009Y-118627222D01*
X85874913Y-118617652D01*
X86013533Y-118543557D01*
X86070147Y-118526384D01*
X86183373Y-118492037D01*
X86249558Y-118485518D01*
X86315740Y-118479000D01*
X86404260Y-118479000D01*
X86470442Y-118485518D01*
X86470442Y-118485518D01*
G37*
G36*
X89010442Y-118485518D02*
X89076627Y-118492037D01*
X89189853Y-118526384D01*
X89246467Y-118543557D01*
X89385087Y-118617652D01*
X89402991Y-118627222D01*
X89431869Y-118650922D01*
X89540186Y-118739814D01*
X89623448Y-118841271D01*
X89652778Y-118877009D01*
X89652779Y-118877011D01*
X89736443Y-119033533D01*
X89736443Y-119033534D01*
X89787963Y-119203373D01*
X89805359Y-119380000D01*
X89787963Y-119556627D01*
X89774479Y-119601078D01*
X89736443Y-119726467D01*
X89734202Y-119730659D01*
X89652778Y-119882991D01*
X89623448Y-119918729D01*
X89540186Y-120020186D01*
X89438729Y-120103448D01*
X89402991Y-120132778D01*
X89402989Y-120132779D01*
X89246467Y-120216443D01*
X89189853Y-120233616D01*
X89076627Y-120267963D01*
X89010442Y-120274482D01*
X88944260Y-120281000D01*
X88855740Y-120281000D01*
X88789558Y-120274482D01*
X88723373Y-120267963D01*
X88610147Y-120233616D01*
X88553533Y-120216443D01*
X88397011Y-120132779D01*
X88397009Y-120132778D01*
X88361271Y-120103448D01*
X88259814Y-120020186D01*
X88176552Y-119918729D01*
X88147222Y-119882991D01*
X88065798Y-119730659D01*
X88063557Y-119726467D01*
X88025521Y-119601078D01*
X88012037Y-119556627D01*
X87994641Y-119380000D01*
X88012037Y-119203373D01*
X88063557Y-119033534D01*
X88063557Y-119033533D01*
X88147221Y-118877011D01*
X88147222Y-118877009D01*
X88176552Y-118841271D01*
X88259814Y-118739814D01*
X88368131Y-118650922D01*
X88397009Y-118627222D01*
X88414913Y-118617652D01*
X88553533Y-118543557D01*
X88610147Y-118526384D01*
X88723373Y-118492037D01*
X88789558Y-118485518D01*
X88855740Y-118479000D01*
X88944260Y-118479000D01*
X89010442Y-118485518D01*
X89010442Y-118485518D01*
G37*
G36*
X101381000Y-120061000D02*
X99279000Y-120061000D01*
X99279000Y-116159000D01*
X101381000Y-116159000D01*
X101381000Y-120061000D01*
X101381000Y-120061000D01*
G37*
G36*
X112811000Y-120061000D02*
X110709000Y-120061000D01*
X110709000Y-116159000D01*
X112811000Y-116159000D01*
X112811000Y-120061000D01*
X112811000Y-120061000D01*
G37*
G36*
X126404821Y-118287313D02*
X126404824Y-118287314D01*
X126404825Y-118287314D01*
X126565239Y-118335975D01*
X126565241Y-118335976D01*
X126565244Y-118335977D01*
X126713078Y-118414995D01*
X126842659Y-118521341D01*
X126949005Y-118650922D01*
X127028023Y-118798756D01*
X127028024Y-118798759D01*
X127028025Y-118798761D01*
X127062072Y-118911000D01*
X127076687Y-118959179D01*
X127093117Y-119126000D01*
X127076687Y-119292821D01*
X127076686Y-119292824D01*
X127076686Y-119292825D01*
X127050242Y-119380000D01*
X127028023Y-119453244D01*
X126949005Y-119601078D01*
X126842659Y-119730659D01*
X126713078Y-119837005D01*
X126565244Y-119916023D01*
X126565241Y-119916024D01*
X126565239Y-119916025D01*
X126404825Y-119964686D01*
X126404824Y-119964686D01*
X126404821Y-119964687D01*
X126279804Y-119977000D01*
X126196196Y-119977000D01*
X126071179Y-119964687D01*
X126071176Y-119964686D01*
X126071175Y-119964686D01*
X125910761Y-119916025D01*
X125910759Y-119916024D01*
X125910756Y-119916023D01*
X125762922Y-119837005D01*
X125633341Y-119730659D01*
X125526995Y-119601078D01*
X125447977Y-119453244D01*
X125425759Y-119380000D01*
X125399314Y-119292825D01*
X125399314Y-119292824D01*
X125399313Y-119292821D01*
X125382883Y-119126000D01*
X125399313Y-118959179D01*
X125413928Y-118911000D01*
X125447975Y-118798761D01*
X125447976Y-118798759D01*
X125447977Y-118798756D01*
X125526995Y-118650922D01*
X125633341Y-118521341D01*
X125762922Y-118414995D01*
X125910756Y-118335977D01*
X125910759Y-118335976D01*
X125910761Y-118335975D01*
X126071175Y-118287314D01*
X126071176Y-118287314D01*
X126071179Y-118287313D01*
X126196196Y-118275000D01*
X126279804Y-118275000D01*
X126404821Y-118287313D01*
X126404821Y-118287313D01*
G37*
G36*
X78144821Y-118287313D02*
X78144824Y-118287314D01*
X78144825Y-118287314D01*
X78305239Y-118335975D01*
X78305241Y-118335976D01*
X78305244Y-118335977D01*
X78453078Y-118414995D01*
X78582659Y-118521341D01*
X78689005Y-118650922D01*
X78768023Y-118798756D01*
X78768024Y-118798759D01*
X78768025Y-118798761D01*
X78802072Y-118911000D01*
X78816687Y-118959179D01*
X78833117Y-119126000D01*
X78816687Y-119292821D01*
X78816686Y-119292824D01*
X78816686Y-119292825D01*
X78790242Y-119380000D01*
X78768023Y-119453244D01*
X78689005Y-119601078D01*
X78582659Y-119730659D01*
X78453078Y-119837005D01*
X78305244Y-119916023D01*
X78305241Y-119916024D01*
X78305239Y-119916025D01*
X78144825Y-119964686D01*
X78144824Y-119964686D01*
X78144821Y-119964687D01*
X78019804Y-119977000D01*
X77936196Y-119977000D01*
X77811179Y-119964687D01*
X77811176Y-119964686D01*
X77811175Y-119964686D01*
X77650761Y-119916025D01*
X77650759Y-119916024D01*
X77650756Y-119916023D01*
X77502922Y-119837005D01*
X77373341Y-119730659D01*
X77266995Y-119601078D01*
X77187977Y-119453244D01*
X77165759Y-119380000D01*
X77139314Y-119292825D01*
X77139314Y-119292824D01*
X77139313Y-119292821D01*
X77122883Y-119126000D01*
X77139313Y-118959179D01*
X77153928Y-118911000D01*
X77187975Y-118798761D01*
X77187976Y-118798759D01*
X77187977Y-118798756D01*
X77266995Y-118650922D01*
X77373341Y-118521341D01*
X77502922Y-118414995D01*
X77650756Y-118335977D01*
X77650759Y-118335976D01*
X77650761Y-118335975D01*
X77811175Y-118287314D01*
X77811176Y-118287314D01*
X77811179Y-118287313D01*
X77936196Y-118275000D01*
X78019804Y-118275000D01*
X78144821Y-118287313D01*
X78144821Y-118287313D01*
G37*
G36*
X106511000Y-118911000D02*
X104409000Y-118911000D01*
X104409000Y-117309000D01*
X106511000Y-117309000D01*
X106511000Y-118911000D01*
X106511000Y-118911000D01*
G37*
G36*
X95081000Y-118911000D02*
X92979000Y-118911000D01*
X92979000Y-117309000D01*
X95081000Y-117309000D01*
X95081000Y-118911000D01*
X95081000Y-118911000D01*
G37*
G36*
X117941000Y-118671000D02*
X115839000Y-118671000D01*
X115839000Y-117069000D01*
X117941000Y-117069000D01*
X117941000Y-118671000D01*
X117941000Y-118671000D01*
G37*
G36*
X86470442Y-115945518D02*
X86536627Y-115952037D01*
X86649853Y-115986384D01*
X86706467Y-116003557D01*
X86766186Y-116035478D01*
X86862991Y-116087222D01*
X86891869Y-116110922D01*
X87000186Y-116199814D01*
X87058930Y-116271395D01*
X87112778Y-116337009D01*
X87112779Y-116337011D01*
X87196443Y-116493533D01*
X87196443Y-116493534D01*
X87247963Y-116663373D01*
X87265359Y-116840000D01*
X87247963Y-117016627D01*
X87234479Y-117061078D01*
X87196443Y-117186467D01*
X87194202Y-117190659D01*
X87112778Y-117342991D01*
X87083448Y-117378729D01*
X87000186Y-117480186D01*
X86898729Y-117563448D01*
X86862991Y-117592778D01*
X86862989Y-117592779D01*
X86706467Y-117676443D01*
X86649853Y-117693616D01*
X86536627Y-117727963D01*
X86470442Y-117734482D01*
X86404260Y-117741000D01*
X86315740Y-117741000D01*
X86249558Y-117734482D01*
X86183373Y-117727963D01*
X86070147Y-117693616D01*
X86013533Y-117676443D01*
X85857011Y-117592779D01*
X85857009Y-117592778D01*
X85821271Y-117563448D01*
X85719814Y-117480186D01*
X85636552Y-117378729D01*
X85607222Y-117342991D01*
X85525798Y-117190659D01*
X85523557Y-117186467D01*
X85485521Y-117061078D01*
X85472037Y-117016627D01*
X85454641Y-116840000D01*
X85472037Y-116663373D01*
X85523557Y-116493534D01*
X85523557Y-116493533D01*
X85607221Y-116337011D01*
X85607222Y-116337009D01*
X85661070Y-116271395D01*
X85719814Y-116199814D01*
X85828131Y-116110922D01*
X85857009Y-116087222D01*
X85953814Y-116035478D01*
X86013533Y-116003557D01*
X86070147Y-115986384D01*
X86183373Y-115952037D01*
X86249558Y-115945518D01*
X86315740Y-115939000D01*
X86404260Y-115939000D01*
X86470442Y-115945518D01*
X86470442Y-115945518D01*
G37*
G36*
X89010442Y-115945518D02*
X89076627Y-115952037D01*
X89189853Y-115986384D01*
X89246467Y-116003557D01*
X89306186Y-116035478D01*
X89402991Y-116087222D01*
X89431869Y-116110922D01*
X89540186Y-116199814D01*
X89598930Y-116271395D01*
X89652778Y-116337009D01*
X89652779Y-116337011D01*
X89736443Y-116493533D01*
X89736443Y-116493534D01*
X89787963Y-116663373D01*
X89805359Y-116840000D01*
X89787963Y-117016627D01*
X89774479Y-117061078D01*
X89736443Y-117186467D01*
X89734202Y-117190659D01*
X89652778Y-117342991D01*
X89623448Y-117378729D01*
X89540186Y-117480186D01*
X89438729Y-117563448D01*
X89402991Y-117592778D01*
X89402989Y-117592779D01*
X89246467Y-117676443D01*
X89189853Y-117693616D01*
X89076627Y-117727963D01*
X89010442Y-117734482D01*
X88944260Y-117741000D01*
X88855740Y-117741000D01*
X88789558Y-117734482D01*
X88723373Y-117727963D01*
X88610147Y-117693616D01*
X88553533Y-117676443D01*
X88397011Y-117592779D01*
X88397009Y-117592778D01*
X88361271Y-117563448D01*
X88259814Y-117480186D01*
X88176552Y-117378729D01*
X88147222Y-117342991D01*
X88065798Y-117190659D01*
X88063557Y-117186467D01*
X88025521Y-117061078D01*
X88012037Y-117016627D01*
X87994641Y-116840000D01*
X88012037Y-116663373D01*
X88063557Y-116493534D01*
X88063557Y-116493533D01*
X88147221Y-116337011D01*
X88147222Y-116337009D01*
X88201070Y-116271395D01*
X88259814Y-116199814D01*
X88368131Y-116110922D01*
X88397009Y-116087222D01*
X88493814Y-116035478D01*
X88553533Y-116003557D01*
X88610147Y-115986384D01*
X88723373Y-115952037D01*
X88789558Y-115945518D01*
X88855740Y-115939000D01*
X88944260Y-115939000D01*
X89010442Y-115945518D01*
X89010442Y-115945518D01*
G37*
G36*
X83071562Y-116007681D02*
X83106477Y-116018273D01*
X83138665Y-116035478D01*
X83166873Y-116058627D01*
X83190022Y-116086835D01*
X83207227Y-116119023D01*
X83217819Y-116153938D01*
X83222000Y-116196395D01*
X83222000Y-117337605D01*
X83217819Y-117380062D01*
X83207227Y-117414977D01*
X83190022Y-117447165D01*
X83166873Y-117475373D01*
X83138665Y-117498522D01*
X83106477Y-117515727D01*
X83071562Y-117526319D01*
X83029105Y-117530500D01*
X81562895Y-117530500D01*
X81520438Y-117526319D01*
X81485523Y-117515727D01*
X81453335Y-117498522D01*
X81425127Y-117475373D01*
X81401978Y-117447165D01*
X81384773Y-117414977D01*
X81374181Y-117380062D01*
X81370000Y-117337605D01*
X81370000Y-116196395D01*
X81374181Y-116153938D01*
X81384773Y-116119023D01*
X81401978Y-116086835D01*
X81425127Y-116058627D01*
X81453335Y-116035478D01*
X81485523Y-116018273D01*
X81520438Y-116007681D01*
X81562895Y-116003500D01*
X83029105Y-116003500D01*
X83071562Y-116007681D01*
X83071562Y-116007681D01*
G37*
G36*
X124241000Y-117521000D02*
X122139000Y-117521000D01*
X122139000Y-113619000D01*
X124241000Y-113619000D01*
X124241000Y-117521000D01*
X124241000Y-117521000D01*
G37*
G36*
X78144821Y-115747313D02*
X78144824Y-115747314D01*
X78144825Y-115747314D01*
X78305239Y-115795975D01*
X78305241Y-115795976D01*
X78305244Y-115795977D01*
X78453078Y-115874995D01*
X78582659Y-115981341D01*
X78689005Y-116110922D01*
X78768023Y-116258756D01*
X78768024Y-116258759D01*
X78768025Y-116258761D01*
X78802072Y-116371000D01*
X78816687Y-116419179D01*
X78833117Y-116586000D01*
X78816687Y-116752821D01*
X78816686Y-116752824D01*
X78816686Y-116752825D01*
X78790242Y-116840000D01*
X78768023Y-116913244D01*
X78689005Y-117061078D01*
X78582659Y-117190659D01*
X78453078Y-117297005D01*
X78305244Y-117376023D01*
X78305241Y-117376024D01*
X78305239Y-117376025D01*
X78144825Y-117424686D01*
X78144824Y-117424686D01*
X78144821Y-117424687D01*
X78019804Y-117437000D01*
X77936196Y-117437000D01*
X77811179Y-117424687D01*
X77811176Y-117424686D01*
X77811175Y-117424686D01*
X77650761Y-117376025D01*
X77650759Y-117376024D01*
X77650756Y-117376023D01*
X77502922Y-117297005D01*
X77373341Y-117190659D01*
X77266995Y-117061078D01*
X77187977Y-116913244D01*
X77165759Y-116840000D01*
X77139314Y-116752825D01*
X77139314Y-116752824D01*
X77139313Y-116752821D01*
X77122883Y-116586000D01*
X77139313Y-116419179D01*
X77153928Y-116371000D01*
X77187975Y-116258761D01*
X77187976Y-116258759D01*
X77187977Y-116258756D01*
X77266995Y-116110922D01*
X77373341Y-115981341D01*
X77502922Y-115874995D01*
X77650756Y-115795977D01*
X77650759Y-115795976D01*
X77650761Y-115795975D01*
X77811175Y-115747314D01*
X77811176Y-115747314D01*
X77811179Y-115747313D01*
X77936196Y-115735000D01*
X78019804Y-115735000D01*
X78144821Y-115747313D01*
X78144821Y-115747313D01*
G37*
G36*
X95081000Y-116611000D02*
X92979000Y-116611000D01*
X92979000Y-115009000D01*
X95081000Y-115009000D01*
X95081000Y-116611000D01*
X95081000Y-116611000D01*
G37*
G36*
X106511000Y-116611000D02*
X104409000Y-116611000D01*
X104409000Y-115009000D01*
X106511000Y-115009000D01*
X106511000Y-116611000D01*
X106511000Y-116611000D01*
G37*
G36*
X117941000Y-116371000D02*
X115839000Y-116371000D01*
X115839000Y-114769000D01*
X117941000Y-114769000D01*
X117941000Y-116371000D01*
X117941000Y-116371000D01*
G37*
G36*
X126404821Y-114227313D02*
X126404824Y-114227314D01*
X126404825Y-114227314D01*
X126565239Y-114275975D01*
X126565241Y-114275976D01*
X126565244Y-114275977D01*
X126713078Y-114354995D01*
X126842659Y-114461341D01*
X126949005Y-114590922D01*
X127028023Y-114738756D01*
X127028024Y-114738759D01*
X127028025Y-114738761D01*
X127072291Y-114884686D01*
X127076687Y-114899179D01*
X127093117Y-115066000D01*
X127076687Y-115232821D01*
X127028023Y-115393244D01*
X126949005Y-115541078D01*
X126842659Y-115670659D01*
X126713078Y-115777005D01*
X126565244Y-115856023D01*
X126565241Y-115856024D01*
X126565239Y-115856025D01*
X126404825Y-115904686D01*
X126404824Y-115904686D01*
X126404821Y-115904687D01*
X126279804Y-115917000D01*
X126196196Y-115917000D01*
X126071179Y-115904687D01*
X126071176Y-115904686D01*
X126071175Y-115904686D01*
X125910761Y-115856025D01*
X125910759Y-115856024D01*
X125910756Y-115856023D01*
X125762922Y-115777005D01*
X125633341Y-115670659D01*
X125526995Y-115541078D01*
X125447977Y-115393244D01*
X125399313Y-115232821D01*
X125382883Y-115066000D01*
X125399313Y-114899179D01*
X125403709Y-114884686D01*
X125447975Y-114738761D01*
X125447976Y-114738759D01*
X125447977Y-114738756D01*
X125526995Y-114590922D01*
X125633341Y-114461341D01*
X125762922Y-114354995D01*
X125910756Y-114275977D01*
X125910759Y-114275976D01*
X125910761Y-114275975D01*
X126071175Y-114227314D01*
X126071176Y-114227314D01*
X126071179Y-114227313D01*
X126196196Y-114215000D01*
X126279804Y-114215000D01*
X126404821Y-114227313D01*
X126404821Y-114227313D01*
G37*
G36*
X86470443Y-113405519D02*
X86536627Y-113412037D01*
X86649853Y-113446384D01*
X86706467Y-113463557D01*
X86845087Y-113537652D01*
X86862991Y-113547222D01*
X86891869Y-113570922D01*
X87000186Y-113659814D01*
X87083448Y-113761271D01*
X87112778Y-113797009D01*
X87112779Y-113797011D01*
X87196443Y-113953533D01*
X87196443Y-113953534D01*
X87247963Y-114123373D01*
X87265359Y-114300000D01*
X87247963Y-114476627D01*
X87225599Y-114550352D01*
X87196443Y-114646467D01*
X87194202Y-114650659D01*
X87112778Y-114802991D01*
X87083448Y-114838729D01*
X87000186Y-114940186D01*
X86898729Y-115023448D01*
X86862991Y-115052778D01*
X86862989Y-115052779D01*
X86706467Y-115136443D01*
X86649853Y-115153616D01*
X86536627Y-115187963D01*
X86470442Y-115194482D01*
X86404260Y-115201000D01*
X86315740Y-115201000D01*
X86249558Y-115194482D01*
X86183373Y-115187963D01*
X86070147Y-115153616D01*
X86013533Y-115136443D01*
X85857011Y-115052779D01*
X85857009Y-115052778D01*
X85821271Y-115023448D01*
X85719814Y-114940186D01*
X85636552Y-114838729D01*
X85607222Y-114802991D01*
X85525798Y-114650659D01*
X85523557Y-114646467D01*
X85494401Y-114550352D01*
X85472037Y-114476627D01*
X85454641Y-114300000D01*
X85472037Y-114123373D01*
X85523557Y-113953534D01*
X85523557Y-113953533D01*
X85607221Y-113797011D01*
X85607222Y-113797009D01*
X85636552Y-113761271D01*
X85719814Y-113659814D01*
X85828131Y-113570922D01*
X85857009Y-113547222D01*
X85874913Y-113537652D01*
X86013533Y-113463557D01*
X86070147Y-113446384D01*
X86183373Y-113412037D01*
X86249557Y-113405519D01*
X86315740Y-113399000D01*
X86404260Y-113399000D01*
X86470443Y-113405519D01*
X86470443Y-113405519D01*
G37*
G36*
X89010443Y-113405519D02*
X89076627Y-113412037D01*
X89189853Y-113446384D01*
X89246467Y-113463557D01*
X89385087Y-113537652D01*
X89402991Y-113547222D01*
X89431869Y-113570922D01*
X89540186Y-113659814D01*
X89623448Y-113761271D01*
X89652778Y-113797009D01*
X89652779Y-113797011D01*
X89736443Y-113953533D01*
X89736443Y-113953534D01*
X89787963Y-114123373D01*
X89805359Y-114300000D01*
X89787963Y-114476627D01*
X89765599Y-114550352D01*
X89736443Y-114646467D01*
X89734202Y-114650659D01*
X89652778Y-114802991D01*
X89623448Y-114838729D01*
X89540186Y-114940186D01*
X89438729Y-115023448D01*
X89402991Y-115052778D01*
X89402989Y-115052779D01*
X89246467Y-115136443D01*
X89189853Y-115153616D01*
X89076627Y-115187963D01*
X89010442Y-115194482D01*
X88944260Y-115201000D01*
X88855740Y-115201000D01*
X88789558Y-115194482D01*
X88723373Y-115187963D01*
X88610147Y-115153616D01*
X88553533Y-115136443D01*
X88397011Y-115052779D01*
X88397009Y-115052778D01*
X88361271Y-115023448D01*
X88259814Y-114940186D01*
X88176552Y-114838729D01*
X88147222Y-114802991D01*
X88065798Y-114650659D01*
X88063557Y-114646467D01*
X88034401Y-114550352D01*
X88012037Y-114476627D01*
X87994641Y-114300000D01*
X88012037Y-114123373D01*
X88063557Y-113953534D01*
X88063557Y-113953533D01*
X88147221Y-113797011D01*
X88147222Y-113797009D01*
X88176552Y-113761271D01*
X88259814Y-113659814D01*
X88368131Y-113570922D01*
X88397009Y-113547222D01*
X88414913Y-113537652D01*
X88553533Y-113463557D01*
X88610147Y-113446384D01*
X88723373Y-113412037D01*
X88789557Y-113405519D01*
X88855740Y-113399000D01*
X88944260Y-113399000D01*
X89010443Y-113405519D01*
X89010443Y-113405519D01*
G37*
G36*
X78144821Y-113207313D02*
X78144824Y-113207314D01*
X78144825Y-113207314D01*
X78305239Y-113255975D01*
X78305241Y-113255976D01*
X78305244Y-113255977D01*
X78453078Y-113334995D01*
X78582659Y-113441341D01*
X78689005Y-113570922D01*
X78768023Y-113718756D01*
X78768024Y-113718759D01*
X78768025Y-113718761D01*
X78816686Y-113879175D01*
X78816687Y-113879179D01*
X78833117Y-114046000D01*
X78816687Y-114212821D01*
X78816686Y-114212824D01*
X78816686Y-114212825D01*
X78771251Y-114362605D01*
X78768023Y-114373244D01*
X78689005Y-114521078D01*
X78582659Y-114650659D01*
X78453078Y-114757005D01*
X78305244Y-114836023D01*
X78305241Y-114836024D01*
X78305239Y-114836025D01*
X78144825Y-114884686D01*
X78144824Y-114884686D01*
X78144821Y-114884687D01*
X78019804Y-114897000D01*
X77936196Y-114897000D01*
X77811179Y-114884687D01*
X77811176Y-114884686D01*
X77811175Y-114884686D01*
X77650761Y-114836025D01*
X77650759Y-114836024D01*
X77650756Y-114836023D01*
X77502922Y-114757005D01*
X77373341Y-114650659D01*
X77266995Y-114521078D01*
X77187977Y-114373244D01*
X77184750Y-114362605D01*
X77139314Y-114212825D01*
X77139314Y-114212824D01*
X77139313Y-114212821D01*
X77122883Y-114046000D01*
X77139313Y-113879179D01*
X77139314Y-113879175D01*
X77187975Y-113718761D01*
X77187976Y-113718759D01*
X77187977Y-113718756D01*
X77266995Y-113570922D01*
X77373341Y-113441341D01*
X77502922Y-113334995D01*
X77650756Y-113255977D01*
X77650759Y-113255976D01*
X77650761Y-113255975D01*
X77811175Y-113207314D01*
X77811176Y-113207314D01*
X77811179Y-113207313D01*
X77936196Y-113195000D01*
X78019804Y-113195000D01*
X78144821Y-113207313D01*
X78144821Y-113207313D01*
G37*
G36*
X83071562Y-113032681D02*
X83106477Y-113043273D01*
X83138665Y-113060478D01*
X83166873Y-113083627D01*
X83190022Y-113111835D01*
X83207227Y-113144023D01*
X83217819Y-113178938D01*
X83222000Y-113221395D01*
X83222000Y-114362605D01*
X83217819Y-114405062D01*
X83207227Y-114439977D01*
X83190022Y-114472165D01*
X83166873Y-114500373D01*
X83138665Y-114523522D01*
X83106477Y-114540727D01*
X83071562Y-114551319D01*
X83029105Y-114555500D01*
X81562895Y-114555500D01*
X81520438Y-114551319D01*
X81485523Y-114540727D01*
X81453335Y-114523522D01*
X81425127Y-114500373D01*
X81401978Y-114472165D01*
X81384773Y-114439977D01*
X81374181Y-114405062D01*
X81370000Y-114362605D01*
X81370000Y-113221395D01*
X81374181Y-113178938D01*
X81384773Y-113144023D01*
X81401978Y-113111835D01*
X81425127Y-113083627D01*
X81453335Y-113060478D01*
X81485523Y-113043273D01*
X81520438Y-113032681D01*
X81562895Y-113028500D01*
X83029105Y-113028500D01*
X83071562Y-113032681D01*
X83071562Y-113032681D01*
G37*
G36*
X117941000Y-114071000D02*
X115839000Y-114071000D01*
X115839000Y-112469000D01*
X117941000Y-112469000D01*
X117941000Y-114071000D01*
X117941000Y-114071000D01*
G37*
G36*
X126404821Y-111687313D02*
X126404824Y-111687314D01*
X126404825Y-111687314D01*
X126565239Y-111735975D01*
X126565241Y-111735976D01*
X126565244Y-111735977D01*
X126713078Y-111814995D01*
X126842659Y-111921341D01*
X126949005Y-112050922D01*
X127028023Y-112198756D01*
X127028024Y-112198759D01*
X127028025Y-112198761D01*
X127072291Y-112344686D01*
X127076687Y-112359179D01*
X127093117Y-112526000D01*
X127076687Y-112692821D01*
X127028023Y-112853244D01*
X126949005Y-113001078D01*
X126842659Y-113130659D01*
X126713078Y-113237005D01*
X126565244Y-113316023D01*
X126565241Y-113316024D01*
X126565239Y-113316025D01*
X126404825Y-113364686D01*
X126404824Y-113364686D01*
X126404821Y-113364687D01*
X126279804Y-113377000D01*
X126196196Y-113377000D01*
X126071179Y-113364687D01*
X126071176Y-113364686D01*
X126071175Y-113364686D01*
X125910761Y-113316025D01*
X125910759Y-113316024D01*
X125910756Y-113316023D01*
X125762922Y-113237005D01*
X125633341Y-113130659D01*
X125526995Y-113001078D01*
X125447977Y-112853244D01*
X125399313Y-112692821D01*
X125382883Y-112526000D01*
X125399313Y-112359179D01*
X125403709Y-112344686D01*
X125447975Y-112198761D01*
X125447976Y-112198759D01*
X125447977Y-112198756D01*
X125526995Y-112050922D01*
X125633341Y-111921341D01*
X125762922Y-111814995D01*
X125910756Y-111735977D01*
X125910759Y-111735976D01*
X125910761Y-111735975D01*
X126071175Y-111687314D01*
X126071176Y-111687314D01*
X126071179Y-111687313D01*
X126196196Y-111675000D01*
X126279804Y-111675000D01*
X126404821Y-111687313D01*
X126404821Y-111687313D01*
G37*
G36*
X86470442Y-110865518D02*
X86536627Y-110872037D01*
X86649853Y-110906384D01*
X86706467Y-110923557D01*
X86804695Y-110976062D01*
X86862991Y-111007222D01*
X86863255Y-111007439D01*
X87000186Y-111119814D01*
X87083448Y-111221271D01*
X87112778Y-111257009D01*
X87112779Y-111257011D01*
X87196443Y-111413533D01*
X87196443Y-111413534D01*
X87247963Y-111583373D01*
X87265359Y-111760000D01*
X87247963Y-111936627D01*
X87234479Y-111981078D01*
X87196443Y-112106467D01*
X87194202Y-112110659D01*
X87112778Y-112262991D01*
X87083448Y-112298729D01*
X87000186Y-112400186D01*
X86898729Y-112483448D01*
X86862991Y-112512778D01*
X86862989Y-112512779D01*
X86706467Y-112596443D01*
X86649853Y-112613616D01*
X86536627Y-112647963D01*
X86470442Y-112654482D01*
X86404260Y-112661000D01*
X86315740Y-112661000D01*
X86249558Y-112654482D01*
X86183373Y-112647963D01*
X86070147Y-112613616D01*
X86013533Y-112596443D01*
X85857011Y-112512779D01*
X85857009Y-112512778D01*
X85821271Y-112483448D01*
X85719814Y-112400186D01*
X85636552Y-112298729D01*
X85607222Y-112262991D01*
X85525798Y-112110659D01*
X85523557Y-112106467D01*
X85485521Y-111981078D01*
X85472037Y-111936627D01*
X85454641Y-111760000D01*
X85472037Y-111583373D01*
X85523557Y-111413534D01*
X85523557Y-111413533D01*
X85607221Y-111257011D01*
X85607222Y-111257009D01*
X85636552Y-111221271D01*
X85719814Y-111119814D01*
X85856745Y-111007439D01*
X85857009Y-111007222D01*
X85915305Y-110976062D01*
X86013533Y-110923557D01*
X86070147Y-110906384D01*
X86183373Y-110872037D01*
X86249558Y-110865518D01*
X86315740Y-110859000D01*
X86404260Y-110859000D01*
X86470442Y-110865518D01*
X86470442Y-110865518D01*
G37*
G36*
X89010442Y-110865518D02*
X89076627Y-110872037D01*
X89189853Y-110906384D01*
X89246467Y-110923557D01*
X89344695Y-110976062D01*
X89402991Y-111007222D01*
X89403255Y-111007439D01*
X89540186Y-111119814D01*
X89623448Y-111221271D01*
X89652778Y-111257009D01*
X89652779Y-111257011D01*
X89736443Y-111413533D01*
X89736443Y-111413534D01*
X89787963Y-111583373D01*
X89805359Y-111760000D01*
X89787963Y-111936627D01*
X89774479Y-111981078D01*
X89736443Y-112106467D01*
X89734202Y-112110659D01*
X89652778Y-112262991D01*
X89623448Y-112298729D01*
X89540186Y-112400186D01*
X89438729Y-112483448D01*
X89402991Y-112512778D01*
X89402989Y-112512779D01*
X89246467Y-112596443D01*
X89189853Y-112613616D01*
X89076627Y-112647963D01*
X89010442Y-112654482D01*
X88944260Y-112661000D01*
X88855740Y-112661000D01*
X88789558Y-112654482D01*
X88723373Y-112647963D01*
X88610147Y-112613616D01*
X88553533Y-112596443D01*
X88397011Y-112512779D01*
X88397009Y-112512778D01*
X88361271Y-112483448D01*
X88259814Y-112400186D01*
X88176552Y-112298729D01*
X88147222Y-112262991D01*
X88065798Y-112110659D01*
X88063557Y-112106467D01*
X88025521Y-111981078D01*
X88012037Y-111936627D01*
X87994641Y-111760000D01*
X88012037Y-111583373D01*
X88063557Y-111413534D01*
X88063557Y-111413533D01*
X88147221Y-111257011D01*
X88147222Y-111257009D01*
X88176552Y-111221271D01*
X88259814Y-111119814D01*
X88396745Y-111007439D01*
X88397009Y-111007222D01*
X88455305Y-110976062D01*
X88553533Y-110923557D01*
X88610147Y-110906384D01*
X88723373Y-110872037D01*
X88789558Y-110865518D01*
X88855740Y-110859000D01*
X88944260Y-110859000D01*
X89010442Y-110865518D01*
X89010442Y-110865518D01*
G37*
G36*
X78144821Y-110667313D02*
X78144824Y-110667314D01*
X78144825Y-110667314D01*
X78305239Y-110715975D01*
X78305241Y-110715976D01*
X78305244Y-110715977D01*
X78453078Y-110794995D01*
X78582659Y-110901341D01*
X78689005Y-111030922D01*
X78768023Y-111178756D01*
X78768024Y-111178759D01*
X78768025Y-111178761D01*
X78816686Y-111339175D01*
X78816687Y-111339179D01*
X78833117Y-111506000D01*
X78816687Y-111672821D01*
X78816686Y-111672824D01*
X78816686Y-111672825D01*
X78773559Y-111814996D01*
X78768023Y-111833244D01*
X78689005Y-111981078D01*
X78582659Y-112110659D01*
X78453078Y-112217005D01*
X78305244Y-112296023D01*
X78305241Y-112296024D01*
X78305239Y-112296025D01*
X78144825Y-112344686D01*
X78144824Y-112344686D01*
X78144821Y-112344687D01*
X78019804Y-112357000D01*
X77936196Y-112357000D01*
X77811179Y-112344687D01*
X77811176Y-112344686D01*
X77811175Y-112344686D01*
X77650761Y-112296025D01*
X77650759Y-112296024D01*
X77650756Y-112296023D01*
X77502922Y-112217005D01*
X77373341Y-112110659D01*
X77266995Y-111981078D01*
X77187977Y-111833244D01*
X77182442Y-111814996D01*
X77139314Y-111672825D01*
X77139314Y-111672824D01*
X77139313Y-111672821D01*
X77122883Y-111506000D01*
X77139313Y-111339179D01*
X77139314Y-111339175D01*
X77187975Y-111178761D01*
X77187976Y-111178759D01*
X77187977Y-111178756D01*
X77266995Y-111030922D01*
X77373341Y-110901341D01*
X77502922Y-110794995D01*
X77650756Y-110715977D01*
X77650759Y-110715976D01*
X77650761Y-110715975D01*
X77811175Y-110667314D01*
X77811176Y-110667314D01*
X77811179Y-110667313D01*
X77936196Y-110655000D01*
X78019804Y-110655000D01*
X78144821Y-110667313D01*
X78144821Y-110667313D01*
G37*
G36*
X106486000Y-112321000D02*
X104384000Y-112321000D01*
X104384000Y-110719000D01*
X106486000Y-110719000D01*
X106486000Y-112321000D01*
X106486000Y-112321000D01*
G37*
G36*
X94421000Y-112321000D02*
X92319000Y-112321000D01*
X92319000Y-110719000D01*
X94421000Y-110719000D01*
X94421000Y-112321000D01*
X94421000Y-112321000D01*
G37*
G36*
X112786000Y-111171000D02*
X110684000Y-111171000D01*
X110684000Y-107269000D01*
X112786000Y-107269000D01*
X112786000Y-111171000D01*
X112786000Y-111171000D01*
G37*
G36*
X100721000Y-111171000D02*
X98619000Y-111171000D01*
X98619000Y-107269000D01*
X100721000Y-107269000D01*
X100721000Y-111171000D01*
X100721000Y-111171000D01*
G37*
G36*
X83071562Y-109603681D02*
X83106477Y-109614273D01*
X83138665Y-109631478D01*
X83166873Y-109654627D01*
X83190022Y-109682835D01*
X83207227Y-109715023D01*
X83217819Y-109749938D01*
X83222000Y-109792395D01*
X83222000Y-110933605D01*
X83217819Y-110976062D01*
X83207227Y-111010977D01*
X83190022Y-111043165D01*
X83166873Y-111071373D01*
X83138665Y-111094522D01*
X83106477Y-111111727D01*
X83071562Y-111122319D01*
X83029105Y-111126500D01*
X81562895Y-111126500D01*
X81520438Y-111122319D01*
X81485523Y-111111727D01*
X81453335Y-111094522D01*
X81425127Y-111071373D01*
X81401978Y-111043165D01*
X81384773Y-111010977D01*
X81374181Y-110976062D01*
X81370000Y-110933605D01*
X81370000Y-109792395D01*
X81374181Y-109749938D01*
X81384773Y-109715023D01*
X81401978Y-109682835D01*
X81425127Y-109654627D01*
X81453335Y-109631478D01*
X81485523Y-109614273D01*
X81520438Y-109603681D01*
X81562895Y-109599500D01*
X83029105Y-109599500D01*
X83071562Y-109603681D01*
X83071562Y-109603681D01*
G37*
G36*
X126404821Y-109147313D02*
X126404824Y-109147314D01*
X126404825Y-109147314D01*
X126565239Y-109195975D01*
X126565241Y-109195976D01*
X126565244Y-109195977D01*
X126713078Y-109274995D01*
X126842659Y-109381341D01*
X126949005Y-109510922D01*
X127028023Y-109658756D01*
X127028024Y-109658759D01*
X127028025Y-109658761D01*
X127068562Y-109792395D01*
X127076687Y-109819179D01*
X127093117Y-109986000D01*
X127076687Y-110152821D01*
X127028023Y-110313244D01*
X126949005Y-110461078D01*
X126842659Y-110590659D01*
X126713078Y-110697005D01*
X126565244Y-110776023D01*
X126565241Y-110776024D01*
X126565239Y-110776025D01*
X126404825Y-110824686D01*
X126404824Y-110824686D01*
X126404821Y-110824687D01*
X126279804Y-110837000D01*
X126196196Y-110837000D01*
X126071179Y-110824687D01*
X126071176Y-110824686D01*
X126071175Y-110824686D01*
X125910761Y-110776025D01*
X125910759Y-110776024D01*
X125910756Y-110776023D01*
X125762922Y-110697005D01*
X125633341Y-110590659D01*
X125526995Y-110461078D01*
X125447977Y-110313244D01*
X125399313Y-110152821D01*
X125382883Y-109986000D01*
X125399313Y-109819179D01*
X125407438Y-109792395D01*
X125447975Y-109658761D01*
X125447976Y-109658759D01*
X125447977Y-109658756D01*
X125526995Y-109510922D01*
X125633341Y-109381341D01*
X125762922Y-109274995D01*
X125910756Y-109195977D01*
X125910759Y-109195976D01*
X125910761Y-109195975D01*
X126071175Y-109147314D01*
X126071176Y-109147314D01*
X126071179Y-109147313D01*
X126196196Y-109135000D01*
X126279804Y-109135000D01*
X126404821Y-109147313D01*
X126404821Y-109147313D01*
G37*
G36*
X117916000Y-110416000D02*
X115814000Y-110416000D01*
X115814000Y-108814000D01*
X117916000Y-108814000D01*
X117916000Y-110416000D01*
X117916000Y-110416000D01*
G37*
G36*
X89010443Y-108325519D02*
X89076627Y-108332037D01*
X89189853Y-108366384D01*
X89246467Y-108383557D01*
X89312775Y-108419000D01*
X89402991Y-108467222D01*
X89431869Y-108490922D01*
X89540186Y-108579814D01*
X89623448Y-108681271D01*
X89652778Y-108717009D01*
X89652779Y-108717011D01*
X89736443Y-108873533D01*
X89736443Y-108873534D01*
X89787963Y-109043373D01*
X89805359Y-109220000D01*
X89787963Y-109396627D01*
X89774479Y-109441078D01*
X89736443Y-109566467D01*
X89707886Y-109619892D01*
X89652778Y-109722991D01*
X89623448Y-109758729D01*
X89540186Y-109860186D01*
X89438729Y-109943448D01*
X89402991Y-109972778D01*
X89402989Y-109972779D01*
X89246467Y-110056443D01*
X89189853Y-110073616D01*
X89076627Y-110107963D01*
X89010443Y-110114481D01*
X88944260Y-110121000D01*
X88855740Y-110121000D01*
X88789557Y-110114481D01*
X88723373Y-110107963D01*
X88610147Y-110073616D01*
X88553533Y-110056443D01*
X88397011Y-109972779D01*
X88397009Y-109972778D01*
X88361271Y-109943448D01*
X88259814Y-109860186D01*
X88176552Y-109758729D01*
X88147222Y-109722991D01*
X88092114Y-109619892D01*
X88063557Y-109566467D01*
X88025521Y-109441078D01*
X88012037Y-109396627D01*
X87994641Y-109220000D01*
X88012037Y-109043373D01*
X88063557Y-108873534D01*
X88063557Y-108873533D01*
X88147221Y-108717011D01*
X88147222Y-108717009D01*
X88176552Y-108681271D01*
X88259814Y-108579814D01*
X88368131Y-108490922D01*
X88397009Y-108467222D01*
X88487225Y-108419000D01*
X88553533Y-108383557D01*
X88610147Y-108366384D01*
X88723373Y-108332037D01*
X88789557Y-108325519D01*
X88855740Y-108319000D01*
X88944260Y-108319000D01*
X89010443Y-108325519D01*
X89010443Y-108325519D01*
G37*
G36*
X86470443Y-108325519D02*
X86536627Y-108332037D01*
X86649853Y-108366384D01*
X86706467Y-108383557D01*
X86772775Y-108419000D01*
X86862991Y-108467222D01*
X86891869Y-108490922D01*
X87000186Y-108579814D01*
X87083448Y-108681271D01*
X87112778Y-108717009D01*
X87112779Y-108717011D01*
X87196443Y-108873533D01*
X87196443Y-108873534D01*
X87247963Y-109043373D01*
X87265359Y-109220000D01*
X87247963Y-109396627D01*
X87234479Y-109441078D01*
X87196443Y-109566467D01*
X87167886Y-109619892D01*
X87112778Y-109722991D01*
X87083448Y-109758729D01*
X87000186Y-109860186D01*
X86898729Y-109943448D01*
X86862991Y-109972778D01*
X86862989Y-109972779D01*
X86706467Y-110056443D01*
X86649853Y-110073616D01*
X86536627Y-110107963D01*
X86470443Y-110114481D01*
X86404260Y-110121000D01*
X86315740Y-110121000D01*
X86249557Y-110114481D01*
X86183373Y-110107963D01*
X86070147Y-110073616D01*
X86013533Y-110056443D01*
X85857011Y-109972779D01*
X85857009Y-109972778D01*
X85821271Y-109943448D01*
X85719814Y-109860186D01*
X85636552Y-109758729D01*
X85607222Y-109722991D01*
X85552114Y-109619892D01*
X85523557Y-109566467D01*
X85485521Y-109441078D01*
X85472037Y-109396627D01*
X85454641Y-109220000D01*
X85472037Y-109043373D01*
X85523557Y-108873534D01*
X85523557Y-108873533D01*
X85607221Y-108717011D01*
X85607222Y-108717009D01*
X85636552Y-108681271D01*
X85719814Y-108579814D01*
X85828131Y-108490922D01*
X85857009Y-108467222D01*
X85947225Y-108419000D01*
X86013533Y-108383557D01*
X86070147Y-108366384D01*
X86183373Y-108332037D01*
X86249557Y-108325519D01*
X86315740Y-108319000D01*
X86404260Y-108319000D01*
X86470443Y-108325519D01*
X86470443Y-108325519D01*
G37*
G36*
X106486000Y-110021000D02*
X104384000Y-110021000D01*
X104384000Y-108419000D01*
X106486000Y-108419000D01*
X106486000Y-110021000D01*
X106486000Y-110021000D01*
G37*
G36*
X94421000Y-110021000D02*
X92319000Y-110021000D01*
X92319000Y-108419000D01*
X94421000Y-108419000D01*
X94421000Y-110021000D01*
X94421000Y-110021000D01*
G37*
G36*
X78144821Y-108127313D02*
X78144824Y-108127314D01*
X78144825Y-108127314D01*
X78305239Y-108175975D01*
X78305241Y-108175976D01*
X78305244Y-108175977D01*
X78453078Y-108254995D01*
X78582659Y-108361341D01*
X78689005Y-108490922D01*
X78768023Y-108638756D01*
X78768024Y-108638759D01*
X78768025Y-108638761D01*
X78816686Y-108799175D01*
X78816687Y-108799179D01*
X78833117Y-108966000D01*
X78816687Y-109132821D01*
X78816686Y-109132824D01*
X78816686Y-109132825D01*
X78773559Y-109274996D01*
X78768023Y-109293244D01*
X78689005Y-109441078D01*
X78582659Y-109570659D01*
X78453078Y-109677005D01*
X78305244Y-109756023D01*
X78305241Y-109756024D01*
X78305239Y-109756025D01*
X78144825Y-109804686D01*
X78144824Y-109804686D01*
X78144821Y-109804687D01*
X78019804Y-109817000D01*
X77936196Y-109817000D01*
X77811179Y-109804687D01*
X77811176Y-109804686D01*
X77811175Y-109804686D01*
X77650761Y-109756025D01*
X77650759Y-109756024D01*
X77650756Y-109756023D01*
X77502922Y-109677005D01*
X77373341Y-109570659D01*
X77266995Y-109441078D01*
X77187977Y-109293244D01*
X77182442Y-109274996D01*
X77139314Y-109132825D01*
X77139314Y-109132824D01*
X77139313Y-109132821D01*
X77122883Y-108966000D01*
X77139313Y-108799179D01*
X77139314Y-108799175D01*
X77187975Y-108638761D01*
X77187976Y-108638759D01*
X77187977Y-108638756D01*
X77266995Y-108490922D01*
X77373341Y-108361341D01*
X77502922Y-108254995D01*
X77650756Y-108175977D01*
X77650759Y-108175976D01*
X77650761Y-108175975D01*
X77811175Y-108127314D01*
X77811176Y-108127314D01*
X77811179Y-108127313D01*
X77936196Y-108115000D01*
X78019804Y-108115000D01*
X78144821Y-108127313D01*
X78144821Y-108127313D01*
G37*
G36*
X124216000Y-109266000D02*
X122114000Y-109266000D01*
X122114000Y-105364000D01*
X124216000Y-105364000D01*
X124216000Y-109266000D01*
X124216000Y-109266000D01*
G37*
G36*
X126404821Y-106607313D02*
X126404824Y-106607314D01*
X126404825Y-106607314D01*
X126565239Y-106655975D01*
X126565241Y-106655976D01*
X126565244Y-106655977D01*
X126713078Y-106734995D01*
X126842659Y-106841341D01*
X126949005Y-106970922D01*
X127028023Y-107118756D01*
X127028024Y-107118759D01*
X127028025Y-107118761D01*
X127072291Y-107264686D01*
X127076687Y-107279179D01*
X127093117Y-107446000D01*
X127076687Y-107612821D01*
X127076686Y-107612824D01*
X127076686Y-107612825D01*
X127043872Y-107721000D01*
X127028023Y-107773244D01*
X126949005Y-107921078D01*
X126842659Y-108050659D01*
X126713078Y-108157005D01*
X126565244Y-108236023D01*
X126565241Y-108236024D01*
X126565239Y-108236025D01*
X126404825Y-108284686D01*
X126404824Y-108284686D01*
X126404821Y-108284687D01*
X126279804Y-108297000D01*
X126196196Y-108297000D01*
X126071179Y-108284687D01*
X126071176Y-108284686D01*
X126071175Y-108284686D01*
X125910761Y-108236025D01*
X125910759Y-108236024D01*
X125910756Y-108236023D01*
X125762922Y-108157005D01*
X125633341Y-108050659D01*
X125526995Y-107921078D01*
X125447977Y-107773244D01*
X125432129Y-107721000D01*
X125399314Y-107612825D01*
X125399314Y-107612824D01*
X125399313Y-107612821D01*
X125382883Y-107446000D01*
X125399313Y-107279179D01*
X125403709Y-107264686D01*
X125447975Y-107118761D01*
X125447976Y-107118759D01*
X125447977Y-107118756D01*
X125526995Y-106970922D01*
X125633341Y-106841341D01*
X125762922Y-106734995D01*
X125910756Y-106655977D01*
X125910759Y-106655976D01*
X125910761Y-106655975D01*
X126071175Y-106607314D01*
X126071176Y-106607314D01*
X126071179Y-106607313D01*
X126196196Y-106595000D01*
X126279804Y-106595000D01*
X126404821Y-106607313D01*
X126404821Y-106607313D01*
G37*
G36*
X83071562Y-106628681D02*
X83106477Y-106639273D01*
X83138665Y-106656478D01*
X83166873Y-106679627D01*
X83190022Y-106707835D01*
X83207227Y-106740023D01*
X83217819Y-106774938D01*
X83222000Y-106817395D01*
X83222000Y-107958605D01*
X83217819Y-108001062D01*
X83207227Y-108035977D01*
X83190022Y-108068165D01*
X83166873Y-108096373D01*
X83138665Y-108119522D01*
X83106477Y-108136727D01*
X83071562Y-108147319D01*
X83029105Y-108151500D01*
X81562895Y-108151500D01*
X81520438Y-108147319D01*
X81485523Y-108136727D01*
X81453335Y-108119522D01*
X81425127Y-108096373D01*
X81401978Y-108068165D01*
X81384773Y-108035977D01*
X81374181Y-108001062D01*
X81370000Y-107958605D01*
X81370000Y-106817395D01*
X81374181Y-106774938D01*
X81384773Y-106740023D01*
X81401978Y-106707835D01*
X81425127Y-106679627D01*
X81453335Y-106656478D01*
X81485523Y-106639273D01*
X81520438Y-106628681D01*
X81562895Y-106624500D01*
X83029105Y-106624500D01*
X83071562Y-106628681D01*
X83071562Y-106628681D01*
G37*
G36*
X117916000Y-108116000D02*
X115814000Y-108116000D01*
X115814000Y-106514000D01*
X117916000Y-106514000D01*
X117916000Y-108116000D01*
X117916000Y-108116000D01*
G37*
G36*
X106486000Y-107721000D02*
X104384000Y-107721000D01*
X104384000Y-106119000D01*
X106486000Y-106119000D01*
X106486000Y-107721000D01*
X106486000Y-107721000D01*
G37*
G36*
X94421000Y-107721000D02*
X92319000Y-107721000D01*
X92319000Y-106119000D01*
X94421000Y-106119000D01*
X94421000Y-107721000D01*
X94421000Y-107721000D01*
G37*
G36*
X86470443Y-105785519D02*
X86536627Y-105792037D01*
X86649853Y-105826384D01*
X86706467Y-105843557D01*
X86845087Y-105917652D01*
X86862991Y-105927222D01*
X86891869Y-105950922D01*
X87000186Y-106039814D01*
X87065171Y-106119000D01*
X87112778Y-106177009D01*
X87112779Y-106177011D01*
X87196443Y-106333533D01*
X87196443Y-106333534D01*
X87247963Y-106503373D01*
X87265359Y-106680000D01*
X87247963Y-106856627D01*
X87237113Y-106892395D01*
X87196443Y-107026467D01*
X87194202Y-107030659D01*
X87112778Y-107182991D01*
X87083448Y-107218729D01*
X87000186Y-107320186D01*
X86898729Y-107403448D01*
X86862991Y-107432778D01*
X86862989Y-107432779D01*
X86706467Y-107516443D01*
X86649853Y-107533616D01*
X86536627Y-107567963D01*
X86470443Y-107574481D01*
X86404260Y-107581000D01*
X86315740Y-107581000D01*
X86249557Y-107574481D01*
X86183373Y-107567963D01*
X86070147Y-107533616D01*
X86013533Y-107516443D01*
X85857011Y-107432779D01*
X85857009Y-107432778D01*
X85821271Y-107403448D01*
X85719814Y-107320186D01*
X85636552Y-107218729D01*
X85607222Y-107182991D01*
X85525798Y-107030659D01*
X85523557Y-107026467D01*
X85482887Y-106892395D01*
X85472037Y-106856627D01*
X85454641Y-106680000D01*
X85472037Y-106503373D01*
X85523557Y-106333534D01*
X85523557Y-106333533D01*
X85607221Y-106177011D01*
X85607222Y-106177009D01*
X85654829Y-106119000D01*
X85719814Y-106039814D01*
X85828131Y-105950922D01*
X85857009Y-105927222D01*
X85874913Y-105917652D01*
X86013533Y-105843557D01*
X86070147Y-105826384D01*
X86183373Y-105792037D01*
X86249557Y-105785519D01*
X86315740Y-105779000D01*
X86404260Y-105779000D01*
X86470443Y-105785519D01*
X86470443Y-105785519D01*
G37*
G36*
X89010443Y-105785519D02*
X89076627Y-105792037D01*
X89189853Y-105826384D01*
X89246467Y-105843557D01*
X89385087Y-105917652D01*
X89402991Y-105927222D01*
X89431869Y-105950922D01*
X89540186Y-106039814D01*
X89605171Y-106119000D01*
X89652778Y-106177009D01*
X89652779Y-106177011D01*
X89736443Y-106333533D01*
X89736443Y-106333534D01*
X89787963Y-106503373D01*
X89805359Y-106680000D01*
X89787963Y-106856627D01*
X89777113Y-106892395D01*
X89736443Y-107026467D01*
X89734202Y-107030659D01*
X89652778Y-107182991D01*
X89623448Y-107218729D01*
X89540186Y-107320186D01*
X89438729Y-107403448D01*
X89402991Y-107432778D01*
X89402989Y-107432779D01*
X89246467Y-107516443D01*
X89189853Y-107533616D01*
X89076627Y-107567963D01*
X89010443Y-107574481D01*
X88944260Y-107581000D01*
X88855740Y-107581000D01*
X88789557Y-107574481D01*
X88723373Y-107567963D01*
X88610147Y-107533616D01*
X88553533Y-107516443D01*
X88397011Y-107432779D01*
X88397009Y-107432778D01*
X88361271Y-107403448D01*
X88259814Y-107320186D01*
X88176552Y-107218729D01*
X88147222Y-107182991D01*
X88065798Y-107030659D01*
X88063557Y-107026467D01*
X88022887Y-106892395D01*
X88012037Y-106856627D01*
X87994641Y-106680000D01*
X88012037Y-106503373D01*
X88063557Y-106333534D01*
X88063557Y-106333533D01*
X88147221Y-106177011D01*
X88147222Y-106177009D01*
X88194829Y-106119000D01*
X88259814Y-106039814D01*
X88368131Y-105950922D01*
X88397009Y-105927222D01*
X88414913Y-105917652D01*
X88553533Y-105843557D01*
X88610147Y-105826384D01*
X88723373Y-105792037D01*
X88789557Y-105785519D01*
X88855740Y-105779000D01*
X88944260Y-105779000D01*
X89010443Y-105785519D01*
X89010443Y-105785519D01*
G37*
G36*
X78144821Y-105587313D02*
X78144824Y-105587314D01*
X78144825Y-105587314D01*
X78305239Y-105635975D01*
X78305241Y-105635976D01*
X78305244Y-105635977D01*
X78453078Y-105714995D01*
X78582659Y-105821341D01*
X78689005Y-105950922D01*
X78768023Y-106098756D01*
X78768024Y-106098759D01*
X78768025Y-106098761D01*
X78816686Y-106259175D01*
X78816687Y-106259179D01*
X78833117Y-106426000D01*
X78816687Y-106592821D01*
X78816686Y-106592824D01*
X78816686Y-106592825D01*
X78770961Y-106743561D01*
X78768023Y-106753244D01*
X78689005Y-106901078D01*
X78582659Y-107030659D01*
X78453078Y-107137005D01*
X78305244Y-107216023D01*
X78305241Y-107216024D01*
X78305239Y-107216025D01*
X78144825Y-107264686D01*
X78144824Y-107264686D01*
X78144821Y-107264687D01*
X78019804Y-107277000D01*
X77936196Y-107277000D01*
X77811179Y-107264687D01*
X77811176Y-107264686D01*
X77811175Y-107264686D01*
X77650761Y-107216025D01*
X77650759Y-107216024D01*
X77650756Y-107216023D01*
X77502922Y-107137005D01*
X77373341Y-107030659D01*
X77266995Y-106901078D01*
X77187977Y-106753244D01*
X77185040Y-106743561D01*
X77139314Y-106592825D01*
X77139314Y-106592824D01*
X77139313Y-106592821D01*
X77122883Y-106426000D01*
X77139313Y-106259179D01*
X77139314Y-106259175D01*
X77187975Y-106098761D01*
X77187976Y-106098759D01*
X77187977Y-106098756D01*
X77266995Y-105950922D01*
X77373341Y-105821341D01*
X77502922Y-105714995D01*
X77650756Y-105635977D01*
X77650759Y-105635976D01*
X77650761Y-105635975D01*
X77811175Y-105587314D01*
X77811176Y-105587314D01*
X77811179Y-105587313D01*
X77936196Y-105575000D01*
X78019804Y-105575000D01*
X78144821Y-105587313D01*
X78144821Y-105587313D01*
G37*
G36*
X117916000Y-105816000D02*
X115814000Y-105816000D01*
X115814000Y-104214000D01*
X117916000Y-104214000D01*
X117916000Y-105816000D01*
X117916000Y-105816000D01*
G37*
G36*
X126404821Y-104067313D02*
X126404824Y-104067314D01*
X126404825Y-104067314D01*
X126565239Y-104115975D01*
X126565241Y-104115976D01*
X126565244Y-104115977D01*
X126713078Y-104194995D01*
X126842659Y-104301341D01*
X126949005Y-104430922D01*
X127028023Y-104578756D01*
X127028024Y-104578759D01*
X127028025Y-104578761D01*
X127072291Y-104724686D01*
X127076687Y-104739179D01*
X127093117Y-104906000D01*
X127076687Y-105072821D01*
X127028023Y-105233244D01*
X126949005Y-105381078D01*
X126842659Y-105510659D01*
X126713078Y-105617005D01*
X126565244Y-105696023D01*
X126565241Y-105696024D01*
X126565239Y-105696025D01*
X126404825Y-105744686D01*
X126404824Y-105744686D01*
X126404821Y-105744687D01*
X126279804Y-105757000D01*
X126196196Y-105757000D01*
X126071179Y-105744687D01*
X126071176Y-105744686D01*
X126071175Y-105744686D01*
X125910761Y-105696025D01*
X125910759Y-105696024D01*
X125910756Y-105696023D01*
X125762922Y-105617005D01*
X125633341Y-105510659D01*
X125526995Y-105381078D01*
X125447977Y-105233244D01*
X125399313Y-105072821D01*
X125382883Y-104906000D01*
X125399313Y-104739179D01*
X125403709Y-104724686D01*
X125447975Y-104578761D01*
X125447976Y-104578759D01*
X125447977Y-104578756D01*
X125526995Y-104430922D01*
X125633341Y-104301341D01*
X125762922Y-104194995D01*
X125910756Y-104115977D01*
X125910759Y-104115976D01*
X125910761Y-104115975D01*
X126071175Y-104067314D01*
X126071176Y-104067314D01*
X126071179Y-104067313D01*
X126196196Y-104055000D01*
X126279804Y-104055000D01*
X126404821Y-104067313D01*
X126404821Y-104067313D01*
G37*
G36*
X78144821Y-103047313D02*
X78144824Y-103047314D01*
X78144825Y-103047314D01*
X78305239Y-103095975D01*
X78305241Y-103095976D01*
X78305244Y-103095977D01*
X78453078Y-103174995D01*
X78582659Y-103281341D01*
X78689005Y-103410922D01*
X78768023Y-103558756D01*
X78816687Y-103719179D01*
X78833117Y-103886000D01*
X78816687Y-104052821D01*
X78816686Y-104052824D01*
X78816686Y-104052825D01*
X78773559Y-104194996D01*
X78768023Y-104213244D01*
X78689005Y-104361078D01*
X78582659Y-104490659D01*
X78453078Y-104597005D01*
X78305244Y-104676023D01*
X78305241Y-104676024D01*
X78305239Y-104676025D01*
X78144825Y-104724686D01*
X78144824Y-104724686D01*
X78144821Y-104724687D01*
X78019804Y-104737000D01*
X77936196Y-104737000D01*
X77811179Y-104724687D01*
X77811176Y-104724686D01*
X77811175Y-104724686D01*
X77650761Y-104676025D01*
X77650759Y-104676024D01*
X77650756Y-104676023D01*
X77502922Y-104597005D01*
X77373341Y-104490659D01*
X77266995Y-104361078D01*
X77187977Y-104213244D01*
X77182442Y-104194996D01*
X77139314Y-104052825D01*
X77139314Y-104052824D01*
X77139313Y-104052821D01*
X77122883Y-103886000D01*
X77139313Y-103719179D01*
X77187977Y-103558756D01*
X77266995Y-103410922D01*
X77373341Y-103281341D01*
X77502922Y-103174995D01*
X77650756Y-103095977D01*
X77650759Y-103095976D01*
X77650761Y-103095975D01*
X77811175Y-103047314D01*
X77811176Y-103047314D01*
X77811179Y-103047313D01*
X77936196Y-103035000D01*
X78019804Y-103035000D01*
X78144821Y-103047313D01*
X78144821Y-103047313D01*
G37*
G36*
X86936562Y-102202181D02*
X86971477Y-102212773D01*
X87003665Y-102229978D01*
X87031873Y-102253127D01*
X87055022Y-102281335D01*
X87072227Y-102313523D01*
X87082819Y-102348438D01*
X87087000Y-102390895D01*
X87087000Y-103857105D01*
X87082819Y-103899562D01*
X87072227Y-103934477D01*
X87055022Y-103966665D01*
X87031873Y-103994873D01*
X87003665Y-104018022D01*
X86971477Y-104035227D01*
X86936562Y-104045819D01*
X86894105Y-104050000D01*
X85752895Y-104050000D01*
X85710438Y-104045819D01*
X85675523Y-104035227D01*
X85643335Y-104018022D01*
X85615127Y-103994873D01*
X85591978Y-103966665D01*
X85574773Y-103934477D01*
X85564181Y-103899562D01*
X85560000Y-103857105D01*
X85560000Y-102390895D01*
X85564181Y-102348438D01*
X85574773Y-102313523D01*
X85591978Y-102281335D01*
X85615127Y-102253127D01*
X85643335Y-102229978D01*
X85675523Y-102212773D01*
X85710438Y-102202181D01*
X85752895Y-102198000D01*
X86894105Y-102198000D01*
X86936562Y-102202181D01*
X86936562Y-102202181D01*
G37*
G36*
X83961562Y-102202181D02*
X83996477Y-102212773D01*
X84028665Y-102229978D01*
X84056873Y-102253127D01*
X84080022Y-102281335D01*
X84097227Y-102313523D01*
X84107819Y-102348438D01*
X84112000Y-102390895D01*
X84112000Y-103857105D01*
X84107819Y-103899562D01*
X84097227Y-103934477D01*
X84080022Y-103966665D01*
X84056873Y-103994873D01*
X84028665Y-104018022D01*
X83996477Y-104035227D01*
X83961562Y-104045819D01*
X83919105Y-104050000D01*
X82777895Y-104050000D01*
X82735438Y-104045819D01*
X82700523Y-104035227D01*
X82668335Y-104018022D01*
X82640127Y-103994873D01*
X82616978Y-103966665D01*
X82599773Y-103934477D01*
X82589181Y-103899562D01*
X82585000Y-103857105D01*
X82585000Y-102390895D01*
X82589181Y-102348438D01*
X82599773Y-102313523D01*
X82616978Y-102281335D01*
X82640127Y-102253127D01*
X82668335Y-102229978D01*
X82700523Y-102212773D01*
X82735438Y-102202181D01*
X82777895Y-102198000D01*
X83919105Y-102198000D01*
X83961562Y-102202181D01*
X83961562Y-102202181D01*
G37*
G36*
X126404821Y-101527313D02*
X126404824Y-101527314D01*
X126404825Y-101527314D01*
X126565239Y-101575975D01*
X126565241Y-101575976D01*
X126565244Y-101575977D01*
X126713078Y-101654995D01*
X126842659Y-101761341D01*
X126949005Y-101890922D01*
X127028023Y-102038756D01*
X127028024Y-102038759D01*
X127028025Y-102038761D01*
X127076686Y-102199175D01*
X127076687Y-102199179D01*
X127093117Y-102366000D01*
X127076687Y-102532821D01*
X127028023Y-102693244D01*
X126949005Y-102841078D01*
X126842659Y-102970659D01*
X126713078Y-103077005D01*
X126565244Y-103156023D01*
X126565241Y-103156024D01*
X126565239Y-103156025D01*
X126404825Y-103204686D01*
X126404824Y-103204686D01*
X126404821Y-103204687D01*
X126279804Y-103217000D01*
X126196196Y-103217000D01*
X126071179Y-103204687D01*
X126071176Y-103204686D01*
X126071175Y-103204686D01*
X125910761Y-103156025D01*
X125910759Y-103156024D01*
X125910756Y-103156023D01*
X125762922Y-103077005D01*
X125633341Y-102970659D01*
X125526995Y-102841078D01*
X125447977Y-102693244D01*
X125399313Y-102532821D01*
X125382883Y-102366000D01*
X125399313Y-102199179D01*
X125399314Y-102199175D01*
X125447975Y-102038761D01*
X125447976Y-102038759D01*
X125447977Y-102038756D01*
X125526995Y-101890922D01*
X125633341Y-101761341D01*
X125762922Y-101654995D01*
X125910756Y-101575977D01*
X125910759Y-101575976D01*
X125910761Y-101575975D01*
X126071175Y-101527314D01*
X126071176Y-101527314D01*
X126071179Y-101527313D01*
X126196196Y-101515000D01*
X126279804Y-101515000D01*
X126404821Y-101527313D01*
X126404821Y-101527313D01*
G37*
G36*
X78829000Y-102197000D02*
X77127000Y-102197000D01*
X77127000Y-100495000D01*
X78829000Y-100495000D01*
X78829000Y-102197000D01*
X78829000Y-102197000D01*
G37*
G36*
X126404821Y-98987313D02*
X126404824Y-98987314D01*
X126404825Y-98987314D01*
X126565239Y-99035975D01*
X126565241Y-99035976D01*
X126565244Y-99035977D01*
X126713078Y-99114995D01*
X126842659Y-99221341D01*
X126949005Y-99350922D01*
X127028023Y-99498756D01*
X127076687Y-99659179D01*
X127093117Y-99826000D01*
X127076687Y-99992821D01*
X127028023Y-100153244D01*
X126949005Y-100301078D01*
X126842659Y-100430659D01*
X126713078Y-100537005D01*
X126565244Y-100616023D01*
X126565241Y-100616024D01*
X126565239Y-100616025D01*
X126404825Y-100664686D01*
X126404824Y-100664686D01*
X126404821Y-100664687D01*
X126279804Y-100677000D01*
X126196196Y-100677000D01*
X126071179Y-100664687D01*
X126071176Y-100664686D01*
X126071175Y-100664686D01*
X125910761Y-100616025D01*
X125910759Y-100616024D01*
X125910756Y-100616023D01*
X125762922Y-100537005D01*
X125633341Y-100430659D01*
X125526995Y-100301078D01*
X125447977Y-100153244D01*
X125399313Y-99992821D01*
X125382883Y-99826000D01*
X125399313Y-99659179D01*
X125447977Y-99498756D01*
X125526995Y-99350922D01*
X125633341Y-99221341D01*
X125762922Y-99114995D01*
X125910756Y-99035977D01*
X125910759Y-99035976D01*
X125910761Y-99035975D01*
X126071175Y-98987314D01*
X126071176Y-98987314D01*
X126071179Y-98987313D01*
X126196196Y-98975000D01*
X126279804Y-98975000D01*
X126404821Y-98987313D01*
X126404821Y-98987313D01*
G37*
G36*
X126404821Y-96447313D02*
X126404824Y-96447314D01*
X126404825Y-96447314D01*
X126565239Y-96495975D01*
X126565241Y-96495976D01*
X126565244Y-96495977D01*
X126713078Y-96574995D01*
X126842659Y-96681341D01*
X126949005Y-96810922D01*
X127028023Y-96958756D01*
X127076687Y-97119179D01*
X127093117Y-97286000D01*
X127076687Y-97452821D01*
X127028023Y-97613244D01*
X126949005Y-97761078D01*
X126842659Y-97890659D01*
X126713078Y-97997005D01*
X126565244Y-98076023D01*
X126565241Y-98076024D01*
X126565239Y-98076025D01*
X126404825Y-98124686D01*
X126404824Y-98124686D01*
X126404821Y-98124687D01*
X126279804Y-98137000D01*
X126196196Y-98137000D01*
X126071179Y-98124687D01*
X126071176Y-98124686D01*
X126071175Y-98124686D01*
X125910761Y-98076025D01*
X125910759Y-98076024D01*
X125910756Y-98076023D01*
X125762922Y-97997005D01*
X125633341Y-97890659D01*
X125526995Y-97761078D01*
X125447977Y-97613244D01*
X125399313Y-97452821D01*
X125382883Y-97286000D01*
X125399313Y-97119179D01*
X125447977Y-96958756D01*
X125526995Y-96810922D01*
X125633341Y-96681341D01*
X125762922Y-96574995D01*
X125910756Y-96495977D01*
X125910759Y-96495976D01*
X125910761Y-96495975D01*
X126071175Y-96447314D01*
X126071176Y-96447314D01*
X126071179Y-96447313D01*
X126196196Y-96435000D01*
X126279804Y-96435000D01*
X126404821Y-96447313D01*
X126404821Y-96447313D01*
G37*
G36*
X89055764Y-94887308D02*
X89144220Y-94896020D01*
X89333381Y-94953401D01*
X89507712Y-95046583D01*
X89660515Y-95171985D01*
X89785917Y-95324788D01*
X89879099Y-95499119D01*
X89936480Y-95688280D01*
X89955855Y-95885000D01*
X89936480Y-96081720D01*
X89879099Y-96270881D01*
X89785917Y-96445212D01*
X89660515Y-96598015D01*
X89507712Y-96723417D01*
X89333381Y-96816599D01*
X89144220Y-96873980D01*
X89055764Y-96882692D01*
X88996796Y-96888500D01*
X88803204Y-96888500D01*
X88744236Y-96882692D01*
X88655780Y-96873980D01*
X88466619Y-96816599D01*
X88292288Y-96723417D01*
X88139485Y-96598015D01*
X88014083Y-96445212D01*
X87920901Y-96270881D01*
X87863520Y-96081720D01*
X87844145Y-95885000D01*
X87863520Y-95688280D01*
X87920901Y-95499119D01*
X88014083Y-95324788D01*
X88139485Y-95171985D01*
X88292288Y-95046583D01*
X88466619Y-94953401D01*
X88655780Y-94896020D01*
X88744236Y-94887308D01*
X88803204Y-94881500D01*
X88996796Y-94881500D01*
X89055764Y-94887308D01*
X89055764Y-94887308D01*
G37*
G36*
X95009562Y-95179681D02*
X95044477Y-95190273D01*
X95076665Y-95207478D01*
X95104873Y-95230627D01*
X95128022Y-95258835D01*
X95145227Y-95291023D01*
X95155819Y-95325938D01*
X95160000Y-95368395D01*
X95160000Y-96509605D01*
X95155819Y-96552062D01*
X95145227Y-96586977D01*
X95128022Y-96619165D01*
X95104873Y-96647373D01*
X95076665Y-96670522D01*
X95044477Y-96687727D01*
X95009562Y-96698319D01*
X94967105Y-96702500D01*
X93500895Y-96702500D01*
X93458438Y-96698319D01*
X93423523Y-96687727D01*
X93391335Y-96670522D01*
X93363127Y-96647373D01*
X93339978Y-96619165D01*
X93322773Y-96586977D01*
X93312181Y-96552062D01*
X93308000Y-96509605D01*
X93308000Y-95368395D01*
X93312181Y-95325938D01*
X93322773Y-95291023D01*
X93339978Y-95258835D01*
X93363127Y-95230627D01*
X93391335Y-95207478D01*
X93423523Y-95190273D01*
X93458438Y-95179681D01*
X93500895Y-95175500D01*
X94967105Y-95175500D01*
X95009562Y-95179681D01*
X95009562Y-95179681D01*
G37*
G36*
X79881485Y-93918996D02*
X79881487Y-93918997D01*
X79881488Y-93918997D01*
X80118255Y-94017069D01*
X80331342Y-94159449D01*
X80512551Y-94340658D01*
X80512553Y-94340661D01*
X80654931Y-94553745D01*
X80734566Y-94746000D01*
X80753004Y-94790515D01*
X80803000Y-95041861D01*
X80803000Y-95298139D01*
X80755682Y-95536023D01*
X80753003Y-95549488D01*
X80695512Y-95688283D01*
X80654931Y-95786255D01*
X80512551Y-95999342D01*
X80331342Y-96180551D01*
X80331339Y-96180553D01*
X80118255Y-96322931D01*
X79881488Y-96421003D01*
X79881487Y-96421003D01*
X79881485Y-96421004D01*
X79630139Y-96471000D01*
X79373861Y-96471000D01*
X79122515Y-96421004D01*
X79122513Y-96421003D01*
X79122512Y-96421003D01*
X78885745Y-96322931D01*
X78672661Y-96180553D01*
X78672658Y-96180551D01*
X78491449Y-95999342D01*
X78349069Y-95786255D01*
X78308488Y-95688283D01*
X78250997Y-95549488D01*
X78248319Y-95536023D01*
X78201000Y-95298139D01*
X78201000Y-95041861D01*
X78250996Y-94790515D01*
X78269435Y-94746000D01*
X78349069Y-94553745D01*
X78491447Y-94340661D01*
X78491449Y-94340658D01*
X78672658Y-94159449D01*
X78885745Y-94017069D01*
X79122512Y-93918997D01*
X79122513Y-93918997D01*
X79122515Y-93918996D01*
X79373861Y-93869000D01*
X79630139Y-93869000D01*
X79881485Y-93918996D01*
X79881485Y-93918996D01*
G37*
G36*
X116608000Y-96170000D02*
X115406000Y-96170000D01*
X115406000Y-87218000D01*
X116608000Y-87218000D01*
X116608000Y-96170000D01*
X116608000Y-96170000D01*
G37*
G36*
X110908000Y-96170000D02*
X109706000Y-96170000D01*
X109706000Y-87218000D01*
X110908000Y-87218000D01*
X110908000Y-96170000D01*
X110908000Y-96170000D01*
G37*
G36*
X126404821Y-93907313D02*
X126404824Y-93907314D01*
X126404825Y-93907314D01*
X126565239Y-93955975D01*
X126565241Y-93955976D01*
X126565244Y-93955977D01*
X126713078Y-94034995D01*
X126842659Y-94141341D01*
X126949005Y-94270922D01*
X127028023Y-94418756D01*
X127076687Y-94579179D01*
X127093117Y-94746000D01*
X127076687Y-94912821D01*
X127076686Y-94912824D01*
X127076686Y-94912825D01*
X127037543Y-95041863D01*
X127028023Y-95073244D01*
X126949005Y-95221078D01*
X126842659Y-95350659D01*
X126713078Y-95457005D01*
X126565244Y-95536023D01*
X126565241Y-95536024D01*
X126565239Y-95536025D01*
X126404825Y-95584686D01*
X126404824Y-95584686D01*
X126404821Y-95584687D01*
X126279804Y-95597000D01*
X126196196Y-95597000D01*
X126071179Y-95584687D01*
X126071176Y-95584686D01*
X126071175Y-95584686D01*
X125910761Y-95536025D01*
X125910759Y-95536024D01*
X125910756Y-95536023D01*
X125762922Y-95457005D01*
X125633341Y-95350659D01*
X125526995Y-95221078D01*
X125447977Y-95073244D01*
X125438458Y-95041863D01*
X125399314Y-94912825D01*
X125399314Y-94912824D01*
X125399313Y-94912821D01*
X125382883Y-94746000D01*
X125399313Y-94579179D01*
X125447977Y-94418756D01*
X125526995Y-94270922D01*
X125633341Y-94141341D01*
X125762922Y-94034995D01*
X125910756Y-93955977D01*
X125910759Y-93955976D01*
X125910761Y-93955975D01*
X126071175Y-93907314D01*
X126071176Y-93907314D01*
X126071179Y-93907313D01*
X126196196Y-93895000D01*
X126279804Y-93895000D01*
X126404821Y-93907313D01*
X126404821Y-93907313D01*
G37*
G36*
X89055764Y-92347308D02*
X89144220Y-92356020D01*
X89333381Y-92413401D01*
X89507712Y-92506583D01*
X89660515Y-92631985D01*
X89785917Y-92784788D01*
X89879099Y-92959119D01*
X89936480Y-93148280D01*
X89955855Y-93345000D01*
X89936480Y-93541720D01*
X89879099Y-93730881D01*
X89785917Y-93905212D01*
X89660515Y-94058015D01*
X89507712Y-94183417D01*
X89333381Y-94276599D01*
X89144220Y-94333980D01*
X89055764Y-94342692D01*
X88996796Y-94348500D01*
X88803204Y-94348500D01*
X88744236Y-94342692D01*
X88655780Y-94333980D01*
X88466619Y-94276599D01*
X88292288Y-94183417D01*
X88139485Y-94058015D01*
X88014083Y-93905212D01*
X87920901Y-93730881D01*
X87863520Y-93541720D01*
X87844145Y-93345000D01*
X87863520Y-93148280D01*
X87920901Y-92959119D01*
X88014083Y-92784788D01*
X88139485Y-92631985D01*
X88292288Y-92506583D01*
X88466619Y-92413401D01*
X88655780Y-92356020D01*
X88744236Y-92347308D01*
X88803204Y-92341500D01*
X88996796Y-92341500D01*
X89055764Y-92347308D01*
X89055764Y-92347308D01*
G37*
G36*
X120476677Y-92596465D02*
X120514364Y-92607898D01*
X120549103Y-92626466D01*
X120579548Y-92651452D01*
X120604534Y-92681897D01*
X120623102Y-92716636D01*
X120634535Y-92754323D01*
X120639000Y-92799661D01*
X120639000Y-93636339D01*
X120634535Y-93681677D01*
X120623102Y-93719364D01*
X120604534Y-93754103D01*
X120579548Y-93784548D01*
X120549103Y-93809534D01*
X120514364Y-93828102D01*
X120476677Y-93839535D01*
X120431339Y-93844000D01*
X119344661Y-93844000D01*
X119299323Y-93839535D01*
X119261636Y-93828102D01*
X119226897Y-93809534D01*
X119196452Y-93784548D01*
X119171466Y-93754103D01*
X119152898Y-93719364D01*
X119141465Y-93681677D01*
X119137000Y-93636339D01*
X119137000Y-92799661D01*
X119141465Y-92754323D01*
X119152898Y-92716636D01*
X119171466Y-92681897D01*
X119196452Y-92651452D01*
X119226897Y-92626466D01*
X119261636Y-92607898D01*
X119299323Y-92596465D01*
X119344661Y-92592000D01*
X120431339Y-92592000D01*
X120476677Y-92596465D01*
X120476677Y-92596465D01*
G37*
G36*
X95009562Y-92204681D02*
X95044477Y-92215273D01*
X95076665Y-92232478D01*
X95104873Y-92255627D01*
X95128022Y-92283835D01*
X95145227Y-92316023D01*
X95155819Y-92350938D01*
X95160000Y-92393395D01*
X95160000Y-93534605D01*
X95155819Y-93577062D01*
X95145227Y-93611977D01*
X95128022Y-93644165D01*
X95104873Y-93672373D01*
X95076665Y-93695522D01*
X95044477Y-93712727D01*
X95009562Y-93723319D01*
X94967105Y-93727500D01*
X93500895Y-93727500D01*
X93458438Y-93723319D01*
X93423523Y-93712727D01*
X93391335Y-93695522D01*
X93363127Y-93672373D01*
X93339978Y-93644165D01*
X93322773Y-93611977D01*
X93312181Y-93577062D01*
X93308000Y-93534605D01*
X93308000Y-92393395D01*
X93312181Y-92350938D01*
X93322773Y-92316023D01*
X93339978Y-92283835D01*
X93363127Y-92255627D01*
X93391335Y-92232478D01*
X93423523Y-92215273D01*
X93458438Y-92204681D01*
X93500895Y-92200500D01*
X94967105Y-92200500D01*
X95009562Y-92204681D01*
X95009562Y-92204681D01*
G37*
G36*
X126404821Y-91367313D02*
X126404824Y-91367314D01*
X126404825Y-91367314D01*
X126565239Y-91415975D01*
X126565241Y-91415976D01*
X126565244Y-91415977D01*
X126713078Y-91494995D01*
X126842659Y-91601341D01*
X126949005Y-91730922D01*
X127028023Y-91878756D01*
X127076687Y-92039179D01*
X127093117Y-92206000D01*
X127076687Y-92372821D01*
X127028023Y-92533244D01*
X126949005Y-92681078D01*
X126842659Y-92810659D01*
X126713078Y-92917005D01*
X126565244Y-92996023D01*
X126565241Y-92996024D01*
X126565239Y-92996025D01*
X126404825Y-93044686D01*
X126404824Y-93044686D01*
X126404821Y-93044687D01*
X126279804Y-93057000D01*
X126196196Y-93057000D01*
X126071179Y-93044687D01*
X126071176Y-93044686D01*
X126071175Y-93044686D01*
X125910761Y-92996025D01*
X125910759Y-92996024D01*
X125910756Y-92996023D01*
X125762922Y-92917005D01*
X125633341Y-92810659D01*
X125526995Y-92681078D01*
X125447977Y-92533244D01*
X125399313Y-92372821D01*
X125382883Y-92206000D01*
X125399313Y-92039179D01*
X125447977Y-91878756D01*
X125526995Y-91730922D01*
X125633341Y-91601341D01*
X125762922Y-91494995D01*
X125910756Y-91415977D01*
X125910759Y-91415976D01*
X125910761Y-91415975D01*
X126071175Y-91367314D01*
X126071176Y-91367314D01*
X126071179Y-91367313D01*
X126196196Y-91355000D01*
X126279804Y-91355000D01*
X126404821Y-91367313D01*
X126404821Y-91367313D01*
G37*
G36*
X89951000Y-91808500D02*
X87849000Y-91808500D01*
X87849000Y-89801500D01*
X89951000Y-89801500D01*
X89951000Y-91808500D01*
X89951000Y-91808500D01*
G37*
G36*
X120476677Y-90546465D02*
X120514364Y-90557898D01*
X120549103Y-90576466D01*
X120579548Y-90601452D01*
X120604534Y-90631897D01*
X120623102Y-90666636D01*
X120634535Y-90704323D01*
X120639000Y-90749661D01*
X120639000Y-91586339D01*
X120634535Y-91631677D01*
X120623102Y-91669364D01*
X120604534Y-91704103D01*
X120579548Y-91734548D01*
X120549103Y-91759534D01*
X120514364Y-91778102D01*
X120476677Y-91789535D01*
X120431339Y-91794000D01*
X119344661Y-91794000D01*
X119299323Y-91789535D01*
X119261636Y-91778102D01*
X119226897Y-91759534D01*
X119196452Y-91734548D01*
X119171466Y-91704103D01*
X119152898Y-91669364D01*
X119141465Y-91631677D01*
X119137000Y-91586339D01*
X119137000Y-90749661D01*
X119141465Y-90704323D01*
X119152898Y-90666636D01*
X119171466Y-90631897D01*
X119196452Y-90601452D01*
X119226897Y-90576466D01*
X119261636Y-90557898D01*
X119299323Y-90546465D01*
X119344661Y-90542000D01*
X120431339Y-90542000D01*
X120476677Y-90546465D01*
X120476677Y-90546465D01*
G37*
G36*
X80803000Y-91471000D02*
X78201000Y-91471000D01*
X78201000Y-88869000D01*
X80803000Y-88869000D01*
X80803000Y-91471000D01*
X80803000Y-91471000D01*
G37*
G36*
X95009562Y-88902681D02*
X95044477Y-88913273D01*
X95076665Y-88930478D01*
X95104873Y-88953627D01*
X95128022Y-88981835D01*
X95145227Y-89014023D01*
X95155819Y-89048938D01*
X95160000Y-89091395D01*
X95160000Y-90232605D01*
X95155819Y-90275062D01*
X95145227Y-90309977D01*
X95128022Y-90342165D01*
X95104873Y-90370373D01*
X95076665Y-90393522D01*
X95044477Y-90410727D01*
X95009562Y-90421319D01*
X94967105Y-90425500D01*
X93500895Y-90425500D01*
X93458438Y-90421319D01*
X93423523Y-90410727D01*
X93391335Y-90393522D01*
X93363127Y-90370373D01*
X93339978Y-90342165D01*
X93322773Y-90309977D01*
X93312181Y-90275062D01*
X93308000Y-90232605D01*
X93308000Y-89091395D01*
X93312181Y-89048938D01*
X93322773Y-89014023D01*
X93339978Y-88981835D01*
X93363127Y-88953627D01*
X93391335Y-88930478D01*
X93423523Y-88913273D01*
X93458438Y-88902681D01*
X93500895Y-88898500D01*
X94967105Y-88898500D01*
X95009562Y-88902681D01*
X95009562Y-88902681D01*
G37*
G36*
X120540177Y-87017465D02*
X120577864Y-87028898D01*
X120612603Y-87047466D01*
X120643048Y-87072452D01*
X120668034Y-87102897D01*
X120686602Y-87137636D01*
X120698035Y-87175323D01*
X120702500Y-87220661D01*
X120702500Y-88057339D01*
X120698035Y-88102677D01*
X120686602Y-88140364D01*
X120668034Y-88175103D01*
X120643048Y-88205548D01*
X120612603Y-88230534D01*
X120577864Y-88249102D01*
X120540177Y-88260535D01*
X120494839Y-88265000D01*
X119408161Y-88265000D01*
X119362823Y-88260535D01*
X119325136Y-88249102D01*
X119290397Y-88230534D01*
X119259952Y-88205548D01*
X119234966Y-88175103D01*
X119216398Y-88140364D01*
X119204965Y-88102677D01*
X119200500Y-88057339D01*
X119200500Y-87220661D01*
X119204965Y-87175323D01*
X119216398Y-87137636D01*
X119234966Y-87102897D01*
X119259952Y-87072452D01*
X119290397Y-87047466D01*
X119325136Y-87028898D01*
X119362823Y-87017465D01*
X119408161Y-87013000D01*
X120494839Y-87013000D01*
X120540177Y-87017465D01*
X120540177Y-87017465D01*
G37*
G36*
X123778677Y-87017465D02*
X123816364Y-87028898D01*
X123851103Y-87047466D01*
X123881548Y-87072452D01*
X123906534Y-87102897D01*
X123925102Y-87137636D01*
X123936535Y-87175323D01*
X123941000Y-87220661D01*
X123941000Y-88057339D01*
X123936535Y-88102677D01*
X123925102Y-88140364D01*
X123906534Y-88175103D01*
X123881548Y-88205548D01*
X123851103Y-88230534D01*
X123816364Y-88249102D01*
X123778677Y-88260535D01*
X123733339Y-88265000D01*
X122646661Y-88265000D01*
X122601323Y-88260535D01*
X122563636Y-88249102D01*
X122528897Y-88230534D01*
X122498452Y-88205548D01*
X122473466Y-88175103D01*
X122454898Y-88140364D01*
X122443465Y-88102677D01*
X122439000Y-88057339D01*
X122439000Y-87220661D01*
X122443465Y-87175323D01*
X122454898Y-87137636D01*
X122473466Y-87102897D01*
X122498452Y-87072452D01*
X122528897Y-87047466D01*
X122563636Y-87028898D01*
X122601323Y-87017465D01*
X122646661Y-87013000D01*
X123733339Y-87013000D01*
X123778677Y-87017465D01*
X123778677Y-87017465D01*
G37*
G36*
X95009562Y-85927681D02*
X95044477Y-85938273D01*
X95076665Y-85955478D01*
X95104873Y-85978627D01*
X95128022Y-86006835D01*
X95145227Y-86039023D01*
X95155819Y-86073938D01*
X95160000Y-86116395D01*
X95160000Y-87257605D01*
X95155819Y-87300062D01*
X95145227Y-87334977D01*
X95128022Y-87367165D01*
X95104873Y-87395373D01*
X95076665Y-87418522D01*
X95044477Y-87435727D01*
X95009562Y-87446319D01*
X94967105Y-87450500D01*
X93500895Y-87450500D01*
X93458438Y-87446319D01*
X93423523Y-87435727D01*
X93391335Y-87418522D01*
X93363127Y-87395373D01*
X93339978Y-87367165D01*
X93322773Y-87334977D01*
X93312181Y-87300062D01*
X93308000Y-87257605D01*
X93308000Y-86116395D01*
X93312181Y-86073938D01*
X93322773Y-86039023D01*
X93339978Y-86006835D01*
X93363127Y-85978627D01*
X93391335Y-85955478D01*
X93423523Y-85938273D01*
X93458438Y-85927681D01*
X93500895Y-85923500D01*
X94967105Y-85923500D01*
X95009562Y-85927681D01*
X95009562Y-85927681D01*
G37*
G36*
X123778677Y-84967465D02*
X123816364Y-84978898D01*
X123851103Y-84997466D01*
X123881548Y-85022452D01*
X123906534Y-85052897D01*
X123925102Y-85087636D01*
X123936535Y-85125323D01*
X123941000Y-85170661D01*
X123941000Y-86007339D01*
X123936535Y-86052677D01*
X123925102Y-86090364D01*
X123906534Y-86125103D01*
X123881548Y-86155548D01*
X123851103Y-86180534D01*
X123816364Y-86199102D01*
X123778677Y-86210535D01*
X123733339Y-86215000D01*
X122646661Y-86215000D01*
X122601323Y-86210535D01*
X122563636Y-86199102D01*
X122528897Y-86180534D01*
X122498452Y-86155548D01*
X122473466Y-86125103D01*
X122454898Y-86090364D01*
X122443465Y-86052677D01*
X122439000Y-86007339D01*
X122439000Y-85170661D01*
X122443465Y-85125323D01*
X122454898Y-85087636D01*
X122473466Y-85052897D01*
X122498452Y-85022452D01*
X122528897Y-84997466D01*
X122563636Y-84978898D01*
X122601323Y-84967465D01*
X122646661Y-84963000D01*
X123733339Y-84963000D01*
X123778677Y-84967465D01*
X123778677Y-84967465D01*
G37*
G36*
X120540177Y-84967465D02*
X120577864Y-84978898D01*
X120612603Y-84997466D01*
X120643048Y-85022452D01*
X120668034Y-85052897D01*
X120686602Y-85087636D01*
X120698035Y-85125323D01*
X120702500Y-85170661D01*
X120702500Y-86007339D01*
X120698035Y-86052677D01*
X120686602Y-86090364D01*
X120668034Y-86125103D01*
X120643048Y-86155548D01*
X120612603Y-86180534D01*
X120577864Y-86199102D01*
X120540177Y-86210535D01*
X120494839Y-86215000D01*
X119408161Y-86215000D01*
X119362823Y-86210535D01*
X119325136Y-86199102D01*
X119290397Y-86180534D01*
X119259952Y-86155548D01*
X119234966Y-86125103D01*
X119216398Y-86090364D01*
X119204965Y-86052677D01*
X119200500Y-86007339D01*
X119200500Y-85170661D01*
X119204965Y-85125323D01*
X119216398Y-85087636D01*
X119234966Y-85052897D01*
X119259952Y-85022452D01*
X119290397Y-84997466D01*
X119325136Y-84978898D01*
X119362823Y-84967465D01*
X119408161Y-84963000D01*
X120494839Y-84963000D01*
X120540177Y-84967465D01*
X120540177Y-84967465D01*
G37*
G36*
X112663562Y-82898181D02*
X112698477Y-82908773D01*
X112730665Y-82925978D01*
X112758873Y-82949127D01*
X112782022Y-82977335D01*
X112799227Y-83009523D01*
X112809819Y-83044438D01*
X112814000Y-83086895D01*
X112814000Y-84553105D01*
X112809819Y-84595562D01*
X112799227Y-84630477D01*
X112782022Y-84662665D01*
X112758873Y-84690873D01*
X112730665Y-84714022D01*
X112698477Y-84731227D01*
X112663562Y-84741819D01*
X112621105Y-84746000D01*
X111479895Y-84746000D01*
X111437438Y-84741819D01*
X111402523Y-84731227D01*
X111370335Y-84714022D01*
X111342127Y-84690873D01*
X111318978Y-84662665D01*
X111301773Y-84630477D01*
X111291181Y-84595562D01*
X111287000Y-84553105D01*
X111287000Y-83086895D01*
X111291181Y-83044438D01*
X111301773Y-83009523D01*
X111318978Y-82977335D01*
X111342127Y-82949127D01*
X111370335Y-82925978D01*
X111402523Y-82908773D01*
X111437438Y-82898181D01*
X111479895Y-82894000D01*
X112621105Y-82894000D01*
X112663562Y-82898181D01*
X112663562Y-82898181D01*
G37*
G36*
X115638562Y-82898181D02*
X115673477Y-82908773D01*
X115705665Y-82925978D01*
X115733873Y-82949127D01*
X115757022Y-82977335D01*
X115774227Y-83009523D01*
X115784819Y-83044438D01*
X115789000Y-83086895D01*
X115789000Y-84553105D01*
X115784819Y-84595562D01*
X115774227Y-84630477D01*
X115757022Y-84662665D01*
X115733873Y-84690873D01*
X115705665Y-84714022D01*
X115673477Y-84731227D01*
X115638562Y-84741819D01*
X115596105Y-84746000D01*
X114454895Y-84746000D01*
X114412438Y-84741819D01*
X114377523Y-84731227D01*
X114345335Y-84714022D01*
X114317127Y-84690873D01*
X114293978Y-84662665D01*
X114276773Y-84630477D01*
X114266181Y-84595562D01*
X114262000Y-84553105D01*
X114262000Y-83086895D01*
X114266181Y-83044438D01*
X114276773Y-83009523D01*
X114293978Y-82977335D01*
X114317127Y-82949127D01*
X114345335Y-82925978D01*
X114377523Y-82908773D01*
X114412438Y-82898181D01*
X114454895Y-82894000D01*
X115596105Y-82894000D01*
X115638562Y-82898181D01*
X115638562Y-82898181D01*
G37*
G36*
X79282228Y-78683703D02*
X79437100Y-78747853D01*
X79576481Y-78840985D01*
X79695015Y-78959519D01*
X79788147Y-79098900D01*
X79852297Y-79253772D01*
X79885000Y-79418184D01*
X79885000Y-79585816D01*
X79852297Y-79750228D01*
X79788147Y-79905100D01*
X79695015Y-80044481D01*
X79576481Y-80163015D01*
X79437100Y-80256147D01*
X79282228Y-80320297D01*
X79117816Y-80353000D01*
X78950184Y-80353000D01*
X78785772Y-80320297D01*
X78630900Y-80256147D01*
X78491519Y-80163015D01*
X78372985Y-80044481D01*
X78279853Y-79905100D01*
X78215703Y-79750228D01*
X78183000Y-79585816D01*
X78183000Y-79418184D01*
X78215703Y-79253772D01*
X78279853Y-79098900D01*
X78372985Y-78959519D01*
X78491519Y-78840985D01*
X78630900Y-78747853D01*
X78785772Y-78683703D01*
X78950184Y-78651000D01*
X79117816Y-78651000D01*
X79282228Y-78683703D01*
X79282228Y-78683703D01*
G37*
G36*
X82385000Y-80353000D02*
X80683000Y-80353000D01*
X80683000Y-78651000D01*
X82385000Y-78651000D01*
X82385000Y-80353000D01*
X82385000Y-80353000D01*
G37*
G36*
X124295000Y-80353000D02*
X122593000Y-80353000D01*
X122593000Y-78651000D01*
X124295000Y-78651000D01*
X124295000Y-80353000D01*
X124295000Y-80353000D01*
G37*
G36*
X107141677Y-77991465D02*
X107179364Y-78002898D01*
X107214103Y-78021466D01*
X107244548Y-78046452D01*
X107269534Y-78076897D01*
X107288102Y-78111636D01*
X107299535Y-78149323D01*
X107304000Y-78194661D01*
X107304000Y-79031339D01*
X107299535Y-79076677D01*
X107288102Y-79114364D01*
X107269534Y-79149103D01*
X107244548Y-79179548D01*
X107214103Y-79204534D01*
X107179364Y-79223102D01*
X107141677Y-79234535D01*
X107096339Y-79239000D01*
X106009661Y-79239000D01*
X105964323Y-79234535D01*
X105926636Y-79223102D01*
X105891897Y-79204534D01*
X105861452Y-79179548D01*
X105836466Y-79149103D01*
X105817898Y-79114364D01*
X105806465Y-79076677D01*
X105802000Y-79031339D01*
X105802000Y-78194661D01*
X105806465Y-78149323D01*
X105817898Y-78111636D01*
X105836466Y-78076897D01*
X105861452Y-78046452D01*
X105891897Y-78021466D01*
X105926636Y-78002898D01*
X105964323Y-77991465D01*
X106009661Y-77987000D01*
X107096339Y-77987000D01*
X107141677Y-77991465D01*
X107141677Y-77991465D01*
G37*
G36*
X103712677Y-77991465D02*
X103750364Y-78002898D01*
X103785103Y-78021466D01*
X103815548Y-78046452D01*
X103840534Y-78076897D01*
X103859102Y-78111636D01*
X103870535Y-78149323D01*
X103875000Y-78194661D01*
X103875000Y-79031339D01*
X103870535Y-79076677D01*
X103859102Y-79114364D01*
X103840534Y-79149103D01*
X103815548Y-79179548D01*
X103785103Y-79204534D01*
X103750364Y-79223102D01*
X103712677Y-79234535D01*
X103667339Y-79239000D01*
X102580661Y-79239000D01*
X102535323Y-79234535D01*
X102497636Y-79223102D01*
X102462897Y-79204534D01*
X102432452Y-79179548D01*
X102407466Y-79149103D01*
X102388898Y-79114364D01*
X102377465Y-79076677D01*
X102373000Y-79031339D01*
X102373000Y-78194661D01*
X102377465Y-78149323D01*
X102388898Y-78111636D01*
X102407466Y-78076897D01*
X102432452Y-78046452D01*
X102462897Y-78021466D01*
X102497636Y-78002898D01*
X102535323Y-77991465D01*
X102580661Y-77987000D01*
X103667339Y-77987000D01*
X103712677Y-77991465D01*
X103712677Y-77991465D01*
G37*
G36*
X110570677Y-77991465D02*
X110608364Y-78002898D01*
X110643103Y-78021466D01*
X110673548Y-78046452D01*
X110698534Y-78076897D01*
X110717102Y-78111636D01*
X110728535Y-78149323D01*
X110733000Y-78194661D01*
X110733000Y-79031339D01*
X110728535Y-79076677D01*
X110717102Y-79114364D01*
X110698534Y-79149103D01*
X110673548Y-79179548D01*
X110643103Y-79204534D01*
X110608364Y-79223102D01*
X110570677Y-79234535D01*
X110525339Y-79239000D01*
X109438661Y-79239000D01*
X109393323Y-79234535D01*
X109355636Y-79223102D01*
X109320897Y-79204534D01*
X109290452Y-79179548D01*
X109265466Y-79149103D01*
X109246898Y-79114364D01*
X109235465Y-79076677D01*
X109231000Y-79031339D01*
X109231000Y-78194661D01*
X109235465Y-78149323D01*
X109246898Y-78111636D01*
X109265466Y-78076897D01*
X109290452Y-78046452D01*
X109320897Y-78021466D01*
X109355636Y-78002898D01*
X109393323Y-77991465D01*
X109438661Y-77987000D01*
X110525339Y-77987000D01*
X110570677Y-77991465D01*
X110570677Y-77991465D01*
G37*
G36*
X113999677Y-77991465D02*
X114037364Y-78002898D01*
X114072103Y-78021466D01*
X114102548Y-78046452D01*
X114127534Y-78076897D01*
X114146102Y-78111636D01*
X114157535Y-78149323D01*
X114162000Y-78194661D01*
X114162000Y-79031339D01*
X114157535Y-79076677D01*
X114146102Y-79114364D01*
X114127534Y-79149103D01*
X114102548Y-79179548D01*
X114072103Y-79204534D01*
X114037364Y-79223102D01*
X113999677Y-79234535D01*
X113954339Y-79239000D01*
X112867661Y-79239000D01*
X112822323Y-79234535D01*
X112784636Y-79223102D01*
X112749897Y-79204534D01*
X112719452Y-79179548D01*
X112694466Y-79149103D01*
X112675898Y-79114364D01*
X112664465Y-79076677D01*
X112660000Y-79031339D01*
X112660000Y-78194661D01*
X112664465Y-78149323D01*
X112675898Y-78111636D01*
X112694466Y-78076897D01*
X112719452Y-78046452D01*
X112749897Y-78021466D01*
X112784636Y-78002898D01*
X112822323Y-77991465D01*
X112867661Y-77987000D01*
X113954339Y-77987000D01*
X113999677Y-77991465D01*
X113999677Y-77991465D01*
G37*
G36*
X117428677Y-77991465D02*
X117466364Y-78002898D01*
X117501103Y-78021466D01*
X117531548Y-78046452D01*
X117556534Y-78076897D01*
X117575102Y-78111636D01*
X117586535Y-78149323D01*
X117591000Y-78194661D01*
X117591000Y-79031339D01*
X117586535Y-79076677D01*
X117575102Y-79114364D01*
X117556534Y-79149103D01*
X117531548Y-79179548D01*
X117501103Y-79204534D01*
X117466364Y-79223102D01*
X117428677Y-79234535D01*
X117383339Y-79239000D01*
X116296661Y-79239000D01*
X116251323Y-79234535D01*
X116213636Y-79223102D01*
X116178897Y-79204534D01*
X116148452Y-79179548D01*
X116123466Y-79149103D01*
X116104898Y-79114364D01*
X116093465Y-79076677D01*
X116089000Y-79031339D01*
X116089000Y-78194661D01*
X116093465Y-78149323D01*
X116104898Y-78111636D01*
X116123466Y-78076897D01*
X116148452Y-78046452D01*
X116178897Y-78021466D01*
X116213636Y-78002898D01*
X116251323Y-77991465D01*
X116296661Y-77987000D01*
X117383339Y-77987000D01*
X117428677Y-77991465D01*
X117428677Y-77991465D01*
G37*
G36*
X123692228Y-76183703D02*
X123847100Y-76247853D01*
X123986481Y-76340985D01*
X124105015Y-76459519D01*
X124198147Y-76598900D01*
X124262297Y-76753772D01*
X124295000Y-76918184D01*
X124295000Y-77085816D01*
X124262297Y-77250228D01*
X124198147Y-77405100D01*
X124105015Y-77544481D01*
X123986481Y-77663015D01*
X123847100Y-77756147D01*
X123692228Y-77820297D01*
X123527816Y-77853000D01*
X123360184Y-77853000D01*
X123195772Y-77820297D01*
X123040900Y-77756147D01*
X122901519Y-77663015D01*
X122782985Y-77544481D01*
X122689853Y-77405100D01*
X122625703Y-77250228D01*
X122593000Y-77085816D01*
X122593000Y-76918184D01*
X122625703Y-76753772D01*
X122689853Y-76598900D01*
X122782985Y-76459519D01*
X122901519Y-76340985D01*
X123040900Y-76247853D01*
X123195772Y-76183703D01*
X123360184Y-76151000D01*
X123527816Y-76151000D01*
X123692228Y-76183703D01*
X123692228Y-76183703D01*
G37*
G36*
X117428677Y-75941465D02*
X117466364Y-75952898D01*
X117501103Y-75971466D01*
X117531548Y-75996452D01*
X117556534Y-76026897D01*
X117575102Y-76061636D01*
X117586535Y-76099323D01*
X117591000Y-76144661D01*
X117591000Y-76981339D01*
X117586535Y-77026677D01*
X117575102Y-77064364D01*
X117556534Y-77099103D01*
X117531548Y-77129548D01*
X117501103Y-77154534D01*
X117466364Y-77173102D01*
X117428677Y-77184535D01*
X117383339Y-77189000D01*
X116296661Y-77189000D01*
X116251323Y-77184535D01*
X116213636Y-77173102D01*
X116178897Y-77154534D01*
X116148452Y-77129548D01*
X116123466Y-77099103D01*
X116104898Y-77064364D01*
X116093465Y-77026677D01*
X116089000Y-76981339D01*
X116089000Y-76144661D01*
X116093465Y-76099323D01*
X116104898Y-76061636D01*
X116123466Y-76026897D01*
X116148452Y-75996452D01*
X116178897Y-75971466D01*
X116213636Y-75952898D01*
X116251323Y-75941465D01*
X116296661Y-75937000D01*
X117383339Y-75937000D01*
X117428677Y-75941465D01*
X117428677Y-75941465D01*
G37*
G36*
X113999677Y-75941465D02*
X114037364Y-75952898D01*
X114072103Y-75971466D01*
X114102548Y-75996452D01*
X114127534Y-76026897D01*
X114146102Y-76061636D01*
X114157535Y-76099323D01*
X114162000Y-76144661D01*
X114162000Y-76981339D01*
X114157535Y-77026677D01*
X114146102Y-77064364D01*
X114127534Y-77099103D01*
X114102548Y-77129548D01*
X114072103Y-77154534D01*
X114037364Y-77173102D01*
X113999677Y-77184535D01*
X113954339Y-77189000D01*
X112867661Y-77189000D01*
X112822323Y-77184535D01*
X112784636Y-77173102D01*
X112749897Y-77154534D01*
X112719452Y-77129548D01*
X112694466Y-77099103D01*
X112675898Y-77064364D01*
X112664465Y-77026677D01*
X112660000Y-76981339D01*
X112660000Y-76144661D01*
X112664465Y-76099323D01*
X112675898Y-76061636D01*
X112694466Y-76026897D01*
X112719452Y-75996452D01*
X112749897Y-75971466D01*
X112784636Y-75952898D01*
X112822323Y-75941465D01*
X112867661Y-75937000D01*
X113954339Y-75937000D01*
X113999677Y-75941465D01*
X113999677Y-75941465D01*
G37*
G36*
X110570677Y-75941465D02*
X110608364Y-75952898D01*
X110643103Y-75971466D01*
X110673548Y-75996452D01*
X110698534Y-76026897D01*
X110717102Y-76061636D01*
X110728535Y-76099323D01*
X110733000Y-76144661D01*
X110733000Y-76981339D01*
X110728535Y-77026677D01*
X110717102Y-77064364D01*
X110698534Y-77099103D01*
X110673548Y-77129548D01*
X110643103Y-77154534D01*
X110608364Y-77173102D01*
X110570677Y-77184535D01*
X110525339Y-77189000D01*
X109438661Y-77189000D01*
X109393323Y-77184535D01*
X109355636Y-77173102D01*
X109320897Y-77154534D01*
X109290452Y-77129548D01*
X109265466Y-77099103D01*
X109246898Y-77064364D01*
X109235465Y-77026677D01*
X109231000Y-76981339D01*
X109231000Y-76144661D01*
X109235465Y-76099323D01*
X109246898Y-76061636D01*
X109265466Y-76026897D01*
X109290452Y-75996452D01*
X109320897Y-75971466D01*
X109355636Y-75952898D01*
X109393323Y-75941465D01*
X109438661Y-75937000D01*
X110525339Y-75937000D01*
X110570677Y-75941465D01*
X110570677Y-75941465D01*
G37*
G36*
X107141677Y-75941465D02*
X107179364Y-75952898D01*
X107214103Y-75971466D01*
X107244548Y-75996452D01*
X107269534Y-76026897D01*
X107288102Y-76061636D01*
X107299535Y-76099323D01*
X107304000Y-76144661D01*
X107304000Y-76981339D01*
X107299535Y-77026677D01*
X107288102Y-77064364D01*
X107269534Y-77099103D01*
X107244548Y-77129548D01*
X107214103Y-77154534D01*
X107179364Y-77173102D01*
X107141677Y-77184535D01*
X107096339Y-77189000D01*
X106009661Y-77189000D01*
X105964323Y-77184535D01*
X105926636Y-77173102D01*
X105891897Y-77154534D01*
X105861452Y-77129548D01*
X105836466Y-77099103D01*
X105817898Y-77064364D01*
X105806465Y-77026677D01*
X105802000Y-76981339D01*
X105802000Y-76144661D01*
X105806465Y-76099323D01*
X105817898Y-76061636D01*
X105836466Y-76026897D01*
X105861452Y-75996452D01*
X105891897Y-75971466D01*
X105926636Y-75952898D01*
X105964323Y-75941465D01*
X106009661Y-75937000D01*
X107096339Y-75937000D01*
X107141677Y-75941465D01*
X107141677Y-75941465D01*
G37*
G36*
X103712677Y-75941465D02*
X103750364Y-75952898D01*
X103785103Y-75971466D01*
X103815548Y-75996452D01*
X103840534Y-76026897D01*
X103859102Y-76061636D01*
X103870535Y-76099323D01*
X103875000Y-76144661D01*
X103875000Y-76981339D01*
X103870535Y-77026677D01*
X103859102Y-77064364D01*
X103840534Y-77099103D01*
X103815548Y-77129548D01*
X103785103Y-77154534D01*
X103750364Y-77173102D01*
X103712677Y-77184535D01*
X103667339Y-77189000D01*
X102580661Y-77189000D01*
X102535323Y-77184535D01*
X102497636Y-77173102D01*
X102462897Y-77154534D01*
X102432452Y-77129548D01*
X102407466Y-77099103D01*
X102388898Y-77064364D01*
X102377465Y-77026677D01*
X102373000Y-76981339D01*
X102373000Y-76144661D01*
X102377465Y-76099323D01*
X102388898Y-76061636D01*
X102407466Y-76026897D01*
X102432452Y-75996452D01*
X102462897Y-75971466D01*
X102497636Y-75952898D01*
X102535323Y-75941465D01*
X102580661Y-75937000D01*
X103667339Y-75937000D01*
X103712677Y-75941465D01*
X103712677Y-75941465D01*
G37*
G36*
X89770015Y-74386973D02*
X89873879Y-74418479D01*
X89969600Y-74469644D01*
X90053501Y-74538499D01*
X90122356Y-74622400D01*
X90173521Y-74718121D01*
X90177383Y-74730854D01*
X90186760Y-74753493D01*
X90200374Y-74773867D01*
X90217701Y-74791194D01*
X90238076Y-74804808D01*
X90260715Y-74814186D01*
X90284748Y-74818966D01*
X90309252Y-74818966D01*
X90333286Y-74814185D01*
X90355925Y-74804808D01*
X90376299Y-74791194D01*
X90393626Y-74773867D01*
X90407240Y-74753492D01*
X90416617Y-74730854D01*
X90420479Y-74718121D01*
X90471644Y-74622400D01*
X90540499Y-74538499D01*
X90624400Y-74469644D01*
X90720121Y-74418479D01*
X90823985Y-74386973D01*
X90904933Y-74379000D01*
X90959067Y-74379000D01*
X91040015Y-74386973D01*
X91143879Y-74418479D01*
X91239600Y-74469644D01*
X91323501Y-74538499D01*
X91392356Y-74622400D01*
X91443521Y-74718121D01*
X91447383Y-74730854D01*
X91456760Y-74753493D01*
X91470374Y-74773867D01*
X91487701Y-74791194D01*
X91508076Y-74804808D01*
X91530715Y-74814186D01*
X91554748Y-74818966D01*
X91579252Y-74818966D01*
X91603286Y-74814185D01*
X91625925Y-74804808D01*
X91646299Y-74791194D01*
X91663626Y-74773867D01*
X91677240Y-74753492D01*
X91686617Y-74730854D01*
X91690479Y-74718121D01*
X91741644Y-74622400D01*
X91810499Y-74538499D01*
X91894400Y-74469644D01*
X91990121Y-74418479D01*
X92093985Y-74386973D01*
X92174933Y-74379000D01*
X92229067Y-74379000D01*
X92310015Y-74386973D01*
X92413879Y-74418479D01*
X92509600Y-74469644D01*
X92593501Y-74538499D01*
X92662356Y-74622400D01*
X92685766Y-74666195D01*
X92699374Y-74686561D01*
X92716701Y-74703889D01*
X92737076Y-74717502D01*
X92759715Y-74726880D01*
X92783748Y-74731660D01*
X92808252Y-74731660D01*
X92832286Y-74726879D01*
X92854925Y-74717502D01*
X92875299Y-74703888D01*
X92892627Y-74686561D01*
X92906240Y-74666186D01*
X92915618Y-74643547D01*
X92921000Y-74607262D01*
X92921000Y-74379000D01*
X94023000Y-74379000D01*
X94023000Y-75481000D01*
X92921000Y-75481000D01*
X92921000Y-75252738D01*
X92918598Y-75228352D01*
X92911485Y-75204903D01*
X92899934Y-75183292D01*
X92884388Y-75164350D01*
X92865446Y-75148804D01*
X92843835Y-75137253D01*
X92820386Y-75130140D01*
X92796000Y-75127738D01*
X92771614Y-75130140D01*
X92748165Y-75137253D01*
X92726554Y-75148804D01*
X92707612Y-75164350D01*
X92685764Y-75193808D01*
X92662356Y-75237600D01*
X92593501Y-75321501D01*
X92509600Y-75390356D01*
X92413879Y-75441521D01*
X92310015Y-75473027D01*
X92229067Y-75481000D01*
X92174933Y-75481000D01*
X92093985Y-75473027D01*
X91990121Y-75441521D01*
X91894400Y-75390356D01*
X91810499Y-75321501D01*
X91741644Y-75237600D01*
X91690479Y-75141879D01*
X91686615Y-75129142D01*
X91677240Y-75106507D01*
X91663626Y-75086133D01*
X91646299Y-75068806D01*
X91625924Y-75055192D01*
X91603285Y-75045814D01*
X91579252Y-75041034D01*
X91554748Y-75041034D01*
X91530714Y-75045815D01*
X91508075Y-75055192D01*
X91487701Y-75068806D01*
X91470374Y-75086133D01*
X91456760Y-75106508D01*
X91447385Y-75129142D01*
X91443521Y-75141879D01*
X91392356Y-75237600D01*
X91323501Y-75321501D01*
X91239600Y-75390356D01*
X91143879Y-75441521D01*
X91040015Y-75473027D01*
X90959067Y-75481000D01*
X90904933Y-75481000D01*
X90823985Y-75473027D01*
X90720121Y-75441521D01*
X90624400Y-75390356D01*
X90540499Y-75321501D01*
X90471644Y-75237600D01*
X90420479Y-75141879D01*
X90416615Y-75129142D01*
X90407240Y-75106507D01*
X90393626Y-75086133D01*
X90376299Y-75068806D01*
X90355924Y-75055192D01*
X90333285Y-75045814D01*
X90309252Y-75041034D01*
X90284748Y-75041034D01*
X90260714Y-75045815D01*
X90238075Y-75055192D01*
X90217701Y-75068806D01*
X90200374Y-75086133D01*
X90186760Y-75106508D01*
X90177385Y-75129142D01*
X90173521Y-75141879D01*
X90122356Y-75237600D01*
X90053501Y-75321501D01*
X89969600Y-75390356D01*
X89873879Y-75441521D01*
X89770015Y-75473027D01*
X89689067Y-75481000D01*
X89634933Y-75481000D01*
X89553985Y-75473027D01*
X89450121Y-75441521D01*
X89354400Y-75390356D01*
X89270499Y-75321501D01*
X89201644Y-75237600D01*
X89150479Y-75141879D01*
X89118973Y-75038015D01*
X89108334Y-74930000D01*
X89118973Y-74821985D01*
X89150479Y-74718121D01*
X89201644Y-74622400D01*
X89270499Y-74538499D01*
X89354400Y-74469644D01*
X89450121Y-74418479D01*
X89553985Y-74386973D01*
X89634933Y-74379000D01*
X89689067Y-74379000D01*
X89770015Y-74386973D01*
X89770015Y-74386973D01*
G37*
M02*
